/* XPM */
static char *result[] = {
/* columns rows colors chars-per-pixel */
"64 64 256 2 ",
"   c #070908",
".  c #160709",
"X  c #041408",
"o  c #070A18",
"O  c #160717",
"+  c #031A16",
"@  c #081519",
"#  c #041B1B",
"$  c #14161A",
"%  c #2C171C",
"&  c #042219",
"*  c #081825",
"=  c #0E1228",
"-  c #141826",
";  c #032423",
":  c #052828",
">  c #142729",
",  c #0D382B",
"<  c #072A37",
"1  c #162834",
"2  c #073639",
"3  c #163836",
"4  c #2E3A34",
"5  c #4E3A10",
"6  c #483A32",
"7  c #0D432C",
"8  c #07463D",
"9  c #15483C",
"0  c #334832",
"q  c #6E520E",
"w  c #755000",
"e  c #7A5500",
"r  c #544F34",
"t  c #615D2D",
"y  c #093B48",
"u  c #153A45",
"i  c #11354B",
"p  c #293B46",
"a  c #2E3948",
"s  c #074646",
"d  c #174847",
"f  c #155549",
"g  c #094654",
"h  c #184B57",
"j  c #0B5756",
"k  c #16575A",
"l  c #264548",
"z  c #275658",
"x  c #315051",
"c  c #38585A",
"v  c #116257",
"b  c #17665C",
"n  c #2A655A",
"m  c #2B6A5C",
"M  c #0C5C63",
"N  c #175A65",
"B  c #0D5F70",
"V  c #335963",
"C  c #086467",
"Z  c #176869",
"A  c #097B69",
"S  c #157965",
"D  c #0B6D75",
"F  c #186A75",
"G  c #087776",
"H  c #057B7B",
"J  c #0C7C7B",
"K  c #187678",
"L  c #137B7D",
"P  c #366767",
"I  c #2B706C",
"U  c #256D74",
"Y  c #247578",
"T  c #4C5250",
"R  c #445658",
"E  c #606D5D",
"W  c #495861",
"Q  c #4C7676",
"!  c #A8261F",
"~  c #D20A0B",
"^  c #D41617",
"/  c #EA0B09",
"(  c #FF0100",
")  c #F50804",
"_  c #FB0B00",
"`  c #F51300",
"'  c #FC1301",
"]  c #F71901",
"[  c #EE1614",
"{  c #D62311",
"}  c #FE2204",
"|  c #F02C06",
" . c #FB2900",
".. c #D72625",
"X. c #8A5914",
"o. c #926E12",
"O. c #AA7806",
"+. c #A47308",
"@. c #BD7603",
"#. c #B57C00",
"$. c #BA7E00",
"%. c #AD792C",
"&. c #D25901",
"*. c #EE5201",
"=. c #C56A00",
"-. c #C86A01",
";. c #D76000",
":. c #C37500",
">. c #FF6302",
",. c #FF7703",
"<. c #877672",
"1. c #6B803C",
"2. c #0A866F",
"3. c #05837C",
"4. c #0B827C",
"5. c #05897B",
"6. c #15837A",
"7. c #2C8876",
"8. c #738642",
"9. c #4E8D7A",
"0. c #56867B",
"q. c #6F897D",
"w. c #B78100",
"e. c #BB8101",
"r. c #B58411",
"t. c #958721",
"y. c #B59128",
"u. c #C28303",
"i. c #C78805",
"p. c #D88903",
"a. c #DB960F",
"s. c #F98C0E",
"d. c #EB9403",
"f. c #F69903",
"g. c #F9A304",
"h. c #E7A419",
"j. c #F3AB15",
"k. c #FCAC16",
"l. c #FAAA18",
"z. c #ECB31E",
"x. c #FEB116",
"c. c #FFB219",
"v. c #FAB61C",
"b. c #E3AB27",
"n. c #FDC221",
"m. c #909F5B",
"M. c #156F81",
"N. c #0B7687",
"B. c #057D84",
"V. c #0B7C84",
"C. c #047D8A",
"Z. c #0B7D8A",
"A. c #177785",
"S. c #137B84",
"D. c #1C7B83",
"F. c #12758B",
"G. c #127B8A",
"H. c #067C93",
"J. c #0D7C92",
"K. c #117993",
"L. c #277D88",
"P. c #687C8A",
"I. c #048385",
"U. c #0B8284",
"Y. c #048A84",
"T. c #0C8A83",
"R. c #04838B",
"E. c #0A838B",
"W. c #028A8C",
"Q. c #0D8A8B",
"!. c #158686",
"~. c #12838B",
"^. c #11948E",
"/. c #199489",
"(. c #048492",
"). c #0B8392",
"_. c #048A93",
"`. c #138491",
"'. c #258888",
"]. c #318D8F",
"[. c #27978A",
"{. c #289996",
"}. c #2B9C9D",
"|. c #349A9A",
" X c #18A093",
".X c #2AA39C",
"XX c #3BA697",
"oX c #34AA94",
"OX c #2C9DA2",
"+X c #349BA2",
"@X c #28A3A4",
"#X c #38AEAA",
"$X c #588886",
"%X c #4B948F",
"&X c #698D91",
"*X c #799899",
"=X c #4EA79A",
"-X c #6BA59B",
";X c #4D99A4",
":X c #679FA2",
">X c #45A9A7",
",X c #46BBA8",
"<X c #53B3AD",
"1X c #67A9A7",
"2X c #77ABA8",
"3X c #74B5AD",
"4X c #6BB9B8",
"5X c #4DC4B2",
"6X c #5BC5B9",
"7X c #63C5BB",
"8X c #74CAB8",
"9X c #5ABEC3",
"0X c #6CBBC3",
"qX c #5BC6C3",
"wX c #5DD4CA",
"eX c #64C5C4",
"rX c #6AD6CA",
"tX c #77D6CA",
"yX c #75D0CC",
"uX c #79D8D7",
"iX c #71E4D5",
"pX c #7AE5DB",
"aX c #73DBE3",
"sX c #7DE6E5",
"dX c #89888A",
"fX c #90A78E",
"gX c #8F9BA5",
"hX c #82B3B1",
"jX c #8ACFB9",
"kX c #AACBB9",
"lX c #8DCACE",
"zX c #97CACB",
"xX c #8BD6CA",
"cX c #93D4CB",
"vX c #97D8CB",
"bX c #88D9D7",
"nX c #98DAD4",
"mX c #A4D3D5",
"MX c #87EBD0",
"NX c #84E4DB",
"BX c #8AE5DD",
"VX c #86E8DA",
"CX c #98E6D8",
"ZX c #95F7D9",
"AX c #A4E9DB",
"SX c #8FD7E2",
"DX c #B4DEEB",
"FX c #89E8E3",
"GX c #96E6E4",
"HX c #91F5EF",
"JX c #9AF5E8",
"KX c #AAEAE6",
"LX c #B2ECEC",
"PX c #A3F4E7",
"IX c #A6F5F5",
"UX c #C5E8F5",
/* pixels */
"Z Y 3XnXbXcXcXcXcXcXcXcXvXnXzXcXnXhXf & d m 1XzXvXnXcXcXbXbX;XF Z S %XuXbXxXcXcXcXcXcXcXcXvXvXzXcXcX1X3 : n Q jXzXnXcXcXbXxX4XY ",
"'.'.rXsXpXNXBXBXNXNXNXVXBXBXbXBXFXyXd ; c Y 8XNXBXbXFXFXsXFX<XU Y '.,XsXFXFXBXpXBXBXBXNXNXBXBXBXFXbX4X3 u Q %XuXFXBXbXBXBXFX7XZ ",
"8XrX#X@XOX}.|.|.OXOX.X.X}.}.}.@XOX'.: o *XzX>X.XOX+X}.@X@XOXI 1 0.rX5X@X@X}.}.|.}.OXOX.X}.}.}.OX@XOXY > R mXlXXX}.+X}..X.X@X7.1 ",
"xXsX@X_.R.I.V.V.Z.C.R.R.R.I.B.E.R.G * . gXDX;X5.C.N.B.I.Q.4.u $ q.JXqX_.R.C.V.V.B.C.R.I.I.I.C.I.R.R.C $ W UXbX!.B.C.N.I.I.U.k $ ",
"cXpX@XR.R.I.V.V.Z.C.R.I.R.I.I.R.W.H : o gXGX#XQ.R.H.H.E.Q.L 3 $ Q HXqXQ.R.I.I.V.V.Z.C.R.R.I.I.I._.W.C # c LXbX XW.H.(.E.Q.U.k @ ",
"cXNXOXR.R.R.U.B.Z.Z.R.R.I.B.I.R._.H : X 2XFX#X3.C.H.).).G.L s $ 0.JXqX~.R.I.I.V.Z.Z.I.R.I.I.I.B.W._.C ; c IXuX/.B.H.).).Q.S.k @ ",
"cXBX|.Z.R.I.I.B.Z.C.R.I.B.V.H V.R.G : X 1XFX+XU.C.(.H.Z.S.M.s @ $XPXqXK.I.R.I.B.V.Z.C.R.I.B.V.V.E.W.C ; P IXiX/.C.(.(.C.V.A.k + ",
"xXBX+XC.R.I.I.V.R.(.R.V.B.V.J V.E.D ; X 1XFX|.D Z.(.(.Z.D.Y s $ $XPXeX~.C.I.B.V.V._.R.I.U.V.J V.E.Z.Z # n HXpXD.D (.(.Z.S.M.k + ",
"cXBXOXC.I.V.V.V.W._.E.Z.U.I.B.V.G.F *   *XKXI < F K.G.L D.K s # 9.JXqX`.C.C.B.S.I.W._.V.Z.R.I.B.A.F.k @ R IXxX9 y N.`.'.A.K N + ",
"xXBX@XC.Z.V.V.U.W._.R.Z.Q.W.B.V.A.F - . *XcXV * h F Y U U U u > 9.PXwX`.C.V.S.S.I._.W.G.I.W.I.B.S.A.N $ T KXhX> < F F F U F k # ",
"CXBX+XN.R.W.U.E.W.R.R.C.R.R.B.B.E.D & X n 9.7 @ < i < 1 y y s f -XIX0XK.B.R.I.Z.Z.R.R.I.R.R.C.V.E.Z.j + 3 9.9.& * y < 1 < y y f ",
"nXCX;XF.W.W.I.Z.E.C.C.R.R.C.C.C.W.H & X f 7.7 $ * = = = = < d P 3XPX0X].V.W.W.U.Z.Z.R.R.R.(.C.C.E.(.A & 7 7.m , o = = - = 1 2 n ",
"nXFX+X~.R.I.I.U.R.R.R.I.(.R.C.R._.D & X 0.8XjXhX2X&XP.<.dXdXW 6 q.kX*XQ P P I S.V.R.R.I.R.(.R.C._.(.C & x 8X8XhX2X4X3X3X2X4X$Xd ",
"vXpX@XR.I.B.V.V.(._.E.C.R.R.C.C.E.D ;   *XAXZXAXNX! [ _ [ [ ) ) ( [ [ / ) / ~ V.U._.R.E.C.R.R.C.E.R.M + R PXZXAXZXFXsXZXNXFX4X- ",
"cXpX@XR.B.C.V.V.R.(.R.E.Z.Z.C.Z.Z.D #   *XMX5X[.^.^ ( ( ( ( ( ( ( ( ( ( ( ( [ N.C.R.(.V.C.Z.Z.V.Z.Z.M + T AXMXXX[. X.X X.X{.U $ ",
"vXpX@XR.R.B.V.V.R.(.R.C.V.V.M.Z.Z.D ;   fXAX>X5.Y.~ ( ( ( ( ( ( ( ( ( ( ( ( / M.S.E.R.R.C.S.S.N.Z.E.M + x KXVX/.Y._._.5.5.!.N o ",
"nXBX@XR.R.I.V.V.Z.Z.(.I.C.V.V.V.L ! ~ ~ [ ....^ ^ ) ( ( ( ( ( ( ( ( ( ( ( ( ( ^ ^ ! K R.C.V.V.V.E.W.C * R DXSX/.R.H.H.C.C.U.k O ",
"cXVX@X(.C.C.Z.Z.N.N.C.R.I.B.I.I.Y ^ ( ( ( ( ( ( ( ( ( ( ( ( ( ( ( ( ( ( ( ( ( ( ( ^ U R.I.U.C.U.W.I.C ; W LXSX X(.K.K.F.Z.~.k @ ",
"cXVX|.Z.H.J.J.Z.B.H Z.Z.E.R.C.~.I ! / / [ [ / ] ' ' ` ] ' ' ' ' ' ' ` ` ` ` ` ` ' ..P ~.Z._.C.U.!.H Z & W UXbX XY.Z.K.F.V.U.j + ",
"jXxX|.A.K.H.J.~.B.B.G.G.H.C.E.D.D.I : @ hXzXE z.c.d.e.u.v.c.v.v.x.g.w.#.w.w.w.w.$.t.Y K.Z.C.C.S.L Y b : W LXbX XY.C.Z.Z.E.Y.b & ",
"x x u g N.).).I.4.3.V.C.Z.E.V.J g s %X&X=X%Xr z.v.d.:.u.l.c.c.c.x.g.$.#.$.e.#.e.$.t.I B.V.Z.Z.V.C 2 k =X1X;X|.T.W.I.).R.E.V.k @ ",
"$ $ = 2 Z D 4.4.3.3.I.I.Z.~.!.T.2 5 t E t r q z.l.d.u.i.c.c.v.c.c.g.p.p.u.$.e.p.p.u.5 0 , V.!.4.j o u yX7XJ U.Y.W.(.R.R._.A.N o ",
"&X-X2X&Xs < : 2 A 4.Y.Y.U.T.Y.5.9 r.h.h.h.h.l.v.c.d.:.u.c.c.v.c.c.c.c.c.a.$.u.j.k.j.O.+.w K Y.5.j o u bXeXG H I.R.C.H.J.).J.B = ",
"jXZXZXjX3 $ - 1 b A G G G G K 6.x a.v.c.v.c.c.l.l.d.i.i.v.c.c.c.c.x.j.k.p.e.e.c.c.j.e.O.e S G 2.j * z yXrXS.V.).).H.J.K.K.H.B * ",
"vXMX=X=X3X3X3X-Xf 2 2 y < 3 q ,.s.c.c.c.v.c.g.p.p.f.f.g.c.c.c.c.x.g.p.p.:.$.u.c.x.j.e.#.e 3 2 2 N :X1X>X{.C.C.C.).(.(.H.E.R.C * ",
"vXCXoX7.iXpXPXkXl @ o o o $ X.l.v.v.c.c.c.c.g.#.#.f.x.c.c.c.c.c.x.f.e.e.w.#.e.x.c.j.u.#.e @ o * V GXuX{.B.R.(.C.(.(.(.R.W.T.M * ",
"mXGXoX2.#X,X<X1X:X&X&XP.$XQ o.a.b.v.l.z.l.j.d.#.#.f.j.k.c.c.c.c.x.g.u.e.e.e.i.j.j.j.:.#.e 0.R O R LXnX'.S.C.C.H.C.(.R.R.5.5.C @ ",
"mXHXoX5.Y.5.K ].yXFXsXaXNXjX6 % dXy.u.u.r.i.e.w.$.u.u.i.x.c.x.c.c.x.j.j.j.j.j.i.u.u.$.#.e jX-XO T DXnX'.L V.Z.E.H.I.C.B.3.A s o ",
"SXFX@XI.I.U.L S.+X#XoXoXoX%X> o m.y.e.e.w.#.$.#.#.$.$.i.x.x.c.x.x.c.c.c.c.c.k.e.#.$.$.#.e 9.P @ x DXxX!.3.3.R.I.R.I.B.L Z 7 $ O ",
"SXaXOX`.L L D.J I.5.2.2.2.S : + &Xy.#.#.$.e.$.$.e.e.e.i.x.c.c.x.c.c.x.c.c.c.j.#.#.#.#.#.e m f & c KXtX/.3.I.Y.I.Y.T.L K z $ . O ",
"#X#XM.i u u g g g g s s 9 s s 8 3XjXI f h.c.l.l.k.k.j.k.x.x.c.c.c.x.x.x.c.v.h.l d f 9 9 8 f 8 f 7.PXtXb g s g g g j s u > $ $ u ",
").).i = = * = = = - ; ; ; , b S eXbX9 & h.z.l.j.j.x.c.x.x.x.x.x.x.x.k.k.x.x.h.- - - : & : : 8 S %XJXtX3 o * = = * * ; - # @ , Z ",
"(.E.%X$X0.0.0.$XP.P.$X0.$X%X<X<XNXcX3 o o.%.%.y.%.p.d.f.d.f.d.f.f.s.>.>.,.f.p.5 5 q Q 0.0.&X;X4X8XJXjX> * s f Q &X$X0.0.$X$X%XL ",
"~.'.tXZXMXZXZXPXKXLXKXJXIXIXJXJXJXcX3   f 7.8XAXKXq O.$.e.e.e.#.$.*.( _ *.#.u.$.e.y.AXAXGXIXIXJXHXJXhX> , 6.|.xXPXPXPXPXPXIXuXL.",
";X,X6X6X5X,X<X7X0XeXeXqX9X0XqX9XeX<X3 O Q <X6X7X7Xq O.$.e.e.$.$.:.*.( ) *.:.$.$.e.y.3X6X6X9X9XqXqXeX$X> 4 1X<X6X7XeX4X7XeXeX;Xz ",
"lXpX@X^.5.6.!.!.~.~.Q.Q.~.`.E.~.~.F > . gXzXR o.o.O.#.-.` ` _ ` ` } ;.;.:.$.$.$.e.#.o.o.q L ~.~.Q.`.N $ T UXbX'./.~.E.Q.Q./.N = ",
"cXsX@XW.I.B.B.V.Z.C.C.I.B.B.I.I.R.D *   gXmXT e.e.e.w.-.( ( ( ( ( ] e.$.$.$.$.$.$.$.e.#.e A B.C.R.R.C * W UXSX/.B.C.C.C.I.U.k o ",
"cXNXOXR.R.R.B.B.V.Z.R.R.I.I.I.R._.H ; X fXkXt =.-.-.-.&.} } } _ ( ` -.-.:.$.e.$.$.$.$.$.e K I.I.W._.C ; W IXNX/.R.C.H._.Q.S.k @ ",
"cXNXOXC.W.I.I.V.Z.Z.R.I.I.B.B.I._.H : + v.n.s.' ( ) ) } k.x.c.} ( ( ) _ *.:.$.$.e.$.$.#.e K V.V.Q._.C ; P JXiX^.B.C.(.H.V.A.k + ",
"cXNX+XC.R.I.B.Z.Z.R.R.I.V.S.D S.Q.G : X z.x.s._ ( ( ( } k.c.l.} ( ( ( ) *.$.$.$.$.$.$.#.e K J V.E.R.C & n HXpX/.C.(.C.C.V.D.k + ",
"cXNX+XC.R.I.V.V.W._.I.V.V.C.H N.Z.F ;   l.k.,._ ( ( ( } k.f.k.' ( ( _ _ *.#.#.$.$.$.$.#.e K H J G.E.N + c JXbXY D K.J.G.S.D.k @ ",
"xXFXOXC.Z.B.V.V.W._._.S.E.Y.B.V.F.F @ . | } ' ( ( ( ( ( } ] } _ ( ` =.=.:.$.$.$.$.$.e.#.e L I.B.S.A.N $ R PXlX3 y M.A.D.K K k + ",
"vXBX+XC.R.I.U.E.(._.R.V.R.R.B.Z.Z.D *   / ( ( ( ( ( ( ( _ _ ' _ _ } u.u.e.$.$.$.$.$.:.=.w J B.B.Z.Z.Z + l 8X-X: * g g h h h g , ",
"CXGX;XF.W.W.I.V.Z.Z.I.R.E.R.B.C.E.G : X / ( ( ( ( ( ( ' >.>.>.>.>.,.f.f.p.$.$.e.e.:. . .{ K C.Z._.R.v X , 2.m & o o = o o * 2 n ",
"bXbX;XZ.W.Y.I.Z.Z.Z.R.R.R.R.C.Z.W.G : X / ( ( ( ( ( ( } l.l.c.c.x.x.x.x.a.e.$.$.$.=.] ( / F C.C.E.R.C & 7 9.7.0 l d l l p h h k ",
"vXFXOXR.R.I.I.V.R.W.E.E.R.R.C.E.E.G &   [ ) ( ( ( ( ( } k.l.c.v.c.c.x.v.d.e.$.$.$.=./ / ~ Y R.R._.E.C + x ZXZXAXnXFXCXCXbXGX3X3 ",
"nXVX@XC.I.V.V.V.(._.E.C.R.C.Z.Z.E.D +   <.dX! / ( ( ( ( } } } s.c.c.x.x.p.e.$.] ] { T c V V.Z.Z.E.I.C + R LXZXMXtXrXrXrXrXuX;X$ ",
"vXVXOXR.R.B.V.B.E.R.R.C.Z.Z.Z.Z.Z.D +   *XcX6 ) ( ( ( ( ( ( _ s.v.v.v.v.a.w.:.( ( ^ Y I.V.Z.V.F.Z.E.C @ c KXbX[.Y.^. X5.^.!.N o ",
"nXpX@XR.R.C.J V.V.R.R.I.B.V.V.V.R.G :   *XlXr / ` ) ( _ _ ) _ s.l.l.l.l.p.@.=./ / ^ Y I.B.V.V.V.E.R.C # c DXFX/.Y.(.H.C.Y.Q.N o ",
"nXVX@XW.R.I.C.V.Z.Z.R.R.I.J B.U.R.H :   gXlXT #.#.$.#.$.$.#.@.] ( ( ( ( ( ( / L V.S.C.R.I.B.B.B.R._.C * R DXSX/.R.H.K.K.H.~.k $ ",
"jXVX@X_.Z.V.S.S.F.H.C.R.I.E.B.U.I.G :   &XlXr w.w.e.$.e.w.w.w.` ( ( ) ( ( ( / S.Z.F.C.R.R.E.V.U.I.Y.C # R LXbX/.C.J.K.K.J.Z.k o ",
"jXiX}.S.V.V.A.F.F.F.H.(._.C.C.D.4.Z ; + T E t w.w.#.$.#.w.#.w.| ] ` ` ` ] ] { D.F.F.H._._._.R.S.6.G b ; P IXuX[.B.I._.).).J.k + ",
"$X$XN N M.F.Q.E.F.F.R.W.(.C.C.S.Z f z P +.#.#.e.#.#.$.#.e.#.w.#.#.@.@.:.#.:.O.E.Z.F.Z.R.R._.R.L K k z V %X8X6X'.I.I.R.C.E.K.N + ",
". $ = < U U.T.4.D.D.V.4.Q.~.4.G 1 > hXnXr.i.u.:.e.e.e.e.$.$.w.#.#.$.#.#.$.e.r.T.S.D.K 4.J S.V.J k @ l zX8X7.K J U.Q.R.Z.V.V.M + ",
"4 4 u p N C D G L A.U.Y.!.~./.U.< 1 hXHXXXS.4.W.W.W.E.Z.+.w.w.#.#.$.#.$.$.$.O.G G K V.Y.T.V.!.T.M o p bXyXK J U.Y.W.R.Z.G.`.Z + ",
"jXjXnXhXi * * < Z D.2.4.L L 6.6.< 1 yXHX#XJ B.R.W.W.E.D.r.w.w.w.e.#.e.$.e.e.r.* y K 6.3.4.L 6.4.k o u bXwXG G I.Y.W.W.G.D.!.N   ",
"jXZXNX4XU k z z z h h f k k v M d V 4XwX@XZ.Z._.W.W.E.S.1.1.t q t.m.m.m.m.8.m.z z h h h j k M v N a P eX,XB.C.E.(.W.R.S.S.G.k X ",
"jXpXoX|.rXiXBXzXa = = o ; ; & ; :XbX;XQ.E.I.N.Z.C.R.I.S.!.6.9 + 9.JX6X[.oXiXpXbX2Xp = O # ; & * V mXuX].Z.C.E.Z.Z.I.I.U.U.D.N + ",
"MXMX|.!.qXwXtX4XQ a a l l l # o 1XFX].S.C._.J.J.E.I.I.H ~.S.s & 9.JX7X6.}.wXrXtX1XV p p p l 3 + z IXuX~.V.(.).J.J.R.B.H I.V.M + ",
"jXCX|.S.L.'.Y ].0XSXnXmXmXhX4   1XpX|.A.C.(.J.K.Z.C.I.I._.I.y @ 0.PX7X'.K D.'.7.%XbXnXCXvXvX&X% z HXiX'.V._.(.K.Z.Z.R.I.I._.M + ",
"mXGXOXI.5.5.L ].bXIXHXZXPXvX4 O dXGX].K S.E.J.Z.Z.I.R.3.2.S 8 = P.IXqXU.3.5.4.K %XGXIXHXvXZX2X% R DXnX'.V.Z.Z.Z.Z.E.I.I.3.S v o ",
"mXHX@XI.I.U.S.!.#X5X#X,X5X%X1 . *XnX].4.U.U.R.R.R.I.H K f , $ $ P.IXwXQ.I.T.!.K '.#X#X,X,X,XQ $ x DXnX'.H B.E.R.R.I.U.S.S d > o ",
"SXaX{.K D K K G J 2.2.A S b , + -XBX/.2.G H H B.I.G K k > . O = ;XFX9XZ.K F F D D H A 2.A S f ; n KXbX6.A H B.H H J G Z z $ . O ",
"#X#XB y y y i y y s 8 8 8 s s s 4XCXS s y s y s g s s 1 = o 1 h +X#X].g y y i d s y 8 8 8 8 8 f 7.PXtXv s y g s s g s 2 > @ @ p "
};
