/* XPM */
static char *result[] = {
/* columns rows colors chars-per-pixel */
"64 64 256 2 ",
"   c #060809",
".  c #0C0C09",
"X  c #070A17",
"o  c #160615",
"O  c #031A16",
"+  c #03131B",
"@  c #0A1618",
"#  c #041B1B",
"$  c #15171B",
"%  c #281213",
"&  c #042219",
"*  c #18251C",
"=  c #071825",
"-  c #0D1429",
";  c #141826",
":  c #032423",
">  c #052828",
",  c #152827",
"<  c #0C372A",
"1  c #062A38",
"2  c #162835",
"3  c #073539",
"4  c #173936",
"5  c #2B3336",
"6  c #54321B",
"7  c #3F451D",
"8  c #07453D",
"9  c #124730",
"0  c #15473C",
"q  c #2F4A33",
"w  c #524311",
"e  c #755001",
"r  c #7A5500",
"t  c #70540E",
"y  c #66661F",
"u  c #4F512D",
"i  c #093B48",
"p  c #163A45",
"a  c #11354B",
"s  c #293B46",
"d  c #2E3948",
"f  c #074646",
"g  c #174847",
"h  c #16554A",
"j  c #094654",
"k  c #184B57",
"l  c #0B5756",
"z  c #16575A",
"x  c #274647",
"c  c #324F52",
"v  c #275658",
"b  c #395859",
"n  c #116257",
"m  c #17665C",
"M  c #2A655A",
"N  c #2B675B",
"B  c #0C5C64",
"V  c #175A65",
"C  c #0D5F70",
"Z  c #315962",
"A  c #086467",
"S  c #176869",
"D  c #097B68",
"F  c #157966",
"G  c #0A6D76",
"H  c #176A75",
"J  c #077677",
"K  c #047C7B",
"L  c #0C7B7C",
"P  c #177579",
"I  c #137C7C",
"U  c #366667",
"Y  c #247577",
"T  c #2A7071",
"R  c #465557",
"E  c #5F6161",
"W  c #4B7677",
"Q  c #AD1F18",
"!  c #CF0F10",
"~  c #D51617",
"^  c #E90B0A",
"/  c #FF0100",
"(  c #F60805",
")  c #FC0B00",
"_  c #F51300",
"`  c #FC1301",
"'  c #F71901",
"]  c #EC1513",
"[  c #EB2C0A",
"{  c #FE2204",
"}  c #FB2900",
"|  c #D42E24",
" . c #E62723",
".. c #885810",
"X. c #97710E",
"o. c #AB7605",
"O. c #A7780E",
"+. c #BD7603",
"@. c #B57C00",
"#. c #BA7E00",
"$. c #B17D33",
"%. c #D25901",
"&. c #EE5201",
"*. c #C56A00",
"=. c #C86A01",
"-. c #D76000",
";. c #C37500",
":. c #FF6302",
">. c #FF7703",
",. c #87736F",
"<. c #6A823D",
"1. c #35825C",
"2. c #088870",
"3. c #05837C",
"4. c #0B827C",
"5. c #05887A",
"6. c #16857A",
"7. c #318976",
"8. c #4C8779",
"9. c #55867B",
"0. c #658765",
"q. c #B78100",
"w. c #BB8101",
"e. c #B0810E",
"r. c #AD8714",
"t. c #888A34",
"y. c #B2902A",
"u. c #C28303",
"i. c #C78805",
"p. c #D88903",
"a. c #DD9509",
"s. c #F78D0F",
"d. c #EB9403",
"f. c #F69903",
"g. c #F9A304",
"h. c #E7A419",
"j. c #F3AB15",
"k. c #FCAC16",
"l. c #FAAB18",
"z. c #EBB21D",
"x. c #FEB116",
"c. c #FFB219",
"v. c #FCBD1C",
"b. c #DCA420",
"n. c #E6AB27",
"m. c #93A266",
"M. c #156F81",
"N. c #0B7586",
"B. c #057D84",
"V. c #0B7C84",
"C. c #047D8A",
"Z. c #0B7D8A",
"A. c #137B84",
"S. c #177886",
"D. c #127B8A",
"F. c #047D91",
"G. c #0D7D92",
"H. c #0B7895",
"J. c #117993",
"K. c #277D88",
"L. c #687C8A",
"P. c #048385",
"I. c #0B8284",
"U. c #048A84",
"Y. c #0D8A87",
"T. c #04838B",
"R. c #0A838B",
"E. c #038A8C",
"W. c #168686",
"Q. c #12838B",
"!. c #11948E",
"~. c #199489",
"^. c #048492",
"/. c #0B8392",
"(. c #048A93",
"). c #138491",
"_. c #258888",
"`. c #328E8E",
"'. c #27978A",
"]. c #299996",
"[. c #2B9C9D",
"{. c #349A9A",
"}. c #18A093",
"|. c #29A39C",
" X c #3BA697",
".X c #34AA94",
"XX c #2C9DA2",
"oX c #349BA2",
"OX c #28A3A4",
"+X c #36A6A2",
"@X c #3AB2AE",
"#X c #588886",
"$X c #4D948F",
"%X c #688E92",
"&X c #79989A",
"*X c #4EA79A",
"=X c #6BA598",
"-X c #4D99A4",
";X c #7D9AA2",
":X c #45A9A7",
">X c #57A7A5",
",X c #46BBA8",
"<X c #52B9B0",
"1X c #68A7A5",
"2X c #76AAA7",
"3X c #74B5AF",
"4X c #6ABAB8",
"5X c #4DC4B2",
"6X c #5AC6B9",
"7X c #64C5BB",
"8X c #77C4B4",
"9X c #71D1BC",
"0X c #5ABEC3",
"qX c #6BBCC3",
"wX c #5BC6C3",
"eX c #5DD4CA",
"rX c #64C5C4",
"tX c #6AD6CA",
"yX c #77D6CA",
"uX c #75D0CC",
"iX c #78D8D7",
"pX c #71E4D5",
"aX c #7AE5DB",
"sX c #73DBE3",
"dX c #7DE6E5",
"fX c #828A92",
"gX c #94979A",
"hX c #83B2AF",
"jX c #8BCEB9",
"kX c #AECABE",
"lX c #8FCBCA",
"zX c #8BD6CA",
"xX c #93D4CB",
"cX c #97D8CB",
"vX c #88D9D7",
"bX c #98D9D5",
"nX c #ACCCCF",
"mX c #87EBD0",
"MX c #84E4DB",
"NX c #86E7DA",
"BX c #8AE5DD",
"VX c #98E6D9",
"CX c #95F7D9",
"ZX c #A4E6D8",
"AX c #A3F2DF",
"SX c #8FD7E2",
"DX c #AEDDEA",
"FX c #89E8E3",
"GX c #96E6E4",
"HX c #91F5EF",
"JX c #9AF6E8",
"KX c #ABEAE6",
"LX c #B1EDED",
"PX c #A3F4E7",
"IX c #A6F5F5",
"UX c #C5E8F5",
/* pixels */
"S T 8XvXvXxXxXxXxXxXxXxXcXbXxXxXcXhXk # g N 1XlXcXbXxXxXvXvX>XH S S $XvXvXzXvXxXxXxXxXxXxXcXcXxXxXbX1X4 > v W jXxXxXxXxXvXzX4XY ",
"_._.tXFXaXMXBXBXMXMXMXMXBXBXvXBXBXuXh : N T 8XMXBXvXFXFXdXdX:XT Y _.,XdXFXNXMXMXBXBXBXMXMXMXFXBXvXvX4X4 p K.$XiXGXFXvXBXBXFXtXS ",
"4XtX@XOXXX[.{.oX[.XXXX|.[.[.[.XXXX`.> X &XlX>X|.XXoXoX|.OX+XM 4 9.iX5XOXOX[.[.{.[.XXXX|.[.[.[.[.OXXXY , R nXlX X{.XX[.OXOX|.Y , ",
"xXaXOX(.T.P.V.V.Z.T.T.P.T.C.P.R.T.J =   gXDX:XP.B.N.C.P.Y.I.p o 9.JXwX(.T.P.V.A.B.C.T.P.P.R.B.T.R.R.A = E UXvX~.P.B.N.B.P.Y.z $ ",
"xXaXOXT.T.P.V.V.Z.C.T.T.P.P.T.T.E.K >   hXGX,XY.T.F.^.R.Y.A.p $ W JXwX/.T.P.P.V.V.C.C.P.P.T.P.P.E.E.A # b LXiX~.E.^.F.T.Y.W.z @ ",
"xXMXXXT.T.P.P.V.Z.Z.B.T.P.B.P.P.(.K > O 2XFX+XP.F.F./.R.Q.P f $ 9.JXwX).T.T.P.V.Z.Z.T.T.P.P.P.P.E.E.A : b IXiX~.B.F././.R.A.z + ",
"xXBXoXZ.T.U.P.B.Z.T.T.P.B.V.K V.T.J : O 1XFX+XL F.F.F.Z.S.M.f @ 9.PXwX).B.T.P.V.V.Z.T.P.P.B.V.V.R.^.A : N HXaX~.C.F.^.C.V.S.z O ",
"zXBXoXC.T.P.B.V.R.^.T.P.V.L V.V.Z.J =   =XFX{.G Z./.^.Z.S.Y g O 9.IXwXQ.C.T.B.L V./.T.R.P.V.L N.R.Z.S # U HXaXK.G /.^.Z.A.M.z O ",
"xXFXXXC.T.P.N.I.E.(.R.Z.Y.P.K V.A.H = . gXVXT 1 C J.D.P S.P f @ 9.JXeX).C.B.V.A.P.E.E.R.P.T.P.L N.S.z @ R LXlXg i N.)._.P S.z @ ",
"xXFXXXC.Z.V.A.Z.E.(.T.Z.R.E.B.V.A.H - . &XbXb = k M.Y H Y Y p * 9.JXwX).C.V.N.A.T.(.E.D.Z.E.P.B.D.D.v @ R ZXjX2 1 H H H Y H z # ",
"VXMXoXN.T.U.I.I.T.T.T.C.T.T.B.C.R.G : . M `.9 + 1 a 1 2 a i f h =XIXrX).B.T.T.V.R.T.T.T.T.T.T.V.Z./.l & < $X7.& = i 1 2 1 i i h ",
"bXVX-XN.E.E.P.R.T.Z.T.T.T.C.C.C.E.D < . h 1.4 @ ; - $ - - 1 f T 3XIXqXK.B.E.E.B.V.Z.C.P.T.^.C.C./.T.A & 9 7.1.* X - - ; ; - 3 M ",
"cXFXoXR.T.P.P.V.T.T.C.T.^.T.C.T./.J &   0.8XjXhX2X%X,.,.fXfXE 6 0.nX;XW U U A B.Z.T.T.R.T.^.C.C.R.^.A & q yX8XhX3X3X3X2X2X4X$Xg ",
"bXaXOXT.T.B.V.V.T.(.R.T.T.T.C.C.R.G :   =XCXZXAXBX .( ] ] ] ( ( ( ` ] ^ ^ ^ Q N.Z.E.T.R.C.T.T.T.R.T.A O R LXAXCXCXdXdXCXFXFX3X; ",
"xXaXOXT.P.B.V.V.^.(.T.Z.R.Z.C.Z.T.G &   &XVX5X'.].] / / / / / / / / / / / / ! B.T.T.T.Z.B.V.Z.N.Z.T.B @ c ZXmX X|.~.OX}.|.].T ; ",
"cXaXXXT.T.B.V.N.T.T.T.P.V.N.M.Z.R.J :   &XVX:X3.P.] / / / / / / / / / / / / ! G A.R.R.V.V.S.A.N.Z.Z.B O b KXNX~.U.E.E.5.5.W.V X ",
"bXBXOX(.T.B.B.V.Z.C.^.P.B.V.V.I.T.J :   &XnX| ~ ~ ( / / / / / / / / / / / / ( ~ ~ ~ ~ ~ ~ ~ Q K.R.T.A # Z LXSX!.P.F.H.B.B.Y.V o ",
"xXNXOX^.T.C.R.N.N.N.T.T.P.B.P.R.P.J >   ;XnX ./ / / / / / / / / / / / / / / / / / / ( / / / ~ T U.T.G : R UXSX[.T.H.J.H.Z.R.l X ",
"xXmX+XJ.F.H.G.Z.N.K Z.Z./.T.B.Q.L F >   gXkX .] _ _ _ _ _ _ ` ` ` ` ` ` _ _ ` ` ' ^ ~ ^ ~ ] Q Y 4.L m = R UXBX~.E.R.J.S.V.I.n O ",
"jXzX`.S.H.H.).Q.B.B.D.D.G.C.Z.A.I S 3 + hXnXy.w.q.q.q.q.@.q.g.x.c.v.c.c.i.#.d.c.z.q G J.H.F.C.D.6.P m > R LXvX}.U.B.D.Z.R.I.m # ",
"x c a j M.F.R.P.I.4.V.C.Z.Z.I.L j g 9.*X-X#Xr.q.q.q.q.#.#.q.g.x.c.c.c.l.u.w.d.c.z.u G Z.N.Z.Z.B.A 3 k $X1X*X{.Y.U.T.T.T.R.V.z + ",
"% $ ; 3 S L 4.4.3.3.U.P.Z.Q.Y.I.3 4 8Xb u 7 i.p.p.w.#.u.p.p.g.x.c.c.c.c.i.w.d.c.v.y u u u u u L l X g uXrX4.I.U.E.T.^.T.T.D.V + ",
"%X=X2X%X8 1 > 3 D 5.5.U.I.Y.U.5.3 2 3Xe o.o.h.c.k.w.@.a.c.l.x.c.c.c.c.c.i.u.d.c.c.j.h.b.h.h.y.6.l X p vXtXL K T.T.C.Z.G./.G.C - ",
"mXCXCXjX4 ; $ 2 m D J J J J 3.2.3 p 2Xr @.u.j.c.x.u.#.p.k.k.x.x.c.c.c.c.i.;.d.l.l.l.c.l.c.v.n.7.m ; c uXwXD.V.G././.J.J.H.H.C = ",
"xXzX,X*X8X=X3X&Xh 3 3 i 1 3 3 3 $X>X$X..@.u.j.c.x.u.@.;.p.p.g.x.c.c.c.c.k.f.f.p.p.g.c.c.c.c.c.s.>.t %X:X].C.C.F.F.^.^.F./.R.A = ",
"cXVX7.7.pXaXPXcXx @ X X X X X + =XvX`.r @.u.j.x.c.w.q.w.#.w.f.x.c.c.c.c.c.l.f.;.#.j.c.l.c.c.c.c.n.X.8X_.B.T.T.C.^.^.^.T.E.U.B = ",
"bXJX.X5.@X,X>X1X1X%X%XL.#XW ;   &XGX8.r @.u.j.j.j.i.w.u.w.u.g.x.c.c.c.c.l.j.f.#.@.d.j.j.j.l.z.b.n.$.lX_.V.Z.C.Z.F.^.T.T.3.2.B + ",
"nXHX.X5.5.U.I `.uXFXdXsXNXlX5 o fXbX7.r @.#.w.u.u.j.j.j.j.j.x.c.c.c.c.c.i.#.u.#.w.w.w.i.i.w.O.6 E nXbX_.I N.Z.R./.C.B.B.3.D h + ",
"SXFXXXP.P.I.A.A.oX@X.X.X.X$X< X ;XbX7...q.w.#.@.w.k.c.c.c.c.c.c.x.c.c.x.i.#.#.@.@.@.#.@.q.w.o.* c DXvXW.3.P.P.E.P.U.V.I S 9 @ o ",
"SXsXXX).I I P I 3.3.2.2.2.F > O 2XvX7.e o.q.@.@.@.k.c.c.c.c.c.x.c.c.x.x.i.u.u.w.w.w.w.#.@.@.X.* c KXyX~.3.P.U.P.U.Y.L P v $ o o ",
"@X@XM.i a i j j j f f f 0 f 8 8 3XNXT h 0 g g g h h.c.c.c.x.x.x.c.x.c.x.k.k.k.j.l.l.k.h.0 0 0 8 7.JXyXm j i j j j l f p , @ @ 5 ",
"/.H.a - ; = ; - - - = : > < m F 9XyX8 # # = ; - $ h.c.x.x.k.x.x.x.x.x.x.x.x.x.j.j.j.c.b., < 3 F *XJXjX4 + + = - - = : ; # @ 3 S ",
"T.Z.$X9.9.9.9.#XL.L.#X9.#X$X>X<XNXxX4 X < 0 w w w d.d.>.:.:.s.f.f.f.f.f.f.d.p.$.y.$.$.$.9.#X>X4X7XJXjX, # 8 x W %XL.9.9.#X#X`.S.",
"D.~.uXJXCXmXCXPXLXKXKXJXIXIXPXHXJXxX4   z 1.r.w.@.#.#.&./ / &.+.q.q.#.#.@.o.t ZXZXLXKXAXGXIXIXJXJXJXhX, < 6..XMXPXPXPXAXPXIXvXK.",
":X<X6X6X5X,X<X7X7XrXrXwXwX0X0XwXrX>X5   W =Xy.w.@.#.#.&./ / &.#.@.@.#.@.q.o.t 6X7XqXrX6XwX0X0XwXwXrX#X; d 1X<X6X6XrX6XrXrXrX-Xv ",
"lXiXOX!.5.6.W.W.Q.).Q.).Q.Q.Y.Q.).P * w O.O.@.#.#.#.#.;.-.-.} _ _ _ _ _ *.@.o.X.X.x V.E.R.Q.Q.Q.Q.).S ; R UXxX'.W.Q.Q.W.Y.~.V ; ",
"xXdXOXT.P.B.B.V.N.C.C.P.P.B.B.T.T.G & r @.#.#.#.#.#.#.#.q.w._ / / / / / =.q.q.q.w.q K T.P.P.P.T.T.T.A = E LXSX~.B.C.C.B.U.I.z o ",
"xXNXOXT.T.P.B.V.D.R.T.P.P.P.P.T.E.K , r @.#.#.#.#.#.#.;.*.=.` / ) { { { %.=.=.*.-.u 1.7.T.P.P.P.E.(.A & R IXiX~.T.F.F./.R.I.z + ",
"xXMXXXC.T.U.P.B.Z.Z.T.P.B.B.B.I.E.L < r @.#.#.#.#.#.;.&.) ) / / { c.k.k.{ / ) ) ` s.v.z.P.V.V.L E.E.A : U IXpX!.B.F.^.T.V.A.z O ",
"xXMXoXZ.T.T.B.V.Z.^.T.P.B.M.L V.R.G < r @.#.#.#.#.@.+.&./ / / / { l.c.k.{ / / / / s.v.n.V.L N.L R.R.A : M HXsX~.C.^.F.C.A.S.z O ",
"xXMXXXF.T.P.V.I.E.(.R.R.B.V.L V.A.G * r @.q.#.#.#.#.;.&.) _ / / { k.s.k.{ / / / ) >.x.h.I.I.V.N.D.D.B # b JXvXP G Z.).G.S.S.z @ ",
"zXBXXXC.Z.V.V.Z.E.(.T.A.T.U.B.N.S.H $ r q.q.#.#.#.#.q.;.*.*._ / / { { ' / / / / / ` ' [ V.E.P.L N.S.V $ R PXlX4 a M.S.S.P P z O ",
"VXFXoXN.T.P.I.V.E.(.R.Z.R.T.B.Z.Z.H * ..;.;.#.#.#.w.q.q.u.;.} ` ) ) ) ` / / / / / / / ] Z.T.B.B.Q.Z.n O x 8X=X* = j k k k k j < ",
"VXbX-XN.E.E.T.I.N.C.T.T.T.T.B.C./.J , Q } } =.w.#.#.#.p.f.f.>.:.:.:.:.:.` / / / / / / ^ R.T.C.Z./.T.n & < 2.m & X + X X X = 3 N ",
"bXvXoXZ.E.U.P.Z.Z.Z.T.T.^.T.C.R.T.J * ^ / _ *.q.#.#.#.p.x.x.c.x.x.c.c.l.' / / / / / / ^ Z.^.C.C.E.E.A & 9 *X1.c x g x x x k j M ",
"cXFXoXC.T.P.B.V.T.T.T.R.T.T.C.Z.R.J % ^ ^ ' ;.#.#.q.#.d.c.c.c.c.c.l.l.l.{ / / / / ( ^ ^ C.^.T.T./.T.A O q CXVXZXbXBXVXVXbXSX3X3 ",
"cXFXXXT.T.B.V.V.^.(.R.B.C.T.C.Z.R.G @ % ,.gX .' ' +.q.a.c.c.x.c.s.{ { { ) / / / / 6 R b C.C.C.R.Z.T.A @ R LXCXmXiXtXpXeXtXiX-X$ ",
"cXNXOXT.T.B.V.V.R.(.T.C.V.Z.Z.D.Z.G @ . %XkX ./ / ;.w.a.c.v.c.c.s.) ) / / / / / ( 5 H N.V.Z.N.D.Z.T.A @ b KXMX'.Y.Y.!.5.!.Y.V o ",
"bXaXOXE.T.V.V.V.Z.T.T.P.B.V.V.N.T.J >   &XnX .^ ^ *.;.p.l.l.l.k.s.) ) ) ) ) ) ( ( 5 K P.P.V.N.V.T.T.A # R DXBX~.E.^.F.B.P.Y.S X ",
"bXNXOXE.T.B.B.V.Z.Z.T.T.P.V.3.I.T.K >   &XDX:XI.F.] / / / ) / / _ +.#.#.+.#.@.#.o.q J P.P.V.K P.T.E.A = R LXSX~.T.H.J.H.Z.Q.z o ",
"jXNXOXE.T.V.N.A.D.N.F.T.T.R.B.I.P.J :   ;XGX:XI.R.] / / / / / / _ q.q.q.@.q.q.q.#.q J B.T.T.V.I.P.U.A & b LXSX~.P.H.J.).G.D.z @ ",
"jXpX[.D.V.A.D.S.M.H.F.^.(.^.V.S.4.S : O 1XGXoXI 4.~ ' _ ' ' _ _ [ q.q.@.#.@.#.q.@.w q x (.(.T.A.6.J m : U IXiX`.B.T./.^./.Z.B + ",
"#X$XZ C M.D.U.Q.D.D.T.E.T.F.C.I.S v v b =X7X].L P.O.;.#.+.;.+.@.@.@.#.@.@.@.@.w.@.@.@.X.T.(.T.I P z v b $X9X6X6.B.T.T.T.R.Q.V + ",
". . X 1 H B.Y.Y.S.S.L Y.Y.Q.4.I 4 ; hXZX$XY P 4.Y.O.w.@.#.@.#.#.#.#.#.q.q.w.w.w.;.u.u.r.K R.B.J h X c lX8XY P L I.Y.Y.S.N.S.z @ ",
"5 5 s k V A A J P D.3.5.I.Q.!.4.1 2 8XHX X6.4.E.U.w.w.#.@.@.#.@.@.@.#.O.k C A J L P V.U.U.I.W.Y.B X s vXtXI L Y.U.E.T.D.D.Q.S O ",
"jXjXbX3Xa = = 1 S K.4.6.I P W.6.1 2 uXHX XL B.T.U.e.w.q.w.q.q.q.q.q.q.e.%X1 = = i H W.2.4.P W.4.z X p vXtXJ J P.U.E.E.Q.S.W.V . ",
"jXCXMX4XT v v v k k g l z z n A k Z 4XtXXXP.C./.(.<.<.<.<.<.y t t.m.m.m.*XM z v Z k k j z z z n V d U rX,XV.B.R.^.E.T.A.A.Q.z   ",
"zXaX.X[.eXpXFXlXd ; - X # : & : =XvX-XR.P.T.Z.Z.T.P.P.W.W.I f O 9.CX7X_.@XpXaXbXhX2 o - # : & # Z bXiX`.Z.C.R.Z.Z.T.T.I.I.S.z O ",
"cXmX{._.wXeXyX4XW d d d g g + X 1XBX{.S.C.(.G.J.T.C.B.K D.A.f & 9.AX9X6.|.eXtXuX1XZ x 5 5 x 4 O Z JXiXW.B.^./.G.Z.T.B.K B.I.A O ",
"cXmX{.S.S._.Y `.qXSXbXZXnXkX5   1XaX{.S.C.^.G.J.Z.T.P.U.(.R.i $ 9.AX6XW.S.S.K.7.-XvXbXVXbXcX&X$ c HXpX_.C.(.^.J.G.C.P.I.P.(.B O ",
"bXGX{.I.5.5.I `.vXIXJXCXJXcX5 o &XbX`.Y A.R.G.F.Z.T.P.3.2.F 8 @ %XIXwXY.5.5.4.Y $XGXIXJXJXJX2X% R DXbXK.I Z.Z.G.Z.T.P.P.3.2.h + ",
"bXGXOXP.P.3.I W.@X5X@X,X5X$X, . &XbX`.L 4.R.T.T.T.T.L P h < $ $ L.IXwXY.3.P.I.P S.,X@X@X,X,XW $ c DXbX`.K P.T.P.T.P.I.I F g , o ",
"SXsX].P P P H J J K 2.2.F m < + =XVX~.2.K J K K 5.K P z , o o - -XFX0XN.P H P H J K 2.2.2.m h : M KXiX6.K K P.K K L G H v $ . o ",
"oX@XC i i a i i i f 8 8 8 8 f f 4XVXF f i f i f j f i 2 - o 2 V K.@X`.j i i a j f 3 8 8 8 8 8 g 7.PXyXm f i f i j f f 3 , @ ; p "
};
