/* XPM */
static char *result[] = {
/* columns rows colors chars-per-pixel */
"64 64 253 2 ",
"   c #030101",
".  c #0C0502",
"X  c #180703",
"o  c #1B1210",
"O  c #240C05",
"+  c #2A0E05",
"@  c #330502",
"#  c #2B1206",
"$  c #271309",
"%  c #2A140A",
"&  c #381607",
"*  c #291612",
"=  c #2C1A15",
"-  c #2D1C19",
";  c #331E19",
":  c #2A231C",
">  c #382419",
",  c #291F21",
"<  c #2D2324",
"1  c #352926",
"2  c #3C2D2C",
"3  c #382E38",
"4  c #461D0B",
"5  c #511812",
"6  c #49210E",
"7  c #56250D",
"8  c #48261A",
"9  c #562A16",
"0  c #5D2B14",
"q  c #553810",
"w  c #652E0F",
"e  c #622C14",
"r  c #652F17",
"t  c #6B3418",
"y  c #743314",
"u  c #73361A",
"i  c #743A1E",
"p  c #7C391B",
"a  c #462D26",
"s  c #5A3629",
"d  c #4E3731",
"f  c #6A3A27",
"g  c #743D23",
"h  c #633E31",
"j  c #7A5500",
"k  c #795307",
"l  c #6E4A10",
"z  c #5C422A",
"x  c #7E4225",
"c  c #794429",
"v  c #6A4438",
"b  c #744E31",
"n  c #453B50",
"m  c #5B4847",
"M  c #6D4F49",
"N  c #77534B",
"B  c #6A5655",
"V  c #6B5655",
"C  c #765A57",
"Z  c #7A5E5D",
"A  c #7D615C",
"S  c #7A5F60",
"D  c #7D6262",
"F  c #861C0A",
"G  c #A6170C",
"H  c #B91703",
"J  c #BD220E",
"K  c #8D342D",
"L  c #D40D05",
"P  c #D91704",
"I  c #E90604",
"U  c #FF0100",
"Y  c #F70905",
"T  c #FB0B01",
"R  c #EB1707",
"E  c #F51300",
"W  c #FE1500",
"Q  c #F31A00",
"!  c #FE1A01",
"~  c #F8170D",
"^  c #F61512",
"/  c #CC2206",
"(  c #EB260D",
")  c #FE2203",
"_  c #F92205",
"`  c #FD2514",
"'  c #FE2A16",
"]  c #FF361B",
"[  c #FC3622",
"{  c #905312",
"}  c #AB7306",
"|  c #BD7604",
" . c #B57C00",
".. c #BA7E00",
"X. c #AC7111",
"o. c #824526",
"O. c #874728",
"+. c #994C27",
"@. c #9A512B",
"#. c #865330",
"$. c #895338",
"%. c #9A5636",
"&. c #B04C2E",
"*. c #A65723",
"=. c #A4562E",
"-. c #A85B37",
";. c #B75E34",
":. c #BD7626",
">. c #AB603C",
",. c #B4633C",
"<. c #BA6439",
"1. c #BA643A",
"2. c #E94C00",
"3. c #E94D17",
"4. c #C46C00",
"5. c #C96A01",
"6. c #D76000",
"7. c #C37200",
"8. c #C37904",
"9. c #FF6302",
"0. c #F97413",
"q. c #CF5C39",
"w. c #C46A3E",
"e. c #CC6D3E",
"r. c #D1663E",
"t. c #C6723B",
"y. c #875848",
"u. c #95594A",
"i. c #A95F5B",
"p. c #88635B",
"a. c #976553",
"s. c #AB6546",
"d. c #B76741",
"f. c #B76944",
"g. c #BB6B43",
"h. c #BC6E4A",
"j. c #BC704C",
"k. c #AD6D56",
"l. c #B87456",
"z. c #856966",
"x. c #956C62",
"c. c #99726A",
"v. c #967773",
"b. c #A77669",
"n. c #B67B67",
"m. c #A47D77",
"M. c #B67D76",
"N. c #C56E44",
"B. c #C96943",
"V. c #CC6E43",
"C. c #D26944",
"Z. c #C57146",
"A. c #CC7145",
"S. c #C5734B",
"D. c #CA744A",
"F. c #D17244",
"G. c #D1764B",
"H. c #C57753",
"J. c #CB7B55",
"K. c #CC7D5A",
"L. c #D57A52",
"P. c #D47B54",
"I. c #D27E5A",
"U. c #CF7E67",
"Y. c #E67760",
"T. c #B78100",
"R. c #BB8101",
"E. c #BC830C",
"W. c #BB8513",
"Q. c #C28303",
"!. c #C68707",
"~. c #D88903",
"^. c #D59110",
"/. c #EB9403",
"(. c #F69903",
"). c #F58F11",
"_. c #DFA019",
"`. c #F9A304",
"'. c #E9A419",
"]. c #F3AB15",
"[. c #FCAC16",
"{. c #FAAB18",
"}. c #EFB31D",
"|. c #FEB116",
" X c #FFB219",
".X c #F9B91C",
"XX c #FE8327",
"oX c #E7A931",
"OX c #B3846C",
"+X c #B8826A",
"@X c #AC8370",
"#X c #B98676",
"$X c #CE815D",
"%X c #D3815C",
"&X c #DA845D",
"*X c #FBB542",
"=X c #CB8468",
"-X c #D68767",
";X c #DC8662",
":X c #DA8965",
">X c #D58969",
",X c #C68B76",
"<X c #D68D74",
"1X c #C99378",
"2X c #D9947B",
"3X c #E28967",
"4X c #E39476",
"5X c #E6987B",
"6X c #F19173",
"7X c #FBAB7A",
"8X c #F1C27D",
"9X c #736F8A",
"0X c #897C97",
"qX c #AE8782",
"wX c #B48B86",
"eX c #BC928C",
"rX c #C18881",
"tX c #C99588",
"yX c #D89A87",
"uX c #C99B97",
"iX c #CC9D95",
"pX c #D29E94",
"aX c #E49E84",
"sX c #E79C86",
"dX c #DCA288",
"fX c #CEA098",
"gX c #D8A498",
"hX c #DBA69A",
"jX c #E5A28B",
"kX c #E8A288",
"lX c #F2A48B",
"zX c #F9B688",
"xX c #FFB98E",
"cX c #E8A997",
"vX c #EBAC9C",
"bX c #F1AC99",
"nX c #E9B69A",
"mX c #FFBB91",
"MX c #F7B09D",
"NX c #CFA6B5",
"BX c #E6AEA0",
"VX c #EEB8AC",
"CX c #F3B5A4",
"ZX c #DAC59D",
"AX c #EAC395",
"SX c #FFC797",
"DX c #FFD39D",
"FX c #E0CCA1",
"GX c #F7CDA3",
"HX c #FCD5A8",
"JX c #CCACC1",
"KX c #D3B6C7",
"LX c #D3B4CB",
/* pixels */
"k.b.wXJXKXKXKXKXKXKXLXLXLXLXLXLXLXJX0Xn 3 C M.NXLXLXLXLXLXLXNXwXl.i.n.uXJXLXLXLXLXLXLXLXLXLXLXLXLXLXNX9Xn n u.rXNXLXLXLXLXLXJXuX",
"s.K.yXcXvXvXvXBXvXvXvXvXvXvXvXvXBXpXp., % u.<XjXcXvXvXvXbXBXyXl.-.S.:XsXcXBXcXcXvXbXbXbXbXbXbXbXbXbXyXC - t S.4XbXbXbXbXbXbXsXU.",
"y.tXsX:X>X>X>X>X>X>X>X:X-X:X-X-X;XK.c % - x.sX4X;X:X;X:X:X:Xl.g f M.sX5X:X:XY.3X:X&X;X;X&X:X;X3X;X3XJ.f = N =XlX3XY.&X&X&X3XJ.%.",
"M pXsXJ.Z.S.Z.Z.j.S.S.Z.Z.Z.S.S.D.d.g O 2 qXsX;XN.Z.V.S.D.C.=.6 a wXBX5XG.B.V.V.B.V.A.A.A.A.e.e.F.A.<.e * p.pXlXL.C.e.V.r.C.;.y ",
"B iXsXJ.N.Z.Z.Z.Z.Z.A.Z.Z.D.Z.A.V.1.u $ 2 wXaX-Xw.Z.V.V.Z.G.+.4 2 qXvX4XD.t.V.B.B.V.V.e.e.V.e.V.e.F.<.w = Z pXlX&Xe.e.e.r.e.;.y ",
"V iXsXK.Z.Z.D.Z.A.S.S.D.Z.D.D.D.D.g.p $ 2 qXjX;XA.A.D.Z.D.G.=.4 2 wXvX4XL.B.A.A.A.A.V.V.V.V.F.A.e.F.<.e = Z pXlX&Xe.e.e.F.F.q.y ",
"V iXsXK.g.Z.S.D.D.S.D.Z.Z.D.S.Z.Z.g.f $ 3 @XjX-XN.N.A.A.A.G.=.4 2 eXBX5XL.B.A.V.V.F.V.V.V.V.V.V.F.F.<.w - S pXlXL.r.e.e.e.e.;.y ",
"B uXjXJ.Z.Z.Z.S.S.A.Z.S.D.D.Z.D.D.,.u $ < qXtXs.@.,.Z.A.G.G.=.4 2 eXvX5XG.V.V.A.A.V.V.F.V.A.F.V.A.F.<.w - p.uXyX;.;.r.F.e.e.;.y ",
"B iXkXJ.Z.S.S.S.S.S.A.D.S.Z.D.D.D.d.u $ 2 m.M.h 6 +.<.B.B.V.@.6 2 wXvX5XG.V.A.V.A.A.A.V.V.V.V.V.F.F.;.e - p.tXM.e y ;.e.e.r.;.y ",
"p.gXkXK.Z.Z.Z.A.D.Z.S.S.S.S.S.S.A.g.u + 1 b.x.1 X 0 +.+.+.+.o.7 v eXvX2XJ.V.A.A.A.A.C.A.V.F.F.V.C.F.;.e * N M.p.* 4 p *.+.+.{ w ",
"+XvXkXJ.Z.Z.S.S.Z.S.S.Z.S.D.Z.D.Z.g.p O = u.$.%   O & & & & 5 t s.dXMX2XG.A.Z.V.D.A.D.V.A.A.F.V.F.F.;.r % f s.b X X # & @ 4 4 7 ",
"#XvXyXJ.N.S.S.Z.D.S.S.S.S.D.D.Z.D.d.u O % $.%.d 1 1 1 1 2 a a f s.hXMX4XD.V.D.V.V.V.A.V.V.V.V.A.F.F.;.e % g s.s.a 1 1 a a > 8 0 ",
"x.gX2XJ.S.Z.S.S.S.S.S.S.S.D.Z.S.D.d.u O ; x.tXM.m.x.i.i.i.i.u.K K <X6XY.q.q.q.V.A.A.A.A.A.D.A.A.V.F.1.e % N U.yXM.m.m.m.m.m.v.N ",
"B iXkXI.Z.S.S.S.Z.S.D.S.Z.D.D.S.D.d.g O 2 qXVXCXcXG Y Y Y ^ Y U Y ^ ^ ^ U U ^ C.V.D.A.V.V.F.V.V.F.F.;.e = Z iXVXCXbXbXbXbXMXyXu.",
"B fXjXJ.S.Z.S.D.S.S.D.S.D.Z.Z.D.G.d.g $ 2 qXBXsX<XL U U U U U U U U U U U U Y D.A.D.A.A.V.A.D.F.F.F.;.e - S pXMX4X3X3X3X3X3XK.g ",
"B iXkXK.g.Z.S.S.S.S.S.S.D.S.D.S.G.d.p + 2 qXcX-XG.L U U U U U U U U U U U U Y G.V.V.A.A.A.V.V.A.V.F.1.e - D pXlX&XG.G.G.G.L.d.g ",
"V fXjXJ.S.Z.S.S.S.S.D.D.S.D.S.D.B.( I L L ^ ` ^ ~ U U U U U U U U U U U U U U ~ ^ ( C.V.A.A.A.A.V.F.1.e - S pXbXL.B.e.e.e.V.;.y ",
"B fXjXJ.S.Z.S.S.D.S.S.S.S.D.D.Z.C.^ U U U U U Y U U U U U U U U U U U U U U U U U ~ q.V.D.A.A.A.A.F.w.r - S pXlXP.V.V.V.A.F.;.y ",
"V fXkXI.S.S.S.S.S.S.S.S.S.D.S.S.C.^ I I I ^ I ~ W W E Q W W ! ~ ! W E E E E E E T ( r.F.A.A.A.A.F.F.<.e = C pXlXP.V.V.V.A.A.;.y ",
"m m.n.s.>.h.S.S.D.S.S.S.S.S.D.S.g.=.g a m b.y.}. X/.R.Q.]..X X X X(.T.T.T...T.T...!.t.D.Z.A.A.A.B.<.@.r d z.yX5XL.A.V.A.A.A.;.y ",
", m z r O.,.H.D.S.S.S.S.D.S.D.S.%.g z N x.+X#..X X/...!.{. X X X X`.....T...T.R...!.N.N.g.A.A.D.<.O.t h p.U.>X;XF.A.A.e.e.F.<.y ",
"o < 1 8 f +.-.>.f.g.D.D.S.D.D.S.O.q l b b c { .X{./.8.!. X X X X X`.~.~.Q.R.R.~.~.!.t q q g.D.F.;.w ; M tX2X%XG.A.A.A.F.A.F.<.y ",
"2 D v.z.M 9 > 7 o.f.D.D.D.J.D.D.@.^.'._._.'.}.|. X/...!. X X X.X X X X[.~.R.Q.{.[.'. .} k <.F.F.=.0 * V cXsXP.t.A.A.A.A.V.F.<.y ",
"B eXVXfXp.d < 1 f O.-.%.@.@.%.-.+._. X X.X X|.].{./.!.!. X X X X X X[.].~...R. X.X].T. .j +.=.=.+.r a p.yX2XL.B.A.A.A.A.V.F.,.y ",
"V fXVXyX+Xc.v.z.v 8 6 6 & 6 k ).).{. X X X X`.!.~.(.`.`. X X X X X`.~.~.R...R. X X].Q. .k 6 4 4 9 v x.n.>XI.G.D.e.A.A.A.A.F.<.y ",
"V fXjX>X1XdXhXuXp.d : - = > { .X X X X X X X`.T...(.[. X X|. X X|.(...T.....Q.|. X].Q. .j ; * o < M tXaXI.D.V.A.A.A.D.A.A.F.<.y ",
"B uXjX$X$X2XkX2Xn.z.D Z Z B *._.oX}.oX{.].]./. ...(.].[. X X X X|.`.Q.Q.R...!.].].].Q. .j C B : , C pXkXL.B.V.A.A.A.A.A.Z.A.,.y ",
"B fXkX$XD.$XS.$X<XgXvXBXnXtXp.a z W.8.!.!.E.R.....Q.Q.!.|. X|.|.|.|.].].].].].!.Q.Q... .j yXtXd < V pXkXP.V.V.F.A.A.F.F.A.w.@.w ",
"B fXjX$XS.D.S.$X-X2X5X5X5X=X$.* d  .T.T...T...........Q. X X X X X|.|. X X X[.T. .......j >XK.s , B pXsXL.A.G.F.G.F.G.A.A.+.7 # ",
"C tX2Xs.-.-.%.>.>.s.f.s.k.%.f & z X. . ...T.| ..T...R.!.|. X|. X X X X X X X[. . . . .} k -.%.7 a p.pX2Xg.-.-.-.;.-.-.;.=.t + . ",
"u.=Xa.g 0 0 e e e 0 0 0 r 0 7 0 y.1X#X#.'. X{.{.[.[.].[.|. X|. X|. X X|. X|.'.w t l t w 0 w e 7 g b.hXM.c e e e w e e e 7 & X X ",
"S.j.b 8 : = = = - - - * = > s %.1XcX@X2 _. X{.}.]. X X X|.|.|.|.|.|.[.[.|.|.].= % % * - = * > x l.yXvXx.= X O + % = = - = * * 9 ",
"S.j.s.p.D D z.z.D D D z.z.z.v.2XBXBXv.< { X.X.:.t.8./.(.(.(./.(.(.).9.9.0.(./.q q l A D z.z.c.#XjXCXVXD o + 9 b p.z.z.S z.z.x.a.",
"h.$X1XgXhXhXhXhXhXhXhXhXBXhXvXBXVXBXx., # #.+XdXhXk  ...T.T.T.T.8.2.T T 2.| T.T.E.W.dXhXhXhXcXvXCXVXhXC * 9 %.=XyXhXhXcXhXcXjX=X",
"u.,XkXaXjXjXdXjXjXjXaXaXjXdXkXaXkX<Xy.= ; a.5XkX5X{ } ..........8.2.U T 2.......R.^.<XsXjXaXaXaXkX5X=Xv = v K.kXsXsXsXsXsXsX2Xk.",
"N tXjX=XK.$X$X$X=X=XI.=X%X$XK.K.=Xl.g % 1 c.y.} } } ..4.E E T E E _ 6.6.7.......T...} } k H.I.I.I.I.h.f = C tXlX:XI.P.P.I.I.S.O.",
"V fXjXH.j.Z.S.S.Z.S.S.S.S.S.Z.j.Z.d.u + < @Xv R.T.T.T.4.U U U U U W R.R.R.R.........R. .j <.Z.Z.Z.A.,.e - S fXbXI.V.N.V.V.A.;.t ",
"V fXkX$XZ.j.S.S.S.S.S.S.S.H.S.S.D.d.t $ z OX#.8.| 4.4.6.) ~ ) T U E 4.4.7...............j <.D.Z.D.D.d.e - S fXlXI.A.Z.A.A.D.;.y ",
"B fXaX$XZ.S.S.S.H.S.S.S.S.S.S.S.D.d.g $ '..X).W T T U ! [. X X) U U T T 2.........R.T.T.j g.A.S.D.G.;.e - Z iXcX%XZ.Z.D.A.D.,.u ",
"B fXdXJ.j.Z.H.S.H.S.S.S.S.S.S.S.S.f.i $ ].|.0.T U U U _ [. X X) U U U U 2.8.R.....T.R.R.j g.S.D.D.D.,.e - Z iXjXS.N.V.D.D.D.1.t ",
"B fXjXJ.S.S.S.S.S.S.S.S.H.S.S.S.S.h.u $ ).[.0.T U U U ) [.(.(.) U U T T 2.8.T...........j <.S.D.D.D.,.0 = Z uXtX%.%.g.F.G.L.<.u ",
"V fXdX$Xj.S.S.S.S.H.S.S.S.S.S.H.S.f.u % ( _ ! U U U U U ) ~ ) T U E 4.4.7...R.....R.T. .j <.S.D.D.D.d.r = p.eXb.8 r =.d.d.<.-.t ",
"b.gXdXJ.S.S.H.S.S.S.S.S.S.S.S.S.S.f.t + I U U U U U U U W T T T ! ) 8.Q.R.......T.R.7.4.{ <.D.B.D.D.,.r % v b.y.* # 7 r 0 w 0 0 ",
",XvXdXK.j.j.S.S.S.S.H.S.S.H.S.S.J.f.g + I U U U U U U W 9.9.9.9.9.9.(.(.~.......T.8._ ) H B.S.S.D.D.,.r % f s.$.- o * = = = ; 7 ",
"OXvXaXH.j.S.H.S.S.S.S.H.H.S.S.H.S.d.g + I U U U U U U ) {.|. X X|.|. X X~.Q...T.T.5.E U I q.Z.D.D.G.,.0 % h k.k.N m m m m m m h ",
"A fXdX$XZ.S.S.S.H.S.H.S.S.S.S.S.S.d.g + I U U U U U U ) {.[.|..X|..X.X|.~.R.......7.R Y I B.D.S.D.D.,.r = N tXvXpXuXuXuXuXuXwXy.",
"B uXjX$Xj.S.j.D.S.S.S.S.S.S.S.S.S.f.g O 5 y.K U U U U T ) ! ) )..X|.|.|./.R...Q Q R &.&.&.N.S.D.S.D.f.0 - S hXVXvXlXjXcXcXcX1Xy.",
"B iXjX$Xj.j.S.H.S.H.S.S.H.S.S.S.H.f.f O < v.K U U U U U U U U )..X|..X.X^.R.8.U U ~ r.g.Z.S.S.S.D.D.f.r , D fXMX>XK.%XI.I.I.l.g ",
"B fXjXK.j.j.S.S.S.S.S.H.S.S.H.S.H.f.i + 2 v.$.Y Y Y T Y T Y T ).{.{.{.{.~.8.5.Y Y ^ C.S.S.D.D.S.D.D.,.r - C fXjX%XZ.Z.S.Z.D.1.t ",
"B fXjX$XS.S.H.H.S.S.S.S.S.S.S.S.S.h.g $ 3 v.b T. ...........| Q U U U U U U Y D.D.Z.S.D.S.S.S.D.D.D.d.q - C fXcXI.Z.N.Z.Z.Z.1.u ",
"C fXjX$XS.j.j.S.H.j.D.S.S.S.S.S.D.g.i $ < v.b T.T.T.....T.T.T.Q U U U U U U Y S.S.D.S.S.D.S.S.S.S.D.,.0 * Z fXcX$XZ.Z.Z.S.D.>.t ",
"B eXyXl.j.S.H.S.S.H.S.H.j.S.H.S.S.s.t = > z l T..... ... ...T.( Q Q Q Q Q E ( S.S.S.D.S.S.S.D.D.S.N.s.r 1 p.pXkX$XS.S.S.S.S.;.u ",
"2 B b c %.g.S.H.S.S.j.S.H.S.S.S.-.o.h v X. .| .. . .T...T...T. .| | | | | 8.| J.S.S.S.S.S.S.S.S.g.%.x z N b.1X<XJ.Z.Z.S.D.D.>.u ",
"* - > 6 g -.h.h.j.H.H.S.H.H.S.Z.O.6 d v.E.!.Q.!.R.R.Q.!..... ... .......T.T...h.h.Z.N.D.N.N.N.S.,.i 8 V wX1X=X$XS.S.N.B.B.h.-.t ",
"G H H &.@XOXOXOXOXOX@XOXOX+X*./ G @     *X*XoX*X*XoX*XoXT...T....... .........OX@Xl.J H H / J g.OXOXOX@X#X#XOXOXOXl.J H H + . o ",
"! Q _ 0.HXGXGXGXGXGXGXGXDXmX0.! P +     nXDXDXDXHXDXHX8XE.T.T.T.T. .....T.T.W.GXGXxX^ ~ E Q ' 7XGXGXGXSXSXGXGXGXGXzX_ W P @   o ",
"] P / 3.SXxXxXxXmXmXxXxXmX7X0.[ ( %     kXSXxXxXxXxXxX7X4.4.4.7.| 4.4.7.7.7.8.xXmXlX[ [ ` P P 6XxXxXxXxXmXxXxXxXSX7X] ] [ #   o ",
"SX; O F ' ' ` ` ` ] ' ` ` ' XXSXZX<     ( ` ` ` ' ' ` ~ _ _ _ Q Q _ _ _ Q Q ! ' ` [ SXmX=X$ 4 P ' ' ` ` ` ' ' ` ~ [ SXSXAX:   O ",
"HX: . F ) ! ! ) ! ! ! ! ) ) XXDXZX>     R W ! ! ! W W ! W W W W W W W W W W ! W W [ mXHX#Xo + L W ! W W W W W ! W ] SXHXZX1   O ",
"HX: . F ) ) ! ! ) ) ! ! ! ) XXDXZX1     R ! ! W ! ! ! W ! ! ! W ! ! ! W W W ! ! W [ SXHX1Xo @ L ! ! ! ! ! ! ! W W ] SXHXFX>   O ",
"D qX#XS.B.C.B.F.Y.4XsXsXsX<Xa.d m @X#Xl.r.B.C.C.C.B.C.r.q.=.K 5 s M.sX3XG.C.C.C.G.Y.BXnXjXtXM.h 8 y.rX6XF.C.C.C.r.F.%X%X$X%.c 6 ",
"C fXyXH.g.g.g.j.H.U.-X=X-Xl.O.= d eXcX=Xh.g.g.j.h.g.j.d.@.9 + X a wXvX2XH.g.N.d.S.H.=X>X=X-Xl.8 ; Z pXsXS.g.g.h.g.g.g.Z.g.o.6 X ",
"p.1Xl.$.o.o.o.x x O.O.x o.c t 8 N iXyXa.x c x o.o.x o.x 0 O . % h ,X2Xk.#.x K x o.x o.o.O.O.p 7 f c.pXrX$.o.o.x o.o.o.o.x 6 X . ",
"j.l.#.6 # # # $ % % # + + & 6 o.n.gX#Xs % # # # # # # # X . X r u.K.k.c & # # % # $ + # # % & e u.tXhXb.8 # # # # # # # # X . & "
};
