/* XPM */
static char *result[] = {
/* columns rows colors chars-per-pixel */
"64 64 252 2 ",
"   c #010000",
".  c #0D0503",
"X  c #190803",
"o  c #1F100D",
"O  c #181212",
"+  c #240E05",
"@  c #280B04",
"#  c #350500",
"$  c #2B1206",
"%  c #281209",
"&  c #371607",
"*  c #271713",
"=  c #2C1A15",
"-  c #2D1C19",
";  c #331D17",
":  c #3C2908",
">  c #3C2418",
",  c #2B1E20",
"<  c #2D2324",
"1  c #372624",
"2  c #352B2B",
"3  c #3C2D2C",
"4  c #392F35",
"5  c #570D05",
"6  c #451D0B",
"7  c #49210E",
"8  c #55240D",
"9  c #462617",
"0  c #552917",
"q  c #5E2B14",
"w  c #543412",
"e  c #662B0E",
"r  c #622D14",
"t  c #652F17",
"y  c #6B341A",
"u  c #743314",
"i  c #72361A",
"p  c #743A1E",
"a  c #7C3A1A",
"s  c #462D26",
"d  c #593828",
"f  c #473737",
"g  c #4E3731",
"h  c #693A26",
"j  c #753D24",
"k  c #643E31",
"l  c #6D4707",
"z  c #775200",
"x  c #795301",
"c  c #5D433C",
"v  c #7E4225",
"b  c #79432A",
"n  c #694437",
"m  c #774936",
"M  c #383853",
"N  c #5C3940",
"B  c #3C405C",
"V  c #5B4746",
"C  c #6D4F49",
"Z  c #78534A",
"A  c #6A5655",
"S  c #6B5655",
"D  c #755A57",
"F  c #7A5E5D",
"G  c #7D605E",
"H  c #7A5F60",
"J  c #7D6262",
"K  c #971104",
"L  c #B80C00",
"P  c #BC1500",
"I  c #BB2B03",
"U  c #BC3621",
"Y  c #D40600",
"T  c #C41400",
"R  c #E90706",
"E  c #F60302",
"W  c #FF0000",
"Q  c #FD0A00",
"!  c #F61300",
"~  c #FF1600",
"^  c #FF1A00",
"/  c #EA1713",
"(  c #C82A13",
")  c #EE2D01",
"_  c #F72B01",
"`  c #EF3100",
"'  c #FF371B",
"]  c #FF3A1B",
"[  c #8A5513",
"{  c #9D6704",
"}  c #A46C02",
"|  c #AA7501",
" . c #BE7500",
".. c #B47B00",
"X. c #B97E00",
"o. c #824426",
"O. c #834529",
"+. c #8B4A28",
"@. c #994C27",
"#. c #9B512C",
"$. c #864C33",
"%. c #895238",
"&. c #9A5637",
"*. c #AB5B25",
"=. c #A6562E",
"-. c #A85A35",
";. c #A45D3A",
":. c #B75E35",
">. c #AE6239",
",. c #B4633C",
"<. c #B96238",
"1. c #BA643A",
"2. c #CA5E00",
"3. c #F8450A",
"4. c #E95900",
"5. c #FF5801",
"6. c #C76700",
"7. c #C67401",
"8. c #CC7A10",
"9. c #FA6C0C",
"0. c #D85736",
"q. c #FF4324",
"w. c #FF4827",
"e. c #FF4929",
"r. c #C46A3E",
"t. c #CC6D3E",
"y. c #D6773E",
"u. c #FE7D23",
"i. c #885A49",
"p. c #945D4A",
"a. c #B35A58",
"s. c #88635A",
"d. c #986553",
"f. c #AB6546",
"g. c #B76741",
"h. c #B66944",
"j. c #BB6B44",
"k. c #BC6E4A",
"l. c #BC704B",
"z. c #A96A54",
"x. c #AF7257",
"c. c #BA7355",
"v. c #866966",
"b. c #966D62",
"n. c #98736A",
"m. c #967773",
"M. c #A87668",
"N. c #B77B68",
"B. c #A47C76",
"V. c #A37E79",
"C. c #B37E76",
"Z. c #C56E44",
"A. c #CC6E43",
"S. c #C76F49",
"D. c #D06D4A",
"F. c #C57146",
"G. c #CC7144",
"H. c #C5734B",
"J. c #CA744A",
"K. c #C7784F",
"L. c #D17244",
"P. c #D1764B",
"I. c #C67752",
"U. c #CB7B55",
"Y. c #CC7D5A",
"T. c #D57A52",
"R. c #D47B54",
"E. c #D27E5A",
"W. c #C57E63",
"Q. c #BD8100",
"!. c #BC841F",
"~. c #C28100",
"^. c #CA8A06",
"/. c #D78B01",
"(. c #CD8618",
"). c #E58D00",
"_. c #FF8509",
"`. c #E89506",
"'. c #FC9805",
"]. c #FA8C13",
"[. c #FD9814",
"{. c #ECA10F",
"}. c #FFA304",
"|. c #FFA608",
" X c #EAA214",
".X c #FCAD16",
"XX c #FCA818",
"oX c #FEB117",
"OX c #FFB219",
"+X c #B9824D",
"@X c #B7866D",
"#X c #B5896E",
"$X c #B88675",
"%X c #B18C7B",
"&X c #CE805E",
"*X c #D3815D",
"=X c #DD845E",
"-X c #FF915D",
";X c #FCB746",
":X c #CB8669",
">X c #D58767",
",X c #DC8662",
"<X c #DA8965",
"1X c #D5896A",
"2X c #C78C77",
"3X c #D18F77",
"4X c #D9937A",
"5X c #E28A67",
"6X c #FF986B",
"7X c #E39476",
"8X c #E5997C",
"9X c #FEA57C",
"0X c #736F8A",
"qX c #897C97",
"wX c #AD8883",
"eX c #B48C88",
"rX c #B6908C",
"tX c #BD928A",
"yX c #C18881",
"uX c #CA9689",
"iX c #D89A87",
"pX c #C99B97",
"aX c #CC9D95",
"sX c #D29E94",
"dX c #E49E84",
"fX c #E69E86",
"gX c #D6A58B",
"hX c #CEA098",
"jX c #DBA494",
"kX c #D7A59A",
"lX c #DBA69A",
"zX c #E4A28B",
"xX c #E8A289",
"cX c #F3A58A",
"vX c #E7A592",
"bX c #EDAA95",
"nX c #E3AB9D",
"mX c #EBAC9C",
"MX c #F1AC99",
"NX c #F7B498",
"BX c #CFA6B5",
"VX c #E6AEA1",
"CX c #EAB3A7",
"ZX c #F3B5A4",
"AX c #F6BEB1",
"SX c #FAC495",
"DX c #F9CCA1",
"FX c #FFD4A6",
"GX c #FFD4A8",
"HX c #CCACC1",
"JX c #D3B6C7",
"KX c #D3B4CB",
/* pixels */
"z.M.yXHXJXJXKXJXJXJXJXJXKXKXKXKXKXHXqXB 4 Z C.BXKXKXKXKXKXKXBXyXx.z.N.pXHXKXKXKXKXJXKXKXKXKXKXKXKXKXBX0XM N d.yXBXKXKXKXKXKXHXpX",
"f.W.iXvXmXmXnXVXmXnXmXmXVXmXmXmXVXjXs., * p.1XbXMXMXMXVXmXVXiXc.f.S.>XfXvXMXbXmXMXmXmXMXbXMXmXbXMXMXiXD - y a.7XbXMXbXMXMXMXvXE.",
"i.3XdX<X1X1X<X1X1X<X1X<X1X<X>X>X<XY.b % ; b.fX7X<X,X>X,X<X5Xk.j h C.fX8X,X,XE.5X,X,X,X,X,X5X=X5X5X5XU.h = Z :XfX5X=X=X=X5XE.D.&.",
"A aXfXE.F.F.H.F.H.H.H.F.J.S.J.S.J.g.p + 2 wXfXE.Z.A.Z.S.J.D.#.7 3 eXMX7XD.Z.D.D.G.A.A.G.G.t.A.t.A.P.:.r = s.sXcXT.y.t.A.A.Z.0.i ",
"A pXfXU.Z.Z.F.F.F.F.F.F.F.F.F.G.J.1.a % 3 wXfX>XZ.Z.Z.G.F.G.@.7 3 wXmX7XP.A.t.A.Z.A.t.t.A.A.t.A.t.L.:.r = F sXcXT.t.0.t.A.t.0.e ",
"S aXfXY.Z.H.J.F.F.J.J.J.J.F.J.J.J.g.p + 2 wXvX,XG.Z.D.S.J.P.=.6 3 eXVX8XU.A.A.A.A.D.A.G.A.A.A.L.y.L.<.t - F sXcX=Xt.t.D.A.L.r.u ",
"S aXfXU.F.F.H.H.J.J.J.F.F.J.J.F.J.j.i % 2 wXzX,XZ.Z.J.G.L.P.#.7 s rXmX7XP.A.Z.A.A.A.A.A.A.L.A.A.A.L.<.e - F sXcXT.t.t.t.t.t.:.u ",
"S pXzXU.k.F.F.J.H.J.F.J.J.J.F.H.J.g.i @ < wXuXf.#.<.Z.P.P.P.=.6 3 rXmX8XT.Z.A.D.L.A.L.A.A.A.L.A.G.L.<.e - v.aXiX:.*.t.t.y.y.:.u ",
"A aXxXY.F.J.H.H.F.J.F.J.H.F.J.H.J.1.p + 2 %XC.k 8 @.1.Z.D.J.#.6 s rXVX8XP.Z.G.A.G.A.G.L.A.A.A.A.A.L.:.r = s.uXC.d u *.t.t.0.:.u ",
"s.jXdXY.Z.F.F.J.J.F.H.H.J.H.J.H.K.1.p $ 1 n.b.1 X r +.@.@.@.a 8 k tXmX4XT.A.S.G.A.G.D.A.P.A.A.A.A.L.:.q * Z C.s.* 6 o.@.@.@.@.e ",
"@XnXfXY.F.H.J.F.J.H.F.F.J.J.F.J.J.j.p @ ; &.%.%   @ & & & & 6 u f.sXMX7XP.S.G.G.G.G.F.A.L.A.A.A.L.L.:.e $ j f.$.X X @ & & 6 6 8 ",
"2XnXiXU.Z.F.H.H.H.H.H.H.H.J.J.F.J.g.p + $ %.p.g 2 1 1 1 3 s s h z.vXCX7XP.Z.G.L.G.A.G.L.A.A.L.A.L.L.r.t @ h f.p.s 1 s 3 1 1 9 r ",
"d.kXiXU.l.F.H.F.H.H.F.H.H.J.H.F.J.j.i @ , b.uX$XB.V.V.V.%XV.v.k m pXZX8XK.A.D.L.G.G.G.A.G.G.A.A.A.P.1.e * C W.fX$XV.B.B.B.C.n.Z ",
"A aXzXR.F.H.H.H.H.H.H.H.F.H.J.J.J.g.i + 3 wXZXZXmX/ / R / / / R R / / / R R K A.A.J.G.A.G.G.P.A.A.L.1.r ; F sXAXZXMXMXMXMXNXiXi.",
"A aXzXY.H.F.H.J.H.H.H.J.J.H.H.J.J.g.j + 3 wXVXfX<XW W W W W W W W W W W W W Y A.G.J.A.G.G.A.A.A.L.L.:.r - H sXMX7X5X5X5X5X5XY.m ",
"S aXxXU.F.F.H.H.F.H.H.J.H.J.J.F.D.j.p + 4 wXvX<XJ.W W W W W W W W W W W W W Y D.A.A.A.D.A.A.A.L.A.L.:.r - J sXcX,XD.P.D.T.T.1.u ",
"S aXzXU.H.F.H.H.H.J.H.H.J.H.H.H.J.1.i + 2 a.W W W W W W W W W W W W W W W W W W W W W W W W W 0.L.P.<.r - H sXcXR.A.A.A.t.A.:.u ",
"S hXzXU.H.F.H.H.H.H.H.J.J.H.J.H.J.j.i + < a.W W W W W W W W W W W W W W W W W W W W W W W W W 0.G.L.r.r - G sXbXR.A.A.A.A.A.:.u ",
"S kXxXY.H.H.H.H.H.J.H.J.H.H.J.J.J.j.j @ 2 z.W W E W W E W W W W W W W W W W W W W W W W W W W 0.L.L.<.r = H sXcXR.A.A.A.G.G.:.u ",
"V B.N.f.>.k.H.H.H.J.H.H.H.J.H.H.j.=.j 1 V x.Q.Q.X.Q.X.Q.X.X.}.OXOXOXOXXXX.X./.OX Xw ;.G.G.F.G.G.Z.<.#.t s b.uXdXR.A.A.A.G.L.:.u ",
", c c t O.g.K.K.K.H.H.H.J.J.J.S.&.y n S b.+XQ.Q.Q.Q.....Q.Q.|.OXOXOXOXXXQ.Q./.OX Xw ;.k.F.F.G.F.<.+.y n s.W.1X,XP.G.G.G.t.L.<.u ",
"O < 1 9 h +.;.-.,.k.J.H.J.J.K.J.+.> c w w x ).`.`.Q.Q.Q.`.`.oXOXOXOXOXXXQ...).OXXX#.[ [ [ [ [ 1.:.e ; C uX8XE.G.G.G.t.G.L.L.<.u ",
"2 H m.v.n d 7 8 O.g.J.J.J.J.K.K.+.= V x Q.^.OXOXOXQ.~./.OXOXOXOXOXOXOXOXQ.Q.).OXOXOXOXOXOXOX|.*X=.0 * S lXdXR.A.t.G.G.L.G.L.<.u ",
"V hXAXsXv.g < 1 h +.=.&.#.&.&.=.v s S x ..^.OXOXOXQ.~.^.oXOXoXOXOXOXOXXX..Q.).OXOXOXOXOXoXoXXX<.@.t s s.iX7XT.A.G.G.G.G.G.G.,.u ",
"A kXCXiX@Xn.m.v.C 0 7 7 6 6 7 7 k s.M.x X.^.OXOXOXX.Q.Q././.|.oXOXOXOXOX}.}.'.^.^.|.oXOXOXOXOX X].v b.N.1X=XP.Z.G.G.G.G.G.L.<.u ",
"A hXvX1X3XgXkXuXs.s - - = = O o g %XiXx X.^.OXOXOXQ.X.X.Q.Q.}.oXOXOXOXOXOXOX'.X.Q.|.oXOXOXOXOXOXOX[ yXdXE.J.G.G.G.G.G.G.G.P.1.u ",
"A pXzX&X&X4XzX4X@Xv.J J F S f O f tXbXx X.^. X X{.^.^.^./.^.|.oXOXOXOXOX X X).Q.Q.`. X X X X X(.!.%.kXfXP.Z.A.G.G.G.G.G.G.G.<.u ",
"A hXzX&XK.K.&X&X3XjXnXnXVXpXG * f tXvXz X.X.Q.X.Q.OXOXOXoXOXoXOXOXOXOXOXQ.Q...Q.Q...Q.Q.Q.X.| d < A sXfXT.F.G.G.G.G.L.G.G.r.#.q ",
"A hXzX&XJ.K.J.K.>X4XdX8X8X1X%.* f eXvXz Q.X.Q.Q.Q.OXoXoXOXoXOXOXoXoXoX.XX.Q.X...X.X.X.Q.Q.Q.| w - S kXxXR.G.J.J.P.P.P.L.G.@.8 $ ",
"Z uX3Xf.-.;.;.;.;.f.f.f.f.;.h & c tXsXz ..........OXOXoXoXoXOXOXoXoXoX.XQ.Q.Q.Q.X.X.X.7.| ..| e > s.kX4Xj.-.-.:.:.-.-.-.=.y @ . ",
"d.:Xz.p w t t t t r q q t r q q i.uX2X%.q t t q q OXOXOXoXoXoXOXoXoXoXOXOXOXOXOXOXOXOXOXw q q 8 b M.jX#Xb e q e e r e q r & . @ ",
"l.l.m > = = * = = = = = * ; d &.:XnXV.3 X X % = - OXOXoXoXoXoXOXoXoXoXOXoXOXOXOXOXOXOXOX= = > b c.dXlXb.= X + $ = = - = = o * 0 ",
"J.l.z.s.J J v.v.v.J J v.v.v.M.uXCXCXm.< . & : : 9 |.'.'._._.'.}.|.|.|.|.}.|.`.8.(.8.(.(.v.v.b.$XvXAXCXv.o @ 0 m s.v.v.G v.v.b.z.",
"h.&X3XjXlXkXkXlXkXkXkXlXnXlXnXCXZXlXb.- o [ Q.| | ~.7.4.Q ! 4.Q.Q.Q.Q.Q.X.X.[ vXjXvXjXjXkXkXnXmXZXZXlXZ * 0 &.1XzXkXnXjXjXnXsX:X",
"p.2XiXzXzXzXzXdXvXzXfXzXzXzXfXiXgX3XZ = - &...Q.Q.Q.7.4.Q W 4.X.Q.Q.X.X.X.X.z dXxXdXdXxXdXxXdXdXdXdX:Xn - n W.xXdXdXdXfXdXfX4Xz.",
"Z uXzX>XY.&X&X&X:XY.Y.&X*X&XY.Y.&XK.b l | | X.X.X.Q.~.7.6.7.~ W E W W Q X.Q.| } { s f.E.R.E.E.E.T.E.k.h - Z uXcX<XR.R.R.R.E.S.+.",
"A hXdXI.j.H.H.l.F.F.H.l.H.F.H.F.H.g.y z Q.Q.Q.X.X.X.X.X.X.X.W W W W W W X.X.X.X...9 f.F.Z.Z.Z.Z.S.G.,.r - H aXMXR.G.Z.G.A.A.:.i ",
"A hXgX&XF.H.H.H.H.K.H.H.H.H.H.H.H.g.i z 7.X.X.X.X.X.X.X.X.X.Q W W W W W X.X.X.X...9 ;.H.J.J.J.S.J.J.g.r - H aXbX*XF.G.F.J.J.:.u ",
"A hXxXY.l.H.K.K.H.I.H.H.I.H.l.H.K.h.p z X.X.X.X.X.X.7.4.~ ! W W W [.XX[.W W Q Q ^ '.XXXXS.J.S.J.J.J.<.r - F aXbX*XF.J.G.D.J.,.y ",
"A hXxXY.H.l.K.H.H.H.H.H.H.H.H.H.K.h.p z X.X.X.X.X. .7.4.Q W W W W XXOX[.W W W W ~ '.XXOXS.J.J.Z.J.J.,.r - F aXfXI.Z.F.J.G.J.,.u ",
"A aXzXY.l.H.K.H.H.H.H.K.H.H.K.H.H.h.y z X.X.X.X.X.X.7.4.! ! W W W _.]._.W W W W ~ _.'.].S.J.J.H.J.J.g.q - H pXuX&.&.j.J.P.P.,.i ",
"S hXdX&XF.l.H.K.H.H.I.H.K.H.H.H.I.j.y z X.X.X.X.X.X.7.Q.Q.Q.Q W W W W W W W W W W W W W J.Z.S.J.J.J.g.t - s.yXB.9 e =.1.1.Z.-.y ",
"M.lXdXU.l.H.H.K.I.c.H.H.H.K.H.H.J.j.i z X.X.X.X.X.X.X.X.X.X.Q W W W W W W W W W W W W W J.H.S.J.J.J.g.q * m z.i.* $ 8 t q e q q ",
"2XnXgXU.k.l.K.H.H.H.H.H.H.H.H.H.H.h.j I _ 3.X.X.X.X.~.^.`.'.5.5.5.5.5.3.W W W W W W W W S.J.H.S.J.J.,.t @ h f.%.; O * = = = ; 8 ",
"@XlXzXY.F.H.H.K.I.K.H.K.I.H.H.H.H.h.h R W ) ....Q.Q.Q./..XoXOXOXOXoXOX[.W W W W W W W W J.H.J.H.J.J.,.r % k x.x.Z V V V V V V k ",
"G kXiXY.l.H.K.H.H.l.H.H.H.H.I.H.H.h.i Y R )  . .6.Q.Q./..XOXOXOXOX[.[.].W W W W W E E R H.J.S.J.J.J.,.t = Z uXnXhXpXpXpXpXpXeXi.",
"A pXzXU.l.H.l.H.K.H.H.H.H.H.H.H.I.h.y X O $.W W W Q.~./.oXOXoXOXOXW W W W W W W E 5 m $.H.S.J.H.H.J.g.q , H hXDXbXvXvXvXvXvX3XZ ",
"A aXzXY.l.l.K.K.H.H.K.K.I.H.H.H.I.h.h + 2 a.W W W Q.~./.oXoXOXoXOXQ W W W W W W E 8 &.h.J.H.H.J.J.J.g.t , J hXMX<X*X*X*X*X>Xl.b ",
"S hXzXY.l.H.K.I.K.H.H.H.I.H.I.H.P.h.j + 2 a.E W W X.~./..XOXOXOXOXQ W E W E W E R 0 ;.H.H.H.J.H.J.K.,.r - D hXvXE.F.F.F.F.J.,.u ",
"S hXzX&Xl.K.H.l.H.H.l.K.H.H.H.H.I.g.j + 2 eXzX>XZ.W W W W W W W W 7.X.Q.X...Q...| 9 &.K.J.J.H.H.J.K.,.q - D hXvX*XF.F.F.F.J.,.y ",
"S kXzX&XH.l.I.H.I.H.H.H.H.H.H.H.I.j.i + 2 wXvX>XH.W W W W W W W W  .X...X.X...Q.| 9 &.h.H.H.H.J.J.K.g.r * F hXbX&XF.H.H.F.J.,.y ",
"A tX4Xc.j.H.I.H.l.K.I.H.I.H.I.H.H.;.j = 3 wXjX:XH.W W W W W W W W X.X.X.X.X.Q.....: : 9 J.H.J.H.H.l.>.t 1 s.sXxX&XF.Z.H.J.J.,.y ",
"4 S Z v #.j.I.I.I.H.H.H.l.I.H.H.;.O.k V s.$X3XY.H.2. .6.2.2.6.6.6.X.X...X.X.Q.Q.Q.{ } { J.J.H.J.j.&.b n Z M.3X4XU.J.H.J.J.J.,.y ",
"O , - 9 y ;.j.j.k.l.I.H.H.H.I.H.+.9 k V.uX1XY.K.H.X...Q.......X.X.X...Q.X.X...Q.X.X.X.Q.K.K.J.K.>.u 7 C %X2X:XU.H.F.H.K.S.J.,.p ",
"O     K P I @X#X#X#X#X#X#X#X$X#X:.T P T P U @X#X#XX.X...X.X.X.X.Q.Q.Q.Q.;X;X;X;X;X;X;X;X    . K T *.@X@X#X#X#X#X#X#X#X#XI P P P ",
"O     Y _ _ GXGXGXGXGXFXFXFXGXFX-X~ ~ ~ ~ e.DXFXFX..X.Q.X.X.X.X.Q.Q.Q.!.FXFXFXFXGXFXFXGX    . T ^ u.DXFXGXGXGXGXGXGXGXGX5.^ _ ^ ",
"O     ) ^ _ FXFXGXGXGXGXGXFXFXFX-X~ ~ ~ ~ q.FXFXFXQ...Q.Q.Q...Q.Q.| Q.Q.GXGXGXGXFXFXFXGX    . T ^ u.FXGXFXGXGXGXGXGXGXGX9.^ _ ^ ",
"X     4X9X6X] ] q.e.e.] ' q.e.q.( @ # D.cX6X' q.w.` ) _ ` ` ` _ ) ` ` ) ' ] q.e.q.] ] q.    . 2X9Xu.q.] ] e.e.q.] q.e.e.K X # 9X",
"@     gXGXSX^ ^ ~ ^ ~ ~ ~ ~ ~ ^ L     #XDX9X~ ~ ~ ~ ~ ~ ! ~ ~ ~ ! ^ ~ ~ ~ ~ ~ ^ ~ ^ ~ ~     O 2XFXu.^ ^ ^ ^ ~ ^ ^ ^ ^ ^ 5     DX",
"X     4XDXSX^ ^ ^ ^ ^ ^ ^ ^ ~ ^ P     #XFX6X~ ~ ^ ~ ~ ~ ~ ^ ~ ~ ^ ^ ^ ^ ^ ^ ~ ^ ^ ~ ^ ^     . %XFXu.^ ^ ^ ^ _ ^ _ ^ _ ^ 5     DX",
"S aXxXY.K.K.K.&X3XzXmXCXVXaXs.- f tXvX>XK.K.K.K.K.l.K.K.j.;.p ; 3 eXVX4XY.J.I.I.&X4XmXmXmXmXuXc , S hXzXY.H.J.J.J.J.H.H.Z.,.+.7 ",
"S aXiXI.j.j.j.l.I.:X1X:X1Xc.m = g tXzX:Xh.j.j.l.k.k.l.g.+.w $ X 3 tXVX4Xc.j.j.j.l.I.:X1X:X1Xx.9 > D aXzXK.j.j.j.k.k.j.Z.j.+.6 @ ",
"d.2Xc.%.O.O.v v O.O.O.v v v y 7 Z sXuXd.v v v O.o.o.v v r o . % n $X3Xx.$.v O.O.O.v o.O.O.O.j 8 d n.kX2X%.o.o.v o.o.o.+.o.7 . X ",
"x.c.$.7 $ $ $ $ $ $ $ $ $ & 7 o.N.jX%Xk $ % $ $ $ $ $ + X   X t ;.&Xx.b & $ $ & $ $ @ $ $ $ & t f.2XnXn.9 $ $ $ $ $ $ $ $ . . & "
};
