/* XPM */
static char *result[] = {
/* columns rows colors chars-per-pixel */
"64 64 158 2 ",
"   c #000100",
".  c #050C00",
"X  c #050F0E",
"o  c #071000",
"O  c #091200",
"+  c #0E1B00",
"@  c #011416",
"#  c #001718",
"$  c #031A1B",
"%  c #0C1919",
"&  c #002500",
"*  c #012B00",
"=  c #0A2D00",
"-  c #142D00",
";  c #003700",
":  c #0A3100",
">  c #013B00",
",  c #093E00",
"<  c #163300",
"1  c #1A3500",
"2  c #143F00",
"3  c #1B3A00",
"4  c #071F20",
"5  c #012321",
"6  c #132525",
"7  c #152927",
"8  c #162C2A",
"9  c #182E2C",
"0  c #18302D",
"q  c #063133",
"w  c #134100",
"e  c #1D4200",
"r  c #1F4900",
"t  c #224600",
"y  c #234A00",
"u  c #2A4F00",
"i  c #2A5300",
"p  c #305E00",
"a  c #336400",
"s  c #00464B",
"d  c #01555A",
"f  c #005E66",
"g  c #00656C",
"h  c #08676E",
"j  c #0F6B70",
"k  c #137579",
"l  c #376A64",
"z  c #009100",
"x  c #0A9500",
"c  c #029F00",
"v  c #0E9D00",
"b  c #129D00",
"n  c #1A9F00",
"m  c #01A300",
"M  c #0CA700",
"N  c #00A900",
"B  c #0FAC00",
"V  c #13A200",
"C  c #13AE00",
"Z  c #1BA900",
"A  c #00B400",
"S  c #0BB600",
"D  c #02B900",
"F  c #0CBA00",
"G  c #12B700",
"H  c #1BB700",
"J  c #12BB00",
"K  c #1BBC00",
"L  c #3BAD00",
"P  c #2CB500",
"I  c #24BC00",
"U  c #2CBB00",
"Y  c #3EB500",
"T  c #33BD00",
"R  c #39BD00",
"E  c #41AD00",
"W  c #48A900",
"Q  c #54A500",
"!  c #56AF00",
"~  c #59AD00",
"^  c #4CB100",
"/  c #53B300",
"(  c #59B400",
")  c #55BC00",
"_  c #5EBE00",
"`  c #05C200",
"'  c #14C400",
"]  c #1AC500",
"[  c #24C400",
"{  c #2BC500",
"}  c #26C800",
"|  c #2DC900",
" . c #34C500",
".. c #3AC600",
"X. c #34C900",
"o. c #3CCB00",
"O. c #42C500",
"+. c #4AC600",
"@. c #44CC00",
"#. c #4ACC00",
"$. c #53C400",
"%. c #5CC400",
"&. c #54CC00",
"*. c #5CCE00",
"=. c #46D300",
"-. c #4BD400",
";. c #45D800",
":. c #54D300",
">. c #5DD300",
",. c #54D900",
"<. c #5CD900",
"1. c #62C500",
"2. c #64CC00",
"3. c #69CE00",
"4. c #64D400",
"5. c #6BD500",
"6. c #64DB00",
"7. c #6CDB00",
"8. c #71D600",
"9. c #71DB00",
"0. c #79DA00",
"q. c #66E200",
"w. c #6CE200",
"e. c #74E200",
"r. c #017A81",
"t. c #1B7C86",
"y. c #088088",
"u. c #11848D",
"i. c #168C91",
"p. c #14969C",
"a. c #22949A",
"s. c #399294",
"d. c #399C96",
"f. c #169DA0",
"g. c #2B9BA1",
"h. c #2CA1A7",
"j. c #34ADB1",
"k. c #538E89",
"l. c #4CABA3",
"z. c #5EAAA6",
"x. c #5CB7AC",
"c. c #49B1B6",
"v. c #67ADAF",
"b. c #65B4B2",
"n. c #63BBB3",
"m. c #6FBBB6",
"M. c #6BBCB8",
"N. c #4EBFC1",
"B. c #4FCDCB",
"V. c #58D2CF",
"C. c #5ADBD8",
"Z. c #76D7D7",
"A. c #6CE3E0",
"S. c #76E6E6",
"D. c #79E6E5",
"F. c #7AE6E8",
"G. c #85E4E5",
"H. c #85E8E8",
/* pixels */
"                                                                                                                                ",
"                                                                                                                                ",
"            .                                                                                                                   ",
"                                                                                                                                ",
"        . 3 r w y r e t y r r r r r r y r e t t t t t t 3 O                                                                     ",
"        < ) q.q.q.q.q.q.w.q.q.q.w.q.q.q.w.w.w.w.q.w.w.e.6.1       . O . . O O . o o o o o o o o O . o o o o o o o o O O . O O . ",
"        - / 6.6.q.q.6.6.6.6.q.6.6.6.6.6.6.6.6.6.7.6.6.6.2.3     + i p a p p a a p p a p p a a p p a a p p a p p a p p p a p p a ",
"        - ^ q.6.6.q.q.6.q.q.6.q.q.6.7.7.6.q.7.6.7.7.6.7.4.1     3 %.2.3.4.4.4.2.4.5.3.4.4.3.4.4.4.3.3.4.3.3.5.3.3.3.5.3.3.3.4.3.",
"        < / 6.q.q.q.q.6.q.q.q.7.q.7.q.7.q.6.q.7.q.7.7.6.4.< .   u 2.7.w.e.7.e.w.9.e.e.7.9.9.e.9.e.9.9.9.9.e.9.9.9.9.9.9.9.9.9.e.",
"        < / q.q.6.q.q.q.q.6.6.q.7.6.7.6.7.q.7.7.7.6.7.7.4.3     t 2.6.7.7.7.7.7.7.7.7.7.7.9.7.7.7.9.7.9.7.9.7.9.9.9.9.7.9.9.7.9.",
"        - ( w.w.q.q.w.w.w.e.w.e.w.e.w.7.e.e.7.e.e.w.9.e.4.3     t 1.7.7.7.9.9.9.9.7.9.7.9.7.5.9.7.9.9.9.9.9.9.8.9.9.7.9.8.9.9.9.",
"        - Y ,.,.,.,.<.,.,.,.,.,.:.,.<.,.,.<.:.,.<.<.:.>.*.< .   t 1.5.7.7.7.6.6.7.7.7.7.7.7.7.7.7.7.7.5.7.7.7.7.7.9.5.9.7.7.7.5.",
"        * m ` ` ` ` ` ` ` ` ` ` ` ` ` ` ` ` ` ` ` ` D ` S *     u %.5.7.7.6.6.7.7.7.6.7.7.5.6.7.6.6.5.7.5.7.7.7.6.5.7.7.7.5.6.9.",
"        * z A D D D ` D D A A D D D D D D A A A A A A A N *     t $.>.>.4.<.<.>.>.<.>.<.4.4.>.4.4.4.4.4.>.4.4.4.4.4.4.4.4.4.4.4.",
"        & z D ` D D D D D D D D D A D D D D A D D A D A N ;     ; M G J F F J J F J J J F J J J J J G G J J G J G G G G G G G G ",
"        * m ` ` ` ` ` ` ` ` ` ` ` ` ` ` ` ` ` ` ` ` ` ` D * .   > N A A A A D A A A A A A A A A A A A A A A A A A A A A A A A A ",
"        < E <.<.<.<.<.<.<.<.<.<.<.6.<.<.<.6.<.<.<.6.>.6.*.<     > m N A A A A A A A A A N A A A A A N A A N A A N A A N A N A A ",
"        - ( w.w.w.w.w.w.w.7.w.w.w.7.w.e.9.w.7.9.e.9.7.9.4.3 .   2 P  .X. . ... . . ... . ..... . ..... ..... ....... ...........",
"        < / 7.q.q.6.6.7.7.q.7.7.7.7.7.6.7.q.7.w.7.w.7.7.4.3     r _ 4.6.6.5.6.5.5.5.6.5.6.5.6.5.6.5.5.6.5.6.5.5.5.5.5.5.6.5.5.5.",
"        < ( 6.q.q.q.7.q.6.7.q.6.7.q.q.7.7.7.7.7.7.7.6.7.3.1     y %.5.7.6.6.6.5.6.6.5.6.7.6.5.7.5.5.7.6.5.6.6.7.6.7.6.7.5.8.7.6.",
"        < / 6.7.6.7.q.7.6.7.7.q.q.7.7.q.q.7.q.7.7.7.7.7.4.3     y 1.6.7.7.7.7.7.7.7.9.7.7.8.7.5.7.9.7.8.7.9.7.8.7.8.9.9.9.9.8.9.",
"        - / 6.q.q.7.7.q.q.q.7.7.7.7.q.7.7.7.q.7.7.w.7.7.2.3 .   t 1.5.7.7.7.9.7.9.7.7.9.7.9.9.7.9.7.7.9.9.5.9.7.9.7.9.5.9.9.9.9.",
"        < ( 7.q.7.q.6.7.7.q.7.q.7.q.6.7.7.7.7.7.7.7.7.7.4.<     t 1.7.9.7.9.7.7.7.9.9.7.7.7.9.7.7.7.9.9.9.8.9.8.7.8.9.9.9.9.8.9.",
"        < ( 7.w.w.7.e.7.e.9.w.9.e.7.e.9.e.9.e.9.9.9.9.9.3.3 .   u 1.5.7.7.9.7.7.9.5.7.9.9.8.7.9.7.9.8.7.7.9.7.9.7.9.9.8.7.8.7.9.",
"        = L -.;.;.;.;.;.-.-.;.-.-.-.;.-.-.-.-.-.-.-.-.-.+.< .   r %.5.6.7.7.6.7.6.7.7.7.5.7.7.5.7.9.6.5.7.5.7.6.5.7.7.5.7.7.5.9.",
"        * v ' ' ' ' ' ] ' ' ' ' ' ' ] ' ' ' ] ' ] ] ] ' H :     t 1.8.9.9.9.9.9.9.9.9.9.9.9.9.9.9.9.9.9.9.0.9.9.0.9.9.9.9.0.9.9.",
"        * x F F F F J J G F J F G G J J F J G J G G J J C *     y ) >.<.4.4.4.4.4.4.4.>.4.5.>.4.4.4.4.4.4.4.4.4.4.4.4.4.4.4.4.4.",
"        < ^ 6.6.6.6.6.<.<.6.6.6.6.6.<.6.4.6.6.6.6.6.<.4.*.< .   > M S D D D D A D A D D S A D D S A D D S A D A A D S D S D A S ",
"        - ^ 6.6.6.6.6.6.6.6.6.q.6.6.7.6.6.7.7.6.6.6.5.6.2.3 .   > B F ' ' ' F ' ' F ' ' F ' ' J J ' F ' J ' J ' ' J ' J J J ' J ",
"        < / 7.q.6.6.q.6.q.7.6.7.6.6.6.7.q.7.6.7.6.7.7.7.4.1     t %.4.5.5.4.4.4.5.5.4.5.6.4.5.5.5.4.5.5.5.4.5.5.4.5.5.5.5.6.5.5.",
"        < ( 6.7.q.7.7.7.7.q.7.7.7.7.7.w.7.7.7.7.9.7.7.7.3.1     u %.5.9.7.9.7.7.8.9.8.9.7.9.7.8.5.9.7.7.9.9.9.9.7.9.8.7.8.9.6.9.",
"        - ( 6.7.7.7.6.q.7.7.7.q.7.q.7.7.7.7.7.w.7.7.7.7.4.3     t 1.5.7.7.7.7.7.7.7.7.7.7.7.9.7.9.7.9.7.7.8.7.5.9.7.9.7.9.7.9.7.",
"        < ( 7.w.7.7.w.7.7.7.7.7.7.9.e.7.7.7.9.7.7.7.7.7.3.3     2 Y O.#.@.O.+.#.@.O.+.+.@.+.#.@.@.#.#.@.+.#.@.#.#.+.O.+.#.+.@.#.",
"        < ^ <.6.6.4.6.<.6.6.6.6.6.<.6.6.6.6.6.6.6.6.5.5.*.< .   > c A N A A A A A A A A A A N A A N N A A N A N A A A A A A A N ",
"        * V ' ' ' ] ' ] ] ' ' ] ] ' ] ] ] ] ] ] ] ] ] ] G : .   > m A A A A A A A A A A A A A A D A A A A A A A A A A A A A A A ",
"        & z A D D D D A A D D D A A A A A A A A A A A A N ;     > m A A A A A A A A A A A A A A A A A A A A A A A A A A A A A A ",
"        & z A A D A A A D A A A A A A A A A A A A A A A N *     > m A A A A A A A A A A A A A A A A A A A A A A A A A A A A A A ",
"        * z A D D A A D A D D A A A A A D A A A A A A A N *     > c A A A A A A A A A A N A A A A A A A A A A A A A A A A A A A ",
"        & z A D A D D A D A D A D A D A A A A A A A A A N *     ; m A A A A A A A A A A A A A A A A A A A A A A A A A A A A A A ",
"        & z A D A A D A A D A A A A A A A A A A D A A A N ;     ; m A A A A A A A A A A A A A A A A A A A A A A A A A A A A A A ",
"        * z A D A D A A D A A D A A A A A A A A A A A A N *     > m N A A A A A A A A A A A A A A A A A A A A A A A A A A A A A ",
"        & z A A A D A D A A D A A A D A A A A A A A A N N * .   > N A A A A A A A A A A A A A A A A A A A A A A A A A A A A A A ",
"        & z A A A A A A D D A A D A A A A A A A A A A A N *     ; m A A A A A A A A A A A A A A A A A A N A A A A A A A A A A N ",
"        & z A D D D A D A A A D A A A A A A A A A A A A N *     ; c A A A A A A A A A A A A A A A A A A A A A A N A A A A A A A ",
"        * z A A D D A A D A A A A A A A A A A A A A A A N *     > m A A A A A A A A A A A A A A A A A A A A A A A A A A A A A N ",
"        & z A A A A A A A A A D A A A A A A A A A A A A N * .   ; m A A A A A A N A A A A A A A A A A A A A A A A A A A A A A A ",
"        & z A A A D A A A A A D D A A A A A A A A A A A N *     ; m A A A A A A A A A A A A A A A A A A A A A A A N A A A A A A ",
"        * z A A A D A D A A A A A A A A A A A A A N A A N *     > m N A A A N A A A A A A A N A A N A A A A A A A A A A A N A A ",
"        & z A A A A A A D A A A A A A A A A A A A A N A N *     > m A S A A S S D A D S A A D S A A J A A S S D A S A A A S A A ",
"        & z A A A D A A A A D A A A D A A A A A A A A A N *     ; m J :.} A X.=.] S o.@.S ] o.@.A ] :.] D  .:.D F -. .A [ #.{ A ",
"        & z A D D A A S A A A D A D A D A A D A A A S A N *     > M I 4.| S @.:.[ H #.-.H [ -.&.S { 4.[ D @.4.` K >.o.S  .>...F ",
"        & z J 5.o.A  .4. .S o.5.H F #.4.S F 9.{ A  .5.J N * .   t _ &.P X.5.O.H o.5.[ J 5.@.J ..6. .P &.>.O.P #.4.U ] 5.&.G  .8.",
"        * b [ @.| [ X.o.X.{ | o.{ [ o.@.] } #. .] | #.[ I =     w R .. .| @. .{ X.#.{ ] #.X.[  .#.| U o.o. . .X.o. .[ -.o.]  .+.",
"        = W #.K ' >.X.F | >.} F :.@.' I -.o.K X.-.o.G o.#.< .   > M [ *.X.J @.-.{ K @.-.I { =.#.F | >.{ F @.>.J K :.o.J  .-.X.K ",
"        - W *.T } >.+.]  .5.[ K 2.-.I ..*.@.T ..&.+.U ..%.1     , Z ..8.#.I >.5.@.T 4.4.R ..4.5.I @.0.O.[ *.9.[  .5.&.U +.5.&.U ",
"        * z H 6.=.S ..6.@.G #.6.I J :.5.D ' 0.X.D ..9.] N *     u 1.8.9.8.9.9.8.9.9.7.9.8.9.9.9.9.9.9.9.9.9.9.9.9.8.9.9.9.9.9.9.",
"        * n X.5.-.| #.6.#. .:.6.....:.5.[ o.5.#.{ @.8...U :     t _ 9.9.0.9.9.9.9.9.9.9.9.e.9.9.9.9.9.9.9.9.9.9.9.9.9.9.9.9.9.e.",
"        - ! 5.9.6.5.7.9.9.5.7.7.7.6.7.9.5.6.9.5.5.7.8.5.2.3 .   t 3.e.e.e.9.e.e.e.9.e.e.e.e.e.9.e.e.e.e.e.e.e.9.e.e.e.e.e.e.e.e.",
"        1 ~ 5.7.8.8.8.5.8.9.5.5.8.8.8.8.8.8.5.7.8.8.8.8.3.<     + t u u u u i i y u u u i u u u u i u u i i u u i u u u u i u u ",
"        - Q 3.4.3.3.3.3.3.3.3.3.3.3.3.5.3.3.3.3.3.3.3.3.1.<       . .   . . . . . . . . . . . .   . . .   . . . . .   . .   . . ",
"        O i a a a a a a a a a a a a a a a a a a a a a a a +                                                                     ",
"8 % # # 5 0 8 8 0 0 8 0 0 9 8 0 9 7 0 7   . # 7 8 8 0 0 6 9 8 $ # $ 4 6 9 9 8 9 9 8 8 8 0 8 8 9 9 % . @ $ 4 9 9 8 8 9 9 4 $ # $ ",
"b.t.g f k l.n.n.n.n.n.n.n.n.n.n.n.n.m.k.X 5 d d.x.n.n.n.n.n.l.k f g t.b.n.n.b.n.n.n.n.n.n.n.b.b.z.l % s g s.m.n.n.n.n.M.s.g f h ",
"D.a.r.u.h.C.S.S.S.S.S.S.D.S.D.D.D.A.D.v.@ q u.B.A.S.D.D.D.F.V.i.r.p.j.Z.D.F.S.F.S.S.S.S.F.S.D.D.V.k.6 j f.N.G.S.S.S.S.H.c.r.y.g."
};
