/* XPM */
static char *result[] = {
/* columns rows colors chars-per-pixel */
"64 64 250 2 ",
"   c #020B01",
".  c #070804",
"X  c #021301",
"o  c #071603",
"O  c #021B00",
"+  c #131113",
"@  c #321508",
"#  c #2A1A16",
"$  c #0A2C0B",
"%  c #043301",
"&  c #0C3705",
"*  c #163B01",
"=  c #35260B",
"-  c #0E182A",
";  c #133129",
":  c #272326",
">  c #342F2E",
",  c #441702",
"<  c #551608",
"1  c #631903",
"2  c #4F2803",
"3  c #5B2B15",
"4  c #662E0A",
"5  c #792803",
"6  c #763201",
"7  c #6C3419",
"8  c #733315",
"9  c #73371B",
"0  c #4B3530",
"q  c #6A3C2B",
"w  c #0C4206",
"e  c #0D4B06",
"r  c #0D4308",
"t  c #194706",
"y  c #0E5401",
"u  c #085C00",
"i  c #135403",
"p  c #254502",
"a  c #31570D",
"s  c #294B17",
"d  c #086300",
"f  c #186600",
"g  c #296908",
"h  c #36650A",
"j  c #2A7700",
"k  c #377900",
"l  c #396A13",
"z  c #304034",
"x  c #704710",
"c  c #625412",
"v  c #487108",
"b  c #6F4930",
"n  c #37384C",
"m  c #4A3E41",
"M  c #5A4A46",
"N  c #575558",
"B  c #664B46",
"V  c #665447",
"C  c #76544E",
"Z  c #6B5655",
"A  c #6A5857",
"S  c #75655F",
"D  c #776664",
"F  c #9D3901",
"G  c #924A05",
"H  c #A84E08",
"J  c #B65C01",
"K  c #987015",
"L  c #B56300",
"P  c #AA7B0B",
"I  c #904D2F",
"U  c #A85831",
"Y  c #B75E36",
"T  c #AD6A36",
"R  c #B6633B",
"E  c #CB5C05",
"W  c #D65A00",
"Q  c #DD5E00",
"!  c #F14E00",
"~  c #E45600",
"^  c #EC5500",
"/  c #E45C00",
"(  c #EB5A00",
")  c #F25500",
"_  c #CB6700",
"`  c #D46400",
"'  c #DB6300",
"]  c #D66A00",
"[  c #D67703",
"{  c #E36401",
"}  c #EC730F",
"|  c #DD742E",
" . c #8C5B4C",
".. c #A05C45",
"X. c #926855",
"o. c #A96649",
"O. c #B96A45",
"+. c #B5734E",
"@. c #A66954",
"#. c #B87559",
"$. c #866A66",
"%. c #8F726D",
"&. c #AF7A6D",
"*. c #C86E46",
"=. c #CA7146",
"-. c #C3724B",
";. c #CB734A",
":. c #D4794B",
">. c #C87957",
",. c #CB7D5B",
"<. c #C87B6B",
"1. c #1A9700",
"2. c #299400",
"3. c #369602",
"4. c #3C9502",
"5. c #3D9C02",
"6. c #18B200",
"7. c #1DB300",
"8. c #15BE00",
"9. c #1BBC00",
"0. c #25A700",
"q. c #39A500",
"w. c #29B500",
"e. c #23BB00",
"r. c #2BBD00",
"t. c #37B700",
"y. c #478A00",
"u. c #4A8E00",
"i. c #568A00",
"p. c #459902",
"a. c #748E01",
"s. c #4AA501",
"d. c #54AC00",
"f. c #45B600",
"g. c #5ABA00",
"h. c #65BC00",
"j. c #71B500",
"k. c #0EC100",
"l. c #13C100",
"z. c #1BC100",
"x. c #25C200",
"c. c #2AC300",
"v. c #2CCA00",
"b. c #34C400",
"n. c #3BC400",
"m. c #34CD00",
"M. c #3BCD00",
"N. c #2FD300",
"B. c #34D200",
"V. c #3BD300",
"C. c #3DDA00",
"Z. c #3DE000",
"A. c #44C400",
"S. c #43CC00",
"D. c #4BCC00",
"F. c #56C600",
"G. c #43D500",
"H. c #4BD400",
"J. c #43DC00",
"K. c #4CDC00",
"L. c #57D400",
"P. c #53DC00",
"I. c #5BD900",
"U. c #6BC900",
"Y. c #74C700",
"T. c #65D600",
"R. c #6DDA00",
"E. c #7CD500",
"W. c #73DC00",
"Q. c #79D800",
"!. c #45E200",
"~. c #4CE300",
"^. c #46EA00",
"/. c #4BEB00",
"(. c #53E300",
"). c #5DE200",
"_. c #54ED00",
"`. c #5BED00",
"'. c #4CF300",
"]. c #53F300",
"[. c #5BF400",
"{. c #5DF900",
"}. c #67EA00",
"|. c #77E800",
" X c #64F500",
".X c #6BF300",
"XX c #65FB00",
"oX c #6CFD00",
"OX c #74F300",
"+X c #7CF500",
"@X c #74FE00",
"#X c #7BFC00",
"$X c #8DAC05",
"%X c #B1A011",
"&X c #AF9133",
"*X c #D2950E",
"=X c #E98C19",
"-X c #EE9014",
";X c #E99318",
":X c #E1AE1C",
">X c #D08F31",
",X c #F08E2C",
"<X c #F5B637",
"1X c #88D000",
"2X c #B3C910",
"3X c #87EA00",
"4X c #96EB00",
"5X c #84F400",
"6X c #8AF500",
"7X c #83FA00",
"8X c #95F500",
"9X c #A4E800",
"0X c #A7C225",
"qX c #B6C025",
"wX c #CAD611",
"eX c #DFD31C",
"rX c #8F827A",
"tX c #96837B",
"yX c #B1857A",
"uX c #D38F54",
"iX c #D3825C",
"pX c #F29550",
"aX c #F8B649",
"sX c #F7AE52",
"dX c #CF8E70",
"fX c #E49369",
"gX c #FAB06B",
"hX c #726E8B",
"jX c #8E7A90",
"kX c #9B8586",
"lX c #AD8C8A",
"zX c #B58D89",
"xX c #BB948C",
"cX c #BAA2BF",
"vX c #CC948E",
"bX c #C79A8C",
"nX c #D99987",
"mX c #C99B96",
"MX c #E39E88",
"NX c #CEA098",
"BX c #D6A499",
"VX c #E4A18A",
"CX c #E8A38F",
"ZX c #EEA895",
"AX c #C99EAD",
"SX c #CDA7B8",
"DX c #E9A9A1",
"FX c #C9ADC7",
"GX c #CDB1CB",
"HX c #D2B3CA",
/* pixels */
"@.&.zXSXHXHXHXHXHXGXGXGXGXGXGXFXHXFXjXn n C &.AXHXHXHXHXGXHXAXyX#.@.&.mXFXHXHXHXGXHXHXHXHXHXGXGXGXGXcXhXn M X.zXSXHXGXGXGXHXHXAX",
"o.,.dXvXxXxXbXbXtXrXrXkXkXkXrXkXlXkXA : : B yXxXbXxXbXbXlXrX%.X.b  .@.%.kXkXrXrXtXkXkXtXtXyXlXyXkXrX%.N ; 0 C %.&.jXkXlXDXDXCX<.",
"C vX&.n z s s s y w w w r r r r r e r & & t s s s s a s r r w w e r s r w w w w w e w r r r r r r & ; r & r r r * ; ; n <.,.>.I ",
"Z xX$.s k 4.5.5.5.4.3.5.5.5.3.3.p.s.p.4.5.s.q.p.p.u.s.p.p.4.4.5.q.5.4.4.p.p.4.3.3.5.5.3.3.p.p.5.p.4.5.5.5.3.4.5.i.p.l ; O.*...F ",
"Z zX%.a j.I.~.K.I.I.I.T.}.|.|.+X3X|.+X+XOXOX.X X).T.T.T.T.T.I.P.P.P.L.T.I.I.I.I.P.P.I.I.I.I.T.I.I.L.P.P.K.K.P.T.T.T.s.t ..=.Y F ",
"Z xX%.a d.D.M.M.A.A.n.S.H.}.+X5X7X7X5X7X+X@X@X[.G.n.D.F.D.A.n.m.v.v.b.n.n.b.b.b.b.m.b.b.b.b.n.n.S.A.n.M.M.M.A.D.F.g.p.w ..;.Y 7 ",
"Z zX$.a h.).(.!.H.A.t.r.M.}.#X+X7X7X7X#X#X@XoX].B.M.P.P.P.M.c.8.z.z.7.e.e.e.8.9.8.8.8.9.9.e.e.c.G.G.n.M.G.M.n.D.T.U.s.w  .=.Y 8 ",
"Z bX%.h Y.@X X X).H.r.r.M.}.#X#X#X+X#X#X@X@XoX'.N.V.`. X_.J.x.8.l.l.8.9.9.8.8.l.l.l.8.8.8.8.z.x.!.K.S.G.~.V.M.).|.|.d.w B *.Y 8 ",
"V xX$.h E.#XoXXX XH.r.c.G.`.@X#X#X#X#X#X@X@XoX'.N.C. XoX X!.x.l.l.l.8.8.9.8.8.k.k.k.8.8.8.8.9.x.V.K.K.K.!.J.~.}.+X|.h.y M *.Y 6 ",
"X.bX$.l E.@XoXXX XD.e.c.M._.@X@X@X#X#X@X@XoXXX].B.G..XoXXX~.x.8.l.z.9.9.8.8.8.8.8.k.k.8.8.8.9.z.v.G.P.~.J.!.`..X+X5Xg.y b I I 5 ",
"yXbXS h E.OXoXoX XS.e.x.V._.oX@X#X#X#X@X@X@XoX[.V.H..X#XoXK.r.9.9.8.e.e.7.9.9.8.8.8.8.8.8.9.9.c.!.K.G.J.~.!.K. X+X5Xg.y @ , , < ",
"yXbXn h Q.#XoXoX.XD.e.x.B.].oX@X#X#X#X#X@X@XoX[.S.H.OX#XOXP.r.e.e.7.e.e.e.9.e.9.8.8.8.8.9.e.w.c.V.K.P.!.!.!.(.}.+X+Xh.y : > 0 3 ",
"X.xX> g E.+XoXoX XH.e.x.B.[.@X@X#X#X#X#X#X@X@X`.S.D.+X+XOXP.r.e.9.9.e.w.e.e.e.9.8.7.9.e.e.e.e.r.n.H.).!.C.J.[.oX+X+XF.y N yX%.C ",
"C zXA l E.#XoXoX.XD.e.x.B._.oX@X#X#X#X#X#X@X@X[.S.H.OX+X@XK.r.9.9.8.e.e.e.7.e.9.8.8.9.9.9.e.e.c.G.K.K.!.!.!.(.}.+X5Xh.y D DXnXX.",
"A lXD v E.+XoXoX.XD.e.x.B._.@X@X#X7X7X7X#X#X@X}.D.H.oX@XoXK.e.8.8.8.z.9.9.9.9.8.8.8.z.8.9.e.e.c.!.P.G.J./.J.G.}.+X5Xg.y Z fX>.b ",
"Z zX$.l E.#XoXoX.XD.e.x.V.].@X@X#X#X7X7X#X#X@X_.M.H.XX@XoX!.x.8.l.l.l.8.9.8.8.l.l.l.l.8.8.9.9.x.m.H.P.K.C.!._..X+X5Xh.e V >.O.9 ",
"Z xXS k Q.7X7X#XOXS.9.x.N.].oXoX#X#X+X#X@X@X@X`.A.H..X@XXXK.r.9.9.8.8.8.9.9.8.8.z.8.8.8.9.9.x.c.G.L.L.K.K.K.(.}.+X5Xg.i M =.R 8 ",
"Z xX$.g Q.6X5X7X|.S.9.z.N.].oX@X#X#X#X@X@XoXoX}.D.H.oX@XoXK.t.w.e.7.8.8.9.e.9.8.8.8.8.8.9.9.e.v.!.L.D.L.(.~.K.).+X5Xh.i M =.Y 4 ",
"A xX$.l Q.7X#X@X.XG.e.c.V.`.@X#X7X7X7X7X7X#X@X`.S.G.XXXXXXJ.r.e.9.8.8.8.8.8.8.8.l.k.8.8.8.8.x.x.B.K.P.!.!.!.(. X#X5Xg.i B ;.Y 8 ",
"M %.V g W.7X@X@XXXV.w.r.V.`.#X#X7X7X5X6X7X+X#X}.M.H.XXoXXX~.c.9.7.8.8.8.8.9.8.8.8.l.8.8.9.9.9.e.v.J._.!.C.Z.].oX@X+XF.i V =.R 8 ",
": 0 > a E.+XoXoX{.B.e.r.M.[.@X@X#X7X+X7X#X#X#X}.D.H.oX@XoXP.t.w.w.e.9.9.e.w.7.e.9.9.7.e.w.e.w.r.K.K.C.Z.^.Z.C.`.@X+XF.y C ;.Y 9 ",
"+ : ; g Q.7X@XoX{.B.9.z.B.].XXoX@X@X@X@X@XoXoX`.S.G..XoXoXK.r.e.9.8.8.9.7.8.9.9.9.9.9.9.9.e.e.r.G.!.J.J.!.C.P..X+X5Xh.i B ;.Y 9 ",
"0 A N j Q.6X#X@X{.B.z.z.N.'.XXXXoXoXoXoXoXoXoX].B.G.XXoXXX!.c.9.8.8.l.8.8.6.8.8.8.8.8.9.9.x.e.z.v.G._.~.C.J.}.|.5X3Xh.i M -.O.8 ",
"Z zXrXl 1X8X7X#X.XH.w.t.M.`.@X#X#X@X#X#X#XOX#X[.B.B.{.XX{.C.x.8.z.l.8.8.8.8.8.8.8.8.8.8.8.8.8.x.V.P.L.I.L.L.T.|.3X4Xh.t B ;.Y 8 ",
"A xX%.l j.j.U.U.h.p.3.3.s.d.U.U.U.Y.Y.Y.1XY.Y.g.q.s.F.F.F.f.2.2.1.1.1.1.1.1.1.1.1.1.1.1.1.1.2.2.f.d.s.s.d.d.p.h.j.1Xi.t Z ;.R 8 ",
"Z zXjX: s t t i t & % & * * * p p p p * * p * * * * t t p * & & % % % $ $ % % % % % % % % % % & t * & w e w & & * p * $  .;.R 9 ",
"Z mXvX#.#.A - . o O X     X X X X o o o X X X     . .   o . . X X X   . . .                           O O O O o : b U O.*.*.Y 8 ",
"Z mXMX>.>.@.- . O O O O O O X X o O O o O O o X o o X o o o o X X X X X   X X X X X X X X X X o o o o % O O O + B O.-.;.=.O.U 4 ",
"Z xXCX<.;.@.$ t v k j j j f y f g j k k j k 4.j k f f f j j j d d u u u u u u u d d d u u y j j f h v y.y.k g ; B O.*.:.*.I 3 @ ",
"C mXdXO.U I t y.j.|.|.R.I.t.0.q.F.T.W.|.|.W.W.|.|.H.t.f.I.|.T.t.7.6.6.0.0.0.0.0.0.0.0.0.0.t.A.D.f.d.U.R.R.W.j.a m I Y Y U 7 @ . ",
"@.dX@.q 3 0 t u.W.#X#XXX_.V.e.r.~.oX#X#X7X#X#X6X#X^.m.J..X#X}.m.9.l.9.7.9.9.8.8.9.9.8.9.7.c.M.V.~.P.K._.XX#X1Xa > 3 4 3 3 @ . . ",
"+.+.b , : : r y.|.@X@X.X_.B.e.r.~.XX@X+X+X#X#X6X#X^.N.V..X#XOXB.9.k.8.e.9.9.8.8.8.8.9.7.9.x.m.J.~.(.G./.{.@X1Xa - # # # # # @ 3 ",
";.+.o.$.D D r u.|.@X+XoX_.m.e.x.~.XX#X#X#X#X7X7X#X/.B.C..X+X.XV.l.l.8.9.9.9.9.8.9.9.9.9.9.v.G.J.J.P.(.].{.#XQ.h n S $.D $.$.$.o.",
"O.iXdXVXNXxXt u.T.@X#XXX_.B.e.r.~.oX@X#X7X#X#X6X#X^.N.C..X+X.XB.z.k.9.9.9.9.8.9.l.9.l.9.7.v.V.J.J.K.(.].[.#XQ.h A vXBXBXBXDXVX<.",
" .dXMXMXBXdXs u.R.@X#XoX_.V.e.c.~.XX@X+X#X#X#X7X#X^.N.C. X+X.Xm.z.l.l.e.9.9.9.8.9.l.z.9.9.e.v.V./.(.G.!.[.#XE.l A dXnXMXMXMXnX@.",
"C bXVXdX<.@.t u.W.@X+XXX_.B.e.x.(.XX@X#X#X#X7X7X#X^.B.C..X+X}.B.l.l.l.9.9.9.l.9.8.8.9.9.9.v.C.J.J.K.(.[.{.#XE.h V #.,.<.:.,.O.I ",
"Z mXVX>.O.@.t u.R.@X#XXX_.m.e.x.~.XX#X#X#X#X7X7X@X^.N.V..X#XOXV.z.k.8.e.9.9.9.l.l.9.9.9.9.v.J.!.J.K.(.{.XX@XE.h B o.-.-.;.;.Y 8 ",
"Z mXCX>.-.@.t u.|.@X+XXX_.m.e.c.~.XX@X#X7X#X#X7X#X^.N.C..X+X.XB.z.l.8.9.9.9.9.l.l.9.l.9.9.x.B.G.!.P.K./. X@X1Xh B O.-.-.*.;.Y 8 ",
"Z mXVXiX-.X.t u.R.@X#XoX_.B.e.x.~.XX#X#X#X#X#X7X@X^.N.C. X+X.XB.z.k.8.9.9.9.8.l.8.8.l.9.9.c.M.G.~.P.K.'.{.@XE.a B R ;.*.;.;.Y 7 ",
"Z NXVX,.;.X.t u.R.@X#XXX[.B.e.c.(.XX@X#X7X#X#X7X#X^.N.C..X+X.Xm.z.k.l.9.9.9.8.8.l.l.9.9.9.m.J.!.G.K.`.{.{.@XE.l B T *.;.;.;.R 9 ",
"Z NXMXiXO.@.t u.T.@X#XXX].V.e.x./.XX@X#X#X#X#X7X#X^.N.C..X+X.XV.z.k.l.z.9.9.l.l.8.8.8.9.9.x.B.C.!.P.K./.[.@XE.h 0 I O.=.=.:.R 9 ",
"Z NXMXiX+.@.w u.|.@X#XoX_.m.9.x.(.XX@X#X7X#X7X7X@X^.N.C.oX#X.XV.z.k.l.9.9.9.l.8.8.z.8.9.9.x.m.C./.K.K./.{.#XE.a : 3 U O.O.R U 8 ",
"&.BXVX#.-.@.t p.R.@X@XXX].m.e.x.~.XX@X#X#X@X#X7X@X/.B.C. X@X.XB.z.l.l.8.9.8.8.8.8.8.l.9.9.v.C.!.J.K.(.{. X#XE.g - @ 2 3 7 3 3 3 ",
"dXBXVXiX-.X.t u.R.@X@XXX'.N.z.x.^.{.oX@X@X@X@X@X@X(.B.C.{.oX{.M.e.z.8.k.8.l.l.l.l.z.l.8.8.x.C.!.!.!.(.[. X#XW.f ; # # # # # @ 3 ",
"&.DXnX,.+.X.p u.R.@X@XoX].B.9.x./.XX@X@X#X@X@X#X@X(.V.G.{.oX XM.r.9.8.8.8.8.9.8.8.l.8.9.7.e.c.V./.~.H.I.}.7XW.g n M M M M M M q ",
"S BXVX,.-.o.p u.W.#X#XXX_.B.e.c.(.XX#X#X#X#X#X#X@X).S.G. XoX XM.r.e.9.8.9.9.9.9.9.9.9.e.7.v.G.J.J.K.(.}.OX5XQ.g A zXmXvXmXvXzXS ",
"Z bXVX,.+.o.t u.W.#X+X@X_.m.e.e.(.XX#X#X7X#X#X#X+X).M.H. X@X.XD.r.e.9.8.9.e.9.9.9.9.7.7.e.M.K.K.H.K.)..X+X5XW.l D bXZXZXZXZXdX .",
"Z mXMX,.-.@.p u.W.@X#XoX_.m.e.r.(.XX@X+X#X#X#X#X#X).S.H.XXoX XS.r.e.9.8.9.9.9.9.9.9.9.9.e.r.M.G.K.P.K.T.OX7XQ.j V #.,.,.,.,.O.q ",
"A BXMX,.-.@.t u.R.@X@XXX].B.8.x./.XXoX@X#X@X@X@X@X(.V.G.{.oX{.M.r.9.l.k.8.8.8.8.8.8.8.9.9.c.m.V.~.K.K.)..X7XQ.g V o.=.-.-.-.T 9 ",
"A BXCX,.+...t p.T.@XoX{.'.B.z.x./.XXoX@X@X@X@X@X@X~.m.C.[.XX[.V.x.8.k.k.8.8.8.8.8.8.8.8.8.v.!.^.C.C.[.oXoX#XR.g C o.O.-.=.=.R 7 ",
"A BXCX,.-.@.s u.R.oX@XXX'.N.z.z.^.{.oXoXoXoX@X@XoX(.M.C.[.XX[.V.x.z.k.k.k.l.l.k.k.l.8.8.9.x.B.Z.!.!.J.`..X#X}.g V o.-.=.-.;.R 7 ",
"Z mXdX#.O.@.r i.W.#X@XoX'.N.x.x.!.XX@X#X#X@XoX@X@X`.M.V.{.XXXXM.e.z.8.k.l.8.z.z.8.8.9.8.9.9.x.V./.(.G.(..X7XW.g V o.O.;.-.;.R 7 ",
"> C C 9 U ..* i.Q.+X#X#X(.M.w.c.~.oX#X+X7X#X#X#X#X}.n.D. X@X XS.t.e.z.8.9.e.9.9.9.7.9.e.w.c.H.H.K.(.).}.+X5XQ.g B O.-.-.;.;.o.9 ",
"+ : : 3 7  .* i.Y.6X6X|.}.D.t.t.T.+X5X6X8X6X6X6X5XT.g.F.|.+X|.g.f.t.w.w.0.t.t.0.w.t.t.w.w.A.L.I.L.L.W.|.3X4X1Xa M o.-.-.-.;.R 9 ",
"+ : 0 m q q s a.1X4X8X6X|.F.f.d.|.5X4X3X4X4X4X9X4X|.U.U.|.6X3Xh.d.d.t.t.t.f.f.q.t.t.q.f.f.d.g.g.U.U.h.Q.3X9X$Xv q o.-.-.-.;.O.9 ",
"A jXjXjX%.&.&X>XeXwXwXwXwX2XqXqX2X2X$Xv a.2XwXwXwXwX2XwXwX2X$X$X$X$X0X0X0X0X0XqX0X0X0X0X0X0X2X1Xi.v a.%XwXeXeX&X@.yX<.O.+.#.o. .",
"T U =.uXsXsXsXgXaX<X<X<X<X<XaXaX<X:Xc = c *XeXeXeX<XaXsXaX*XL P %X,XsXaXaXaXsXaXaXaXaXsXaX<X<X&X= a P ;XaXgXaXsXsXgXfX&XU *.,.DX",
"G U uXpX;X;X;X,X;X:X-X=X;X-X-X,X>X*Xc 2 K :X-X*X-X-X} ,X| L G %X:X;X=X-X-X-X,X,X;X;X:X,X-X-X*XP = 2 &X,X,X,X;X,X,X,XT G H uXiXpX",
"< I dXpX[ ] ' ' ] ] ] ] ` ` { { _ L 6 , %X<X-X' } { ' ` E 6 1 >XaX*X] { ] ] { { ] _ _ ' { ` _ K = c >X<X} ] ' / ~ ' H 2 x uXpX[ ",
", C BXfX] / ) ) ' ] { ' ' { { { J L 6 , T pX} ^ ) ( Q ] L 6 < <.gX=X' ( ' ' / { ] ] ] W ~ Q _ H = c pXpX} ' / ~ ^ / H 2 b dX<X} ",
", C vXpX{ ^ ) ! ( / / / ' { / ( E J 6 , ;.fX| ~ ( ^ ' _ L 6 < &.ZX,X/ ^ { / ^ ( / ` ' Q ^ ( ` H , x uXpX} ~ Q ( ( ' G , b dXaX{ ",
", I MXpX{ ! ! ! ( / ( ~ / / / ^ ` J 4 , #.:.| E ~ { ' _ L 6 < &.ZX| / ^ / ( ) ^ ( ' Q ~ ) ( W H , 4 fXpXW E W W / ] G 2 x dXsX{ ",
"< H fXpX{ ^ ^ ^ ( / / / / { ( ^ _ J 6 , &X,.H F J ` _ _ H 5 1 -.gX| Q ~ / / ^ ( / ' ' ~ ^ ^ W H @ x fX| F H L _ ` _ G < G fXpX( ",
"5 Y pX,X{ Q Q Q Q { ~ / Q / / ( _ L 6 @ o.Y F < 6 G F H F F 5 ,XsX,XQ / ' Q ^ / ' ' ` / ) / ` H , q #.U 5 1 G G G G G 2 U pX,X} "
};
