/* XPM */
static char *result[] = {
/* columns rows colors chars-per-pixel */
"64 64 250 2 ",
"   c #030503",
".  c #010C04",
"X  c #02050B",
"o  c #0B030B",
"O  c #010B0B",
"+  c #0B0908",
"@  c #160309",
"#  c #021304",
"$  c #01120C",
"%  c #030314",
"&  c #010B13",
"*  c #04031B",
"=  c #0B0618",
"-  c #010B1A",
";  c #150517",
":  c #011214",
">  c #0A1617",
",  c #02131B",
"<  c #001B1A",
"1  c #11141C",
"2  c #200015",
"3  c #00241D",
"4  c #0B2E1C",
"5  c #060722",
"6  c #011323",
"7  c #031A29",
"8  c #0B182B",
"9  c #062327",
"0  c #012A27",
"q  c #02252C",
"w  c #002C2D",
"e  c #132929",
"r  c #093425",
"t  c #01312C",
"y  c #022737",
"u  c #022C33",
"i  c #142D31",
"p  c #063639",
"a  c #0A3C3D",
"s  c #14363A",
"d  c #2A3237",
"f  c #283A3A",
"g  c #06453C",
"h  c #18433A",
"j  c #294339",
"k  c #073844",
"l  c #053D4C",
"z  c #0C3C4C",
"x  c #0D3C4E",
"c  c #193946",
"v  c #293948",
"b  c #353D47",
"n  c #293C56",
"m  c #433949",
"M  c #064547",
"N  c #094B43",
"B  c #1A4849",
"V  c #17564B",
"C  c #0A4652",
"Z  c #194A57",
"A  c #0C5853",
"S  c #185858",
"D  c #254648",
"F  c #334D4A",
"G  c #254955",
"H  c #245658",
"J  c #0D6858",
"K  c #186557",
"L  c #276559",
"P  c #2A745C",
"I  c #0B5767",
"U  c #0D5C63",
"Y  c #0F5669",
"T  c #165964",
"R  c #285563",
"E  c #086566",
"W  c #176468",
"Q  c #1A6B6B",
"!  c #0D7968",
"~  c #187767",
"^  c #0A6B76",
"/  c #196B79",
"(  c #097977",
")  c #047C7B",
"_  c #0C7B7C",
"`  c #197574",
"'  c #14767B",
"]  c #1B747C",
"[  c #147B7D",
"{  c #1A7B7C",
"}  c #28656A",
"|  c #2E726C",
" . c #21727C",
".. c #257979",
"X. c #387877",
"o. c #425E5F",
"O. c #4F776D",
"+. c #4B7C76",
"@. c #577979",
"#. c #657E7C",
"$. c #07856B",
"%. c #168266",
"&. c #038474",
"*. c #03837C",
"=. c #0C837C",
"-. c #018B7C",
";. c #098978",
":. c #15847B",
">. c #2D897B",
",. c #4A8176",
"<. c #518275",
"1. c #126F8C",
"2. c #0B7687",
"3. c #057D84",
"4. c #0C7C84",
"5. c #047D8A",
"6. c #0B7D8A",
"7. c #147583",
"8. c #1B7482",
"9. c #137B84",
"0. c #1B7A81",
"q. c #14758B",
"w. c #137C8B",
"e. c #1B7A8B",
"r. c #0C7795",
"t. c #047C92",
"y. c #0D7D92",
"u. c #127A93",
"i. c #127898",
"p. c #247A85",
"a. c #337882",
"s. c #4D7F81",
"d. c #597686",
"f. c #637383",
"g. c #048385",
"h. c #0B8383",
"j. c #038B84",
"k. c #0A8B84",
"l. c #03838B",
"z. c #0A838C",
"x. c #028A8C",
"c. c #0C8B8B",
"v. c #138284",
"b. c #13838B",
"n. c #178689",
"m. c #089487",
"M. c #1D948A",
"N. c #038492",
"B. c #0C8392",
"V. c #028A91",
"C. c #088598",
"Z. c #128393",
"A. c #1C8C92",
"S. c #009195",
"D. c #1D9395",
"F. c #199899",
"G. c #27898B",
"H. c #31918C",
"J. c #268C95",
"K. c #239194",
"L. c #279A97",
"P. c #369896",
"I. c #28A598",
"U. c #35AF97",
"Y. c #36A599",
"T. c #2E96A0",
"R. c #39A6A4",
"E. c #36B0AA",
"W. c #508C8A",
"Q. c #489797",
"!. c #659795",
"~. c #4BA696",
"^. c #46B39B",
"/. c #6AA597",
"(. c #699BA4",
"). c #53AFAC",
"_. c #45B7A9",
"`. c #47B8B3",
"'. c #69A8A8",
"]. c #77A9A9",
"[. c #69B5A8",
"{. c #78B6A8",
"}. c #78AFB2",
"|. c #68B9B6",
" X c #7ABAB8",
".X c #4EC4B0",
"XX c #59C5BA",
"oX c #63C7BB",
"OX c #7ACBBA",
"+X c #56BEC3",
"@X c #6FBEC4",
"#X c #4EC8C2",
"$X c #5CC3C2",
"%X c #56C8C6",
"&X c #61C3C3",
"*X c #65C7C4",
"=X c #77CBC5",
"-X c #6ADBCC",
";X c #78DBCB",
":X c #6ADCD4",
">X c #78DAD6",
",X c #6DE3D4",
"<X c #76E5DB",
"1X c #7AEAED",
"2X c #7EF2E7",
"3X c #86A7A9",
"4X c #85B4A9",
"5X c #87ABB2",
"6X c #95AFB4",
"7X c #85B9B7",
"8X c #A3ACB9",
"9X c #8CD2BA",
"0X c #88BEC2",
"qX c #8ECCCE",
"wX c #88D7CA",
"eX c #93D5CB",
"rX c #96D8CC",
"tX c #89D5D6",
"yX c #98D8D2",
"uX c #A8D3DB",
"iX c #87E8D8",
"pX c #98E6DA",
"aX c #8BF4DD",
"sX c #97FBD9",
"dX c #A3E2D3",
"fX c #A4F5DD",
"gX c #88D6E1",
"hX c #ADDEEC",
"jX c #84EEE4",
"kX c #8AE9E6",
"lX c #8BECE4",
"zX c #99EAE5",
"xX c #88F3E7",
"cX c #98F8E9",
"vX c #92EDF2",
"bX c #8AFBF3",
"nX c #97F8F6",
"mX c #A8E9E5",
"MX c #B6E8EA",
"NX c #A5F4E4",
"BX c #A9F8E6",
"VX c #A3F6EB",
"CX c #ABF4EB",
"ZX c #A3FAEC",
"AX c #B4F4E8",
"SX c #A7EEF3",
"DX c #B8EAF5",
"FX c #A6F6F6",
"GX c #B4F4F7",
"HX c #C7E6F3",
/* pixels */
"Q ..=XeXtXeXeXeXeXeXrXrXrXyXeXeXyXeXB < B } {.eXyXeXyXeXtXtXQ.W Q Q Q.tXtXwXtXeXeXeXeXeXeXyXyXqXeXeX(.0 w L +.qXeXyXeXeXeXtXOX..",
">.n.<X1XjXjXlXlXjXlXlXjXiXlXlXvXiXvXV 0 L X.=XjXlXkXlXlX2XbX).W ..:.`.2XjXxXjXlXlXlXaXjXlXiXlXlXlXkX|.3 a X.Q.iXiXzXkXxXxXjX;X .",
"=X:XI.F.D.K.K.K.K.D.D.K.M.A.A.K.K.K.u & 3XuX~.D.K.J.K.L.L.L.Z 1 +.tXXXF.F.K.K.H.K.K.D.D.K.A.K.K.K.D.} : b uXqXM.L.J.K.K.D.I.>.9 ",
"eX2XF.S.g.3.[ 4.h.5.l.l.l.6.g.z.l.9.q @ 8XHXP.j.3.t.3.3.z.=.s @ #.cX#Xx.x.3.4.4.6.5.l.g.l.l.3.g.l.l.T o m HXqX&.g.6.5.3.g.x.Q ; ",
"eXlXD.N.l.g.4.4.6.5.l.l.l.g.g.z.x.g.w   6XSXR.m.l.t.N.z.z.[ a @ @.VX%Xl.l.l.g.4.4.5.5.l.g.l.g.g.x.x.E O D MX>Xn.x.t.t.l.z.k.W 1 ",
"eXlXD.B.l.l.g.4.6.6.l.l.g.g.g.l.x.x.u $ @XnXL.*.5.C.B.l.b.{ a + O.cX$X6.l.l.g.4.4.6.l.l.l.g.3.3.x.V.E $ D FX>X&.g.t.C.B.z.v.W : ",
"eXlXJ.6.l.l.g.4.6.6.l.g.3._ _ 6.z.z.t $  XbXY.3.t.t.t.3.9.] a O +.VX&X6.l.l.g.4.6.z.z.g.g.4._ 3.z.l.E : B cX:Xh.g.t.t.5.4.9.T < ",
"wXlXJ.6.l.g.3.4.z.N.l.3.4.4._ 4.6.9.w # [.nXP.' 6.C.N.6.9. .k # ,.VX+X6.g.l.g.4.6.z.N.g.4.4.2._ 9.z.U O h cX<X' 9.C.N.5.9.8.} < ",
"wXxXK.6.5.6.4.h.x.V.z.9.z.g.3.4.6.8.8 + 4XGX} y Y u.n.[ ]  .a . <.ZX$X5.5.h.6.4.g.x.V.6.6.x.3._ 9.w.R   f GXqXu l q.Z.n.] 8.W < ",
"eXvXK.6.h.4.4.w.x.S.l.9.l.x.3.4.7.8.8 @ 3XCXF 6 Z 8.p. .]  .a # ,.ZX%Xz.5.6.4.9.l.S.x.w.z.x.g.3.4.w.Z o f mX7X, y / 8.../  .} < ",
"pXlXJ.1.l.x.h.4.l.l.5.l.l.l.3.5.z.9.0 # L >.h : y y q 8 y k B V /.FX@Xq.3.x.g.4.6.l.l.l.l.l.3.3.w.z.J # 4 ,.>.O 6 k 7 8 7 k k V ",
"yXzXP.q.x.x.g.h.6.6.l.l.B.5.5.l.z.*.t # K %.r # - 5 * ; 6 7 N | [.VX@Xp.z.x.j.g.6.6.6.g.l.N.5.5.N.l.E # r %.V # X - * = * 7 q L ",
"rXlXJ.Z.l.l.g.4.l.N.l.g.l.l.l.z.z.4.w # /.9X9X9X X@X7X6X@X@X+.0 <.ZX+Xw.B.l.g.4.6.l.l.z.l.N.5.5.B.l.E . j OX9X9X7X X X9X7X@X'.B ",
"yXxXK.l.l.3.4.4.l.V.z.5.N.l.5.l.z.4.0   4XmXfXfXcXbXcXcXnXnX@.X <.ZX$Xl.l.g.4.2.z.V.N.h.l.l.l.5.z.l.S . j AXfXBXZXvXbXcXcXnXtXe ",
"eXjXF.l.3.3.4.4.l.V.l.6.6.6.5.6.l.9.0   ].fX).U.F.I.I.I.I.P.G o <.cX%Xl.5.3.4._ 5.N.N.l.3.6.6.6.6.l.U X j dXwXU.Y.F.I.I.I.L.a.1 ",
"yXxXc.N.l.3.4.4.5.B.l.g.4.2.7.6.5.4.q   3XCXU.-.j.S.m.-.k.v.s @ #.ZX#Xl.l.l.4.4.4.l.z.l.5.9.4.7.6.l.U X j MX<X;.j.x.V.-.x.z.Q 1 ",
"yXxXF.x.l.g.3.4.2.5.l.l.3.4.4.h.l.g.w   3XGXR.g.l.t.t.5.z.n.s @ W.ZX%XV.l.g.6.4.6.6.l.l.h.4.4.4.z.x.E X d hXtX-.x.t.r.3.5.c.Q > ",
"eXjXF.N.l.5.6.4.2.2.5.l.3.g.g.g.x.h.u X 5XDXR.l.t.i.i.q.Z.=.a @ #.cX#Xl.l.g.6.4.4.2.5.g.l.) 3.g.g.x.E & v HXgXc.l.i.i.u.6.Z.U 1 ",
"9XiXK.6.t.t.u.6.3.3.6.5.B.N.3.b.) :.w & 6XDXR.j.z.u.w.q.v.) a $ O.fXXX6.5.t.y.w.4.3.2.w.6.C.l.3.v.) W $ D HXtXk.x.w.u.q.q.k.J < ",
"rXpXG.e.i.r.Z.b._ 3.w.w.z.5.6.v.{ ..t : 5XMXE.m.g.6.2.6.z.:.g # O.fX|.8.i.i.y.Z.2.) 6.w.6.N.5.w.:.{ K : D DXtXm.j.g.6.6.z.h.~ < ",
"f D y k 7.z.z.*.=.*.3.6.w.B.4.( k p Q.[.~.Q.m.j.l.z.z.V.6.' k % e j s y I 6.z.g.) h.g.3.6.6.z._ E u S |.[.Q.L.-.x.l.N.l.z.4.W , ",
"@ X % 7 W 4.:.k.) &.g.l.6.w.c.=.u % OXbXI._ j.x.V.l.l.N.6.e.c o 2 @ & - k { v.k.*.&.*.g.z.w.n.c.U * B cX-X_ *.j.x.N.l.N.N.b./ 5 ",
"/.{.7X{.B y u p ! =.j.j.h.h.j.&.w -  XvXP.( g.l.5.5.y.Z.Z.Z.x * o.4X{.7Xs.q u w N :.k.j.g.h.-.-.J % B nX-X[ _ l.l.5.5.y.Z.y./ 8 ",
"wXsXsXrXi o X : K ;.) =.) =.;.&.u - @XnXR.2.b.B.y.y.u.q.Z.6.l - ,.cXsXfX!.X o & t :.&.) =.=.;.-.E - Z FX>Xw.6.Z.B.B.u.u.i.y.^ 7 ",
"rXpX^.~.[.{.].4XB p p k p p p M W.'.).R.n.l.5.t.N.N.B.y.c.z.M - ,.sXOXU.~.{.].3XW.i p k y p p p S (.'.^.L.6.5.t.t.N.N.6.B.c.^ 7 ",
"yXpX>.%.,XxXfXMXD & * * * - % -  XnXP.( 3.N.5.t.N.N.N.l.j.;.l - d.AXoX%.U.sXcXBX}., 5 5 * * % % G SX>X[ 3.l.N.5.N.N.N.l.x.j.E 7 ",
"uXcX>.-.I.E.R.!.(.].(.(.!.!.d ; 5XCXP.] 4.5.6.t.5.l.l.l.-.;.a * d.GXoX&.-.E.Y.Q.(.].(.(.!.!.@.; v AXtX' 9.6.5.6.5.5.l.l.-.-.! , ",
"uXcXM.-.-.-.] ..gXSXcXxXcXfXb ; 6XDXQ./ 9.6.Z.6.5.l.g.*.$.%.p = d.GX*X*.-.-.=...Q.SXFXbXbXcX4X; m DXyX/ [ 9.6.B.y.l.l.3.&.$.K - ",
"gXvXD.g.*.h.9.' R.`.U.E.^.~.i + 5XmXH.&.=.z.l.g.l.g.=.' V r 1 ; d.SX%X3.m.*.=.{ G._.E.U.^.^.+.O b MXwX( ) g.z.g.l.g._ [ ~ h 4 ; ",
"gX1XJ.9.[ [ ' ' g.*.$.$.~ %.t :  XCXI.&.&.k.g.l.k.*.' } e @ ; ; d.nX%X9.v.{ 0.' ) j.&.$.$.! V < B CX;X&.-.*.k.g.j.k._ ` H + 2 ; ",
"E.E.Y x k k x x l M g g g g N N =XZX~ N M l l z C M k s 3 + i Z i.+XG.l z k z x z l M g g g N N | cXOXN M k z l C M k a e > > v ",
"N.5.y 5 % % % 5 * * - & < 7 K ! ;XZXV & % * * = - - - X + : N n.V.V.I * % % % * 5 * * : : < t ! H.cXOX: - % * 5 * - - - X O 3 ! ",
"l.h.a.@.,.O.+.@.@.f.@.+.s.W.)._.iXBXD & i N o.@.d.<.+.+.+.W.a.w.N.l.p.@.@.O.+.@.@.f.f.+.+.W.W.`.oXZX7X. < g G @.@.@.@.+.+.,.W.' ",
"w.n.iXNXsXsXsXfXAXDXCXNXFXSXCXcXVXCXj & K $.;XmXCXBXAXBXFXFX).q.w.h._.NXsXsXsXsXCXDXAXNXVXGXFXFXcXNX4XX 0 ! H.cXCXCXBXBXCXFXgXG.",
"~.`.XXXX.X.XXX|.*X@X&XXX+X@X|.#X&XoXs o @.).XXXX$X&X&XoX*X%XX.c X.`.`.$X.X.X.X|.|.&X&XXX+X+X+XXX$X&XW.= d [.).XXoX&XoXoXoX%X).R ",
"yX1XF.x.*.) _ _ 4.6.3.g.5.3.4.z.z.7.q @ 8XHXP.;.h.4.h.*.k.v.c @ @.nX#Xl.x.*.4._ 4.6.g.g.3.6.4.4.g.g.T o m HXyX&.g.6.4.g.k.c./ ; ",
"eXjXF.V.l.g.4.4.6.5.l.l.g.l.3.z.l.g.q + 6XDXR.j.5.t.5.g.h.v.s @ @.VX#Xl.l.g.3.4.4.5.5.l.g.l.6.l.l.l.U X b HXtX;.l.5.5.g.g.c.W 1 ",
"eXjXD.l.l.l.h.4.6.5.l.l.l.g.g.x.x.l.w O  XSXR.g.l.t.N.z.b.9.a o @.cX%Xl.l.l.h.4.6.6.l.g.l.g.g.3.x.V.E O D SX>Xk.c.t.t.B.z.v.W > ",
"eXkXD.5.l.g.3.4.6.6.l.g.3.3.3.g.c.z.t $ OXnXL.*.5.C.B.5.9.] a X O.VX&X6.l.l.g.4.6.6.l.g.g.4.3.3.c.V.E $ B ZX:X=.3.t.C.5.4.9.T < ",
"eXkXJ.6.l.l.g.4.6.l.l.g.3.7._ 9.l.4.t $ [.bXR.9.t.t.5.5.9. .a $ ,.VX+X4.l.x.g.4.6.y.z.g.g.4._ 7.6.z.E $ B xX<Xv.6.N.t.5.4.p.W < ",
"eXlXK.6.l.g.4.4.N.V.z.6.g.6.) 2.6.7.w   {.nXH.A 7.y.w.9.0. .a $ ,.ZX$X6.5.g.6.4.h.x.l.z.g.h.3._ 4.6.T   f cXtXA E i.B.b.9.8.W < ",
"eXxXD.5.6.6.9.4.c.S.l.9.z.j.3.4.7.p.1 @ 6XGXG 6 Y e.n.] ] ] a . <.ZX%X5.l.6.4.9.z.S.x.w.6.x.g.3.9.q.H o f GX0X< y 7.e.v.] ] } < ",
"yXlXK.r.l.g.6.4.l.V.z.4.c.l.3.6.6.8.q   !.wXD - z Y S Z T Y M 0 W.VX&X6.5.l.3.9.z.V.N.z.z.x.3.3.6.6.S X d OX[.> 7 Y T G T T A w ",
"pXzXP.1.x.x.h.h.6.5.l.g.N.5.3.l.z.3.t # g %.t & - 6 = ; 6 7 B P [.CX@Xp.3.x.x.g.4.6.6.g.l.l.5.5.B.l.J # 4 ~ K # - 6 * = = 7 y L ",
"tXzXT.w.l.x.g.6.6.6.z.l.N.l.5.z.c.h.0 # >.,.P j B Z G F G Z V H /.cX*Xe.y.x.g.h.6.6.l.l.l.N.5.5.z.l.E # r >.,.F D Z B F D Z C H ",
"rXlXJ.l.l.g.4.4.l.V.z.z.l.l.5.z.l.4.0   4XfXBXAXCXnXCXBXFXSXW.$ <.VX$X6.z.l.3.4.5.V.l.z.l.l.l.5.B.l.U . j fXfXAXAXFXZXBXCXFXtXs ",
"yXjXF.5.l.4._ 6.N.V.l.3.l.l.5.6.l.9.0   4XBXrX;X-X:X-X-X:X>X| o @.ZX%Xl.5.h.4._ l.V.x.4.5.z.5.6.6.l.U . j AXsXwX;X-X:X-X,X>X@X1 ",
"rXjXD.l.l.3._ 4.l.N.z.g.6.q.2.w.6.4.0 . 4XfXU.;.-.x.j.-.g.4.s @ <.ZX#X3.l.5.4.2.6.l.N.l.6.4.6.7.6.5.U   f mX;X;.-.g.x.-.j.g.W 1 ",
"yXxXD.l.l.6._ 4.6.l.l.g.5.4.4.6.z.h.w   3XGXY.j.x.N.l.g.c.n.s @ @.ZX#Xl.l.3.3._ 6.5.l.g.6.4.2.4.l.l.U X d MXiX;.j.N.N.3.g.c.Q 1 ",
"rXxXF.l.g.g.4.4.6.6.l.l.3._ 3.h.l.l.u   5XGXR.j.t.r.r.6.Z.v.a @ <.ZX#XV.l.l.h.6.6.6.l.l.g._ _ g.l.x.E O v hXgXk.l.r.r.y.z.n.W 1 ",
"9XxXF.c.5.6.9.9.q.6.l.l.l.5.3.v.*.=.t X 5XFXR.h.B.Z.y.u.Z.4.p @ @.cX#Xl.l.h.9.9.q.1.6.N.l.l.5.6.k.*.E & D AXtXk.l.y.i.u.Z.Z.U > ",
";X<XK.z.9.2.e.e.1.1.N.N.S.N.3.e.( :.w $ }.nXP.{ 6.z.N.N.B.7.k O +.sXXX9.w.4.9.e.q.q.t.V.C.S.5.7.v.( K O D VX>X{ 4.g.C.V.B.C.Y - ",
"/./.} Y q.w.b.z.q.q.l.j.N.N.l.9.Q K B D [.;XP.h.3.g.g.6.B.Z.k   F {.W.T / w.6.z.6.q.y.l.l.N.l.h.{ W H B | wXXX:.g.g.l.5.B.B./ < ",
"+ = 5 7 ^ j.j.*.6.2.g.j.l.N.*.) y - }.NXQ.{ ( ) x.x.6.2.b.4.a   + > * 5 k k.k.j.3.e.3.g.j.z.l.*.A - D mXwX{ [ ) g.x.l.4.4.z.E , ",
"j j v n T E E ( ' 9.*.j.h.b.c.:.y % 7XcXY.! =.x.x.x.l.7.Z.A.z   e j v n Z I E ( ' ' h.-.j.9.n.m.W % v VX;X[ ( k.x.x.x.4.w.Z. .< ",
"rXfXCXmXc * - 7 W p.:.;.'  .=.:.7 = @XbXL.( g.l.j.x.z.e.n.n.s + O.fXVXGX(.5 - - p p.{ &.:.] { ;.S * G bX:X_ ) g.x.j.x.e.e.n.Q > ",
"9XsXiX=XW C c G R R S S S W E K B c '.<XL.l.z.B.V.x.z.9.n.[ p   O.fXaXtX~.C B B n R T S S S W E Z c } <X%Xh.6.z.c.V.c.9.7.b.T : ",
"wX<XH.M.<X2XlXmXn = * - 7 3 < q }.mXQ.l.3.N.2.6.5.g.g.9.e.0.a . <.sX.X:._.2XjXzX}.5 = = & 0 < < H mXqXn.4.g.6.2.5.l.g.h.9.b.Q < ",
"rXaXG.v.%X:X>X=XR v d d s j , &  XnXP.[ l.V.y.u.z.g.g.) h.9.a # <.fXoX[ I.:X:X>X'.v d d s s s   D FX>X' h.N.B.r.6.l.3.) g.b.W < ",
"rXaXG.0.p.:.>...qXzXyXdXdXdXd o  XbXL.0.5.N.t.i.6.l.g.g.c.l.k   <.fXoX` 7.0.>...Q.zXzXpXdXdX3X@ D bX:X' 4.N.N.u.r.6.l.g.k.x.^ , ",
"yXvXK.-.-.j.:...tXVXcXbXcXBXF 2 6XDXQ.] 9.6.B.6.6.5.g.*.;.%.g % d.GX$X*.j.j.;.] Q.SXFXcXcXcX4X; m HXqX/ 7.w.6.Z.6.l.g.*.&.$.K > ",
"yXvXD.g.*.h.[ ' R..XE._.^.~.i = 5XCXH.( g.h.l.l.l.g._ ' V r 1 @ d.FX%Xg.g.*.v.[ n.`._.E._.^.+.X b mXwX;.&.g.l.l.l.g.3.[ Q g 4 ; ",
"gXbXK.v.' { 8.( g.-.$.$.~ ~ 0 : 7XVXI.-.&.h.g.g.c.g.' | i @ ; ; d.nX$X9.v.' { [ ) -.&.$.$.~ K : D NX;X&.*.*.j.g.k.k.'  .H + @ ; ",
"E.E.I x z z z C l M N g g N N N OXVX~ M M C C M C M k s 1 o i Z i.+XJ.C z z x x C M N g g g N N | ZX=XN M l C M C C M N i + > v "
};
