/* XPM */
static char *result[] = {
/* columns rows colors chars-per-pixel */
"64 64 227 2 ",
"   c #0B0302",
".  c #170A06",
"X  c #0D0D10",
"o  c #191315",
"O  c #230E06",
"+  c #2B1306",
"@  c #251109",
"#  c #281108",
"$  c #2B140B",
"%  c #34170B",
"&  c #3B1A0B",
"*  c #231614",
"=  c #2B1B15",
"-  c #261A19",
";  c #2D1D1A",
":  c #321B13",
">  c #311F1B",
",  c #2E201D",
"<  c #382018",
"1  c #3C231B",
"2  c #291F20",
"3  c #272023",
"4  c #2D2223",
"5  c #352625",
"6  c #3A2925",
"7  c #342B2C",
"8  c #3C2E2D",
"9  c #3F302F",
"0  c #3A2F30",
"q  c #342E3E",
"w  c #3E3131",
"e  c #441E0E",
"r  c #481F0E",
"t  c #451F12",
"y  c #45210F",
"u  c #452212",
"i  c #4B2412",
"p  c #47291C",
"a  c #552914",
"s  c #5D2D16",
"d  c #522A18",
"f  c #5E2E19",
"g  c #5F3019",
"h  c #612F17",
"j  c #612F19",
"k  c #663117",
"l  c #62311A",
"z  c #6D361C",
"x  c #6F381E",
"c  c #71391F",
"v  c #452B23",
"b  c #44312D",
"n  c #4B332C",
"m  c #5A3729",
"M  c #423434",
"N  c #483736",
"B  c #4B3C3D",
"V  c #553B34",
"C  c #6D3A23",
"Z  c #643928",
"A  c #6B3E2B",
"S  c #733B21",
"D  c #763E23",
"F  c #633F33",
"G  c #5A423C",
"H  c #754026",
"J  c #7D4226",
"K  c #74422B",
"L  c #7C4429",
"P  c #674337",
"I  c #744936",
"U  c #784935",
"Y  c #3A3950",
"T  c #4C3E40",
"R  c #583C42",
"E  c #3D415B",
"W  c #584443",
"Q  c #5A4949",
"!  c #684D47",
"~  c #6B514D",
"^  c #73544C",
"/  c #785349",
"(  c #6A5555",
")  c #6B5655",
"_  c #6C5856",
"`  c #775A55",
"'  c #755E5D",
"]  c #7A605E",
"[  c #766060",
"{  c #7C6463",
"}  c #814427",
"|  c #874927",
" . c #834629",
".. c #84482B",
"X. c #8B4C2B",
"o. c #914F2E",
"O. c #94502F",
"+. c #864D32",
"@. c #8A533A",
"#. c #965232",
"$. c #9B5534",
"%. c #9F5836",
"&. c #98583A",
"*. c #A05A37",
"=. c #A55D3A",
"-. c #A85E3C",
";. c #A6603C",
":. c #AD623E",
">. c #B0653F",
",. c #885947",
"<. c #975D45",
"1. c #835F57",
"2. c #9B624A",
"3. c #876257",
"4. c #83625B",
"5. c #89665D",
"6. c #976757",
"7. c #AD6443",
"8. c #A56549",
"9. c #B16642",
"0. c #B56944",
"q. c #BA6C46",
"w. c #B46A4A",
"e. c #BC6E49",
"r. c #BE704A",
"t. c #A76B54",
"y. c #B16E54",
"u. c #AD715A",
"i. c #BB7253",
"p. c #B77559",
"a. c #826966",
"s. c #8C6A63",
"d. c #896B67",
"f. c #846B69",
"g. c #946D64",
"h. c #9A7369",
"j. c #977975",
"k. c #A77769",
"l. c #B77B67",
"z. c #A47E76",
"x. c #B17F7B",
"c. c #C06F48",
"v. c #C07047",
"b. c #C4744E",
"n. c #C8764F",
"m. c #C9784F",
"M. c #C67650",
"N. c #C87751",
"B. c #C77852",
"V. c #C97953",
"C. c #C57B59",
"Z. c #CB7D5A",
"A. c #C47E61",
"S. c #BC826D",
"D. c #A2807B",
"F. c #AC847C",
"G. c #B78677",
"H. c #CD815E",
"J. c #CE8261",
"K. c #C7856A",
"L. c #CD896D",
"P. c #D18564",
"I. c #D38868",
"U. c #D48B6C",
"Y. c #C88C75",
"T. c #D58E71",
"R. c #D88F72",
"E. c #CD917D",
"W. c #D69074",
"Q. c #DA9174",
"!. c #D4947C",
"~. c #DC967B",
"^. c #DE997D",
"/. c #E29A7E",
"(. c #747087",
"). c #897D95",
"_. c #A78685",
"`. c #AA8782",
"'. c #AD8985",
"]. c #AD8C89",
"[. c #B88D86",
"{. c #B18E8B",
"}. c #BE9187",
"|. c #B4918E",
" X c #BC938C",
".X c #BB9592",
"XX c #C89587",
"oX c #CC9A8C",
"OX c #D59984",
"+X c #DB9B83",
"@X c #D49C8B",
"#X c #C49B96",
"$X c #CB9E96",
"%X c #C49998",
"&X c #CB9F98",
"*X c #D29F91",
"=X c #E29E85",
"-X c #E39F89",
";X c #DBA18E",
":X c #CDA097",
">X c #CDA199",
",X c #D4A295",
"<X c #DBA493",
"1X c #D2A49A",
"2X c #D9A69B",
"3X c #DBA99D",
"4X c #E2A086",
"5X c #E4A28A",
"6X c #E8A58B",
"7X c #E3A692",
"8X c #E8A792",
"9X c #E6A994",
"0X c #E9AA95",
"qX c #E5AC9D",
"wX c #EAAE9D",
"eX c #EBB09F",
"rX c #D3ABB0",
"tX c #E5AEA1",
"yX c #E8AFA0",
"uX c #E6B0A3",
"iX c #EBB2A3",
"pX c #E9B7AC",
"aX c #F2B7A8",
"sX c #EEBCB1",
"dX c #F7C1B5",
"fX c #C9AEC1",
"gX c #D1B6CA",
/* pixels */
"u.k.[.rXgXgXgXgXgXgXgXgXgXgXgXgXgXfX).E q / x.rXgXgXgXgXgXgXrX[.u.t.l.%XfXgXgXgXgXgXgXgXgXgXgXgXgXgXfX(.Y R 6.[.rXgXgXgXgXgXfX%X",
"8.A.OXtXqXqXyXyXwXqXqXqXyXyXqXtXuX,X4.4 : ,.T.9XtXqXyXtXyXwXoXu.8.p.L.=XtXtXtXtXyXiXtXyXtXyXyXyXyXyX*X^ ; Z u.+XqXtXqXwXtXyX2XK.",
",.XX=XR.U.U.I.I.U.U.U.U.U.I.I.U.U.H.I $ > k.+XQ.U.U.U.U.U.R.p.A F x.-X=XR.U.I.I.A.Q.R.A.Z.R.U.U.U.R.A.Z = ^ Y.6XR.I.U.U.U.U.A.@.",
"~ $X-XZ.v.b.n.b.b.b.b.b.b.b.b.M.n.0.c @ 7 `.<XI.r.b.r.b.M.N.$.u b ].yX/.C.c.b.b.b.b.M.b.V.N.b.b.N.V.7.j ; ] &X0XA.b.b.b.M.b.9.S ",
"( &X-XZ.c.c.b.v.b.v.b.b.b.b.b.v.b.0.c # w '.7XP.e.v.c.b.b.N.#.t b ].yX~.N.c.c.b.b.c.b.b.c.b.b.b.b.b.:.j = [ &X8XZ.c.c.b.b.b.:.z ",
") &X-XZ.c.b.v.b.b.b.b.b.b.b.b.n.b.0.S # 0 '.7XU.b.b.M.b.M.N.$.t 8 '.yX~.Z.b.b.b.b.b.b.b.M.b.b.b.M.N.7.j > [ &X0XP.b.b.b.b.b.9.z ",
") $X-XZ.b.b.b.b.b.b.b.b.b.B.b.M.B.0.x @ 7 `.7XP.v.v.M.b.M.N.%.i b {.yX+XA.c.b.b.b.b.b.b.b.M.b.b.M.M.9.j ; [ &X0XZ.M.b.b.b.n.9.z ",
"( $X-XZ.c.b.b.b.b.b.b.b.b.r.b.b.M.0.x @ 7 `.oX8.#.>.b.N.N.N.*.r b |.yX+XZ.b.b.b.b.b.M.b.b.b.b.b.M.M.0.j > { &X@X8.-.c.n.N.N.9.z ",
"_ :X4XV.v.b.b.b.b.b.b.b.r.r.B.B.N.0.c @ 7 F.F.F r o.0.b.b.b.#.r b ].tX~.Z.c.b.b.b.b.b.b.N.b.b.b.b.b.9.f ; ] #XF.m z :.b.c.b.:.z ",
"5.1X4XH.v.v.b.b.b.b.b.b.B.b.B.r.N.0.S @ 6 h.g., . h X.O.O.O.D a V %XyX+XV.c.N.b.b.b.b.b.b.b.b.b.b.B.7.f = / F.5.* & c O.#.O.| k ",
"S.qX4XH.b.b.b.b.b.b.b.b.b.B.b.b.N.0.S O : <.@.=   O % & & & r z 2.<XyX~.C.b.b.b.b.b.N.b.b.b.b.b.b.V.7.g $ K t.U . . + & & & e a ",
"G.qX4XH.v.v.b.b.b.b.b.b.b.b.b.b.n.0.c O = @.<.n 6 5 6 5 6 b n A t.3XiX~.Z.b.b.b.b.b.b.b.b.b.N.b.b.m.0.g $ Z 8.2.n 7 8 8 6 7 v f ",
"6.1X4XH.r.b.b.b.b.i.b.b.b.b.B.b.n.0.x O > g.XX`.z.z.j._.z.z.s.F / oXwX+XV.b.b.b.N.b.b.N.b.b.b.b.b.m.9.l = / G.@XF.D.j.z.z.).k./ ",
"_ :X5XV.b.b.b.b.b.b.b.m.b.b.b.b.n.w.S @ 6 '.sXaXyXyXiXiXiXiX[.V b '.yX/.V.b.N.b.b.b.b.b.b.b.b.N.m.V.9.g > ' 1XsXaXiXiXyXyXaX@X1.",
"_ :X4XH.b.v.B.r.b.b.b.b.b.b.b.b.M.0.S @ 0 ].yX-XR.R.R.R.R.Q.t.v 0 ).eX/.V.c.b.b.N.b.N.b.b.b.b.b.n.M.7.s ; ' 1XiX/.R.W.R.R.Q.A.U ",
"_ :X4XZ.r.b.r.b.b.B.b.b.b.b.b.b.M.q.S @ 8 '.9XU.N.V.C.V.Z.Z.*.t 0 ].eX/.Z.b.b.n.b.b.b.b.b.N.b.b.n.n.9.j ; ' &X0XU.V.V.V.V.C.0.C ",
"( :X5XZ.b.r.M.b.b.b.b.b.b.b.b.b.M.0.S O 7 `.<XP.c.c.b.b.b.n.$.t 0 |.tX/.V.b.b.b.b.b.b.M.b.b.b.b.n.m.0.g > [ 1X0XJ.b.b.r.v.b.:.z ",
"_ >X4XZ.b.r.M.b.n.b.B.b.b.b.b.M.M.0.C O 7 _.7XP.c.b.b.b.n.N.*.t b .XyX=XZ.b.b.b.b.b.b.b.b.b.b.M.b.b.0.g ; [ &X0XZ.b.b.r.M.M.7.z ",
"_ >X8XH.r.b.b.b.b.b.b.b.b.B.b.b.V.q.S O 7 ].7XI.c.b.b.b.b.N.$.t M |.yX=XZ.b.M.b.b.b.b.b.M.b.b.M.n.m.0.f = ' $X0XJ.b.b.b.b.n.7.z ",
"W z.l.7.7.r.b.M.M.b.M.b.b.b.n.b.q.%.C v W G.+XJ.c.b.b.M.n.N.$.t 5 d.[.p.-.0.M.M.N.b.b.M.b.b.b.b.v.>.$.m n s.oX=XZ.M.b.b.b.n.>.x ",
"3 G G g | 9.B.B.n.b.b.b.b.n.b.b.%.C P ` h.Y.L.C.b.b.b.b.M.V.$.e o N R m C $.b.N.N.b.b.b.b.b.b.M.9.X.Z P 5.l.Y.U.Z.b.b.b.b.B.7.c ",
"o , 6 p C o.=.;.0.v.n.n.n.n.N.b.X.u W [.qXU.V.n.b.b.b.b.b.N.%.t . 2 7 7 v L *.*.-.0.b.N.n.n.M.N.-.k & ( #X+XJ.N.b.b.b.b.b.B.0.x ",
"9 ] j.d.! d y i  .9.m.n.n.M.V.N. .: Q #XaXT.b.b.M.b.b.b.N.N.%.u - ~ d.j.a.m t t a X.c.N.n.b.N.n.=.a * _ 3X-XH.v.b.b.b.m.b.b.7.x ",
"Q >XdX,X5.N 5 6 Z X.*.$.#.$.*.*.D n _ XX9XJ.b.b.b.b.b.M.N.N.$.t 0 _.pXpXXX^ 6 4 v Z $.*.$.%.$.%.X.Z n 4.@X~.Z.b.b.b.b.b.b.V.:.z ",
"_ 1XaXOXS.h.j.f.P d y y r t r i F 4.k.Y.U.Z.M.M.b.b.b.b.M.N.$.t 8 ].sXwX!.F.h.d.4.P i y y r u i d P 5.G.Y.J.V.b.b.b.B.b.b.B.>.x ",
"_ >X9XU.Y.@X3X#X5.N , , = = * . V F.@XI.V.b.b.b.b.b.b.M.N.N.$.t w ].uX=XI.E.3X3X}.` 5 , > ; - . 5 ) XXOXJ.M.n.b.b.b.b.b.b.V.9.x ",
"_ #X4XH.P.~.4X^.F.s.4.[ ' ) N o M XX0XP.c.b.b.b.b.b.b.b.N.N.$.p w |.uX^.H.T.=X4X!.k.{ { { { ( 3 2 ' 1X6XZ.v.v.n.b.b.b.b.b.m.>.x ",
"( :X4XH.B.V.Z.H.T.<XtXtXtX#X4.2 M }.0XP.b.b.b.n.b.M.M.b.c.0. .& w |.uX^.H.B.V.Z.J.~.3XtXtXtX XV 4 ) &X6XZ.b.n.n.m.m.m.m.B.q.#.s ",
"_ >X6XH.b.b.b.m.P.~.=X/./.L.,.$ T |.9XU.n.n.V.n.N.N.N.M.-.S & . 0 {.qX^.Z.b.b.m.V.I././.=X/.l.m 4 ) 1X6XH.b.n.m.N.m.m.m.b.o.a # ",
"` oXE.w.=.=.=.;.:.7.w.7.7.=.C % W }.;Xp.-.=.;.-.-.-.-.*.D % . . b G.<XK.7.=.-.=.=.7.7.7.7.w.%.d 6 4.>XOXy.;.-.-.;.;.;.;.%.z #   ",
"2.S.t.C h s h k j s s j j f a s ,.$XE.@.l k l g j h j s e     & I S.S.2.x h h h s h j s s h f a K k.2XG.L g s l k k s s s &   O ",
"b.i.U u = , = = = ; = = = < m &.L.3Xj.6 . . # = ; ; = = * o : D 0.V.7.K 1 = = = ; = = ; = = < K p.+XtXs.= . O # = = , = , o - d ",
"n.e.t.s.a.{ a.f.a.{ a.f.f.d.k.OXiXpXj.4   u I ` a.{ f.d.a.a.6.y.b.b.w.6.s.f.{ { f.d.d.f.a.a.h.[.7XaXpXa.* O a / 1.a.a.a.a.a.s.6.",
"q.C.!.<X2X2X3X3X3X2X2X3XtX3X3XiXaX3Xs.2 @ L K.@X3X2XtX3X3X3X@Xp.9.b.K.!.<XqX3X3X2XtX3X2XrX2XtXiXiXaX2X` ; d <.A.;X3X2X3X2XtX<XL.",
"<.Y.4X-X4X-X4X-X-X-X-X-X5X4X5X=X-XE.,.= > 6.+X5X4X4X-X4X6X5XK.,.+.l.^.4X4X4X6X5X0X8X-X-X-X-X-X-X-X-XA.! ; F A.6X-X-X-X8X-X-XOXt.",
"^ oX4XI.H.Z.H.H.P.A.A.J.J.J.Z.A.P.i.L # 5 F.5XR.Z.J.P.A.P.J.8.g V F.7X/.L.H.H.H.Z.Z.Z.Z.Z.Z.Z.Z.Z.A.b.Z 2 ` oX8XU.Z.Z.Z.Z.Z.i.+.",
"( &X4XZ.v.b.b.b.b.b.v.b.v.b.b.v.b.>.z + 7 `.7XP.r.v.b.b.b.n.$.t 0 |.uX^.V.r.b.v.c.N.c.c.b.b.c.b.N.N.9.j ; [ >X0XZ.c.b.b.N.N.:.z ",
") &X5XC.v.v.b.b.b.n.b.b.b.b.n.b.n.0.z @ 7 `.7XP.b.v.b.b.n.n.$.u M |.uX/.V.b.b.n.N.b.N.c.b.b.b.b.b.N.9.j > [ >XwXZ.b.b.b.N.N.:.z ",
"_ $X5XZ.b.b.b.b.n.b.b.n.b.b.B.b.N.0.c @ 7 '.9XI.b.M.M.M.n.N.$.u 8 {.uX^.V.b.b.b.b.b.b.b.b.b.N.b.b.N.9.j ; ' &X0XI.M.b.b.b.n.7.C ",
"_ &X6XZ.r.b.b.n.b.n.b.b.b.n.n.b.N.0.S @ 8 '.<XA.0.e.c.M.M.n.$.t 8 ].uX^.C.v.b.b.b.b.b.b.b.b.b.b.N.N.9.j ; ' &X-XC.c.b.b.b.n.9.z ",
") &X5XH.b.v.M.n.b.b.b.b.b.b.b.b.N.0.S @ 7 '.XX<.} -.b.N.N.N.$.u 8 ].tX^.V.b.b.b.b.b.b.b.b.b.b.b.M.N.9.f ; { #XXX<.$.q.m.N.N.9.c ",
"` &X4XZ.r.b.b.b.b.b.B.b.b.b.b.b.N.0.z @ 5 D.z.n & } >.0.q.e.#.i N  XyX=XZ.c.b.b.b.b.b.b.b.b.b.b.b.M.0.j ; ` XXz.v j *.0.q.q.=.z ",
"k.3X+XC.b.r.b.b.b.M.b.b.b.b.B.b.n.0.c # : 6.,.*   & a a j l s j ,.1XyX~.C.b.b.b.b.N.b.b.b.b.b.N.b.N.0.j $ ! k.,.@ @ i j f j s s ",
"Y.yX4XZ.r.b.b.n.b.b.n.b.b.b.b.b.N.0.S O $ @.@.p o * = = = : u A t.3XiX~.N.b.b.b.b.b.b.b.b.b.b.b.b.N.9.j # C 8.@.> * = = = = : d ",
"S.qX4XC.r.r.b.b.b.b.b.M.b.b.b.b.N.0.S O > <.u.` Q Q Q Q Q Q G K <.,XiX~.V.b.M.b.b.b.b.b.b.b.b.b.b.N.9.f $ F u.k.^ Q Q Q Q Q Q F ",
"] >X4XH.b.b.b.b.M.b.b.b.n.b.n.n.N.0.c @ 5 z.2X1X&X#X#X#X%X>Xz.G G  XuX~.C.v.b.b.b.b.b.b.N.b.b.b.n.N.9.f = ^ XXtX&X#X#X#X#X%X[.1.",
"( #X5XV.r.b.b.b.b.b.b.b.b.b.b.b.N.0.x @ 7 '.pXeX7X8X9X9X9X0Xl.V b |.yX+XZ.b.b.b.b.b.b.b.b.b.b.b.n.V.0.j ; [ 2XsXwX8X7X8X8X8XXX,.",
"( &X5XH.r.b.b.b.n.b.b.M.b.b.n.b.N.0.z @ 7 '.0XQ.J.J.J.J.J.U.8.p 9 |.uX^.V.b.b.b.N.b.b.b.b.b.b.N.n.M.0.f ; ] 1XiXU.P.P.J.J.P.i.A ",
"_ :X6XZ.b.b.b.b.b.M.b.b.b.b.b.B.N.0.S @ 8 '.7XI.v.v.b.c.b.n.#.u 9 ].yX^.Z.v.B.b.b.b.b.b.n.b.b.b.b.b.0.g ; [ &X8XA.b.v.b.b.b.:.z ",
") :X6XZ.v.r.r.M.b.b.b.b.b.b.b.n.N.0.S @ 0 '.<XI.v.b.b.M.n.n.#.u 8 ].uX^.V.b.n.b.b.n.b.M.b.n.b.b.n.b.9.s = ' :X8XH.b.r.b.b.b.9.z ",
") 1X8XZ.b.b.b.b.b.B.b.B.b.b.b.b.n.0.S O 7 `.7XU.r.b.b.n.n.V.$.u 9 |.iX=XZ.n.b.b.M.b.b.b.b.n.b.M.B.b.0.f - ' :X0XH.b.b.b.n.N.7.z ",
"~  XOXi.e.v.b.n.b.b.r.b.M.b.b.M.b.7.C $ 0 `.5XJ.b.v.b.n.M.V.$.u 8 '.<XY.M.r.b.b.M.b.b.n.b.b.b.M.b.b.:.g 1 a.$X8XH.b.v.n.b.M.:.z ",
"0 ) / J $.q.m.n.b.b.b.b.b.b.M.M.-.L A ! 4.G.T.Z.b.v.b.M.n.N.$.u - ~ ] U L ;.b.m.M.B.n.b.b.b.b.b.0.%.K F ^ k.E.Q.C.b.b.b.b.M.7.z ",
"o 2 2 t c *.q.e.r.b.b.b.b.b.M.b.X.d R z.oXL.Z.M.b.M.b.M.M.N.#.y X - 5 , u ..0.r.q.r.b.n.M.M.M.n.:.x u ~ [.XXP.Z.n.b.b.M.b.M.9.c ",
"o 7 w N Z H  .X.*.q.V.B.n.B.N.n.D : W #XaXU.b.b.b.b.M.b.N.V.$.e X , 9 M m A  . .o.;.b.M.V.M.N.N.=.s * ' 2X-XZ.c.v.M.b.b.b.n.9.c ",
"B j.{.z.^ p $ & H :.r.b.b.M.v.r.} : Q #XiXR.b.r.b.b.b.M.n.V.$.y , a.]..Xj.V % $ y L q.b.c.b.N.M.=.a = _ 2X=XP.c.b.b.b.b.b.n.9.c ",
"~ :XpXoXh.~ G G P S J J J J J J C P s.XX+XJ.b.b.b.M.b.b.n.V.%.u b ].pXiXXX] W G V A L } J J } } D A F g.OXR.C.b.b.b.b.b.b.N.7.z ",
"( 1X0XT.K.}..X[.` v , * $ : % $ V z.E.L.J.V.b.b.b.b.b.M.n.V.$.u 9 |.pX5XT.Y. X.XF.~ < : : : = $ v ^ `.XXP.V.M.b.b.b.b.b.b.N.:.z ",
"_ :X=XH.U.5XeX;Xk.! G W W w 4 X B  X0XP.r.b.b.b.b.b.M.b.b.V.$.u 9 ].qX~.P.~.wXwX*Xg.R T B B M o 2 _ ,X6XZ.c.b.b.b.b.b.b.b.n.0.S ",
"( :X=XH.H.P.I.I.Y.}.|..X|._._ , B }.9XP.r.v.b.b.M.b.b.n.m.m.$.u 9 '.tX~.H.H.I.I.L.Y. X.X.X.Xj.T 2 ' ,X6XA.c.b.b.M.b.b.b.b.N.9.C ",
"_ :X4XH.m.m.b.Z.W.5XwXwXpX@X3., N |.9XP.b.b.n.n.b.N.n.b.q.%.S % 9 |.uX^.H.m.m.m.Z.~.wXyXyXyXoXV 2 ' $X-XZ.M.b.M.b.M.M.n.b.0.X.a ",
"_ :X+Xi.>.q.q.r.C.J.L.P.L.p.U = N XX7XH.r.q.e.r.w.e.r.0.O.s % . 9 |.qX^.b.>.q.q.c.Z.K.I.I.I.p.d 5 ' &X-XM.q.e.e.c.e.e.c.q. .e . ",
",.E.p.@.} | L J  . .} J } J k i / oXXX8.L J }  . . .} J s . . # K G.!.u.X.L .... .D } ......D a Z h.2XY.@.} } } } } | | J r . . ",
"r.p.+.y + + + + # + + + + % i } l.3XG.V + + + + + + + O .   . g &.H.y.K & + + + + + # + + # % k <.XX3Xh.v + + + + # + + + .   % "
};
