/* XPM */
static char *result[] = {
/* columns rows colors chars-per-pixel */
"64 64 255 2 ",
"   c #080808",
".  c #150809",
"X  c #091308",
"o  c #070A18",
"O  c #160816",
"+  c #031A16",
"@  c #081619",
"#  c #041B1B",
"$  c #151719",
"%  c #301614",
"&  c #052219",
"*  c #1C261C",
"=  c #312914",
"-  c #28331C",
";  c #071826",
":  c #0F1429",
">  c #151826",
",  c #231321",
"<  c #052726",
"1  c #152828",
"2  c #0B382D",
"3  c #062A38",
"4  c #172834",
"5  c #073638",
"6  c #183936",
"7  c #2D322F",
"8  c #273837",
"9  c #57301F",
"0  c #0E4838",
"q  c #16473D",
"w  c #2C4934",
"e  c #53470A",
"r  c #6C520C",
"t  c #5C651B",
"y  c #4E4F31",
"u  c #6A5E2A",
"i  c #093B48",
"p  c #153A46",
"a  c #11354B",
"s  c #283A46",
"d  c #2E3948",
"f  c #084647",
"g  c #164747",
"h  c #165649",
"j  c #094754",
"k  c #184B57",
"l  c #0B5756",
"z  c #16575B",
"x  c #254648",
"c  c #34514F",
"v  c #275557",
"b  c #3A5859",
"n  c #126255",
"m  c #18665B",
"M  c #2A655A",
"N  c #316B5C",
"B  c #0C5C64",
"V  c #175A65",
"C  c #135769",
"Z  c #315962",
"A  c #086468",
"S  c #176769",
"D  c #097B69",
"F  c #157965",
"G  c #0B6D75",
"H  c #1A6B75",
"J  c #077775",
"K  c #057C7B",
"L  c #0C7C7B",
"P  c #177579",
"I  c #147C7D",
"U  c #266567",
"Y  c #35686B",
"T  c #32776F",
"R  c #256D75",
"E  c #257678",
"W  c #495456",
"Q  c #645D51",
"!  c #4E6B52",
"~  c #4B7676",
"^  c #A70F03",
"/  c #9E2216",
"(  c #D81904",
")  c #E90F02",
"_  c #FD0500",
"`  c #FF0C00",
"'  c #EC1C01",
"]  c #E71808",
"[  c #FF1100",
"{  c #F91904",
"}  c #D32719",
"|  c #CC311A",
" . c #E92406",
".. c #F92409",
"X. c #F02815",
"o. c #E63A21",
"O. c #9B7704",
"+. c #91780F",
"@. c #A47B01",
"#. c #A57803",
"$. c #AC7D01",
"%. c #A77509",
"&. c #B17300",
"*. c #B07F00",
"=. c #9B672F",
"-. c #E15200",
";. c #FE6E18",
":. c #0C866F",
">. c #05847C",
",. c #0B827C",
"<. c #05897B",
"1. c #15857A",
"2. c #308C78",
"3. c #508474",
"4. c #56877B",
"5. c #6F8277",
"6. c #9B8C00",
"7. c #998B04",
"8. c #97931B",
"9. c #AC8200",
"0. c #A88406",
"q. c #B38300",
"w. c #B98A03",
"e. c #B49203",
"r. c #A78715",
"t. c #B48813",
"y. c #B48726",
"u. c #CB9308",
"i. c #F68916",
"p. c #E89E16",
"a. c #E9A71A",
"s. c #D79134",
"d. c #E29D3E",
"f. c #FDAE28",
"g. c #FDB43C",
"h. c #AE8546",
"j. c #858A6B",
"k. c #D6B44E",
"l. c #E4AC4B",
"z. c #EBB445",
"x. c #F4B545",
"c. c #FFB642",
"v. c #FFBA45",
"b. c #F6B64D",
"n. c #F4BA4A",
"m. c #FEBD4A",
"M. c #FDC44C",
"N. c #EBCF57",
"B. c #FFCA53",
"V. c #F9D65A",
"C. c #DAD466",
"Z. c #F8D665",
"A. c #156F81",
"S. c #0B7685",
"D. c #057D84",
"F. c #0B7C84",
"G. c #047D8A",
"H. c #0B7D8B",
"J. c #137B84",
"K. c #177886",
"L. c #127B8A",
"P. c #067C93",
"I. c #0D7D92",
"U. c #117993",
"Y. c #277D88",
"T. c #687C8A",
"R. c #048385",
"E. c #0B8283",
"W. c #048A84",
"Q. c #0D8A86",
"!. c #04838B",
"~. c #0A838B",
"^. c #028A8C",
"/. c #158687",
"(. c #13828B",
"). c #11948E",
"_. c #199489",
"`. c #048392",
"'. c #0B8392",
"]. c #058A93",
"[. c #138592",
"{. c #258888",
"}. c #338F8D",
"|. c #27978A",
" X c #279996",
".X c #2B9C9D",
"XX c #349A9A",
"oX c #18A093",
"OX c #2AA39C",
"+X c #37A896",
"@X c #2C9DA2",
"#X c #349BA2",
"$X c #28A3A4",
"%X c #38AEAA",
"&X c #588886",
"*X c #4B928E",
"=X c #698F91",
"-X c #799999",
";X c #4EA59A",
":X c #6BA598",
">X c #4D99A4",
",X c #679FA2",
"<X c #45A9A7",
"1X c #46BAA8",
"2X c #58B6A9",
"3X c #52B3B0",
"4X c #68A9A6",
"5X c #76ABA8",
"6X c #73B4AF",
"7X c #6BB9B8",
"8X c #4DC4B2",
"9X c #5AC5B9",
"0X c #6FC9B9",
"qX c #55BDC2",
"wX c #6CBBC3",
"eX c #5AC7C3",
"rX c #5DD4CA",
"tX c #64C5C4",
"yX c #6AD6CA",
"uX c #77D6CA",
"iX c #75D0CD",
"pX c #79D8D6",
"aX c #71E4D5",
"sX c #7AE5DB",
"dX c #73DBE3",
"fX c #7DE6E5",
"gX c #878F91",
"hX c #8C9FA1",
"jX c #83B3B0",
"kX c #8DCDB7",
"lX c #A7CAAF",
"zX c #8FCACB",
"xX c #8BD6CA",
"cX c #93D4CB",
"vX c #97D8CA",
"bX c #88DAD7",
"nX c #97D9D4",
"mX c #A2D1D7",
"MX c #84E4DB",
"NX c #8AE5DD",
"BX c #86E8DA",
"VX c #98E6D8",
"CX c #8EF0D5",
"ZX c #A4E9DB",
"AX c #91D8E2",
"SX c #AEDEE7",
"DX c #89E8E3",
"FX c #96E6E4",
"GX c #8FF3EF",
"HX c #99F5E8",
"JX c #AAEBE5",
"KX c #B3EBEC",
"LX c #A3F5E6",
"PX c #A5F5F4",
"IX c #C5E8F6",
/* pixels */
"S E 6XbXbXcXcXcXcXcXcXcXvXnXcXcXnXjXh # f Y 5XzXvXcXcXcXbXbX>XR S R *XpXbXbXcXxXcXcXcXcXvXvXcXcXcXnX5X6 2 v ~ kXzXcXcXcXcXbX7XE ",
"{.}.yXBXsXMXNXNXBXMXMXBXNXNXbXNXFXiXg < M T 0XNXNXbXDXDXfXDX<XE P 2.1XfXDXBXMXMXNXNXBXMXMXbXNXDXbXbX7X6 s Y.*XbXDXDXbXNXDXsX0XU ",
"0XrX%X$X@X.XXXXX.X@X$X.X.X.X.X@X@X{.< @ =XmX>XOX#X@X#XOX$X$XU 1 3.aX8X$X$X@XXXXX.X.X@XOXOX.X.X.X@X$XE 1 W mXzX+XXX.X.X$XOX$X2.3 ",
"cXfX$X].!.R.F.F.H.G.R.!.R.G.R.~.`.J ;   hXSX<X>.G.S.G.R.Q.,.p , 5.GXeX].!.R.F.F.G.G.!.!.R.H.R.!.!.`.B @ W IXbX_.R.G.S.!.R.W.z O ",
"cXMX$X!.!.R.D.F.H.G.!.R.!.R.R.!.].J <   hXFX%XQ.!.P.!.~.~.J.p $ ~ HXeX].!.R.D.F.F.G.!.R.!.R.!.R.^.].A + b KXpX X^.P.P.~.Q./.z @ ",
"cXMX@XG.!.R.R.F.H.H.!.R.R.D.R.!.!.K 3 X 5XDX%XR.G.`.'.~.(.I f $ 4.HXeX(.!.!.R.F.F.H.!.!.R.R.R.R.^.].A < Z PXpX/.D.P.].'.~.J.z @ ",
"xXNX.XH.!.^.R.F.H.!.!.R.D.F.K F.^.K < X 4XDX%XK P.P.P.H.J.P g # &XLXeXU.R.!.R.F.F.H.~.!.R.D.L F.!.!.A < N GXfX|.D.`.`.G.F.K.z + ",
"cXNX#XH.!.R.D.F.~.`.!.G.F.F.L F.E.G <   ,XGXXXG H.`.`.H.K.R f @ &XLXtX(.G.R.G.K H.~.!.R.D.F.F.S.~.~.S # Z HXsX1.G `.`.H.F.A.z + ",
"xXDX@XG.!.G.F.F.^.].~.H.E.R.D.F.L.S ;   -XJXY 3 G U.(.K.K.R g & 4.HXrX[.G.G.F.I R.^.].F.R.!.R.L S.L.V $ W PXzXx i S.U.{.P K.z + ",
"xXDX@XG.F.F.J.H.^.].!.H.~.^.D.F.L.H > . -XnXb # k H R H R R f & 4.HXeX[.G.F.F.J.!.].^.L.H.^.R.D.L.A.V X W ZXkX1 3 H H R R H z # ",
"VXbX#XS.!.^.E.E.!.!.!.G.!.!.D.D.~.G & X M 3.q o 3 a 3 1 i i f v :XPXtXY.G.R.!.F.~.!.!.!.!.`.!.F.L.~.n + 2 *X2.& ; i 3 3 3 a i h ",
"VXFX>XL.^.W.!.E.!.H.!.!.!.G.G.G.^.J < X h :.0 $ ; : : : : 3 g Y 7XPXwXY.F.^.^.~.F.H.G.!.!.!.G.G.'.^.A & 2 2.F - o : : > $ 3 5 M ",
"vXDX#X~.!.R.R.F.G.!.!.R.`.!.G.!.'.J &   3.0XkXjX5X6X=Xj.T.gXQ 7 5.lX-XY Y R Y Y J.!.!.~.!.`.G.G.'.!.A & w 0X0XjX6X6X6X6X5X7X*Xp ",
"vXMX@X!.R.G.F.F.`.].~.G.!.!.G.!.~.G <   :XZXZXZXDXsXQ ] X.X.] ) ] X.X.] ] ] ]  .U !.!.H.!.!.!.G.~.!.A + ! KXLXZXCXfXBXCXNXDX6X> ",
"cXsX$X!.R.D.D.F.!.].~.~.H.F.G.H.~.G &   hXCX8X|. X X/ ) { [ [ [ ` [ [ [ ` [ [ ..U !.!.E.G.F.H.F.H.!.B @ c JXBX+XOX X$XoXOX.XR $ ",
"vXsX@X!.G.D.F.F.!.`.!.!.F.S.S.L.~.G < X gXVX<X<.K U.9 ) [ ` [ [ [ [ [ [ ` ` [ { U G.!.G.G.F.S.L.H.!.B @ c JXBX_.<.^.].<.<./.V @ ",
"nXDX$X`.!.R.G.F.G.P.!.R.G.F.L H.!.Y ( ( o.o.o.| | | ] ` [ ` ` [ [ [ [ ` [ ` ` { } } =.R.R.F.F.F.~.!.A # b KXAX).`.P.P.S.G./.z o ",
"cXBX@X!.!.G.F.F.S.S.!.!.R.F.R.R.W.b { { { { { { _ _ ` ` ` ` _ ` _ _ ` ` ` ` ` ` ` _ } !.R.F.G.E.R.^.A < W IXAX X`.I.U.U.H.~.l O ",
"xXCXXXU.P.P.I.H.S.K H.H.~.!.D.(.,.N ] ( X.o.X.} ....{ { ) { { ..{ ..{ { ' ) { ) { { | J.H.'.G.E.E.:.S ; W IXDX_.R.H.U.L.H.,.n # ",
"kXxXXXK.U.P.[.L.D.D.L.L.H.P.H.(.I S 2 @ hXZX%X2.Z.V.a.7.8.B.B.B.B.B.B.7.6.6.6.6.6.6.8.K.H.`.G.H.I P m < b KXbXoXW.R.H.H.(.,.A & ",
"c c i j S.P.~.R.E.K F.H.P.~.E.L j g 3.:X;X;X_.:.V.B.p.$.0.v.m.m.m.m.m.#.@.$.9.0.9.0.8.I J G.H.L A 5 k ;X4X;XXXQ.W.!.~.`.~.F.z # ",
"$ $ : 5 S A.,.,.>.>.W.R.H.(./.,.5 4 ! Q Q w w u B.m.p.*.0.c.g.c.c.c.v.u.u.w.$.@.u.u.t.8 w w P K l o p iX9XL ,.W.^.!.`.`.!.L.C o ",
"=X:X5X=Xp 3 < 0 D <.<.W.E.E.W.<.5 7 k.k.k.k.k.z.m.m.a.%.0.c.c.c.c.g.c.b.v.u.@.#.z.m.d.O.9.O.:.<.l o p bXtXL K !.!.G.P.I.'.U.C ; ",
"vXCXCXkX6 $ ; 4 m D J J J L J D x y g.M.g.c.c.c.b.m.p.$.$.c.c.g.c.c.g.b.x.u.@.#.x.v.z.6.w.7.N D l ; v pXyXL.S.I.'.'.U.U.U.P.A ; ",
"xXCX;X;X9X5XjX-Xh 5 3 i i 3 5 = d.g.g.c.c.v.v.g.q.q.p.f.f.m.c.c.g.c.g.w.w.q.$.#.x.m.z.@.q.O.w 2 V ,X4X<X X!.G.G.`.`.`.H.'.~.A ; ",
"vXVX+X2.aXCXZXvXx @ o o o o o = k.M.c.c.v.v.b.x.O.#.u.g.c.c.c.c.c.c.c.$.$.$.$.O.b.b.z.#.$.O.$ @ Z JXdX{.D.!.`.P.`.`.`.`.!.W.A ; ",
"nXHX|.:.%X1X<X4X,X=X=XT.&X~ , = k.Z.n.z.b.z.b.z.@.%.u.m.z.c.g.c.c.c.c.t.%.r.$.%.z.M.l.@.$.@.W $ b KXnX{.L H.G.H.P.!.!.!.W.<.l # ",
"mXHXOX<.<.Q.I }.iXDXfXdXBXkXd . gXlXr.t.$.t.r.0.$.*.*.$.t.c.c.c.g.c.c.z.n.z.z.b.t.%.0.q.q.#.5., W KXnX{.J.F.H.~.P.!.D.R.J D h o ",
"mXDX@X!.R.E.I J.#X%X+X+X+X+X3 o -XkX0.q.9.9.$.$.9.$.9.$.$.c.c.g.c.c.c.c.v.c.c.B.w.*.q.q.w.7.! @ c SXbX/.>.R.R.!.W.R.E.I S 0 $ . ",
"AXdX@X'.I I P I R.<.:.:.:.m < + :XkXr.u.w.9.O.@.@.@.@.O.#.c.c.c.g.g.c.g.c.c.v.b.w.w.w.w.u.0.w & c KXpX1.>.K W.R.W.W.I P v $ . O ",
"%X%XA.a i p j j j f f f 0 f 0 0 6XxX2.q g k.n.b.n.n.n.x.n.c.c.c.c.c.c.c.g.c.v.B.c g h q q q 0 0 2.HXuXm f j j j j l f p 1 @ @ s ",
"].'.a : : ; : : : : < < < 2 m F 0XBX0 + # k.N.n.n.n.m.m.m.c.c.c.c.c.c.c.c.g.v.V.- ; @ * & & 0 m }.HXkX6 ; o ; : : ; ; ; @ @ 5 S ",
"!.~.*X4.4.3.4.&XT.T.&X4.=X*X2X2XBXxX6 o 6 u h.h.h.h.y.p.p.p.p.p.;.;.;.;.;.i.p.a.e e e e e e e e T HXkX4 # f g ~ =X&X4.4.&X&X*XK.",
"[.{.uXHXCXCXCXLXKXJXJXLXPXHXPXGXHXzX8 o n 2.0XJXZXVXu O.$.@.@.O.' ` ` _ ` -.7.$.q.u.u.*.q.&.u.*.y HXjX1 2 1.+XbXLXJXLXLXLXPXpXY.",
">X1X9X9X8X8X8X7XwXtXtXeXqXwX3XeXeX4X6   ~ 2X0X9XtX3Xy $.9.0.0.7.' ` [ ` [ -.9.$.*.*.$.$.*.*.q.#.7 7X&X> d 4X2X9X0XtX9XtXtXtX>Xv ",
"zXaX$X).<.1./.(.(.(.[.).}.k.z.l.l.l.d.l.b.y.+.+.r.+.#.9.$. .' ..` [ [ [ [ -.9.*.*.$.q.9.*.*.$.*.s.l.l.d.l.Z.cX|.Q.(.L./.Q._.V : ",
"cXfX$X!.R.D.D.L G.G.G.R.2.V.M.M.n.m.m.m.B.t.$.q.9.9.9.0.#.` ` ` ` ` ` [ [ -.6.$.*.*.*.w.w.*.9.q.f.M.m.v.M.V.bX_.D.G.G.D.W.E.z o ",
"cXDX$X!.!.R.G.F.H.G.!.R.}.V.M.g.c.v.z.z.n.t.$.0.&.&.&.$.%.[ ` ` ..X...[ [ -.0.*.*.q.q.r.r.7.r.t.f.v.v.v.m.Z.bX_.!.P.`.!.~.J.z @ ",
"cXMX.XG.!.W.R.F.H.H.!.R.2.N.c.c.c.z.0.#.#.$.9.#.` _ _ _ _ ` ` ..m.B.M.{ ` -.0.9.*.q.r.1.E.x k.M.g.v.v.c.M.V.pX/.D.P.`.`.E.J.z + ",
"cXMX#XH.!.R.G.F.H.`.!.R.2.N.v.x.v.x.w.$.9.$.9.$._ ` [ ` [ [ [ ..b.m.c.[ [ -.0.9.9.w.8.E.!.w k.M.v.g.c.v.m.V.sX_.G.`.P.D.L.A.z + ",
"xXNX#XG.!.R.G.F.^.].!.E.2.C.z.z.b.x.w.$.w.t.e.0._ [ [ [ ` [ [ ..c.b.c.` [ -.0.9.$.e.8.J.R.g k.M.b.c.c.c.M.V.MXS A I.[.H.J.K.v + ",
"cXDX@XG.H.F.F.F.^.].~.H./.}.2.y %.r.= = j.lX! = { [ [ [ [ [ [ [ ......` [ { ' ' ' ' | L.F.D.2.3.d.M.m.c.M.Z.kXq i A.K.A.P P V + ",
"vXNX#XG.!.R.E.F.!.].~.F.Q.!.D.* #.@.$ . ! gX8 % { [ [ ` [ [ [ ` ` ` ` ` [ ` ` ` ` ` | H S G G.E =.M.x.z.z.N.:X* ; i k k k j j 2 ",
"VXFX>XS.^.^.R.~.H.G.!.!.~.!.D.- #.9.r e r ^ ^ ^ [ [ [ [ ` [ [ [ [ [ [ [ ` [ [ [ [ { ) ^ ^ / U P y u u 9 u u m * o ; ; o o ; 3 M ",
"nXNX#XH.^.W.R.H.H.!.!.!.!.!.G.- O.q.q.q.6. .{ { [ [ ` [ [ [ [ [ ` [ [ [ ` [ [ [ [ [ [ { { ] Y G.[.!.A & w 2.2.w x g x x x k j v ",
"vXDX#XG.!.R.G.F.!.].~.H.!.!.D.- @.q.9.9.6. .` ` [ [ [ [ [ [ ` [ [ [ [ [ [ [ ` [ [ [ [ [ { ] Y D.K.'.A + c ZXCXZXnXFXVXCXnXFX6X6 ",
"vXBX@X!.!.G.L F.!.].~.G.!.G.G.* @.9.9.9.6.' ` [ [ [ [ [ [ ` [ [ [ ` [ [ [ [ ` [ ` [ [ [ ` [ } | 7 G.A @ b LXHXxXuXyXrXyXyXpX>X@ ",
"cXDX$X!.R.F.F.F.~.`.!.H.F.H.S.- @.q.9.9.6. .` [ [ [ [ [ ` { { [ [ { [ [ [ [ [ [ [ [ [ ` [ [ ` ( % E.A @ W JXsX|.Q.).).).Q./.V $ ",
"nXBX$X!.!.D.F.F.F.!.!.R.G.F.L - #.q.$.9.6.' ` [ [ [ [ [ { ' ] ' ..X.X. . .[ [ { ` [ [ [ [ ` ` ( 9 E.m # c SXDX_.^.`.P.!.R.Q.V o ",
"vXBX$X!.!.R.D.F.H.H.!.!.K F.D.- @.q.$.$.0.' ` [ [ [ ` { ] h 6 , ~ HXeX).H / { [ [ [ [ { ` ..@.6.q.w.u.- W KXAX).G.P.U.U.~.(.m O ",
"kXBX$X].H.F.J.S.L.P.G.!.!.H.K - O.q.q.q.6. .{ [ [ [ [ { ( j i $ 5.HXeX].H / [ [ [ { { [ ` { $.0.q.q.u.- W KXDX_.G.I.U.U.'.L.l o ",
"kXaX.XH.F.J.L.K.A.U.P.`.].!.S.6 +.+.+.+.8.o.} } } } } } | k i @ 4.CX9X(.E / } } } } }  . . .&.9.$.9.u.- Y PXpX{.K ~.].`.'.H.C @ ",
"&X*XZ C A.H.~.~.U.K.!.R.!.`.G.P M x N ! :X:X}.T R E P E E K.f @ b :X~ C C E E T Y R T u.$.$.9.*.q.q.u.! *X0X9X{.E.!.!.!.P.[.V + ",
"$ $ : 3 V K >.,.K.K.E.Q.Q.(.E.L p 4 jXZX;XE P ,.Q.Q.(.K./.K.f . . X O : a I ).Q.F.K.2.w.0.*.*.*.q.*.u.lXiX2.P I E.Q.~.J.K./.S @ ",
"7 8 s s C A J J P K.R.W.E.(.).,.3 4 kXGX;XD ,.^.^.^.!.L.[.[.g X * 8 8 s k B G J r r r w.$.*.q.#.e = = xXyXP :.E.^.^.^.L.L.[.S + ",
"kXkXVX6Xa ; ; 3 S K.:.1.I I 1.1.3 > iXGX+XL D.!.W.^.~.K.{.K.g $ ~ cXnXAX=X3 ; ; t.$.$.*.9.9.q.#.=   s pXeXJ K R.^.W.^.K.K.(.V   ",
"kXCXMX7XR v v v v k k h l z n n k b 7XrX$X~.H.'.^.^.E.K./.P q X 4.LXCXpX;XV v v j.t r t t t y.%.V d Y tX1XL G.'.^.^.!.J.J.(.z X ",
"xXBX+X.XyXaXNXzXd : : @ ; < ; < ,XbX>X/.H.!.H.H.G.!.E.E./.K.f & 1 - 6 {.%XfXsXnX5Xs o o ; < * - Z mXpX}.H.!.H.S.H.!.!.E.F.J.z + ",
"CXCXXX/.eXrXuX7X~ d d 8 x x # o 4XbXXXJ.!.].P.L.G.!.D.D.L.J.f # X     /..XrXyXiX4XZ d w x x 6 @ v PXpX/.G.`.].U.H.G.R.K D.~.B + ",
"kXxXXXK.Y./.E }.wXAXmXVXZXjX8   4XsX XK.G.`.P.U.H.!.R.W.].~.i @ $     E K.K.Y.2.*XbXnXVXvXvX=X, v GXaX{.G.`.`.I.U.G.R.E.R.].B + ",
"mXFX@X>.<.<.I }.bXGXHXHXLXvX8 % -XnX}.P J.H.I.I.H.!.R.>.:.D 0 > T.PXtXQ.<.<.L E >XAXPXGXCXHXhX, W SXnXT S.F.H.(.H.!.R.R.>.:.l @ ",
"nXGX$XW.>.W.F./.<X8X1X%X1X*X4   -XnX}.F.E.R.!.!.!.R.K P h 2 $ : T.PXrXQ.>.<.,.K.{.%X%X1X8X1X~ @ c SXnX}.>.R.~.!.!.R.F.I F 0 1 O ",
"iXdX XP P H P G >.>.:.D F m < # :XVX|.>.J J K K >.K H z 1 . , , >XGXqXL.P P P H J J D D D F h < M JXpX1.J J K K K K G H v $ . O ",
"%X%XH a a i i i i f f 0 0 f f f 6XMXF f f f i f j f i 6 o O 4 C U.%X{.j a i i i f i f 0 0 0 0 g 2.LXuXm f i j f j f f 5 1 @ > p "
};
