/* XPM */
static char *result[] = {
/* columns rows colors chars-per-pixel */
"64 64 254 2 ",
"   c #090402",
".  c #180904",
"X  c #181211",
"o  c #230C03",
"O  c #2B1306",
"+  c #25110A",
"@  c #291509",
"#  c #38180A",
"$  c #251715",
"%  c #2B1B15",
"&  c #2D1D1A",
"*  c #341E16",
"=  c #342312",
"-  c #392518",
";  c #2C1F21",
":  c #2B2324",
">  c #362826",
",  c #3C2D2C",
"<  c #3C2F31",
"1  c #461D0D",
"2  c #5C1910",
"3  c #47210F",
"4  c #533909",
"5  c #482513",
"6  c #532A17",
"7  c #5C2C16",
"8  c #5F2F19",
"9  c #4D3214",
"0  c #5B3419",
"q  c #6C2712",
"w  c #612F18",
"e  c #683813",
"r  c #623119",
"t  c #6C361C",
"y  c #6E381D",
"u  c #713A1E",
"i  c #432B24",
"p  c #47332C",
"a  c #593726",
"s  c #4F3B36",
"d  c #683A26",
"f  c #763C22",
"g  c #623E32",
"h  c #584603",
"j  c #684317",
"k  c #725110",
"l  c #5A453D",
"z  c #794328",
"x  c #674336",
"c  c #794934",
"v  c #735031",
"b  c #453D4F",
"n  c #5B4948",
"m  c #684D48",
"M  c #76544A",
"N  c #6B5655",
"B  c #6B5756",
"V  c #765C59",
"C  c #7B615B",
"Z  c #766060",
"A  c #7C6363",
"S  c #A81003",
"D  c #912716",
"F  c #AB280A",
"G  c #B82606",
"H  c #D41A05",
"J  c #FD0500",
"K  c #FF0C00",
"L  c #E91704",
"P  c #EC1D02",
"I  c #FF1100",
"U  c #F71906",
"Y  c #FD1A01",
"T  c #F31D11",
"R  c #D13008",
"E  c #EB2402",
"W  c #F7260A",
"Q  c #F83401",
"!  c #FF3500",
"~  c #FB2713",
"^  c #FF2D14",
"/  c #E93411",
"(  c #FC3417",
")  c #FF341C",
"_  c #FF3727",
"`  c #8F7709",
"'  c #9D7402",
"]  c #A27701",
"[  c #A47B01",
"{  c #AC7D01",
"}  c #AB7A09",
"|  c #A87A0E",
" . c #B17401",
".. c #B07E00",
"X. c #834629",
"o. c #844729",
"O. c #8C512B",
"+. c #95532E",
"@. c #884C33",
"#. c #895339",
"$. c #995534",
"%. c #A55D3B",
"&. c #A85B3A",
"*. c #B95E3E",
"=. c #9A6226",
"-. c #AC623D",
";. c #B47636",
":. c #DF5000",
">. c #FF4201",
",. c #F4430D",
"<. c #E15200",
"1. c #FA4813",
"2. c #FE6E18",
"3. c #CA5C3B",
"4. c #FB4326",
"5. c #C7673C",
"6. c #875948",
"7. c #985A45",
"8. c #845F57",
"9. c #98654F",
"0. c #86645B",
"q. c #AD6542",
"w. c #A6674B",
"e. c #B16642",
"r. c #B66747",
"t. c #B56A45",
"y. c #BA6C46",
"u. c #BC6E49",
"i. c #BE704B",
"p. c #B3784D",
"a. c #A66857",
"s. c #AA755A",
"d. c #B87456",
"f. c #886B67",
"g. c #956C64",
"h. c #9B7469",
"j. c #987976",
"k. c #A87666",
"l. c #B57C6B",
"z. c #A47E78",
"x. c #CE6C43",
"c. c #C76A48",
"v. c #D06D44",
"b. c #C4744D",
"n. c #C7764C",
"m. c #D6774E",
"M. c #C57651",
"N. c #C87750",
"B. c #C67953",
"V. c #C97953",
"C. c #C57B59",
"Z. c #CB7D5B",
"A. c #C47E62",
"S. c #DE7B65",
"D. c #9B8C00",
"F. c #998B04",
"G. c #A68601",
"H. c #AC8200",
"J. c #AD810C",
"K. c #B38300",
"L. c #BA8904",
"P. c #AD9406",
"I. c #AD8213",
"U. c #B48614",
"Y. c #B78821",
"T. c #C48C0B",
"R. c #C79102",
"E. c #D7960A",
"W. c #F68916",
"Q. c #E89E16",
"!. c #E9A71A",
"~. c #D68E39",
"^. c #E69C34",
"/. c #FAAB2E",
"(. c #FDB43C",
"). c #BB8040",
"_. c #B2876C",
"`. c #AA847C",
"'. c #B68A78",
"]. c #B6917A",
"[. c #B9917B",
"{. c #D0864F",
"}. c #CD815E",
"|. c #D3AD4C",
" X c #DDB348",
".X c #FAAB44",
"XX c #EBB445",
"oX c #E8B34F",
"OX c #F3B545",
"+X c #FFB642",
"@X c #F5B847",
"#X c #FFBA45",
"$X c #F4BA4A",
"%X c #FDBD4A",
"&X c #FBBD52",
"*X c #CE8261",
"=X c #CA876B",
"-X c #D38666",
";X c #D48B6C",
":X c #C98A74",
">X c #D68E72",
",X c #CD917D",
"<X c #DA967B",
"1X c #DC957B",
"2X c #E49275",
"3X c #FEC44B",
"4X c #FFD44F",
"5X c #FBCB54",
"6X c #FBD457",
"7X c #FFD966",
"8X c #747087",
"9X c #897D95",
"0X c #AC8985",
"qX c #B58C88",
"wX c #BA9389",
"eX c #CA9889",
"rX c #D89B86",
"tX c #D39A8C",
"yX c #C79C97",
"uX c #CB9E96",
"iX c #E29E85",
"pX c #E69D87",
"aX c #D5A48E",
"sX c #CDA196",
"dX c #CDA199",
"fX c #D9A596",
"gX c #D2A49A",
"hX c #DCA99C",
"jX c #E5A188",
"kX c #E4A18A",
"lX c #E4A692",
"zX c #E9A995",
"xX c #E6AD9D",
"cX c #E9AD9B",
"vX c #EDB29F",
"bX c #D0ACAF",
"nX c #E6AEA1",
"mX c #E8AFA0",
"MX c #E9B2A4",
"NX c #F5B8A6",
"BX c #EEBCB1",
"VX c #D6C8B5",
"CX c #FCC5AC",
"ZX c #FFCAAE",
"AX c #ECCEB0",
"SX c #FCCAB3",
"DX c #F7DBBA",
"FX c #F9DAB9",
"GX c #C9AEC1",
"HX c #D3B7C9",
"JX c #D1B6CA",
"KX c #F5D9C1",
"LX c #FBE1C7",
"PX c #FFEED7",
/* pixels */
"a.k.qXbXHXHXHXHXHXHXHXHXJXJXJXJXJXGX9Xb < B `.bXJXJXJXJXJXHXbXqXa.a.l.yXGXJXJXJXJXJXJXJXJXJXJXJXHXHXbX8Xb b 9.qXbXJXJXJXJXJXGXyX",
"w.*XrXnXxXnXnXnXnXxXxXxXMXnXxXnXmXfX0.; & 6.>XlXnXnXmXnXmXmXtXs.w.C.;XrXnXnXxXnXnXmXnXnXxXxXmXmXmXmXuXN & d s.rXzXmXxXxXnXmXhXA.",
"6.eXiX>X-X-X;X-X;X;X;X;X;X;X;X;X;X*Xc @ ; h.rX1X;X;X-X;X;X>Xd.d g l.lXpX-X;XS.;X;X;X;X;X-X;X;X;X-X>XA.d & M :XlX>X-X>X;X>X-XA.7.",
"N uXpXZ.b.b.i.b.i.b.b.b.b.b.b.b.b.e.f + , 0XpX-Xu.b.b.M.M.C.$.5 p 0XnXrXZ.b.b.d.b.b.b.d.M.M.b.b.B.B.r.w & V uXzXZ.N.b.b.M.b.q.t ",
"N uXpXZ.u.b.c.n.b.b.b.b.b.b.b.b.n.t.u + < 0XlX-Xc.i.c.b.b.M.$.1 < 0XmX1XB.b.c.b.c.b.b.c.b.b.b.b.b.N.-.r & Z uXzXZ.u.c.b.b.b.q.t ",
"N uXiXZ.i.b.b.b.b.b.b.b.b.b.b.b.M.t.u O < 0XfX;Xb.b.M.b.M.N.$.3 < qXmX1XC.b.b.b.M.b.b.M.b.b.b.b.b.N.q.8 & Z uXzX*Xb.b.b.b.b.e.t ",
"N uXpXZ.b.b.b.b.b.b.b.n.b.b.b.b.M.t.d + , 0XlX*Xy.b.b.M.N.N.$.3 < qXmXrXC.b.b.b.b.b.b.b.b.b.b.M.M.N.t.8 & Z uXzX*Xb.b.b.N.N.e.t ",
"N yXpXZ.y.b.b.b.b.b.b.b.b.b.b.b.b.t.y + > `.tXw.+.e.b.n.N.V.%.1 < qXmX1XC.b.b.b.b.b.b.b.b.b.b.b.b.N.t.8 = A yXfXw.&.y.N.N.N.e.t ",
"B sXjXC.y.b.b.b.b.b.b.b.b.b.b.b.n.t.f + , `.`.g 2 O.r.c.b.N.@.5 p qXnXrXC.b.b.b.b.b.b.b.M.M.b.b.b.M.e.8 & A yXz.a t *.b.b.b.&.f ",
"0.gXiX}.b.b.n.n.b.b.b.b.b.i.b.b.N.t.f o > h.g.: . w O.+.@.$.f 2 l wXmX1XB.b.b.b.b.b.b.b.M.c.b.b.b.N.q.8 & M l.f.$ # u +.+.O.o.w ",
"_.xXiX}.c.b.b.b.b.b.b.b.b.b.B.b.N.r.f + % 7.#.@   . # # 1 # 2 d 9.fXMX1XZ.b.c.N.b.N.b.b.b.b.b.b.n.N.e.8 @ x w.c X . O # # # 1 6 ",
":XxXiXV.b.i.b.b.b.b.b.b.B.b.b.b.n.t.u o % #.7.s > > > > , , p d a.lXvXrXV.b.b.N.b.b.b.N.b.b.N.b.b.N.r.r @ d w.9.p > , , , > i 8 ",
"0.fXjXZ.i.b.n.b.b.b.M.b.b.b.b.M.N.r.t o & g.eX0Xz.z.g.a.a.a.7.f @.S.pXS.3.3.3.x.c.M.N.b.b.b.N.b.N.N.t.r % M '.rX`.`.j.z.z.z.j.M ",
"B uXjXZ.b.b.b.b.b.b.b.b.b.b.b.M.N.r.f + , `.BXBXnXxXX.L T T L L L T T T U U U U *.M.b.b.N.b.b.M.b.N.e.8 & A dXBXNXvXMXvXmXNXtX8.",
"B dXkXZ.i.b.M.i.b.b.b.N.b.b.b.b.N.r.f + < 0XnXpX,XS.F L Y I Y I J I Y I J I Y W &.M.b.b.b.b.n.b.b.N.q.7 & V gXMXrX;X>X>X>X>Xl.c ",
"B uXjXZ.b.i.b.M.b.b.b.b.b.b.b.M.b.r.f O p 0XhXS.M.c.D L K K K K K K K I K K K Y &.c.N.b.b.b.M.b.n.M.e.w & Z uXzX;XV.V.V.Z.Z.t.u ",
"B uXpXZ.b.u.b.M.b.N.b.b.N.b.b.b.N.3.P H H ( ) / W W E I K I K I I K I I I K I K W / / N.b.N.M.b.b.N.t.r & A dXzX}.b.i.b.b.b.-.t ",
"B dXjXZ.b.b.M.b.b.b.b.b.b.b.M.b.b.3.Y Y Y Y Y I K K K K K J K K K K J J K K K K K I ~ M.b.b.b.b.N.N.t.8 & A dXcXZ.b.b.b.b.b.-.t ",
"B gXlXZ.b.b.b.b.b.b.b.b.b.b.M.M.N.3.P L L / ( ~ T T U U L T U T U U U U L U L U U U / v.b.b.b.M.M.n.t.8 % V dXzX*Xb.b.b.b.M.q.t ",
"n z.l.q.-.u.b.M.N.b.M.M.N.b.b.b.r.%.d i n '.rXd.7X6X!.F.F.5X5X5X5X5X5XF.F.F.D.D.D.D.P.b.b.N.b.M.u.e.+.d p f.eXiXZ.b.b.b.b.M.e.t ",
": l g r o.e.N.N.b.b.b.M.M.b.b.n.%.d g V h.:X=Xp.6X3XQ.H.G.#X3X%X%X%X#XJ.[ H.H.H.G.H.U.b.u.u.M.M.e.O.r x f.l.:X;XV.M.b.b.b.N.t.y ",
"X : > i d +.%.-.e.b.n.n.n.n.N.n.o.5 0 v v #.v v 5X%XQ...J.+X(.+X+X#X+XT.T.L.[ H.T.E.T.0 j j t.B.&.r * N eXrX*Xb.b.b.n.b.b.N.q.u ",
"< Z j.f.m 6 # 6 X.-.N.n.N.N.N.N.o.0 |. X X XXX X%X&XQ.{ } +X#X(.+X(.+X@X@XE.[ [ XX@X(.` { ] ;.N.&.7 + N hXpX*Xb.b.b.b.B.b.N.e.y ",
"N yXBXaX0.s > > d O.%.$.$.$.$.$.o.c /.3X#X#X#X(.@X&XQ.{ J.+X+X(.+X+X(.@XOXE.[ ] OX3XXX' ..{ $.%.@.d p 0.tX1XZ.b.b.b.b.b.b.N.q.y ",
"B gXNXrX_.h.j.f.m 6 3 3 1 1 3 3 ~.(.+X+X+X#X#XOXK.L.E././.%X+X+X+X+X+XL.L.K.{ ] OX%XXX[ K.' 4 1 6 x g._.:X-XV.b.b.b.M.n.b.N.-.u ",
"B uXkX;X>XtXgXyX0.p * & & & $ - XX3X+X+X#X#X#XOX' ] E.(.+X+X(.+X(.+X+XH.{ ..{ ] OX%XXX[ ..' = X ; N eXrX*XN.b.b.b.N.M.b.b.N.t.u ",
"N uXiX*X-X<XjX<Xz.g.A A Z B s - |.6XoXXXXX$X$XXX] [ E.$X@X(.+X+X+X+X+XI.' J.} | oX$XXX[ K.[ v : : V gXkXZ.b.b.b.b.M.M.b.b.N.-.u ",
"N uXkXZ.B.V.C.}.<XfXhXnXnXeX8.& l _.I.U.I.J.I.J.{ { K.J.I.+X+X+X+X(.+XXX$X$X$XoXI.J.} { K.} _.l : N uXjXZ.b.b.N.N.M.n.M.M.y.$.7 ",
"N dXjXS.b.n.n.N.-X1XpXiX1X;X6.$ s `.U.K.K.H.H.{ { { H.[ } +X+X(.(.+X(.+X@X+X#X3XU.K.L.L.L.} p.a ; B dXlX}.b.M.N.N.N.V.N.n.+.6 O ",
"V eX,Xw.%.%.%.-.-.q.q.q.r.$.d # l _.P.L.L.[ [ ' [ [ [ [ [ (.#X(.+X+X+X+X+X(.#X&XP.L.L.L.R...+.6 > 0.fXrXu.%.%.%.-.%.-.%.$.t O   ",
"9._.a.f 7 7 r r w w 7 w r 8 6 7 6.eX[.O.e  X3X@X$X$X@X@X$X+X+X+X+X+X+X+X+X+X+X6Xk r e e e e w 6 c k.gX'.c 8 8 8 r w 7 8 7 #   o ",
"M.u.@.- & & % % % % % % & - a $.:XfX`.> . |.5X$X$X$X%X%X%X+X+X+X+X+X(.+X+X+X#X4X- @ @ % @ $ * d w.rXhXg.% . o @ % % & & & $ $ 6 ",
"N.i.w.f.A A A f.A A A A f.f.k.rXmXnXj.:   =.;.).).).;.Q.Q.Q.Q.Q.2.2.2.2.2.W.Q.!.h 4 h 4 4 h h j 6.NXMXA X O 6 c f.f.A f.A f.f.a.",
"y.}.,XfXhXhXhXhXhXhXhXhXnXhXhXMXBXnXf.; + @.=XrXfXaXj ] { [ [ ] P J K J K :.G.{ L.L.R.K.K.L.R.K.a BXhXB & 6 7.=XtXgXgXhXhXhXfX:X",
"7.:XiXiXkXkXjXjXlXkXiXiXkXkXiXrXpX,X6.$ = 9.rXjXkX<Xk } { G.D.D.P K I K I <.G.{ ..K.....K.{ K.] i iX:Xx $ g =XjXjXpXpXpXpXjX<Xs.",
"V eXiX-X}.}.}.}.*X*X}.*X-X&X+X.X.X.X.X^.|.Y.| | | J.] H.{ E U E K I I I I <.G...........{ K...K.Q.$X.X^.XXoXeXlX;X*X*XZ.*X*Xd.c ",
"B yXjXB.y.c.n.i.b.b.b.b.{.6X%X%X#X%X%X%X5XU.K.K.G.K.H.G.[ K K K K K K K I <.G.H.{ ..K.K.L.L.{ L./.3X%X#X3X5XgXzXZ.b.b.b.b.b.-.t ",
"N sXkXV.b.b.n.b.M.b.b.b.{.6X+X+X+X@XOXXX$XU.} H.{  . .{  .I K K ~ ~ ~ K I <.G.{ K.K.L.T.T.} J.U./.#X%X+X%X5XgXzX}.b.b.b.b.N.-.t ",
"B sXkX}.i.b.M.b.M.M.b.b.{.6X+X+X#XXX} ] ] { G. .K J J J J K K ~ &X5X3XU K <.H.H.H.K.T.n.b.z  X5X+X#X+X+X%X5XdXzX*Xb.b.M.b.N.e.u ",
"B sXkX}.b.b.b.b.n.b.b.b.{.6X#X%X%XOXL.H.H.{ H.{ J K K K I K K ~ .X#X+XY K <.G.H.H.K.T.b.i.z  X3X+X+X#X+X3X5XsXaXC.u.b.M.n.N.e.t ",
"B uXkXZ.i.b.b.b.b.b.N.b.{.6X$XXX%XOXL.H.H.L.P.{ J K I I I I I ~ +X+X+XI I <.G.{ { K.T.M.M.x  X3X+X(.#X@X$X5XuXtX$.$.t.N.N.N.t.y ",
"V uXiXZ.b.b.b.b.M.n.b.b.B.{.{.j | | 4 3 9 _.s.r Y I I I I K K I ~ W ~ I I U P P P E / n.M.r.n.{.~.3X3X@X3X5XeXz.i r %.t.y.y.%.t ",
"k.hXjXZ.b.b.b.b.b.b.b.M.M.b.b.3 [ } = O * #.@.1 Y I I K I I K I K K K K I K K K K K W e.c.*.c.b.~.XXXX(.XXoXs.6.$ + 5 w 7 7 7 7 ",
"'.mXiXZ.i.b.b.M.M.n.b.b.M.b.b.9 } H.k h h S S S I I I I I I I I I I I K I K I I I I L S S S *.r.v O.O.v k v 7.#.* $ % % & % * 6 ",
"l.xXiXZ.i.b.n.b.b.b.b.b.b.b.i.4 [ L.K.K.P.E I I I I K I K I I K I K I I K I I I I I I Y Y U v.b.i.M.-.r @ g s.k.V n n n n n n g ",
"C sXkXZ.i.b.n.b.b.N.N.b.b.b.i.9 [ K.H.H.D.P K I I I I I I I I I I I I I I I K I K I I I K U 3.c.y.M.e.8 % M eXnXuXyXyXyXyXyXqXV ",
"N uXkXC.i.b.b.b.b.b.b.b.b.b.b.5 ' K.H.{ D.P K I I I I I I I I I I K K K I I K I I I I I I Y W R t M.t.8 ; A gXSXcXlXlXlXlXzX,X6.",
"N uXkXZ.b.i.b.b.b.M.n.M.n.b.i.9 [ K.H.G.D.E K I I I I I I I I I I Y Y I I I I I I I K I I K K L 2 M.t.r & Z dXmX;X*X*X*X*X*Xd.z ",
"B dXjXZ.i.b.b.b.b.b.b.M.M.b.i.9 ] K...H.D.P K I I I I I U P U P U W ~ U W K I I I I I I I K K H q n.-.w & Z sXlX}.b.b.b.b.b.-.y ",
"B dXjXA.b.i.b.b.b.b.b.b.b.n.b.4 [ K.{ ..D.P K I I I I Y P z +.3 p 0XcX2Xc.G U K I I I I K E [ F.K.R.E.j & Z sXlX}.b.i.b.b.b.-.t ",
"N gXzXZ.b.b.b.b.b.b.b.b.b.b.b.9 ] K.K.K.G.L K U I K I Y L c $.3 < qXmXpXc.H U K I I I K K U ..H.K.K.R.j & Z sXzX}.b.b.b.b.N.-.y ",
"N wX<XM.y.b.b.n.b.b.B.b.b.b.b.0 | } ' ` F./ ~ T W W T ~ / @.$.3 < 0XfXeXu.F ~ W W W W Q E E  .H.H...E.e - A sXlX}.i.i.M.b.N.-.t ",
"< N M X.$.r.V.M.b.n.M.b.b.M.b.r.%.z z v 0.A.-Xv.c.c.c.c.x.u.$.1 $ N 8.c z %.x.v.c.c.5.R.{ { H.H...K.E.k C _.,X>XV.b.b.b.b.n.-.u ",
"$ : ; 5 u +.q.y.i.d.M.B.M.M.N.d.#.9 l `.tX;XA.B.M.M.M.B.N.N.+.1 X & - > 9 @.e.u.t.u.~.R.K.{ { ....K.P.M ].,X=X}.C.d.M.M.B.C.e.z ",
"wX0XF F D . . C [.].'.'.[.[.[.[.'.'.].].].].].].].].].].'.G G F F F G '.].'.].wXk k k K.K.{ K.[ h = = _.wX].].].].].].].0X].]._.",
"LXKX4.Q H   X [.LXDXFXDXDXDXDXDXDXDXDXDXDXDXDXDXFXDXDXDXSXQ Q Q Q Q Q AXKXDXDXLXU.[ { H.H.H.H.' O   X gXDXDXDXDXFXFXDXDXDXDXDXAX",
"SXSX4.4./   . '.SXZXZXZXZXZXZXZXZXZXZXZXZXZXZXZXZXCXCXSXNX4._ 4.R R R NXZXZXZXZX|  ..... . .U.;.+     sXZXZXZXZXCXZXZXZXZXZXZXNX",
"4._ SXFXgX. . G ( ) ) ( ( ( ) ) ^ ^ ) ) ) ^ ^ ) ) ) ~ ~ _ ZXFXVX- o o / ( ^ ) ) Q Q W Q Q ,.CXVX,     R ( ) ) ( ^ ^ ) ) ( ^ ( ) ",
">.) ZXLXfXX . G ! ! ! ! ! ! ! ! ! ! ! ! ! ! ! ! ! ! ! ! ( FXFXVX:     E ! ! ! ! ! ! ! ! ! 1.ZXVXp   . R ! ! ! ! ! ! ! ! ! ! ! ! ",
">.4.ZXPXVX  . R >.>.>.>.>.>.>.>.>.>.>.! ! >.>.>.>.! >.! 1.LXPXVX>     :.>.>.>.>.>.>.>.! ! 2.FXKXl   o R >.>.>.>.>.>.>.>.>.>.>.>.",
"6.,XzX;X{.w.q.c.-X2XpXpXjX1X7.5 g A.pXS.v.5.v.v.v.x.x.x.c.w.#.s , j.eX-Xm.x.v.v.m.S.pXpXpXpXaXB : n ].>Xm.x.x.x.v.5.v.5.v.*.+.q ",
"B sXiXM.y.*.y.i.m.A.-X*X;Xd.@.% s wXlXZ.i.y.i.y.i.i.i.y.+.8 O . p wXcX<XM.y.i.y.u.B.-X=X;X=Xd.9 : V sXkXM.y.y.i.b.y.b.b.y.O.3 . ",
"6.,Xd.#.X.X.X.X.o.o.X.X.X.f r 5 M aXeXw.X.X.z X.X.X.z z 8 .   @ g '.eXs.O.z o.o.X.X.X.o.o.o.u 6 l h.gX,X#.X.X.z X.X.o.o.z 3 . . ",
"p.d.@.3 O O O O O O O O O # 3 X.d.hX`.a O O O O O O O O .   o w %.Z.d.z # O O O O O O O O O # e $.,XhXh.5 O O O O O O O O .   # "
};
