/* XPM */
static char *result[] = {
/* columns rows colors chars-per-pixel */
"64 64 228 2 ",
"   c #010100",
".  c #0B0504",
"X  c #000C00",
"o  c #0E0906",
"O  c #0D0C0C",
"+  c #130A06",
"@  c #190A05",
"#  c #140E0C",
"$  c #001100",
"%  c #001D00",
"&  c #14100F",
"*  c #1E110C",
"=  c #151414",
"-  c #1C1514",
";  c #1D1D1C",
":  c #260E05",
">  c #2B1206",
",  c #27130A",
"<  c #371608",
"1  c #271916",
"2  c #2D1A14",
"3  c #2E1D1A",
"4  c #331C15",
"5  c #012501",
"6  c #002900",
"7  c #003500",
"8  c #003B00",
"9  c #153415",
"0  c #25201F",
"q  c #372118",
"w  c #2B1F20",
"e  c #222322",
"r  c #2C2323",
"t  c #292929",
"y  c #372828",
"u  c #2D3230",
"i  c #363636",
"p  c #3D3132",
"a  c #3B3B3B",
"s  c #421A09",
"d  c #48220F",
"f  c #56250C",
"g  c #492718",
"h  c #5C2B13",
"j  c #592C18",
"k  c #662B0E",
"l  c #632C12",
"z  c #6A351B",
"x  c #6F3419",
"c  c #743314",
"v  c #73361A",
"b  c #76391C",
"n  c #4C332C",
"m  c #5C3728",
"M  c #473737",
"N  c #683B28",
"B  c #763E24",
"V  c #643E32",
"C  c #004400",
"Z  c #59413B",
"A  c #6D432D",
"S  c #7E4225",
"D  c #77432A",
"F  c #6D4230",
"G  c #774933",
"H  c #383853",
"J  c #4C3E40",
"K  c #3C405C",
"L  c #4A4A4A",
"P  c #594644",
"I  c #535353",
"U  c #5B5B5A",
"Y  c #634C4A",
"T  c #6F4F4B",
"R  c #68514E",
"E  c #785348",
"W  c #6A5654",
"Q  c #6B5655",
"!  c #775B58",
"~  c #7D605E",
"^  c #656564",
"/  c #7E6262",
"(  c #90441B",
")  c #824526",
"_  c #844529",
"`  c #84492D",
"'  c #8B4C2D",
"]  c #9C4C25",
"[  c #98512C",
"{  c #844C33",
"}  c #8B4E31",
"|  c #875239",
" . c #8B553D",
".. c #995432",
"X. c #975839",
"o. c #9A5A3B",
"O. c #B05A2F",
"+. c #A55B37",
"@. c #B65E34",
"#. c #BA5F33",
"$. c #A9623E",
"%. c #B76136",
"&. c #BA6136",
"*. c #B2623C",
"=. c #BA643B",
"-. c #C2693E",
";. c #CD6D3E",
":. c #D16E3F",
">. c #895946",
",. c #975C44",
"<. c #835D53",
"1. c #995F52",
"2. c #9D634B",
"3. c #88635A",
"4. c #996A5A",
"5. c #A86546",
"6. c #B76742",
"7. c #BB6C45",
"8. c #BC6E4A",
"9. c #BC704B",
"0. c #A96A53",
"q. c #B36E56",
"w. c #AF7257",
"e. c #BA7455",
"r. c #8C6B66",
"t. c #94726B",
"y. c #987268",
"u. c #A57466",
"i. c #B57B68",
"p. c #A47D78",
"a. c #B37E76",
"s. c #C26E44",
"d. c #CC6E42",
"f. c #C46F48",
"g. c #D06F42",
"h. c #C57146",
"j. c #CD7144",
"k. c #C6724A",
"l. c #C9744A",
"z. c #D17243",
"x. c #D1764B",
"c. c #C37551",
"v. c #C77A56",
"b. c #CC7B56",
"n. c #CC7D5A",
"m. c #D87C53",
"M. c #C77D60",
"N. c #02D702",
"B. c #01E501",
"V. c #01EA01",
"C. c #00F300",
"Z. c #00FF00",
"A. c #0CFF0C",
"S. c #15EB15",
"D. c #14FF14",
"F. c #1DFF1D",
"G. c #23FF23",
"H. c #48FF48",
"J. c #58FF58",
"K. c #69FC69",
"L. c #73FE73",
"P. c #AF8174",
"I. c #BA8476",
"U. c #CF805B",
"Y. c #D7835D",
"T. c #CB8467",
"R. c #DD8762",
"E. c #DA8965",
"W. c #D58768",
"Q. c #D58969",
"!. c #C78B75",
"~. c #D18F77",
"^. c #D7937A",
"/. c #E28A67",
"(. c #E59576",
"). c #736F8A",
"_. c #897C97",
"`. c #848484",
"'. c #8B8B8B",
"]. c #939393",
"[. c #B88D86",
"{. c #B6928F",
"}. c #BB928B",
"|. c #C18881",
" X c #CC988B",
".X c #D99A88",
"XX c #C99B97",
"oX c #CC9E95",
"OX c #D29D93",
"+X c #E39E85",
"@X c #E69E87",
"#X c #CEA199",
"$X c #DAA597",
"%X c #D2A39A",
"&X c #E5A188",
"*X c #E4A18A",
"=X c #F2A48A",
"-X c #E7A897",
";X c #EDAA96",
":X c #ECAC9B",
">X c #F1AD9B",
",X c #F3B09F",
"<X c #CFA6B5",
"1X c #E9AFA0",
"2X c #F2B7A8",
"3X c #8FFD8E",
"4X c #9FFE9E",
"5X c #A4FDA3",
"6X c #ACFCAB",
"7X c #B9FEB9",
"8X c #CCACC1",
"9X c #D3B6C7",
"0X c #D3B4CB",
"qX c #CACACA",
"wX c gray84",
"eX c #DDDDDD",
"rX c #C4FEC4",
"tX c #CAFFCA",
"yX c #DFE0DF",
"uX c #D6FFD6",
"iX c #DBFEDA",
"pX c #E4E4E4",
"aX c #EAEAEA",
"sX c #E9F9E9",
"dX c #EAFFEA",
"fX c #F3F3F3",
"gX c #F4FFF3",
"hX c #FFFFFF",
/* pixels */
"0.u.|.8X9X9X0X0X0X9X9X9X0X0X0X0X0X8X_.K i E a.<X0X0X0X0X0X0X<X!.q.0.i.XX8X0X0X0X0X0X0X0X0X0X0X0X0X0X<X).H V 1._.1X0X0X0X0X0X<XXX",
"5.M..X:X:X:X-X1X1X-X:X:X1X:X1X:X:X$X3.w 2 >.~.*X;X>X:X:X1X:X.Xe.+.e.n.@X>X>X;X:X;X:X:X;X;X;X>X:X>X>X.X! 2 N q.(.=X>X;X;X>X>X=XM.",
">.~.+XE.Q.Q.E.Q.Q.Q.Q.E.E.E.W.W.E.n.D , 3 u.+X(.E.E.n././.E.9.B N a.@X@X(.m.m./.R.R.E.R./.R.R.R././.v.N 4 E !.=X/.m././.m.m.n...",
"W OX@Xn.h.h.k.h.9.k.l.k.k.f.l.h.l.6.b , y ! 1.>.{ } ` { } } N > w ~ u.2.{ _ } | ' ' } d.d.g.d.;.d.z.#.l 4 ! OX=Xm.g.g.g.m.g.#.c ",
"W XX@Xb.s.s.h.h.j.h.h.h.h.h.h.h.l.=.b : y &     .                             .     * =.d.d.d.d.d.z.&.l 2 ~ OX=Xx.;.:.:.g.g.#.c ",
"Q oX@Xn.h.h.l.h.l.h.l.h.l.l.l.l.l.=.b : r =                                         * -.d.d.j.z.z.z.&.l 3 ~ OX=Xm.:.:.g.g.g.#.c ",
"Q XX@Xn.h.h.k.k.l.l.h.l.l.l.o.o.$.o.l @ w =       i t t 9 8 7 5 5 7 8 9 t t i       + ....+.+.+...+.&.k 3 ~ OX=Xm.g.:.:.g.:.#.c ",
"Q XX@Xn.h.h.k.k.l.f.l.l.h.h.+ .   .             = fXfXfXK.V.C.C.C.C.V.K.fXfXfX.       .   . .     @ =.l 2 / oX.X+.O.:.g.g.:.#.c ",
"W oX&Xb.h.h.l.k.l.f.h.l.k.k.+                   = hXhXhXL.C.Z.Z.Z.C.Z.L.hXhXhX                    + %.l 3 <. Xa.m c #.:.;.;.O.c ",
"3.$X+Xn.k.h.k.k.h.l.k.k.k.k.+                   = hXhXhXL.Z.Z.Z.Z.Z.Z.L.hXhXhX.                   - @.l 2 E a.3.1 s c ] ] ] ( k ",
"I.:X+Xn.s.k.k.k.l.k.7.o.o.o.o     O L I I L L I ^ gXhXhXL.Z.Z.Z.Z.Z.Z.L.hXhXhXU I L L I I L .     * +.f , N 5.{ @ @ : s s s s f ",
"I.-X+Xb.s.k.k.k.k.k.o.            = aXhXhXhXhXhXhXhXhXhXL.Z.Z.Z.Z.Z.Z.L.hXhXhXhXhXhXhXhXhXaX= .           j 5.5.n y y n y y g k ",
"4.$X.Xb.f.k.h.k.k.k.o.            = fXhXhXhXhXhXhXhXhXhXK.Z.Z.Z.Z.Z.Z.K.hXhXhXhXhXhXhXhXhXfX=             V I..Xa.a.i._.p.a.y.E ",
"W oX&Xb.k.k.k.k.k.k.o.          . = pXhXhXhXhXhXhXhXhXhXL.Z.Z.Z.Z.Z.Z.L.hXhXhXhXhXhXhXhXhXpX= O           P OX2X,X>X>X>X>X>X.X<.",
"W #X&Xn.k.s.o.# o + o       N.N.N.S.iXhXhXhXhXhXhXG.G.G.D.Z.Z.Z.Z.Z.Z.A.D.D.D.hXhXhXhXhXhXsXS.V.B.N.      O & & : q.m.(.@Xm.n._ ",
"Q #X&Xn.h.h.o.              C.C.Z.D.sXhXhXhXhXhXhXZ.Z.Z.Z.Z.Z.Z.Z.Z.Z.Z.Z.Z.Z.hXhXhXhXhXhXiXD.Z.Z.V.            . ..x.x.x.x.=.x ",
"Q oX*Xb.k.k.+.              C.Z.Z.D.dXhXhXhXhXhXhXZ.Z.Z.Z.Z.Z.Z.Z.Z.Z.Z.Z.Z.Z.hXhXhXhXhXhXdXF.Z.Z.V.  . .         +.;.s.;.j.#.c ",
"Q #X*Xb.k.k.5.      . O O O C.Z.Z.F.dXgXdXgXgXdXdXZ.Z.Z.Z.Z.Z.Z.Z.Z.Z.Z.Z.Z.Z.gXgXgXgXgXdXdXD.Z.Z.V.O O O       . O.d.d.d.j.@.c ",
"Q %X=Xb.k.k.o..     I aXfXpXA.Z.Z.Z.F.G.G.D.A.F.G.Z.Z.Z.Z.Z.Z.Z.Z.Z.Z.Z.Z.Z.Z.G.F.A.D.F.G.F.Z.Z.Z.D.pXfXaXi       +.d.j.j.j.@.c ",
"P p.i.5.*.8.o.      ^ hXhXhXA.Z.Z.Z.Z.Z.Z.Z.Z.Z.Z.Z.Z.Z.Z.Z.Z.Z.Z.Z.Z.Z.Z.Z.Z.Z.Z.Z.Z.Z.Z.Z.Z.Z.Z.D.hXhXhXa       X.d.d.d.j.@.c ",
"r Z Z j ) $.o.      ^ hXhXhXD.A.A.Z.Z.Z.Z.Z.Z.Z.Z.A.Z.Z.A.A.A.Z.Z.A.A.A.Z.Z.A.Z.Z.Z.Z.Z.Z.Z.Z.Z.A.G.hXhXhXa       ..-.-.d.z.=.c ",
"= r q 3 1 q q       ^ hXhXhXtXtXrX6XA.Z.Z.Z.Z.Z.Z.tXrXrXtXtXtXrXrXtXtXrXrXrXtXZ.Z.Z.Z.Z.Z.A.7XrXtXtXhXhXhXa       * * * } z.&.b ",
"p ~ p.P             ^ hXhXhXhXhXgXdXA.Z.Z.Z.Z.Z.A.hXhXhXhXhXhXhXhXhXhXhXhXhXhXZ.Z.Z.Z.Z.Z.A.dXhXhXhXhXhXhXa             ` z.%.c ",
"R XX2Xr.            ^ hXhXhXhXhXhXdXF.Z.Z.Z.Z.Z.Z.hXhXhXhXhXhXhXhXhXhXhXhXhXhXZ.Z.Z.Z.Z.Z.F.dXhXhXhXhXhXhXa             ' j.%.c ",
"W %X2X4.      O O O ^ hXhXhXhXhXgXdXF.Z.Z.Z.Z.Z.A.hXhXhXhXhXhXhXhXhXhXhXhXhXhXZ.Z.Z.Z.Z.Z.G.dXgXhXhXhXhXhXL     .       } z.%.c ",
"W #X-X>.    a gXhXhXhXhXhXhXhXhXhXdXF.Z.A.iXhXhXhXhXhXhXhXhXhXhXhXhXhXhXhXhXhXhXhXhXiXA.Z.F.dXgXhXhXhXhXhXhXhXhXhXi     ' x.=.c ",
"W XX&X|     t hXhXhXhXhXhXhXhXhXhXdXD.Z.Z.iXhXhXhXhXhXhXhXhXhXhXhXhXhXhXhXhXhXhXhXhXuXZ.Z.D.dXhXhXhXhXhXhXhXhXhXgXt     ` z.%.c ",
"W #X&X|     r fXhXhXhXhXhXhXhXhXhXdXA.Z.Z.uXhXhXhXhXhXhXhXhXhXhXhXhXhXhXhXhXhXhXhXhXuXZ.Z.A.dXhXhXhXhXhXhXhXhXhXhXe     ` -.[ l ",
"W #X&X .    i hXhXhXhXhXhXhXhXhXgXdXF.Z.A.uXhXhXhXhXhXhXhXhXhXhXhXhXhXhXhXhXhXhXhXhXiXA.Z.F.dXhXhXhXhXhXhXhXhXhXgXi     ` ] f : ",
"!  X~.G     a hXhXhXhXhXhXhXhXhXhXdXG.Z.A.iXhXhXhXhXhXhXhXhXhXhXhXhXhXhXhXhXhXhXhXhXiXD.Z.F.dXhXhXhXhXhXhXhXhXhXhXa     B x : . ",
"2.T.0.g     i gXhXhXhXhXhXhXhXhXgXdXF.Z.A.iXhXhXhXhXhXhXhXhXhXhXhXhXhXhXhXhXhXhXhXhXiXA.Z.F.dXgXhXhXhXhXhXhXhXhXhXi     < < . : ",
"9.9.G 1     t hXhXhXhXhXhXhXhXhXhXsXA.Z.Z.uXhXhXhXhXhXhXhXhXhXhXhXhXhXhXhXhXhXhXhXhXiXZ.Z.D.dXhXhXhXhXhXhXhXhXhXhXt     * 1 1 f ",
"l.8.0.Z     t gXhXhXhXhXhXhXK.J.H.H.Z.Z.Z.uXhXhXhXhXhXhXhXhXhXhXhXhXhXhXhXhXhXhXhXhXuXZ.Z.Z.H.H.J.L.hXhXhXhXhXhXgXt     P r.r.2.",
"7.U.^.r.    a gXhXhXhXhXhXhXD.Z.Z.Z.Z.Z.A.iXhXhXhXhXhXhXhXhXhXhXhXhXhXhXhXhXhXhXhXhXiXA.Z.Z.Z.Z.Z.G.hXhXhXhXhXhXhXa     y.-X.X!.",
",.!.&X4..   a hXhXhXhXhXhXhXD.Z.Z.Z.Z.Z.A.iXhXhXhXhXhXhXhXhXhXhXhXhXhXhXhXhXhXhXhXhXiXD.Z.Z.Z.Z.Z.G.hXhXhXhXhXhXfXJ     0.@X(.w.",
"E  X*X>.    t 6X5X4X4X6X6X5XA.Z.Z.Z.Z.Z.Z.3X6X5X5XhXhXhXhXhXhXhXhXhXhXhXhXhXhX4X5X6X3XZ.Z.Z.Z.Z.Z.F.7XtXrX7X7XrXtXt     ,.n.9._ ",
"W XX*XG     6 C.Z.Z.Z.Z.Z.Z.Z.Z.Z.Z.Z.Z.Z.Z.Z.Z.A.hXhXhXhXhXhXhXhXhXhXhXhXhXhXZ.Z.Z.Z.Z.Z.Z.Z.Z.Z.Z.Z.Z.Z.Z.Z.Z.C.6     ` l.@.x ",
"W #X*X .    6 Z.Z.Z.Z.Z.Z.Z.Z.Z.Z.Z.Z.Z.Z.Z.Z.Z.A.hXhXhXhXhXhXhXhXhXhXhXhXhXhXA.Z.Z.Z.Z.Z.Z.Z.Z.Z.Z.Z.Z.Z.Z.Z.Z.Z.6     ` l.@.x ",
"W #X*X .    7 Z.Z.Z.Z.Z.Z.Z.Z.Z.Z.Z.Z.Z.Z.Z.Z.Z.A.hXhXhXhXhXhXhXhXhXhXhXhXhXhXZ.Z.Z.Z.Z.Z.Z.Z.Z.Z.Z.Z.Z.Z.Z.Z.Z.C.8     } x.@.x ",
"W #X&X>.    8 C.Z.Z.Z.Z.Z.Z.8 % % % % % % % % % % ; ; e ; ; ; ; ; ; ; ; e e e % % % % % % % % % % C Z.Z.Z.Z.Z.Z.Z.8     } l.*.v ",
"W #X*X>.    8 Z.Z.Z.Z.Z.Z.Z.5                                                                     6 Z.Z.Z.Z.Z.Z.C.8     } x.=.v ",
"Q #X*X .    6 C.Z.Z.Z.Z.Z.Z.5                                                                     6 Z.Z.Z.Z.Z.Z.C.6     D =.+.x ",
"u.$X+XG     5 B.B.B.V.V.B.B.5       ; ; ; 0 ; ; ;       O ; ; 0 ; ; ; O       ; ; ; ; ; ; ;       6 C.C.C.C.C.C.C.6     < h h h ",
"!.1X+X .        X $ X     X     . = wXfXfXgXhXfXaX      `.fXfXgXgXfXfX`.      aXfXhXgXfXfXwX=       X     $ X X         , 2 4 h ",
"P.-X*X .  .                     . = eXhXhXhXhXhXhX      '.hXhXhXhXhXhX'.      gXhXhXhXhXhXeX= .                         p P P F ",
"3.#X*X>.# # o               e ; = 0 pXhXhXhXhXhXgX      '.hXhXhXhXhXhX'.      hXhXhXhXhXhXpX0 = ; ;               & - 1 r.XX[.<.",
"R XX*Xe.$.5.| .             qXeXeXyXhXhXhXhXhXhXhX      ].hXhXhXhXhXhX].      hXhXhXhXhXhXhXeXeXeXqX              I..X.X@X;X X>.",
"W XX*Xv.6.8.o.              yXfXhXgXhXhXhXhXhXhXgX      ].hXhXhXhXhXhX].      gXhXhXhXhXhXhXgXhXfXpX          .   5.n.n.n.Y.8.N ",
"W #X*XU.9.c.o.              aXhXhXhXhXhXhXhXhXhXgX      '.hXhXhXhXhXhX'.      hXhXhXhXhXhXhXhXhXhXaX              X.h.h.h.l.*.x ",
"Q %X*XT.k.9.o.O O O o       aXhXhXhXhXhXhXhXhXhXhXO O O ].hXhXhXhXhXhX'.O O O gXhXhXhXhXhXhXhXhXhXaX      = - - , o.h.h.h.l.%.x ",
"Q %X*Xn.k.k.k.c.k.k.o.      aXhXhXhXhXhXhXhXhXhXhXhXhXhXhXhXhXhXhXhXhXhXhXhXhXhXhXhXhXhXhXhXhXhXhXaX      P #X*XU.k.k.k.k.l.*.x ",
"W }.^.e.8.k.c.c.k.c.o.      aXhXhXhXhXhXhXhXhXhXhXhXhXhXhXhXhXhXhXhXhXhXhXhXhXhXhXhXhXhXhXhXhXhXhXaX      Y OX;XU.h.h.k.l.l.*.z ",
"p Q >.B ..6.b.l.c.c.o.      aXhXhXhXhXhXhXhXhXhXhXhXhXhXhXhXhXhXhXhXhXhXhXhXhXhXhXhXhXhXhXhXhXhXhXaX      ! ~.^.b.f.f.l.l.l.*.v ",
"= w 3 4 z +.7.7.9.9.X.      L I I U aXhXhXhXhXhXhXhXhXhXhXhXhXhXhXhXhXhXhXhXhXhXhXhXhXhXhXaXU I I L       0.U.b.k.k.l.k.k.l.6.v ",
"= t M M V D ` } +.7.o.          . = eXhXhXhXhXhXhXhXhXhXhXhXhXhXhXhXhXhXhXhXhXhXhXhXhXhXhXeX=             u.U.h.k.l.l.k.k.l.6.x ",
"M p.{.p.T g > < B $.X.          . = pXhXhXhXhXhXhXhXhXhXhXhXhXhXhXhXhXhXhXhXhXhXhXhXhXhXhXaX= .           i.U.h.k.k.l.k.l.l.*.x ",
"U #X2X Xy.R Z Z A D z           . = fXhXhXhXhXgXhXhXgXhXhXhXhXhXhXhXhXhXhXhXhXgXhXgXhXhXhXfX= .       o O 0.n.k.k.l.l.k.k.l.@.N ",
"W %X-X~.!.}.{.[.! g 2 , , *         u a a t t i a a t t i a i t t i a i t t a a i t t a M u       1 t.i.0.c.l.k.l.f.l.l.l.c.@.c ",
"W oX+XU.Q.*X1X*Xy.P P L J i .         .                                                           t %X*Xb.s.k.k.k.k.l.c.k.l.6.B ",
"W #X*XU.U.U.Q.T.!. X{.{.{.[.O         X                                                           0 OX*Xn.f.k.l.k.k.k.k.k.l.6.x ",
"W oX&XU.k.c.v.U.~.*X1X1X1X.XM 1 r R 3.G G A A G G G F A A z q * 0 W r.>.G F G G G E 3.3.3.3.T q 1 P oX*Xn.k.l.l.l.l.l.l.k.6.' f ",
"! oX+X9.7.7.7.7.v.T.Q.T.Q.i.G 2 M }.*XT.7.7.8.9.8.8.9.7.} h < + p [.:X^.c.7.7.7.8.v.T.W.Q.Q.w.n r ! oX@Xc.7.7.7.9.7.s.f.7._ s @ ",
"2.I.P.' _ _ S S _ _ _ S _ B z d E  X X2._ S S _ ) ) ) B h @ o , F I. Xw.` ) _ _ ) S ) _ ` _ b f m t.%X!.| ) ) S ) ) ) ) S s @ + ",
"w.U.} < > > > > > > > > : < f ) I.$XI.m , > > > > > > > @ . @ l o.U.q.B < > > > > > : > > > < z ,.~.1Xt.g > > > > > : < > + . < "
};
