/* XPM */
static char *result[] = {
/* columns rows colors chars-per-pixel */
"64 64 237 2 ",
"   c #000101",
".  c #040806",
"X  c #020B0B",
"o  c #0B0C0C",
"O  c #17070B",
"+  c #011601",
"@  c #001D00",
"#  c #05160C",
"$  c #090C16",
"%  c #160917",
"&  c #021313",
"*  c #0B1314",
"=  c #001915",
"-  c #06151A",
";  c #021B1B",
":  c #0D1B1B",
">  c #141514",
",  c #12171A",
"<  c #1B1B1B",
"1  c #002100",
"2  c #082715",
"3  c #041726",
"4  c #0A142C",
"5  c #171926",
"6  c #032422",
"7  c #0B2328",
"8  c #022A2C",
"9  c #132728",
"0  c #0A372E",
"q  c #14302E",
"w  c #082938",
"e  c #0A3839",
"r  c #143936",
"t  c #222222",
"y  c #2B2B2C",
"u  c #293A38",
"i  c #343434",
"p  c #3D3D3D",
"a  c #004000",
"s  c #05463E",
"d  c #13463D",
"f  c #385438",
"g  c #0B3A44",
"h  c #063C48",
"j  c #0C3D4C",
"k  c #153A48",
"l  c #2A3A47",
"z  c #323E4A",
"x  c #403E40",
"c  c #034345",
"v  c #05444B",
"b  c #0A434B",
"n  c #074948",
"m  c #154645",
"M  c #0C5248",
"N  c #155449",
"B  c #0A4854",
"V  c #174A56",
"C  c #0B575A",
"Z  c #16585C",
"A  c #344847",
"S  c #255758",
"D  c #305153",
"F  c #10665B",
"G  c #29645B",
"H  c #296A5D",
"J  c #075C64",
"K  c #175B65",
"L  c #235C64",
"P  c #076668",
"I  c #18696B",
"U  c #087B69",
"Y  c #147466",
"T  c #096D73",
"R  c #076D78",
"E  c #166B75",
"W  c #067676",
"Q  c #0A7475",
"!  c #03757B",
"~  c #057B7C",
"^  c #0A7C7C",
"/  c #15757A",
"(  c #2C6B68",
")  c #2D736D",
"_  c #247676",
"`  c #444444",
"'  c #454A49",
"]  c #4B4C4B",
"[  c #43585B",
"{  c #545455",
"}  c #446B66",
"|  c #457776",
" . c #686867",
".. c #039403",
"X. c #00A600",
"o. c #01BA01",
"O. c #00C600",
"+. c #00CC00",
"@. c #00DB00",
"#. c #1ECE1E",
"$. c #00E400",
"%. c #00EA00",
"&. c #0CE90C",
"*. c #02F102",
"=. c #01FF01",
"-. c #0AFF0A",
";. c #14FF14",
":. c #1BFF1B",
">. c #23CD23",
",. c #23FF23",
"<. c #2BFF2A",
"1. c #3BE33B",
"2. c #39FD39",
"3. c #06847C",
"4. c #158678",
"5. c #32827A",
"6. c #53837A",
"7. c #44CA44",
"8. c #4FFF4F",
"9. c #5AFF5A",
"0. c #76FE76",
"q. c #0C6D84",
"w. c #057E85",
"e. c #0B7C85",
"r. c #09728A",
"t. c #057D8A",
"y. c #0B7D8B",
"u. c #157787",
"i. c #147C85",
"p. c #077A92",
"a. c #0D7B92",
"s. c #127994",
"d. c #2D7C84",
"f. c #5C778A",
"g. c #048385",
"h. c #0B8384",
"j. c #088B84",
"k. c #04838B",
"l. c #0B838A",
"z. c #028B8C",
"x. c #168688",
"c. c #138E8D",
"v. c #048392",
"b. c #098693",
"n. c #268786",
"m. c #2F908B",
"M. c #299997",
"N. c #2C9499",
"B. c #2B9B9C",
"V. c #349599",
"C. c #23A499",
"Z. c #2CA29E",
"A. c #3AA69A",
"S. c #2B9EA2",
"D. c #339AA2",
"F. c #25A3A3",
"G. c #2CA2A3",
"H. c #3BAFB5",
"J. c #4E9090",
"K. c #6F8F90",
"L. c #46A597",
"P. c #50AE96",
"I. c #6EA69C",
"U. c #4F9BA3",
"Y. c #48A9A8",
"T. c #4FB5AD",
"R. c #49B8B1",
"E. c #75AAA7",
"W. c #72B1AA",
"Q. c #6CB9B7",
"!. c #71B5B6",
"~. c #72C3B4",
"^. c #67B7C2",
"/. c #59D2C8",
"(. c #69C9C1",
"). c #77C7C4",
"_. c #72D4D0",
"`. c #6FE6D8",
"'. c #79E5D8",
"]. c #7DE4DC",
"[. c #73DBE3",
"{. c #7DE6E4",
"}. c #9099A4",
"|. c #82B1A5",
" X c #86BBB9",
".X c #A3A3A3",
"XX c #AAAAAA",
"oX c gray69",
"OX c #BCBCBC",
"+X c #88FE88",
"@X c #97FF97",
"#X c #9CFF9C",
"$X c #8BD1BA",
"%X c #B3CCB3",
"&X c #A6FFA6",
"*X c #ACFFAC",
"=X c #B5FEB4",
"-X c #BBFEBB",
";X c #8DBAC1",
":X c #88CAC9",
">X c #8BD5C9",
",X c #93D4CB",
"<X c #97D8CB",
"1X c #91CED1",
"2X c #88DAD6",
"3X c #98D9D3",
"4X c #A3D2D7",
"5X c #89E4D5",
"6X c #8CEED1",
"7X c #84E4DB",
"8X c #8AE5DD",
"9X c #85EADE",
"0X c #96E3D7",
"qX c #A7E4DE",
"wX c #91D0E1",
"eX c #8AE8E3",
"rX c #95E6E5",
"tX c #92F4ED",
"yX c #A9F2EF",
"uX c #CDCDCD",
"iX c gray84",
"pX c #DDDDDD",
"aX c #C4FFC4",
"sX c #C9FFC9",
"dX c #D4EAD4",
"fX c #D5FBD5",
"gX c #DCFFDC",
"hX c #CBE9F7",
"jX c #E3E3E3",
"kX c #EBEBEB",
"lX c #E3FFE3",
"zX c #EEF1EE",
"xX c #E9FFE9",
"cX c #F0F0EF",
"vX c #F5F5F5",
"bX c #F5FFF5",
"nX c #FFFFFF",
/* pixels */
"I _ Q.2X2X,X,X,X,X,X,X,X<X3X,X,X3X XN ; m ( E.,X3X,X,X1X2X2XU.E I I J._.3X>X>X>X,X,X,X<X,X3X<X,X1X,XI.r 8 G | $X1X,X,X,X2X>X~./ ",
"5.m._.{.].].8X8X7X7X7X5X8X8X2X8XeX).m 6 G ) ~.5X7X2XeXeX{.{.Y.) _ m.R.'.eXeXeX7X7X7X5X7X7X7X8XeX8X2XQ.r b | J.2XrX2X2X7X8XeX(.( ",
"~./.H.F.B.B.V.B.S.S.S.G.B.B.B.S.G.m.8 * K.;XL.M.V.N.V.M.Z.B.L q | ).R.F.M.M.N.N.N.N.M.Z.Z.B.B.B.G.S.d.7 [ 4X).A.Z.S.D.Z.Z.G._ q ",
"<X'.F.z.k.h.e.e.e.k.k.g.k.w.k.l.k.R 3 O }.}.V n c v c c n n 5 o f | ) n c h b c v h C g.h.g.t.k.b.k.J : { hX3Xx.3.t.r.g.g.j.K % ",
"<X7XF.k.k.g.e.e.y.t.k.g.k.g.k.k.z.! 8 X I.A                                         8 w.k.g.k.g.z.z.P ; D yX7XC.z.p.p.l.j.h.K * ",
",X7XS.k.k.k.g.e.y.y.k.k.g.w.g.g.z.! 8 & E.A .                                       8 w.g.g.g.g.z.z.P 6 [ yX_.c.g.p.b.b.l.i.Z - ",
">X8XD.y.k.z.g.e.y.t.k.g.w.^ P Q w.P 6 & J.A .     < < > # 1 1 + @ @ 1 # > < <       8 ! T T Q Q R ~ P 6 ( tX{.c.w.v.v.t.e.u.Z = ",
",X8XD.t.k.g.w.e.k.v.k.t.e.T ; ; ; = .   , >     > OXuX%X7.+.+.+.+.+.O.7.%XuXOX.     . ; ; ; - - ; 3 C ; G yX].d.R p.v.y.i./ Z = ",
">X8XS.t.w.w.e.l.z.z.k.y.l.W .                   > kXnXlX9.=.=.=.=.=.=.9.lXnXkX.                   X V * [ yX:Xj h r.s.n./ _ K & ",
">X8XD.y.y.e.i.e.z.z.k.e.l.! .                   > kXnXlX9.=.=.=.=.=.=.9.lXnXjXo                   * V > ' qX$Xq w E u._ _ E K ; ",
"0X8XD.u.k.z.g.l.v.k.t.T ! J .     > x ` ` x p ` { cXnXlX9.=.=.=.=.=.=.9.lXnXkX] ` x ` ` ` ` >     * B : r J.6.2 3 w w q w h g N ",
"0XrXD.u.z.z.g.e.l.p.! 6 & &       i pXjXjXjXpXjXjXnXnXlX9.=.=.=.=.=.=.9.lXnXnXjXpXpXpXjXjXpXi       #   + Y Y q $ 4 4 5 5 4 e G ",
"<X8XD.x.k.g.h.e.t.k.! &           x vXnXnXnXnXnXnXnXnXlX9.=.=.=.=.=.=.9.lXnXnXnXnXnXnXnXnXvX`           # W.~.|.W.Q.W.W.E.!.J.m ",
"<X9XS.v.k.w.e.T ! ! J &     @ @ @ f vXnXnXnXnXnXnXlXlXsX8.=.=.=.=.=.=.8.aXgXlXnXnXnXnXnXnXzXf @ @ @     o |.$X$X>X9X9X9X9XeX!.5 ",
",X].S.k.t.w.T ; . X .     @ @.@.@.1.xXnXnXnXnXnXbX2.:.:.-.=.=.=.=.=.=.-.-.-.<.bXnXnXnXnXnXxX2.%.*.@.@     o o . 6 x.C.C.C.M.) 5 ",
"<X].F.k.t.w.T ;           1 *.=.=.2.xXnXnXnXnXnXbX:.=.=.=.=.=.=.=.=.=.=.=.=.:.bXnXnXnXnXnXxX2.=.=.%.1           = ^ z.3.j.h.K $ ",
"3X9XF.v.k.w.! -           1 =.=.=.2.bXnXnXnXnXnXnX:.=.=.=.=.=.=.=.=.=.=.=.=.:.nXnXnXnXnXnXbX2.=.=.%.1           ; q.p.w.t.x.Z $ ",
",X9XF.k.k.k.! -     > i p f =.=.=.2.aXsXaXaXaXaXaX;.=.=.=.=.=.=.=.=.=.=.=.=.;.aXaXaXaXsXaXaX2.=.=.*.f p i o     ; r.s.s.y.l.C > ",
">X5XB.y.p.p.q.;     { jXvXdX-.=.=.=.;.;.;.-.-.;.;.=.=.=.=.=.=.=.=.=.=.=.=.=.=.;.;.-.-.;.;.;.=.=.=.;.dXvXiXy     ; R s.u.e.^ C ; ",
"$X,XJ.s.s.p.q.;     { jXnXgX-.=.=.=.=.=.=.=.=.=.=.=.=.=.=.=.=.=.=.=.=.=.=.=.=.=.=.=.=.=.=.=.=.=.=.;.gXnXpXi     ; T y.r.l.l.F 2 ",
"A A j B q.b.Q ;   . { jXnXgX-.-.=.=.=.=.=.=.=.=.=.-.=.=.-.-.-.=.=.-.-.-.-.=.-.=.=.=.=.=.=.=.=.=.-.-.gXnXpXy     ; ! t.t.l.^ C - ",
"5 , 5 7 r n m &     { jXnXxX&X#X@X0.-.=.=.=.=.=.-.+X#X@X@X#X#X@X@X#X#X@X@X#X+X-.=.=.=.=.=.-.0.@X#X&XbXnXpXy     . w 8 8 J u.K $ ",
"K.I.I.A . . .       { jXnXnXbXbXbX-X-.=.=.=.=.=.-.gXbXbXbXbXbXbXbXbXbXbXbXbXgX-.=.=.=.=.=.-.-XbXbXbXnXnXiXy             j r.E 4 ",
">X6X6X}             { jXnXnXnXnXnXaX;.=.=.=.=.=.-.lXnXnXnXnXnXnXnXnXnXnXnXnXlX-.=.=.=.=.=.-.aXnXnXnXnXnXpXy             j r.J 4 ",
"<X6XP.D       . o >  .jXnXnXnXnXnXaX;.=.=.-.=.=.-.lXnXnXnXnXnXnXnXnXnXnXnXnXlX-.=.-.=.=.=.;.aXnXnXnXnXnXjXi o . .       v w.P 3 ",
"<X6Xm.d     < uXkXjXcXvXnXnXnXnXnXaX;.=.-.#XlXlXxXnXnXnXnXnXnXnXnXnXnXnXnXnXnXxXlXlX@X-.=.;.aXnXnXnXnXnXnXkXjXkXuX<     n 3.J 3 ",
"4XrXm.s     < uXnXnXnXnXnXnXnXnXnX-X-.=.=.*XnXnXnXnXnXnXnXnXnXnXnXnXnXnXnXnXnXnXnXnX*X-.=.-.aXnXnXnXnXnXnXnXnXnXuX>     s 3.C ; ",
"4XrXC.s     > uXnXnXnXnXnXnXnXnXnXaX-.=.=.*XbXnXnXnXnXnXnXnXnXnXnXnXnXnXnXnXnXnXnXbX&X=.=.-.aXnXnXnXnXnXnXnXnXnXuX>     s F M $ ",
"3XeXM.c     t uXnXnXnXnXnXnXnXnXnXaX;.=.-.*XnXnXnXnXnXnXnXnXnXnXnXnXnXnXnXnXnXnXnXbX*X-.=.;.-XnXnXnXnXnXnXnXnXnXuX<     0 0 : % ",
"wX{.N.B     t uXnXnXnXnXnXnXnXnXnXaX;.=.-.*XbXnXnXnXnXnXnXnXnXnXnXnXnXnXnXnXnXnXnXnX=X-.=.:.aXnXnXnXnXnXnXnXnXnXuXt     q > O % ",
"H.H.E 3     t uXnXnXnXnXnXnXnXnXnXaX;.=.-.*XbXnXnXnXnXnXnXnXnXnXnXnXnXnXnXnXnXnXnXbX*X-.=.;.aXnXnXnXnXnXnXnXnXnXuXt     : o , l ",
"b.b.g $     > uXnXnXnXnXnXbXfXfXgX&X-.=.=.&XnXnXnXnXnXnXnXnXnXnXnXnXnXnXnXnXnXnXnXnX*X=.=.-.*XgXfXgXbXnXnXnXnXnXuX<     X ; w I ",
"k.l.) A     > uXnXnXnXnXnXlX<.<.<.:.=.=.=.*XbXnXnXnXnXnXnXnXnXnXnXnXnXnXnXnXnXnXnXbX*X=.=.=.:.<.<.2.lXnXnXnXnXnXuX<     A 6.J.i.",
"l.N.).6.    t uXnXnXnXnXnXgX;.=.=.=.=.=.-.*XnXnXnXnXnXnXnXnXnXnXnXnXnXnXnXnXnXnXnXnX*X-.=.=.=.=.=.:.lXnXnXnXnXnXuX<     6.rX_.d.",
"U.R.R.(     t uXnXnXnXnXnXgX;.=.=.=.=.=.-.*XbXnXnXnXnXnXnXnXnXnXnXnXnXnXnXnXnXnXnXbX*X-.=.=.=.=.=.,.lXnXnXnXnXnXuXt     ) Q.U.S ",
":X`.Z.n     2 %X-X=X=X-XaX&X-.=.=.=.=.=.-.0.aX=X-XbXnXnXnXnXnXnXnXnXnXnXnXnXbX-X-XaX0.-.=.=.=.=.=.:.-XgXgXsXfXgX%Xt     n x.K 4 ",
"<X9XM.c     + #.<.,.:.<.,.:.=.=.=.=.=.=.=.;.,.,.<.xXnXnXnXnXnXnXnXnXnXnXnXnXxX<.,.,.;.=.=.=.=.=.=.-.,.<.<.<.<.<.>.+     c ^ Z $ ",
",X8XM.v     + +.=.=.=.=.=.=.=.=.=.=.=.=.=.=.=.=.-.xXnXnXnXnXnXnXnXnXnXnXnXnXxX=.=.=.=.=.=.=.=.=.=.=.=.=.=.=.=.=.+.+     c / Z * ",
",X7XN.v     1 +.=.=.=.=.=.=.%.%.%.%.%.%.%.%.%.%.&.dXkXkXjXkXkXkXjXkXkXkXkXcXdX%.%.%.%.%.%.%.%.%.%.%.=.=.=.=.=.=.+.1     b / Z = ",
">X2XN.v     1 +.=.=.=.=.=.%.2 1 @ @ @ @ 1 @ @ 1 @ < t t t t t t t t t t t t t 1 1 @ @ 1 @ @ 1 @ @ a %.=.=.=.=.=.+.1     j E Z = ",
",XeXN.v     @ +.=.=.=.=.=.@.@                                                                     1 $.=.=.=.=.=.+.1     b E Z ; ",
">XeXB.h     + +.=.=.=.=.=.$.@                                                                     1 $.=.=.=.=.=.+.+     e E Z ; ",
"0XeXV.h     + ..o.o.o.o.o.X.+     > ' ` ` ] { ] ` o   o i ` ' ] ] ' ' i o   o ` ' ] ] ] ` ' >     1 X.+.O.O.O.O.X.+     7 B m 0 ",
"0X0XJ.j           . +             p jXvXvXnXnXvXvX>   t .XvXvXnXnXvXvX.X<   < vXvXnXnXvXvXjXp       .     . +           $ 3 w H ",
"3XrXD.v                           p jXnXnXnXnXnXvX<   < .XnXnXnXnXnXnX.X<   > vXnXnXnXnXnXkXp                           9 V V S ",
",X2XN.v . X .               > > o ` kXnXnXnXnXnXvX<   < .XnXnXnXnXnXnX.X<   < vXnXnXnXnXnXkXp o > >               # * : | 1X!.0 ",
"<XeXS.R J C C &           < oXOXOXuXnXnXnXnXnXnXvX<   < XXnXnXnXnXnXnXXX<   < vXnXnXnXnXnXnXuXOXOXoX<           : J.P.L.T._.U., ",
"<X].C.k.k.w.R -           t cXnXnXvXnXnXnXnXnXnXvX<   < XXnXnXnXnXnXnXXXt   < vXnXnXnXnXnXnXvXnXnXvXt           ; g.c.j.c.x.Z > ",
"3X9XC.k.k.w.T ;           t zXnXnXnXnXnXnXnXnXnXvX<   < .XnXnXnXnXnXnX.X<   < vXnXnXnXnXnXnXnXnXnXkXt           ; ! t.w.k.l.I o ",
"3X9XF.z.k.h.T ; . .       t kXnXnXnXnXnXnXnXnXnXvXt   t XXnXnXnXnXnXnX.Xt   < vXnXnXnXnXnXnXnXnXnXkXt     < > & 3 q.s.a.l.x.K % ",
"$X'.F.v.t.e.y.E E R J &   t zXnXnXnXnXnXnXnXnXnXnXjXiXpXvXnXnXnXnXnXnXvXpXiXjXnXnXnXnXnXnXnXnXnXnXkXt   X  X).4.! a.s.s.a.i.C $ ",
"$X'.V.l.i.e.u.u.q.s.q.&   t vXnXnXnXnXnXnXnXnXnXnXnXnXnXnXnXnXnXnXnXnXnXnXnXnXnXnXnXnXnXnXnXnXnXnXvXt   * 1X'.m.e.k.b.v.l.s.J - ",
"K.J.L K s.r.j.l.r.u.R &   < iXjXpXjXnXnXnXnXnXnXnXnXnXnXnXnXnXnXnXnXnXnXnXnXnXnXnXnXnXnXnXnXjXpXjXiX<   * I.T.n.g.g.k.t.l.b.K & ",
"o . $ 4 E h.j.g.l.r.P #   o ` ` `  .vXnXnXnXnXnXnXnXnXnXnXnXnXnXnXnXnXnXnXnXnXnXnXnXnXnXnXkX .` ` ` o   : F ^ ~ g.z.k.y.y.y.J = ",
"u y l V K J T W / u.P #           p kXnXnXnXnXnXnXnXnXnXnXnXnXnXnXnXnXnXnXnXnXnXnXnXnXnXnXkXp           : F Q h.z.z.z.i.s.x.I & ",
"$X$X3X!.g 3 3 w E _ P &           p kXnXnXnXnXnXnXnXnXnXnXnXnXnXnXnXnXnXnXnXnXnXnXnXnXnXnXcXx           ; P W h.j.z.b.i.i.x.K o ",
"<X6X7X~.( K S S S V b * X X       i uXuXuXuXuXuXuXuXuXuXuXuXuXuXuXuXuXuXuXuXuXuXuXuXuXuXuXuXi     o : 7 q T w.l.k.z.k.i.i.x.Z X ",
"$X6XZ.M._.`.2X:Xz 4 $ & ; ;       . t t t < > t t t < > t t t > < t t t < > t t t > < t t < .     u !.d.Q w.l.y.t.g.g.h.e.i.Z = ",
"6X6XV.x././._.Q.} z z A A r                                                                       A (.x.w.k.b.s.y.t.g.~ e.l.J = ",
"$X5XV.u.d.x._ J.).wXwX4X3X|.                                                          .           u (.n.t.v.v.s.a.t.k.h.j.k.P - ",
"4XrXS.g.3.3.4.m.5XyXtXtXyX$X< O p D m e g e e g g h e e s 0 : $ z | S g e e s r m [ } } } } A o y K.1Xd./ y.y.a.y.t.h.h.3.3.N = ",
"3XrXG.g.3.h.e.x.A.R.T.A.T.L.q   K.:Xm.Y Q ~ ~ ~ ~ ^ Q Y d 0 > < f.rXT.^ W ^ Q I / A.A.A.L.P.) < D 4X2Xn.3.g.k.z.k.k.h.^ Y d 9 % ",
").[.M./ E / / T 3.3.3.U Y H 8 ; I.5X4.3.W ~ ~ ~ g.~ E Z 9 O % 5 J.rX^.e.Q E / / W U U 4.U Y N 6 G yX2X4.W ~ w.~ ~ 3.Q I S < O % ",
"H.H.E j j g k b c c s s s n s n ~.6X) n c v j v B n g q 4 % 5 V N.H.N.B g k j j c e s s s s s N 5.yX~.F c h v j v n b g 7 * , k "
};
