/* XPM */
static char *result[] = {
/* columns rows colors chars-per-pixel */
"64 64 252 2 ",
"   c #010101",
".  c #030806",
"X  c #030B0B",
"o  c #0A0B0B",
"O  c #16060A",
"+  c #011606",
"@  c #080B17",
"#  c #160716",
"$  c #021314",
"%  c #021A16",
"&  c #03131A",
"*  c #0C1618",
"=  c #031B1B",
"-  c #121313",
";  c #14171A",
":  c #1A1B1B",
">  c #032503",
",  c #083108",
"<  c #042218",
"1  c #071925",
"2  c #0D1228",
"3  c #151724",
"4  c #251522",
"5  c #032323",
"6  c #05292A",
"7  c #122928",
"8  c #0D392C",
"9  c #072A36",
"0  c #172B34",
"q  c #073639",
"w  c #163938",
"e  c #2A2A2A",
"r  c #293736",
"t  c #343434",
"y  c #3C3B3B",
"u  c #024702",
"i  c #005500",
"p  c #015D01",
"a  c #145714",
"s  c #006100",
"d  c #017401",
"f  c #08463D",
"g  c #104639",
"h  c #2F433C",
"j  c #093B46",
"k  c #0C3C4B",
"l  c #133B45",
"z  c #1F3E56",
"x  c #293A47",
"c  c #2E3948",
"v  c #403F40",
"b  c #044344",
"n  c #084749",
"m  c #164646",
"M  c #0D5449",
"N  c #14544B",
"B  c #074954",
"V  c #184B56",
"C  c #09585A",
"Z  c #165559",
"A  c #135A5E",
"S  c #28454A",
"D  c #2F4F4F",
"F  c #3C4D53",
"G  c #265558",
"H  c #3C5758",
"J  c #10635B",
"K  c #29645B",
"L  c #2F695D",
"P  c #055B65",
"I  c #0C5C63",
"U  c #185A64",
"Y  c #305863",
"T  c #076568",
"R  c #17686A",
"E  c #077A68",
"W  c #137765",
"Q  c #086C76",
"!  c #176975",
"~  c #03737A",
"^  c #047C7B",
"/  c #097978",
"(  c #14757B",
")  c #197579",
"_  c #137C7C",
"`  c #306D6C",
"'  c #247676",
"]  c #434343",
"[  c #444D49",
"{  c #4B4B4B",
"}  c #495155",
"|  c #535453",
" . c #55575B",
".. c #5D5D5D",
"X. c #526060",
"o. c #447976",
"O. c #527673",
"+. c #656565",
"@. c #747473",
"#. c #019801",
"$. c #00A900",
"%. c #06B206",
"&. c #248324",
"*. c #00D700",
"=. c #0FD30F",
"-. c #00EA00",
";. c #00F600",
":. c #01FF01",
">. c #0BFF0B",
",. c #13FF13",
"<. c #1DFF1C",
"1. c #26E926",
"2. c #25FF25",
"3. c #39FD39",
"4. c #05847C",
"5. c #0B827B",
"6. c #05887B",
"7. c #118879",
"8. c #2E8778",
"9. c #538360",
"0. c #508778",
"q. c #568579",
"w. c #4DD84D",
"e. c #46FE46",
"r. c #5AFF5A",
"t. c #63FF63",
"y. c #6DFF6D",
"u. c #76FF76",
"i. c #156F81",
"p. c #0A7586",
"a. c #057D84",
"s. c #0B7C84",
"d. c #047D8A",
"f. c #0B7D8B",
"g. c #167786",
"h. c #137C84",
"j. c #127B89",
"k. c #077B93",
"l. c #0D7D92",
"z. c #117993",
"x. c #277D85",
"c. c #5E7F85",
"v. c #048385",
"b. c #0B8383",
"n. c #078B85",
"m. c #04838B",
"M. c #0A838B",
"N. c #028A8C",
"B. c #158686",
"V. c #13828B",
"C. c #0A918A",
"Z. c #19948A",
"A. c #048492",
"S. c #0B8392",
"D. c #058A93",
"F. c #138292",
"G. c #1C9793",
"H. c #258787",
"J. c #318B8F",
"K. c #28978A",
"L. c #299997",
"P. c #2B9C9D",
"I. c #349A9B",
"U. c #18A093",
"Y. c #22A598",
"T. c #2CA29D",
"R. c #39A496",
"E. c #2C9DA2",
"W. c #349BA2",
"Q. c #25A3A3",
"!. c #2BA4A4",
"~. c #38AFAC",
"^. c #458B89",
"/. c #598884",
"(. c #4A958F",
"). c #499897",
"_. c #6D9092",
"`. c #4FAF97",
"'. c #6BA49C",
"]. c #4D99A4",
"[. c #47AAA7",
"{. c #46BBA8",
"}. c #4CB4B0",
"|. c #78AAA7",
" X c #71AFAB",
".X c #6AB8B7",
"XX c #54C5B6",
"oX c #64C4BA",
"OX c #79C8B6",
"+X c #59C8C5",
"@X c #5DD4CA",
"#X c #62C7C2",
"$X c #6AD6CA",
"%X c #76D5C9",
"&X c #75D4D1",
"*X c #71E4D5",
"=X c #7BE5DB",
"-X c #73DBE3",
";X c #7DE6E5",
":X c #868F94",
">X c #9C9C9C",
",X c #929CA7",
"<X c #84B7B3",
"1X c #A7A7A7",
"2X c #B5B5B5",
"3X c #8CFF8C",
"4X c #9CFF9C",
"5X c #8DD0B8",
"6X c #B4CCB4",
"7X c #A6FFA6",
"8X c #B5FEB5",
"9X c #BBFFBB",
"0X c #8ECACC",
"qX c #8BD6CA",
"wX c #93D4CB",
"eX c #98D8CB",
"rX c #88D9D7",
"tX c #98D9D4",
"yX c #A2D1D7",
"uX c #88E4D5",
"iX c #86EAD0",
"pX c #84E4DB",
"aX c #8AE5DD",
"sX c #85EADE",
"dX c #97E5D8",
"fX c #95F6D8",
"gX c #A4E2D7",
"hX c #8FD7E2",
"jX c #B4DEEB",
"kX c #89E8E3",
"lX c #97E5E4",
"zX c #8EF2EF",
"xX c #98F5E7",
"cX c #AAEDE5",
"vX c #B4EBEB",
"bX c #A3F5E6",
"nX c #A5F6F5",
"mX c #C6CBC6",
"MX c #D4D4D4",
"NX c #DCDCDC",
"BX c #CBE8CB",
"VX c #C4FFC4",
"CX c #CDFECD",
"ZX c #D5FED5",
"AX c #C5E8F6",
"SX c #E3E3E3",
"DX c #EAEAEA",
"FX c #E7FDE7",
"GX c #ECFFEC",
"HX c #F5F5F4",
"JX c #F4FFF4",
"KX c #FFFFFF",
/* pixels */
"R ' .XtXrXwXwXwXwXwXwXwXeXeXwXwXwX<XV < n L |.0XeXtXwXwXrXrX].' R R ).rXrXqXqXwXwXwXwXwXwXtXeX0XeXtX'.w 6 G o.<XeXtXwXwXrXqX.X' ",
"8.K.$X;X=XpXaXaXpXpXpXaXaXaXrXaXlX%Xm 5 G 8.oXpXaXrXkXkX;XkX[.' ' H.{.*XkX=XpXaXaXaXuXuXpXpXaXkXaXrX.Xw l ^.).rXdXkXrXaXaXsX#XR ",
".X$X~.Q.P.P.I.P.P.E.!.P.P.P.P.!.!.H.6 * _.0X'.T.W.E.P.T.!.!.` 0 q.%XXX~.Q.E.E.I.P.E.Q.T.P.P.P.P.E.E.x.7 } yX%XR.P.E.P.!.T.!.8.0 ",
"wX;XQ.D.m.M.s.s.f.m.v.m.m.v.d.m.m.~ 1 O ,XjX[.4.d.p.d.v.v.b.l # q.xX+XD.m.a.s.j.s.d.m.v.v.m.a.m.m.m.I *  .AX0XZ.v.d.p.v.n.b.A # ",
"wX=XQ.m.m.v.s.s.f.d.m.m.m.v.v.M.N.~ 6 X ,XlX[.C.m.k.A.M.M.h.j : q.lX+XD.m.v.v.s.s.d.m.v.m.v.v.M.D.N.T = H vXrXG.N.A.k.M.n.B.A @ ",
"wXuXE.m.m.m.v.s.f.f.d.v.v.a.v.m.N.^ 6 $  XkX!.4.d.A.S.M.V.) m ; q.xX+XS.d.m.v.s.f.f.d.m.v.v.v.v.N.D.T 5 Y nX&XZ.a.k.S.S.M.h.A & ",
"wXaXW.f.m.v.v.s.f.m.M.m.a.s.^ s.M./ 6 $  XkXR.s.d.k.k.d.h.) l < q.xX#Xj.v.v.a.^ f.f.M.v.v.s.^ s.M.m.T 5 L nX*XZ.d.A.A.d.f.) Z % ",
"qXaXW.d.m.v.v.s.m.A.m.v.s.s./ s.M.Q 5 + '.kXJ.B P P P P A Z 9 + L |.^.I P P P C T M.m.m.a.s.p.h.M.M.R = L xX;Xg.Q A.A.M.h.g.Z % ",
"wXkXE.d.v.a.s.M.N.D.S.s.M.v.^ s.j.! 1   ,XdXD . X X . . X X     o ; * X   X X X q N.N.f.v.m.v.^ p.g.U * } nXqXm j p.z.H.g.' Z & ",
"qXaXE.d.f.s.h.s.N.D.m.s.M.N.a.s.g.! 3 O _.wXD         .                         q D.N.f.d.m.v.a.j.z.G - [ gX0X0 9 ! ) ! ' ! U = ",
"dXaXW.p.m.v.b.M.m.m.m.d.m.m.a.d.p.T < + D 8.7     . : : < > > + + , > : ; o     q ~ ~ Q ~ ~ ~ a.f.M.I % w J.0.< 1 j 9 0 9 j j N ",
"dXdX].f.N.N.v.s.m.f.m.m.m.d.d.m.T $ .   $ + .     : mXmXw.*.*.*.*.*.w.mXMXy       $ & $ $ $ j p.S.m.T < a 8.L , @ 2 2 3 3 1 q K ",
"eXkXW.f.m.v.v.M.m.A.M.v.A.m.d.m.P                 : DXGXr.:.:.:.:.:.r.FXKX]                 q a.S.m.T < D 5XOX<X<X.X X|.|..X/.m ",
"eXpX!.m.m.s.s.s.m.D.M.d.m.m.~ Q B     o y v v t t  .HXGXy.:.:.:.:.:.r.FXKX@.y t t F y -   . q s.M.m.I % H cXfXfXfX=XzX=XkXzX.X1 ",
"wX=XQ.m.m.a.a.s.m.A.m.M.s.Q 1 $ X     t NXSXSXNXSXSXKXGXt.:.:.:.:.:.r.ZXKXDXNXNXNXSXNX]     X $ 1 ~ A % D cX=X`.K.U.Q.Y.Y.L.` 3 ",
"tX=XE.m.d.a.s.s.m.A.m.d.s.Q $         v HXKXKXKXKXKXKXGXt.:.:.:.:.:.r.FXKXKXKXKXKXKXHX{         $ Q I = F cXiXZ.6.N.C.6.n.B.U @ ",
"eXkXQ.m.m.m.a.s.d.m.s.P C n X   + u u &.HXKXKXKXKXKX9X7Xe.:.:.:.:.:.3.4X8XGXKXKXKXKXFX9.p i ,   X n b $ F vXhXZ.v.A.k.d.d.b.A - ",
"wXsXE.A.m.d.f.s.p.p.~ &         u -.-.3.JXKXKXKXKXJX<.>.:.:.:.:.:.:.:.:.>.VXKXKXKXKXFX3.;.;.#..         F AXhXG.m.k.z.z.f.V.C - ",
"5XuXP.j.k.l.l.f.p.a.Q $         i :.:.3.JXKXKXKXKXGX,.:.:.:.:.:.:.:.:.:.>.8XKXKXKXKXKXe.:.:.#..         F AXrXG.v.f.z.j.f.5.C = ",
"eXqXI.g.z.k.l.V.^ a.( $   - t y &.:.:.3.VXVXVXVXVX8X>.:.:.:.:.:.:.:.:.:.>.3XVXVXVXVXVX3.:.:.%.y t o   . F vXrXU.n.a.f.p.M.B.J = ",
"F D l B p.k.M.v.4.4.T $   ] SXHX7X:.:.:.,.,.,.>.,.,.:.:.:.:.:.:.:.:.:.:.:.>.,.>.>.,.,.>.:.:.t.HXNXe . o o.).R.n.v.m.M.m.M.s.A & ",
": ; 2 q R ( 5.5.6.6.~ $   | SXKX8X:.:.:.:.:.:.:.:.:.:.:.:.:.:.:.:.:.:.:.:.:.:.:.:.:.:.:.:.:.t.JXNXt   * ^.5.4.n.N.m.A.m.M.j.U & ",
"_.'.|._.m 9 6 q M J C $   { SXKXCXt.t.e.:.:.:.:.:.:.t.t.t.t.t.t.y.t.t.r.t.<.:.:.:.:.:.e.r.y.4XKXNXe   o G b b Q m.d.k.l.S.z.! 2 ",
"5XfXfXOXw 3 3 * o $ $     { SXKXKXJXFX8X>.:.:.:.:.,.FXJXGXFXFXJXJXGXFXGXGXe.:.:.:.:.>.7XGXGXJXKXMXe     X X . B l.S.l.z.z.k.P 2 ",
"qXiX`.`. X X|.@.+         ] SXKXKXKXKXVX,.:.:.:.:.<.JXKXKXKXKXKXKXKXKXKXJXe.:.:.:.:.>.8XKXKXKXKXSXe         . B d.A.A.k.M.M.T 1 ",
"eXdXR.8.*XsXfX'.-   . - - ..DXKXKXKXKXVX,.:.:.,.,.2.GXKXKXKXKXKXKXKXKXKXKXr.,.,.>.:.,.9XKXKXKXKXSX] ; o       B k.A.A.m.N.n.P 1 ",
"yXxXK.6.~.{.}.o..   : mXDXHXKXKXKXKXKXVX,.:.t.FXGXJXKXKXKXKXKXKXKXKXKXKXKXJXJXFX4X:.>.9XKXKXKXKXKXHXDXNXy     B d.m.m.v.n.6.J & ",
"yXxXY.6.6.n._ G .   : NXKXKXKXKXKXKXKX9X>.:.y.KXKXKXKXKXKXKXKXKXKXKXKXKXKXKXKXKX4X:.>.9XKXKXKXKXKXKXKXDXy     n d.d.d.v.^ E M @ ",
"yXkXE.v.v.b._ C X   e MXKXKXKXKXKXKXKXVX,.:.y.JXKXKXKXKXKXKXKXKXKXKXKXKXKXKXKXKX4X:.>.9XKXKXKXKXKXKXKXDX{     B v.v.5._ R g ; O ",
"hX-XE.z._ _ ( C X   e NXKXKXKXKXKXKXKXVX,.:.y.GXKXKXKXKXKXKXKXKXKXKXKXKXKXKXKXKX4X>.,.9XKXKXKXKXKXKXKXDX{     B v.n._ ) G - O # ",
"~.}.i.k k l k q .   e MXKXKXKXKXKXKXKX9X,.:.y.JXKXKXKXKXKXKXKXKXKXKXKXKXKXKXKXKX4X:.>.8XKXKXKXKXKXKXKXDX{     9 B B n l 0 * ; l ",
"D.S.k 2 2 1 2 2     ; MXKXKXKXKXFX7X4Xu.>.:.y.JXKXKXKXKXKXKXKXKXKXKXKXKXKXKXKXJX7X:.:.u.4X4XVXKXKXKXKXDXy     @ 1 1 1 1 * * 8 R ",
"m.j.^./.0.0.0.X..   : MXKXKXKXKX8X,.>.>.:.:.u.JXKXKXKXKXKXKXKXKXKXKXKXKXKXKXKXKX7X:.:.>.>.,.y.KXKXKXKXDXv     S c./.q.q././.J.g.",
"j.G.%XfXfXiXfX|.; . e MXKXKXKXKX7X>.:.:.:.:.y.JXKXKXKXKXKXKXKXKXKXKXKXKXKXKXKXKX4X>.:.:.:.:.y.KXKXKXKXDX{     /.bXcXbXbXbXnXrXx.",
"[.}.XX@XXX{.}.^.*   e 6X8X8X8XVXu.:.:.:.:.:.e.9X9X8XKXKXKXKXKXKXKXKXKXKXKXCX8X9Xy.:.:.:.:.:.t.ZXZXCXZXBX{   . ` oX#XoX#X#X#X].G ",
"0X*X!.C.6.7.B.I X   > =.2.2.2.<.,.:.:.:.:.:.,.<.<.3.JXKXKXKXKXKXKXKXKXKXJXt.<.<.,.:.:.:.:.:.,.2.2.2.2.1.u     Z 5.V.V.V.C.Z.U 3 ",
"wXsXQ.m.v.a.a.C     + *.:.:.:.:.:.;.;.;.;.;.;.;.;.,.FXHXHXHXHXKXHXHXKXHXJX3.;.;.;.;.:.;.;.;.:.:.:.:.:.-.,     M ^ d.a.d.v.b.Z - ",
"0XaXQ.m.m.v.a.C X   > *.:.:.:.:.*.i i s s i i p s p |  ...+... . ...+... .a p p p i i s s i $.;.:.:.:.-.u     M v.k.k.S.M.V.Z @ ",
"wXpXW.m.m.m.v.P X   > *.:.:.:.;.$.+           .         o             . .                 . d ;.:.:.:.-.u     C ~ A.A.A.s.( A $ ",
"wXpXW.p.N.v.^ C X   > *.:.:.:.;.$..                                                       . d ;.:.:.:.-.u     N p.A.A.d.h.g.A = ",
"qXaXE.k.m.v.s.C X   + #.$.$.$.$.d .   : ..| | ..+.| . o y .. . .| ..v o . v ..+...{ | :     i %.$.%.%.%.,     q T l.l.j.j.x.Z & ",
"wXaXE.d.f.s.s.P .       .             v SXHXKXKXHXHX- - >XHXKXKXKXHX1X: o 2XKXKXKXHXDXv           . .         7 j i.g.g.) ) Z = ",
"dXdXW.p.m.v.s.C X .             . - . v DXKXKXKXKXDX- - >XKXKXKXKXKX1X: o 2XKXKXKXKXHXv o O o             X X * 1 k B V V B B 8 ",
"dXaX].p.N.N.m./ P P C X         ] 2X2X2XKXKXKXKXKXDX- - >XKXKXKXKXKX1X:   2XKXKXKXKXKXmX1X2X@..       . < M g , @ 1 2 @ @ 1 q K ",
"tXaXW.j.N.v.v.M.f.f.~ $         ..HXKXKXKXKXKXKXKXSX- - >XKXKXKXKXKX1X: o 1XKXKXKXKXKXKXKXKX>Xo         g 0.8.h m V m S S V V G ",
"eXkXW.d.m.v.a.s.m.m.~ $         | KXKXKXKXKXKXKXKXDX- - >XKXKXKXKXKX1X: o 2XKXKXKXKXKXKXKXKX>Xo         h fXfXgXgXtXdXdXtXhX.Xw ",
"eXkXQ.m.m.v.s.s.A.D.^ j 9 6     { HXKXKXKXKXKXKXKXHX+.+.mXHXKXKXKXKXmX+...MXKXKXKXKXKXKXKXKX>Xo . q 6 o D vXfXiX%X$X*X$X$X&X].; ",
"eX=XP.m.m.s.s.s.m.S.m.a.s.T $   | KXKXKXKXKXKXKXKXKXHXHXKXKXKXKXKXKXKXHXHXKXKXKXKXKXKXKXKXKX>X. $ Q I = } cXrXK.b.C.C.Z.C.B.A * ",
"tXpXY.m.m.s.s.s.s.m.m.v.a.Q &   | NXNXDXKXKXKXKXKXKXKXKXKXKXKXKXKXKXKXKXKXKXKXKXKXKXKXDXSXSX:Xo $ Q P % F vXkXC.m.A.k.a.v.V.R o ",
"tXsXQ.A.m.d.b.s.p.f.m.m.a.T $   : ] ] +.HXKXKXKXKXKXKXKXKXKXKXKXKXKXKXKXKXKXKXKXKXKXHX@.y ] e   $ Q T 1 } vXhXG.m.k.z.z.M.M.U - ",
"5X=XQ.D.m.s.s.s.z.f.k.N.m.T $         y DXKXKXKXKXKXKXKXKXKXKXKXKXKXKXKXKXKXKXKXKXKXDX]         $ E T = H vXrXG.d.l.z.z.S.j.C @ ",
"5X=XP.h.b.h.g.g.i.z.k.m.D.~ & X       y NXDXDXDXDXDXDXDXDXDXDXDXDXDXDXDXDXDXDXDXDXDXSXy     . X = J J 5 H nX=XK.a.M.D.A.S.f.U & ",
"/./.U U i.z.M.M.g.z.m.v.D.d.T C q     - { ] y ] { { y y { { { y y { { ] y ] { ] ] ] ] -     j I C V Z L ^.%X}.H.v.v.m.d.k.F.U $ ",
"o $ @ 9 ! m.n.v.f.p.v.v.m.m.v.^ 6                                                         X M ^ C @ x wX%X' 7./ v.N.N.f.s.f.T $ ",
"h r w z U P Q / ( h.5.n.b.h.C.b.6                                                           n 5.C @ x rX%X) / b.N.N.N.s.g.V.R $ ",
"5X5XtX<Xj 2 1 9 R g.7.7._ g.7.7.9 3 H 0.G b j b M B b l m B 7 o h O.O.O.S * & & 1 l g f g m R 5.Z @ l rX+X/ ^ v.v.n.M.V.g.V.R o ",
"5XfXpX.X` Z G H G G V M Z A J J V Y .X#XP.s.p.d.v.v.s.i.g.( f - q.fX=X%X).G G G D z V B V Z A J G z ` #X}.s.d.M.D.N.m.h.h.V.Z $ ",
"iX=XR.T.@X*XaX0Xc 2 2 @ = 5 1 5 _.rXI.B.a.m.f.f.m.v.v.b.B.) n < 0.fXoXH.~.=X=XrX<X0 2 @ & 5 = < Y tX0XL.v.m.f.f.d.v.v.b.h.j.A $ ",
"5XiXI.H.+X@X%X.X` c c c S S & $  X;XI.( m.D.l.l.d.m.a.^ V.h.b ; 0.fXoXb.P.@X$X%X XY x h h m w * G nX&XB.s.A.S.l.l.d.v.^ a.b.J % ",
"eXiXW.g.g.H.' J.0XhXtXtXgX<Xr o '.=XI.g.d.A.l.z.f.m.v.n.D.M.b * q.bXoX8.g.x.H.8.).rXtXtXeXeX_.4 D zX-XH.a.D.A.z.f.f.m.v.n.m.T & ",
"yXlXW.4.6.n._ J.rXxXxXfXbXeXy O :XlX^.( s.M.l.l.f.m.v.4.6.W g 2 c.nX#Xb.6.6._ ) ).hXnXzXxXfX,X4 } vXrXJ.h.f.p.l.f.M.v.v.4.7.M % ",
"tXzX!.v.4.n._ B.[.XX~.{.{.(.0 o _.tXL./ b.b.m.m.m.v.^ ) M 8 * ; _.nX@XM.4.4.b._ V.{.{.{.{.XX` ; F jXtXH.^ v.m.n.m.v.b.h.! g 7 # ",
"&X-XL.( ( ! ( Q ^ 4.6.E W J 6 % '.rXK.4.E ^ ^ ^ 5.^ ) G 7 O 4 2 ].hX+Xp.( ! ) ! E ~ 6.6.7.J N 5 K cX%X7.E ^ ^ ^ ^ ^ / R G : O # ",
"[.~.! k j l k k k b f f f f M n OXuXW n b k k n B n j 9 @ # 0 Y z.~.J.B k l k k b 8 f f f f f M 8.bXqXJ b k B k B n b q 7 * 3 l "
};
