/* XPM */
static char *result[] = {
/* columns rows colors chars-per-pixel */
"64 64 250 2 ",
"   c #010202",
".  c #070706",
"X  c #030B0B",
"o  c #0C0C0C",
"O  c #16060A",
"+  c #011501",
"@  c #011804",
"#  c #070B18",
"$  c #160716",
"%  c #031414",
"&  c #031A16",
"*  c #091419",
"=  c #041B1B",
"-  c #0B1B1B",
";  c #141414",
":  c #14171B",
">  c #1C1C1C",
",  c #032603",
"<  c #0A2B0A",
"1  c #042219",
"2  c #071826",
"3  c #0C1229",
"4  c #151925",
"5  c #251522",
"6  c #022424",
"7  c #052829",
"8  c #152728",
"9  c #08342A",
"0  c #16392C",
"q  c #062B36",
"w  c #182833",
"e  c #063738",
"r  c #173835",
"t  c #272727",
"y  c #273936",
"u  c #343434",
"i  c #0B4E0B",
"p  c #005800",
"a  c #037603",
"s  c #06473D",
"d  c #114437",
"f  c #254A32",
"g  c #083A46",
"h  c #0B3C4B",
"j  c #153A45",
"k  c #11354B",
"l  c #283A46",
"z  c #2E3948",
"x  c #044344",
"c  c #084548",
"v  c #184747",
"b  c #07524A",
"n  c #15554A",
"m  c #094954",
"M  c #184B57",
"N  c #095559",
"B  c #16575A",
"V  c #284547",
"C  c #37534D",
"Z  c #264C5A",
"A  c #275658",
"S  c #3A5857",
"D  c #106658",
"F  c #18655B",
"G  c #2A655A",
"H  c #2D675D",
"J  c #0B5B63",
"K  c #175A65",
"L  c #135769",
"P  c #315962",
"I  c #086568",
"U  c #166869",
"Y  c #097A69",
"T  c #167964",
"R  c #096D75",
"E  c #186A75",
"W  c #087676",
"Q  c #04747A",
"!  c #047B7B",
"~  c #0C7B7B",
"^  c #187579",
"/  c #137B7C",
"(  c #2E6D6D",
")  c #237578",
"_  c #484948",
"`  c #49544E",
"'  c #435759",
"]  c #4A5C58",
"[  c #585859",
"{  c #447C79",
"}  c #527170",
"|  c #6B6B6B",
" . c #787878",
".. c #00CE00",
"X. c #00D900",
"o. c #01E401",
"O. c #05EC05",
"+. c #00F300",
"@. c #01FF01",
"#. c #0DFF0C",
"$. c #10F610",
"%. c #12FF12",
"&. c #1BFF1B",
"*. c #28FF28",
"=. c #39FF39",
"-. c #0B8B76",
";. c #07867B",
":. c #05837C",
">. c #15847B",
",. c #2E8778",
"<. c #4F8678",
"1. c #56877B",
"2. c #688175",
"3. c #4BE44B",
"4. c #46FF46",
"5. c #58FD58",
"6. c #6AFF6A",
"7. c #77FB77",
"8. c #156F81",
"9. c #0B7585",
"0. c #057D84",
"q. c #0B7C84",
"w. c #047D8A",
"e. c #0B7D8A",
"r. c #137C84",
"t. c #187884",
"y. c #12758B",
"u. c #127B8A",
"i. c #047D91",
"p. c #0D7C92",
"a. c #0B7895",
"s. c #117993",
"d. c #277A85",
"f. c #617C88",
"g. c #048385",
"h. c #0B8284",
"j. c #038A84",
"k. c #0C8A85",
"l. c #04838B",
"z. c #0A838B",
"x. c #028A8C",
"c. c #168687",
"v. c #13828C",
"b. c #11948E",
"n. c #19948A",
"m. c #048492",
"M. c #0B8392",
"N. c #028B91",
"B. c #078895",
"V. c #128391",
"C. c #1B8A91",
"Z. c #258887",
"A. c #318D8F",
"S. c #27978A",
"D. c #299896",
"F. c #2B9C9D",
"G. c #349A9A",
"H. c #18A093",
"J. c #2AA39C",
"K. c #38A596",
"L. c #2C9DA2",
"P. c #349BA2",
"I. c #28A3A4",
"U. c #38AEAA",
"Y. c #5A8884",
"T. c #4D938E",
"R. c #6B8D90",
"E. c #659898",
"W. c #4AA799",
"Q. c #69A69C",
"!. c #7AA398",
"~. c #4D99A4",
"^. c #45A9A7",
"/. c #56A7A4",
"(. c #46BBA8",
"). c #4FB7B2",
"_. c #68A8A6",
"`. c #78ABA7",
"'. c #73B2AF",
"]. c #6BB9B8",
"[. c #54C6B5",
"{. c #64C5BB",
"}. c #76C4B4",
"|. c #7DD4BC",
" X c #5AC8C4",
".X c #5DD4CA",
"XX c #63C6C4",
"oX c #6AD6CA",
"OX c #76D5C9",
"+X c #73D0CE",
"@X c #79D9D7",
"#X c #71E4D5",
"$X c #7AE5DB",
"%X c #73DBE3",
"&X c #7DE6E5",
"*X c #858585",
"=X c #82939D",
"-X c #999999",
";X c #929CA7",
":X c #81ACA8",
">X c #84BBBA",
",X c #AAAAAA",
"<X c #B7B7B6",
"1X c #92FE92",
"2X c #8DD0B8",
"3X c #B5DAB5",
"4X c #AAFDAA",
"5X c #B4FFB4",
"6X c #BBFEBB",
"7X c #8FCACC",
"8X c #8BD7CA",
"9X c #93D4CB",
"0X c #97D8CA",
"qX c #88D9D7",
"wX c #97D9D4",
"eX c #A2D1D7",
"rX c #88E5D5",
"tX c #87ECD1",
"yX c #84E4DB",
"uX c #8AE5DD",
"iX c #85EADE",
"pX c #97E6D9",
"aX c #95F7D9",
"sX c #A4E8DA",
"dX c #91D8E2",
"fX c #B4DEEB",
"gX c #89E8E3",
"hX c #96E4E4",
"jX c #8FF5EF",
"kX c #99F5E8",
"lX c #ACECE7",
"zX c #B4ECEC",
"xX c #A3F5E6",
"cX c #A6F5F5",
"vX c #C8C9C8",
"bX c #D3D2D3",
"nX c #DCDCDC",
"mX c #C3FFC3",
"MX c #CDFFCD",
"NX c #DDE2DD",
"BX c #D7FDD7",
"VX c #C5E8F5",
"CX c #E3E3E3",
"ZX c #E6EEE6",
"AX c #EDEDED",
"SX c #E6FCE6",
"DX c #ECFFEC",
"FX c #F3F3F3",
"GX c #F3FEF3",
"HX c #FEFEFE",
/* pixels */
"U ( ].wXqX9X9X9X9X9X9X9X0X0X9X9XwX>XV = c H _.7XwX9X9X9XqXqX/.E U ( W.8XqX8X9X8X9X9X9X9X9X0X9X7X0X0X_.r 9 A ( 2X7XwX8XwX9X8X].) ",
"Z.S.oX&X$XyXuXuXyXyXyXuXuXuXqXuXuX+Xn 6 A ,.}.uXqXuXgXgX&XgX^.) ^ Z.U.&XgX$XuXyXuXuXuXrXyXyXuXuXhXqX].r e f.W.qXuXdXqXuXyX&XXXT ",
"}.oXU.I.I.F.G.F.L.L.J.I.F.F.F.L.L.Z.7 * R.7X/.K.F.P.P.J.I.L.G w <.@X[.I.I.F.G.G.L.L.L.J.F.F.F.L.I.I.) 8 ' eX+XK.K.L.P.I.J.I.) w ",
"7X&XI.N.g.q.q.q.e.w.l.g.g.g.w.z.l.Q 2 O ;XfX^.;.w.w.e.g.j.h.j 5 2.kX XN.l.l.q.q.0.w.g.l.g.l.0.l.z.l.J 2 [ VX7Xn.g.w.9.0.k.c.B ; ",
"9X$XI.l.l.g.q.q.e.w.l.l.l.g.g.l.x.Q 7 X :XhX(.x.l.i.m.z.z./ g : } kX XB.l.g.g.q.q.e.l.l.g.l.g.l.x.x.I = S zX@XD.l.i.i.z.z.h.B ; ",
"8XyXL.l.l.g.g.q.e.e.l.g.g.0.g.l.x.! 7 % `.gXP.:.w.a.M.z.v.^ d : 1.kX Xz.g.l.l.q.q.w.w.g.g.g.g.0.x.N.I 6 P cX@Xn.0.i.B.M.z.c.K % ",
"8XuXP.e.l.l.g.q.e.w.l.g.0.9.0.q.z.! 6 % _.gXU.! w.a.m.w.r.t.j - Y.xXXXs.0.l.g.q.q.e.e.l.g.q.~ 0.z.m.I 1 H cX#Xn.g.i.m.w.q.t.B % ",
"0XuXG.w.l.l.g.q.z.m.l.g.q.q.~ q.h.W 6 X E.jXG.R e.B.i.e.t.) c 1 T.xX Xv.w.g.0.q.z.z.l.l.g.q.9.~ e.h.U 2 H kX&Xt.R B.m.e.q.t.B & ",
"8XuXL.w.l.q.r.q.x.N.z.e.z.g.0.q.u.E 2 . =XxX( q L s.Z.t.^ ) v - 1.kX XV.0.l.q.r.0.x.N.e.q.x.g.q.r.e.K * ' cX7Xv h 9.C.d.t.^ B * ",
"9XgXL.w.z.q.q.e.N.N.l.e.z.j.0.q.u.E 4 O !.9XS 2 M 8.) E ) ) c - 1.kX XV.w.q.q.r.l.N.x.r.z.x.g.0.e.y.Z ; _ sX2Xw q E 8.) E ) B = ",
"pXuXP.9.g.x.g.h.l.l.g.w.l.g.0.w.h.R 7 . S <.d % q g q q g g c n Q.cXXXd.w.l.g.q.e.l.l.l.l.l.w.w.u.z.D & 0 T.,.- 3 q q q q g c n ",
"wXpX~.e.l.x.g.h.z.e.l.l.m.w.w.w.x.W 6 + n >.d ; # 3 # # 3 3 d G Q.qX_.d.R g.j.g.q.e.w.l.l.m.w.w.M.l.I , s ,.G 0 # 3 3 4 4 3 e G ",
"wXgXP.e.l.l.g.q.w.l.l.l.l.m.w.l.M.R 1 + 1.}.}.!.y 4 8 : 4 8 - % 0 V r 7 2 9 Q q.h.l.l.l.l.m.w.w.m.m.I 1 C |.}.:X`.].'.'.`.'.T.j ",
"0XiXI.l.l.0.q.q.m.N.z.w.l.l.w.l.M.R 6 + !.xXsX8X8                         % R q.z.m.l.w.w.l.g.w.z.l.I & ` lXaXaXaXiX&XaXgXjX].4 ",
"9X$XI.l.g.0.q.q.l.N.l.z.e.w.0.e.z.R 1 . } E.( G %   > ` f p p p p f _ _   X c m N J N ! 0.e.e.e.e.l.B & C lXtXK.S.H.I.H.J.D.( 2 ",
"0X$XL.l.w.0.q.q.z.m.l.0.q.r.9.y.z.R 6   . + X       [ ZX7.+.+.+.+.5.SXvX    X     X X R w.r.9.r.e.l.J * C lXrXH.-.N.N.;.;.k.K $ ",
"wXiXI.m.g.0.0.q.e.e.l.l.0.q.q.q.l.R 2       o ; o ; [ GX7.@.@.@.@.6.GXCX> o ; ; ;   X Q q.q.q.q.z.l.I = ' zXdXb.m.i.i.9.g.z.K o ",
"9XiXL.l.m.w.e.e.9.w.w.l.g.0.0.l.g.b X     u ,X,X,X,XvXGX6.@.@.@.@.6.GXFX<X,X,X,X*X. X e x W 0.0.z.x.I 6 ' VXdXH.m.a.s.y.p.h.N ; ",
"9XrXG.p.i.a.e.e.9.! e.e.M.l.9.~ R 7   + @ ` AXHXHXHXGXSX6.@.@.@.@.5.BXDXHXHXHXHXvX< +   X R ! ~ >.;.U 6 ' VXqXn.l.z.s.y.r.h.N = ",
"2X8XG.t.s.a.p.v.0.0.u.u.e.w.N X X   + ..X.3.SXHXHXHX5X*.%.@.@.@.@.@.#.=.HXHXHXHX4X$.X.,   X X g / ^ A 7 ' zXqXH.j.0.u.e.h.;.U 1 ",
"V C h h 9.p.z.g.;.! q.w.z.z.N       @ +.@.4.DXHXHXHX5X@.@.@.@.@.@.@.@.*.HXHXHXHX5X%.+.,       e J e B E./.W.K.k.j.l.l.l.z.q.B = ",
"> 4 4 r U / >.;.:.! :.l.e.v.N     u ` +.@.=.5X6X4X5X1X@.@.@.@.@.@.@.@.&.6X6X5X5X1X#.@.` _ o   c N % j +X{./ h.g.x.l.m.l.m.u.L # ",
"R.Q.'.E.r q 7 e Y ;.:.j.h.h.N X ; ,XBX#.@.@.%.&.%.%.%.@.@.@.@.@.@.@.@.@.&.#.%.&.%.@.#.BXnXu X s N # j qX.X~ ! l.l.w.p.p.p.s.L 3 ",
"8XaXaX}.r 4 2 w F -.W W R Y b   > <XSX&.%.@.@.@.@.@.@.#.#.%.#.#.&.%.@.%.@.@.@.@.@.#.&.BXZXu   e b 2 Z +XXXr.q.M.M.p.p.s.s.i.R 2 ",
"9XtXW.W.}.Q.`.!.n e g q 2 * %   > ,XGXmXmX7.#.@.@.@.=.6XmXmXmX6XmXmXmX1X#.@.@.@.*.5XmXGXCXt     # : { ^.D.w.w.i.m.m.m.p.M.l.I 2 ",
"0XpXK.,.#XiXxX0XV # # #         > ,XHXHXHX5X%.@.@.@.5.GXHXHXHXHXHXHXHXMX@.@.@.@.4.DXHXHXCXu       . T.Z.0.g.m.w.m.m.m.l.x.j.J 2 ",
"eXaXS.-.U.(./._.E.E.E.f.8   5 ` [ vXHXHXHX6X&.@.=.5.7.GXHXHXHXHXHXHXHXSX4.=.@.@.4.DXHXHXFX ._ >   . E.Z.q.e.w.e.i.m.l.l.j.-.D # ",
"eXkXJ.-.j.j.>.A.+XhX@XXXy   ` FXHXHXHXHXHX6X#.#.MXGXGXHXHXHXHXHXHXHXHXHXGXBX%.@.=.GXHXHXHXFXFX|     Y.Z.r.q.e.z.p.l.0.0.:.Y b # ",
"dXdXI.l.g.h.r./ P.).K.,.9 + [ FXHXHXHXHXHX5X%.%.MXHXHXHXHXHXHXHXHXHXHXHXHXBX&.@.4.DXHXHXHXHXHX .    Y.n.:.g.g.l.j.g.;./ U d - $ ",
"dX&XL.u./ / 8.~ g.g.-.Y 1   [ FXHXHXHXHXHX5X%.&.MXHXHXHXHXHXHXHXHXHXHXHXHXSX*.@.5.DXHXHXHXHXFX*X. . W.>.:.g.j.g.j.h./ ^ A ; O O ",
"U.U.8.h j j m m c m x s &   [ FXHXHXHXDXDX5X%.%.MXHXHXHXHXHXHXHXHXHXHXHXHXSX*.@.4.DXGXHXHXHXHX*X.   Y.F c c m m m N c j w * : l ",
"B.M.k 3 3 2 3 4 3 3 7 2 X   ` FXHXHXDX5.5.=.@.#.MXHXHXHXHXHXHXHXHXHXHXHXHXBX#.@.#.5.6.DXHXHXFX .    <.r 2 # 3 3 3 2 2 2 = * 9 E ",
"m.h.T.Y.1.<.1.1.f.f.Y.} 8   [ AXHXHXSX%.@.@.@.&.MXHXHXHXHXHXHXHXHXHXHXHXHXBX*.@.@.@.&.SXHXHXHX .. . 1.8 2 s M } R.Y.1.1.Y.Y.T.y.",
"v.C.OXaXaXtXaXxXzXzXxX8XV   ` 4X4X4X4X#.@.@.@.#.1X5X6XHXHXHXHXHXHXHXHXGX4X1X%.@.@.@.%.4XBX6X6X2..   } 8 9 >.K.8XxXxXxXxXxXkX@Xd.",
"~.).[.{.[.(.[.].].XXXX).y   i $.#.#.#.@.@.@.@.@.#.%.5.GXHXHXHXHXHXHXHXMX%.#.@.@.@.@.@.#.%.%.%.a     S 4 y _.).{. X{.{.XXXXXX~.Z ",
"7X#XI.N.k.-.r.c.v.V.v.~ 6   p +.@.@.@.X.X.X.o.X...X.3.NXnXbXnXNXCXnXbX3XO.X.X.X.X.o.o.@.@.@.@.a     j > [ VX7XS.k.C.z.c.k.C.U 4 ",
"9XiXI.l.g.g.0.q.e.w.g.! 6   p +.@.@.o., + + + + + + + ; ; ; ; ; ; ; > ; + + + + @ @ , o.@.@.@.a     g = ] VXqXn.0.i.w.0.g.h.B # ",
"9XiXL.l.l.l.0.q.e.e.w.! 6   p ..o.o...,   o > > > t ;   ; > > t > ;     > t > : > . , ..o.o.o.a     x 1 ] cX@XH.g.i.i.M.k.r.B * ",
"9XyXL.w.l.g.g.q.e.e.w.Q 6     @ , + @     _ bXnXCXnX-X;  .bXnXAXCX*Xo t CXAXnXbX-X;   @ @ , @       x 6 ( cX#Xc.0.i.B.l.q.t.B & ",
"9XyXP.w.l.l.g.q.e.m.g.Q 7                 _ CXHXHXHX<Xo  .HXHXHXHX-Xo u FXHXHXHX,Xo                 c 1 A jX&Xn.w.m.i.w.q.t.B & ",
"8XuXP.w.l.g.q.e.l.N.z.~ e 7 %       . _ _ | FXHXHXHX<Xo *XHXHXHXHX,X. t FXHXHXHXvXu _ .       X 7 7 c & S kXqX) I p.V.s.r.t.B * ",
"9XgXL.w.e.q.q.q.N.N.z.e.0.! m X     > NXAXFXHXHXHXHX<X; -XHXHXHXHX-Xo > HXHXHXHXHXAXCX>       g 8.^ K ; ' lX7Xd g 8.t.t.^ ^ B = ",
"0XuXP.w.l.g.h.h.l.N.z.q.z.l.m X     : ZXHXHXHXHXHXHX<X; *XHXHXHXHX-Xo t HXHXHXHXHXHXFX>   X % x e.e.U & V }.Q.8 2 m m M M M m 9 ",
"pXhX~.9.x.x.g.e.e.w.l.l.l.w.! R R q > AXHXHXHXHXHXHXFXCXAXHXHXHXHXAXbXCXHXHXHXHXHXHXFXt X J Q 9.z.m.I 1 < -.F 1 # 3 # # # 2 e G ",
"wXqXP.e.x.x.g.q.z.e.l.l.l.m.w.e.g.e > CXAXFXHXHXHXHXHXHXHXHXHXHXHXHXHXHXHXHXHXHXHXAXCXt X Q w.w.M.x.I 1 d <.,.f V v V V V M M B ",
"0XgXP.m.l.g.g.q.l.l.z.z.l.l.w.z.0.q . u _ | AXHXHXHXHXHXHXHXHXHXHXHXHXHXHXHXHXHXvX_ _ . X R l.w.z.m.I & C aXaXsXwXpXuXpXwXdX'.0 ",
"0XgXI.w.g.q.q.q.m.N.z.w.l.w.0.e.q.q       _ AXHXHXHXHXFXHXFXHXHXFXHXHXFXHXHXFXHX<X;     X R 9.e.z.l.I % ' zXaXtX@XoX#X.XoX@X~.4 ",
"0XiXL.l.l.0.q.q.z.m.l.0.e.e.9.e.q.N %     >  . . .*X . .*X*X . . .*X .*X . .*X*X| . * x c Q 9.e.e.h.I * ' lXrXS.-.N.b.-.b.h.K ; ",
"wX$XI.l.l.q.q.q.e.l.l.g.w.q.9.q.l.Q 6         . .         . .       . .     . .     6 Q q.q.q.q.l.l.I = ' fXgXn.g.m.i.0.g.c.U o ",
"0XiXI.x.l.g.0.q.e.e.g.l.g.q.! h.x.W 7                                 .             - Q g.! q.g.l.x.I 2 ' fXdXb.l.i.a.s.M.v.J $ ",
"2XyXI.m.w.q.r.r.y.a.w.l.l.e.0.h.j.W 7 X } Y.( N m L L m N B 7 ; ` E.( I N m B N m m J g.l.l.w.q.g.j.I = ' zXuXn.w.p.s.p.p.v.B # ",
"2X#XF.v.r.q.u.u.y.y.i.l.N.i.q.c.! U 6 = E.uXW.R 0.z.m.e.v.y.h * <.tX).c.9.~ r.u.y.y.i.m.N.B.g.r.c.W F 6 H cX@XZ.0.z.B.m.M.u.J % ",
"Y.T.L L 8.u.z.h.y.y.g.x.m.l.l.r.U n A S Q.{.D.:.0.g.g.e.M.s.c * C Q.( Z L e.z.z.u.y.e.l.l.m.l.q.E B M H T.OX[.Z.:.l.l.w.M.M.K % ",
"o o 3 q E g.j.j.e.y.0.:.l.l.g.! q w >XxXW.^ W 0.x.x.l.y.v.h.x X . % # 3 g 9.j.j.0.r.0.j.j.z.g.0.N % V 9X7XT / ! g.x.l.e.9.z.J % ",
"y y l l L I I W ~ t.g.j.h.c.k.k.q w 7XjXK.>.:.k.x.x.l.r.V.C.m o 8 y l k M L Y Q R / q.;.j.e.c.k.N # l qXoX/ W h.x.x.x.q.u.C.U % ",
"2X2XwX'.k 2 2 q U t.>.-./ / >.>.q w ].jXK.~ 0.x.j.x.z.t.c.c.v ; } 0XwXeXE.2 2 2 g ^ >.;.>.^ >.;.B # j qX X~ W j.j.x.z.u.u.c.B % ",
"2XaX$X].( A A A Z Z n n B B D D Z P ].oXL.e.w.M.x.x.h.r.c./ d ; 1.aXiX@X/.K A A Z Z M M B B B D K z ( XX(.q.0.e.l.x.l.u.r.t.B X ",
"2XtXK.F..X#XgX7Xz 3 3 # 2 6 6 2 E.qXP.c.w.g.9.e.w.g.z.h.t.t.x 1 1.aX[.S.U.$X$XwX`.l 3 # = 6 2 6 P wX7XA.w.w.M.e.w.l.g.h.q.c.B & ",
"tXtXG.Z. X.XOX].( z z V V V = X _.gXG./ l.B.p.s.w.l.g.! v.v.c - 1.xX{.>.D..XoXOX_.P z y y V 0 * A kX@Xc.q.m.B.u.p.w.g.! 0.h.I & ",
"0XrXG.t.c.Z.) A.7XdXwXwX0X>Xu # Q.&XD.t.w.m.p.p.e.l.h.g.x.l.x : 1.aX{.,.^ Z.d.Z.T.qXpXpXwX0XR.> A jX%XZ.0.N.m.p.e.e.l.h.l.l.I % ",
"eXhXL.g.;.;./ A.qXkXkXaXxX0Xu $ =XwXA.t.r.z.p.p.e.l.g.g.-.T s 2 f.cX Xk.;.;.>.^ T.hXcXjXkXkX`.5 ' fXwXd.r.q.e.s.e.z.g.g.;.-.n % ",
"eXgXI.g.j.;./ c.U.[.(.U.(.W.w O !.wXA.~ h.g.l.l.l.g.! ^ b 0 - $ R.cX Xz.g.j.h.^ C.U.(.U.[.W.{ ; ' fXwXZ.:.g.l.l.l.z.:./ ^ d 8 $ ",
"%X%XD.^ E ^ ^ R 9.:.Y -.T F 7 = !.rXS.:.W ! ! ! :.:.^ A 8 O $ 3 f.&X X9.^ E ^ E W Y -.-.Y D n 6 G lX$X>.W ! :.! ! ! W E A : O $ ",
"^.U.L h g g h h h g s s s s b x ].rXT x x x g c m c g w - $ w L s. XA.m g j h h g e s s s s x n ,.xX|.F x h c h c m c e 8 % 4 j "
};
