/* XPM */
static char *result[] = {
/* columns rows colors chars-per-pixel */
"64 64 256 2 ",
"   c #060807",
".  c #160709",
"X  c #05140A",
"o  c #11100B",
"O  c #070A17",
"+  c #160716",
"@  c #071618",
"#  c #041C1B",
"$  c #151719",
"%  c #291114",
"&  c #032219",
"*  c #1D2619",
"=  c #2A2C0E",
"-  c #25331E",
";  c #0F1126",
":  c #071826",
">  c #151826",
",  c #251522",
"<  c #032323",
"1  c #062828",
"2  c #15282A",
"3  c #0A382B",
"4  c #072938",
"5  c #152836",
"6  c #063639",
"7  c #173A35",
"8  c #32352D",
"9  c #49360A",
"0  c #6E231E",
"q  c #493529",
"w  c #07453D",
"e  c #134A33",
"r  c #15463B",
"t  c #324A32",
"y  c #554906",
"u  c #6C550D",
"i  c #495232",
"p  c #6E5830",
"a  c #646336",
"s  c #093B48",
"d  c #153A46",
"f  c #11354B",
"g  c #283A46",
"h  c #2E3948",
"j  c #084647",
"k  c #174747",
"l  c #155549",
"z  c #094654",
"x  c #174B58",
"c  c #0B5755",
"v  c #16575A",
"b  c #274548",
"n  c #334F50",
"m  c #275558",
"M  c #3A5757",
"N  c #116457",
"B  c #17665C",
"V  c #29665A",
"C  c #316D5B",
"Z  c #0C5C64",
"A  c #175A64",
"S  c #0D5F70",
"D  c #315A62",
"F  c #086467",
"G  c #176869",
"H  c #097A69",
"J  c #167966",
"K  c #0B6D75",
"L  c #1A6A74",
"P  c #077775",
"I  c #057B7B",
"U  c #0C7C7B",
"Y  c #177679",
"T  c #147B7D",
"R  c #376667",
"E  c #30716E",
"W  c #276D77",
"Q  c #257677",
"!  c #495458",
"~  c #4D6156",
"^  c #4A7673",
"/  c #A2190E",
"(  c #DB1403",
")  c #E90F02",
"_  c #FD0500",
"`  c #FF0C00",
"'  c #EA1A03",
"]  c #FF1100",
"[  c #F91904",
"{  c #CE2F1B",
"}  c #D52917",
"|  c #EA2406",
" . c #F92409",
".. c #F02715",
"X. c #EE3927",
"o. c #9C7705",
"O. c #8E7814",
"+. c #A47B01",
"@. c #A57803",
"#. c #AC7D01",
"$. c #A5780B",
"%. c #B17300",
"&. c #B07F00",
"*. c #A37C23",
"=. c #E15200",
"-. c #E44F18",
";. c #FE6E18",
":. c #E26850",
">. c #678932",
",. c #0C866E",
"<. c #07867B",
"1. c #05837C",
"2. c #15847B",
"3. c #278776",
"4. c #308872",
"5. c #6D964F",
"6. c #4F8774",
"7. c #56867B",
"8. c #728578",
"9. c #9B8C01",
"0. c #8F821D",
"q. c #AC8200",
"w. c #A88406",
"e. c #B38300",
"r. c #B98903",
"t. c #AD930C",
"y. c #AA8412",
"u. c #B48813",
"i. c #B78A23",
"p. c #B8A72D",
"a. c #C39506",
"s. c #D0930B",
"d. c #F68916",
"f. c #E89E16",
"g. c #E9A71A",
"h. c #D79134",
"j. c #FDAE28",
"k. c #FDB43C",
"l. c #AE8749",
"z. c #88817C",
"x. c #D9B447",
"c. c #D2B252",
"v. c #E4AC4B",
"b. c #EBB446",
"n. c #F4B747",
"m. c #FFB642",
"M. c #FFBA45",
"N. c #F5B74E",
"B. c #FEBD4A",
"V. c #FDC44C",
"C. c #EBCD55",
"Z. c #FECA54",
"A. c #F7D456",
"S. c #EED161",
"D. c #156F81",
"F. c #0B7686",
"G. c #057D84",
"H. c #0B7C84",
"J. c #047D8A",
"K. c #0B7D8A",
"L. c #137B84",
"P. c #177886",
"I. c #137B8A",
"U. c #067C93",
"Y. c #0D7D92",
"T. c #117993",
"R. c #277D88",
"E. c #687C8A",
"W. c #048385",
"Q. c #0B8284",
"!. c #038A84",
"~. c #0C8A87",
"^. c #04838B",
"/. c #0A828B",
"(. c #028A8C",
"). c #168686",
"_. c #13828B",
"`. c #11948E",
"'. c #199489",
"]. c #048392",
"[. c #0C8392",
"{. c #058993",
"}. c #138491",
"|. c #258888",
" X c #2D918D",
".X c #2B9A9B",
"XX c #349A9A",
"oX c #18A093",
"OX c #2AA39C",
"+X c #39A897",
"@X c #2C9DA2",
"#X c #349BA2",
"$X c #28A3A4",
"%X c #38AEAA",
"&X c #588886",
"*X c #4B928E",
"=X c #6A8E90",
"-X c #79989A",
";X c #52A89A",
":X c #68A599",
">X c #7AA794",
",X c #4D99A4",
"<X c #45A9A7",
"1X c #46BBA8",
"2X c #52B3AE",
"3X c #67A8A6",
"4X c #77AAA6",
"5X c #72B5AD",
"6X c #6ABAB8",
"7X c #4DC4B2",
"8X c #5AC5B8",
"9X c #64C5BB",
"0X c #76C8B6",
"qX c #5ABEC4",
"wX c #6BBCC3",
"eX c #5AC6C3",
"rX c #5DD4CA",
"tX c #64C5C4",
"yX c #6AD6CA",
"uX c #77D6CA",
"iX c #76D0CD",
"pX c #79D9D7",
"aX c #71E4D5",
"sX c #7AE5DB",
"dX c #73DBE3",
"fX c #7DE6E5",
"gX c #838D91",
"hX c #8AA1A2",
"jX c #85B5B0",
"kX c #90CCB5",
"lX c #ADC7BC",
"zX c #8FCBCB",
"xX c #8BD6CA",
"cX c #93D4CB",
"vX c #98D8CA",
"bX c #88D9D7",
"nX c #97D9D4",
"mX c #A3D3D7",
"MX c #84E4DB",
"NX c #8AE5DD",
"BX c #87E9DA",
"VX c #98E6D8",
"CX c #8FF0D3",
"ZX c #A4E8DA",
"AX c #91D8E2",
"SX c #B4DEEB",
"DX c #89E8E3",
"FX c #97E6E4",
"GX c #90F4EF",
"HX c #9AF5E8",
"JX c #ACEBE6",
"KX c #B4E7E8",
"LX c #A3F5E6",
"PX c #AFF0EF",
"IX c #A6F5F5",
"UX c #C5E8F5",
/* pixels */
"G E 6XbXbXcXcXcXcXcXcXcXvXnXcXzXcXjXl < j R 4XzXcXcXcXnXbXbX,XQ G G ;XxXbXxXxXcXcXcXcXvXcXvXcXzXvXvX3X7 1 V ^ kXzXcXcXnXxXxX9XQ ",
"|. XyXDXsXMXNXNXBXMXBXNXNXNXMXNXFXiXk < V E 0XNXNXbXDXDXDXfX<XW Q 3.%XfXfXBXDXMXNXNXMXMXbXMXNXDXDXbX6X7 g R.*XbXDXDXbXNXNXDX9XG ",
"9XyX%X$X@X.X@XXX@X@X$X.X.X.X.X@X$X|.1 O -XzX,XOX@X#X.X$X$X%XG 5 7.uX7X$X$X@X.XXX@X@X@XOXOX.X.X.X$X@XR.> ! mXzX+XXX@X.X@XOXOXQ 5 ",
"cXsX$X{.^.H.H.H.G.J.^.W.^.K.W./.].K < . hXSX<X<.G.J.G.Q.Q.).d $ &XHXeX{.^.J.H.L.G.J.^.W.^.W./.^././.F @ ! UXbX).W.J.J.G.Q.~.v $ ",
"cXMX$X^.^.W.H.H.K.J.^.W.^.W.W.^.{.P 1 O hXAX%X`.U.U.U./.~.L.7 $ ^ HXeX{.^.W.W.H.H.K.J.W.W.^.W.^.(.(.F # M PXbXoX(.U.].^.~.).A @ ",
"cXMX@XJ.^.^.W.H.K.K.^.^.W.W.W.^.(.I 1 X 5XDX%X1.J.U.[./._.T j $ 7.HXeX}.^.^.Q.H.H.J.^.^.W.W.Q.W.(.(.F < M IXpX'.G.U.[.[./.L.v @ ",
"xXNXXXK.^.!.W.G.K.J.^.W.G.G.I H.^.I 1 X 3XDX#XQ.J.].U.K.P.Y s @ &XLXeXT.G.^.W.G.K./.K.W.W.G.U H./.{.F < R IXaX'.G.].U.J.H.P.v @ ",
"cXNX@XK.^.W.G.H./.].^.G.H.H.U L./.K < X :XDXXXK K.].].K.P.Q k # &XLXeX_.J.^.G.U H.[.^.^.W.H.F.U /.K.G # V GXsXP.K ].].K.H.Y v # ",
"cXDX@XU.J.G.H.Q.(.{./.K.Q.W.G.H.L.L : . -XFXE 4 S T.).T P.W j $ 7.HXrX}.J.G.H.L.W.(.(.K.H.^.W.G.F.I.A @ ~ PXxXk s F.}.).P.Y v @ ",
"xXNX$XJ./.H.L.H.(.{.^.K./.(.G.H.L.L : . gXnXM : x D.Q L L W j 1 7.HXeX}.J.H.H.L.^.{.(.I./.(.W.G.I.P.v $ ! mXzX5 4 L L W W W v # ",
"VXNX#XF.^.(.Q./.(.^.^.^.^.^.G.G./.K &   C 4.r O 4 f 4 5 s s j l :XLXtX}.G.^.W.H.K.^.^.^.^.^.J.G._.K.c X 3 *X4.& : s 4 4 4 s s l ",
"nXVX,XF.(.!.W./.^.K.J.^.^.J.J.J.(.P 1 X l 3.e $ > ; ; ; : 5 k R 5XIXwXR.J.(.!.Q.H.K.J.^.^.].J.J.[.(.H & 3 3.C & O ; ; > ; 4 6 V ",
"nXNX#X/.^.W.W.H.J.^./.^.].^.J.^.[.P & X 6.kXjXhXgXgXz.z.E.gX~ 8 8.lX-X^ R D.Q.H./.^.^./.^.^.^.J./.^.F & t uX0XkXjX6X5X5X4X6X&Xk ",
"nXMX$X^.^.G.H.H.].{./.W.^.^.J.^.^.K <   >XZXCXjX..' [ ) ......_ ' ..} ' ( q F.U K.(.^./.J.^.^.K.[.^.Z # ~ JXCXZXCXfXDXCXBXDX5X> ",
"cXsX$X^.W.G.H.G.^.{.^.K.K.H.J.K.[.K &   >XCX7X^ [ [ ] ] ] ] ] ] ] ] ] ] ) 0 Y F./.^.^./.J.H.H.K./.^.Z @ ! ZXBX+XOXoXOXoXOX.XW > ",
"vXsX.X^.J.G.H.H.^.].^.^.H.F.F.I.J.K <   >XZX%XV [ ] ` ] ] ] ] ] ] ` ] ] ) 0 L P.L./.^.H.L.P.H.F.K.^.Z @ n JXMX'.<.(.(.<.<.~.A O ",
"nXDX$X^.^.^.G.H.J.K.^.^.G.H.H.H.^.P <   -X:.{ } ` ] ] ` ` ] ] ] ] ` ] ] [ ' { } { { { { { { R H./.^.F # D PXFX`.G.U.U.J.J.~.v + ",
"cXBX$X^.^.J.K.H.H.F.J.^.W.G.G.W.^.P 1   -XX.] ` ` ` ` ` ` ` _ ` ` ` _ _ _ ` ` _ [ ] [ [ [ [ R /.W.(.K < ! UXAX.X^.U.T.T.I./.v @ ",
"xXBX#XI.U.U.Y.K.I F.K.K.[.^.G.).U L 1 O hXX.[ ' ) [ ' ' ) [ [  . .[  .[ ) [  ...| } } | ..} E H.).P B : ! UXNX'.^.K.T.F.H.Q.c # ",
"kXxXXXP.T.U.}.I.G.G.I.I.K.U.K._.T J 1 # >Xp.9.9.9.9.9.9.t.V.Z.Z.Z.Z.A.9.9.g.A.S.Q I K.I.K.^.J.I.2.Y B 1 M KXbXoX!.G.I.K./.Q.N & ",
"b n f z F.U./.W.1.Q.G.J.K.[.Q.I z k 6.:X:Xt.w.w.q.q.q.+.w.M.M.M.B.B.m.$.&.g.B.A.J <.G.H.J.J.K.U F 6 v *X3X;XXX~.!.^.[.^./.U Z @ ",
"* $ > 6 G Y U <.1.1.W.W.K.I.~.<.6 7 t ~ t u.s.a.#.#.r.r.s.m.m.m.m.B.m.w.&.f.B.Z.a t t i i i Y H.c O d iXeXT Q.!.(.].^.^.[.I.A O ",
"=X>XjX=Xr 4 1 6 J <.!.!.Q.~.1.<.6 - o.#.o.b.N.n.+.+.s.n.n.m.m.m.m.m.m.$.$.f.B.B.v.x.x.x.x.x.4.W.c O d bXyXU I ^.^.J.U.Y.[.Y.S ; ",
"xXCXCX0X7 > > 5 B H P P P P 1.,.s t o.&.o.b.B.n.+.#.s.n.n.m.k.m.k.m.k.u.&.g.N.n.M.M.m.B.M.b.6.J c : m iXtXH.H.Y.[.Y.Y.T.T.U.S : ",
"xXBX;X;X0X4X4X>Xk 6 s 4 s 4 6 w R.8.y.e.+.b.M.n.@.#.e.e.r.m.M.m.m.m.m.j.j.f.e.e.k.m.m.M.m.m.k.h.8 :X3X<X.XW.J.J.].].].K.[./.F : ",
"vXVX+X3.aXsXLXvXb @ O O O O O O 4XkXy.e.@.b.B.n.o.%.&.#.#.m.m.m.k.m.k.m.B.s.@.o.n.B.M.m.m.m.M.x.q FXpX XG.^.].U.].].].].(.!.Z : ",
"mXHX+X,.%X1X2X3X3X=X=XE.&X^ > + -XkXw.q.+.b.N.b.$.y.$.$.y.k.m.k.m.m.m.n.n.s.@.@.b.N.n.b.b.N.S.x.q JXAX|.F.H.J.K.U.].^.^.!.,.F @ ",
"nXDXOX<.<.!.Y  XiXDXfXdXsXzX8 . gXkXw.e.&.y.$.y.N.b.n.n.b.m.m.m.m.m.m.y.y.&.&.#.e.y.y.y.y.y.8.8 ! SXnX|.T H.K./.J.^.G.G.<.H j O ",
"mXDX$X^.W.Q.L.T #X%X+X+X+X+X3 O -XjXy.r.r.e.e.u.Z.m.k.m.m.m.k.m.m.m.m.w.@.#.q.#.q.#.#.q.q.w.~ : n SXxX).I W.W.^.^.W.1.2.G e @ + ",
"AXdX@X}.T T T T W.1.,.,.,.B 1 # >XlXt.a.r.r.r.r.B.m.m.k.m.k.m.m.k.m.k.$.+.+.+.+.+.+.q.r.a.9.t & n ZXsX2.1.W.!.!.!.!.T L m $ . + ",
"%X%XD.f s d z z z z j j e j j w 9XxX4.e r l k n A.M.m.m.m.m.m.k.m.m.m.n.n.n.n.B.n.n.c.e e r w r 4.HX0XJ z j z z c z j s 5 $ $ d ",
"{.[.f ; ; : ; ; ; > < < < 3 B N 3X0Xe X # $ ; - A.M.m.m.m.m.m.m.m.m.m.B.B.V.n.n.V.C.c.2 1 2 w J <XHXkX7 O : ; > : : : > @ @ 3 G ",
"^.K.*X7.6.6.7.&XE.E.E.&X&X*X2XV a u 9 9 9 9 9 u g.f.d.;.;.;.;.;.f.f.f.f.f.i.i.l.l.l.l.7.&X&X,X9X9XLXkX2 : j k ^ =X&X7.7.7.&X*XL.",
"I.'.uXHXCXCXCXHXJXJXFXIXIXJXHXi q.a.r.r.r.r.a.e.#.+.=.` ` _ ` ' o.w.+.#.o.a xXNXZXPXPXHXFXIXIXGXHXHXjX2 3 2.+XMXLXJXLXLXLXIXpXR.",
"<X2X8X8X7X7X8X6XtXwXrXeXqXwX6X- +.e.&.&.&.&.e.#.q.q.=.[ ` ] ` ' 9.9.w.e.#.i 1X9X9XwXtXtXeXqXqX6XeXtX&X2 8 3X2X8X9XtX9XtXtXtX,Xm ",
"xXpX$X`.~.2.2._.).}.c.v.v.v.v.h.e.#.&.&.&.&.&.&.q.w.=.] ` ] ] ` ' [ | &.q.+.O.o.$.O.0.c.v.v.v.v.v.v.v.8 ! UXbX X~._.I.).`.'.A ; ",
"cXsX$X^.W.G.G.H.K.H.A.V.B.B.B.j.e.#.e.e.r.e.q.&.&.w.=.[ ] ` ` ` ` ` ` +.w.e.e.q.e.#.u.Z.B.B.M.B.M.M.A.9 ~ UXnX'.G.J.J.G.W.Q.v O ",
"cXDX@X^.^.^.G.H.K._.C.B.m.m.M.j.u.u.@.@.i.r.e.#.&.w.=.` `  .....` ` ` @.@.%.%.#.q.#.u.N.b.b.M.m.m.m.A.8 R IXdX'.^.U.]././.L.v @ ",
"cXMX@XJ.(.W.W.H.K._.A.B.m.N.m.m.A.c.* o >Xp.e.#.q.w.=.] [ V.Z.N. .] ` _ _ _ ` _ %.q.#.$.@.w.b.m.m.m.C.t R HXaX'.G.U.].].H.L.v @ ",
"cXMX#XJ.^.^.G.H./._.C.B.m.m.B.m.B.x.* X :Xp.e.q.#.w.=.] ] m.B.m. .` ] ] ` ] ` _ #.q.&.q.&.r.n.B.B.m.C.t V GXdX'.G.].U.J.H.Y v # ",
"xXNX#XJ.J.^.G.H.{.}.C.V.k.k.n.M.V.c.$   :Xp.r.q.e.w.=.] [ m.B.N. .] ` ] ] ] ` _ &.r.r.t.w.r.n.n.v.C.C.t M HXbXQ K Y.}.I.L.D.A @ ",
"cXDX@XJ.K.H.H.H.(.{.S.V.m.V.B.h.6.E O . -X-.| ' ' ' [ ] ] [  . .[ ] ] ] ] ` ] [ C 3.3.E 3.t y.y.t 6.~ $ ! LXzXr s D.I.P.Y Y v @ ",
"nXNX#XJ.^.W./.Q./.`.c.b.b.b.b.h.E L $ . ~ X.` ` ` ` ` ] ` ` ` ` ] ] ] ] ] ] ] [ ! G L J J r o.+.* L.N # b 0X:X2 : z x x x x k 6 ",
"VXNX,XP.(.(.W.H._.}.a p p p p i 2.V / / / ' ] ] ` ] ] ] ] ] ] ] ` ] ] ` ] ] ` ] / / / y y u q.+.- ^.F X 3 ,.B & O O O O O : 6 V ",
"nXbX#XK.(.(.W.H.K././.^.].^.H.K./.R ' [ ] ] ] ] ] ] ` ] ] ] ] ] ] ] ] ] ` ] ] ` ` ] | w.r.r.e.o.- ^.F & e *X4.t b k b b b x z m ",
"nXDX#X^.^.W./.H.^.^.^.K.^.^.J.F._.D ' ] ` ` ] ] ] ] ] ] ] ] ] ] ] ] ] ] ] ] ] ] ] ` | 9.q.q.e.@.- ^.Z # t ZXCXZXnXFXVXCXnXDX5X7 ",
"vXBX$XJ.^.G.U H.].{./.G.J.^.K.8 { { ] ] ] ` ` ] ] ] ] ] ] ` ] ] ] ] ] ] ] ] ] ] ] ` ' 9.q.q.q.o.- /.F @ ~ LXLXxXuXyXrXyXyXpX,X$ ",
"nXBX@X^.^.H.G.H.^.{.^.K.H.K.F.% ( ` ] ] ] ] ] ] ] ] ] ] ] ] ] ] ] ] ] ] ] ] ] ] ] ` | 9.q.q.e.@.- G.F # M JXBXoX~.{.oX<.`.).A O ",
"vXsX$X^.^.G.H.H.H.^.^.W.H.T Y 9 ( ] ] ] ] ] ] ] ] ] [ '  .| ' '  ...' [ ] ] ] ] ] ` ' 9.q.#.e.+.- ^.Z # M KXNX'.^.].U.G.W._.A O ",
"nXBX$X(.^.G.G.H.K.K.^.^.4.a.r.r.9.+.| ` ] ] ] ] ] [ / W _.L.d , =XFXE | ] ] ] ] ] ` | 9.&.#.e.+.- !.F # ! SXAX`.^.U.T.T.[.~.A o ",
"kXBX$X{.J.H.H.I.P.T.J.^.4.a.e.e.q.#.[ ` ` ] ] ] [  ./ R.}.H.s $ ^ VXE | [ ] ] ] ] ` | w.e.e.q.+.- W.F : M PXNX'.J.U.T.Y.[.I.v O ",
"0XaX.XI.L.L.I.P.F.T.U.].3.a.#.#.q.&.| | | X.} } } { / D.}.I.j O 7.CXQ { } } } } } } { >.0.0.0.O.7 H B < R IXpX XG./.[.{.[.K.Z @ ",
"=X*XD A D.J.~.Q.I.P.^.^.3.s.e.e.&.q.#.#.a.>X*XW W Q Y K.[.I.j @ M :XR n D Q E E W R.W 2.2.2.T Y G c m D *X0X6X2.1.^.^.J.Y.}.A @ ",
"$ $ ; f L I.~.Q.I.P.H.!.4.t.e.q.&.&.&.q.a.C H H.~.{._.P.).T k o o o + ; f T ).`.L.R.L.1.~._._.2.v $ n zX0X3.2.U Q.W.G.Y Y H.G # ",
"8 r 8 h A F K P Y P.Q.!.Q.= = y +.&.&.q.r.u u u (.(./.L.}.}.k   * 7 g g x S F P U Y H.1.!.H.).~.Z O g bXiXY U Q.(.(.(.H.P.}.G X ",
"kXkXnXwXf : : 4 G P.2.<.2.Y T = +.e.#.q.e.q.o.y.(.(./.P.|._.k $ ^ vXnXAX&X4 : : s Y 2.<.2.Y ).<.v O d bXrXP I W.^.!./._.I.).A O ",
"vXCXBX6XW A m m m x x l c v N N *.i.l.5.5.>.>.5.(.(./.P._.T j o 8.LXCXpX2Xm m D D x x z v v v N v h R tX1XH.G.K.^.(.^.L.L.L.v X ",
"xXuX+X.XyXpXNXzXh ; ; @ : < : < >XvX$X~.^.].F.K.J.W.W.Q.P.# O X 6.CX9X'.%XaXpXbX4Xg + ; # < & # D mXpX XK.^./.K.J.^.W.Q.).I.v @ ",
"CXCXXX).eXrXyX6X^ h h g b b # O 3XMXXXF.^.].Y.T.^.^.I I _.    X 6.LX8X2..XrXyXpX3XD h 8 7 b 7 @ m IXpX).G.].[.Y.K.J.W.I 1./.Z # ",
"vXxXXXP.R.).Q *XwXAXmXZXVXjX8   3XsXXXP.J.].].T.K.J.W.Q.(..   o 7.LX9X3.L.R.R.3.*XbXFXVXmXvX-X$ m GXdX|.G.].].T.Y.K.^.W.W.(.F O ",
"vXFX@X1.<.<.T  XpXHXGXHXZXvX8 % -XmX*XY H.K.}.K.K.^.W.1.,.H 6 > =XIXtX~.1.<.2.Y *XDXIXGXVXHX4X, ! KXnXR.L.H.K.[.K.^.G.W.1.,.c @ ",
"nXFX$X!.!.Q.T ).<X7X1X1X1X*X2 O -XnX XI 1./.^.^.^.W.U Y l 3 $ > E.IXeX~.1.!.Q.Y |.%X1X%X1X1X^ $ M SXbX|.I W.^.^.^.W.Q.2.J r 2 + ",
"pXdX.XY K Y Y K U 1.H H ,.B 1 # :XVX'.,.P U I G.1.U K m 2 . + 5 ,XDXqXF.Y Y Y K P I H ,.,.J l < C LXbX2.H I W.I I I K L m $ . + ",
"<X%XS s s s s s s j w w e j j j 5XNXJ j j s s j z j s 6 ; + 5 A R.%X Xz s s f f s s w w w w j l 4.LX0XN j s z s j z j 6 2 @ > d "
};
