/* XPM */
static char *result[] = {
/* columns rows colors chars-per-pixel */
"64 64 254 2 ",
"   c #080402",
".  c #170904",
"X  c #17120F",
"o  c #191414",
"O  c #230C04",
"+  c #380F05",
"@  c #2B1306",
"#  c #251109",
"$  c #291408",
"%  c #38180A",
"&  c #251714",
"*  c #2B1B15",
"=  c #2D1D1A",
"-  c #341C15",
";  c #312412",
":  c #3A251A",
">  c #2D2423",
",  c #352826",
"<  c #3B2D2B",
"1  c #3C2F31",
"2  c #451E0D",
"3  c #5C1910",
"4  c #47230F",
"5  c #4D3903",
"6  c #482715",
"7  c #532916",
"8  c #5C2C16",
"9  c #5E2F19",
"0  c #4D3113",
"q  c #5C3218",
"w  c #6C2812",
"e  c #612F18",
"r  c #62311A",
"t  c #6C361C",
"y  c #6B381A",
"u  c #71391E",
"i  c #432C24",
"p  c #45322C",
"a  c #5A3827",
"s  c #483937",
"d  c #563B32",
"f  c #683A26",
"g  c #753C22",
"h  c #673E31",
"j  c #564200",
"k  c #6E4F10",
"l  c #5A4537",
"z  c #7D4226",
"x  c #774728",
"c  c #734B2F",
"v  c #684336",
"b  c #453D4F",
"n  c #5A4948",
"m  c #5F504F",
"M  c #694E49",
"N  c #76534A",
"B  c #6B5655",
"V  c #6B5756",
"C  c #765C59",
"Z  c #7A605E",
"A  c #766060",
"S  c #7C6363",
"D  c #A80F02",
"F  c #8F2210",
"G  c #AB280A",
"H  c #B62605",
"J  c #D21A07",
"K  c #FD0500",
"L  c #FF0C00",
"P  c #EA1504",
"I  c #EC1C01",
"U  c #FF1100",
"Y  c #F81905",
"T  c #F31D11",
"R  c #D03108",
"E  c #EB2503",
"W  c #F92606",
"Q  c #F4230D",
"!  c #F52B0D",
"~  c #F83401",
"^  c #FF3500",
"/  c #F92712",
"(  c #FF2D14",
")  c #E63312",
"_  c #FD3517",
"`  c #FF341C",
"'  c #FF3727",
"]  c #9D7501",
"[  c #A27701",
"{  c #A47B01",
"}  c #AB7D01",
"|  c #A7780D",
" . c #AA7A0A",
".. c #B17401",
"X. c #B07E00",
"o. c #834629",
"O. c #844729",
"+. c #8C532A",
"@. c #94522F",
"#. c #894A32",
"$. c #8A5439",
"%. c #985535",
"&. c #9B5534",
"*. c #A65C39",
"=. c #A55D3B",
"-. c #B15835",
";. c #956230",
":. c #AC623E",
">. c #B76F37",
",. c #DF5000",
"<. c #FF4201",
"1. c #F4430D",
"2. c #E15200",
"3. c #FC4912",
"4. c #FE6E18",
"5. c #CB5B3B",
"6. c #F54427",
"7. c #C3793E",
"8. c #885948",
"9. c #955C49",
"0. c #98644E",
"q. c #86645C",
"w. c #AD6442",
"e. c #A66749",
"r. c #B16642",
"t. c #B56944",
"y. c #BA6C46",
"u. c #B66A48",
"i. c #BB6E49",
"p. c #B97745",
"a. c #BE704B",
"s. c #A66659",
"d. c #B87456",
"f. c #B07058",
"g. c #886B66",
"h. c #997369",
"j. c #987670",
"k. c #A77665",
"l. c #AE7D71",
"z. c #FF4E40",
"x. c #C76A45",
"c. c #CE6C43",
"v. c #D06D45",
"b. c #C7764B",
"n. c #C4744D",
"m. c #D5754D",
"M. c #C57651",
"N. c #C87750",
"B. c #C67953",
"V. c #C97953",
"C. c #C57B59",
"Z. c #CB7D5A",
"A. c #C47D61",
"S. c #DD7B65",
"D. c #9B8C00",
"F. c #998B04",
"G. c #A58602",
"H. c #AC8200",
"J. c #AD810C",
"K. c #B38300",
"L. c #BA8804",
"P. c #B08B0F",
"I. c #B58715",
"U. c #B98430",
"Y. c #C58D09",
"T. c #C79203",
"R. c #D6970A",
"E. c #F68916",
"W. c #E89E16",
"Q. c #E9A71A",
"!. c #D68E39",
"~. c #FDAE28",
"^. c #FDB43C",
"/. c #B6804B",
"(. c #B0856C",
"). c #AC867B",
"_. c #B78876",
"`. c #B48E7A",
"'. c #B7917A",
"]. c #C68657",
"[. c #CD815E",
"{. c #D18352",
"}. c #D5AE4D",
"|. c #DCB347",
" X c #FAAB45",
".X c #EBB445",
"XX c #F3B545",
"oX c #FFB642",
"OX c #FFBA45",
"+X c #F5B549",
"@X c #F4BA4A",
"#X c #FDBD4A",
"$X c #EBBB53",
"%X c #FABB53",
"&X c #CE8261",
"*X c #CB876B",
"=X c #D38666",
"-X c #D48B6C",
";X c #C98B75",
":X c #D58D72",
">X c #CA917A",
",X c #DB957B",
"<X c #E3886A",
"1X c #E79779",
"2X c #FEC44B",
"3X c #FFD44F",
"4X c #FDCC53",
"5X c #F8C955",
"6X c #FAD456",
"7X c #FFD966",
"8X c #747087",
"9X c #897D95",
"0X c #AB8985",
"qX c #B58C88",
"wX c #BB9489",
"eX c #BE9D98",
"rX c #C99889",
"tX c #D89B85",
"yX c #D3998B",
"uX c #C79C97",
"iX c #CB9E96",
"pX c #E29E85",
"aX c #E69D87",
"sX c #D7A88E",
"dX c #CDA196",
"fX c #CDA199",
"gX c #D9A596",
"hX c #D2A49B",
"jX c #DCA99D",
"kX c #E4A288",
"lX c #E4A18A",
"zX c #E4A692",
"xX c #E9AA95",
"cX c #E6AD9E",
"vX c #E9AD9B",
"bX c #EDB29F",
"nX c #CEABB1",
"mX c #E6AFA1",
"MX c #E8AFA1",
"NX c #E9B3A5",
"BX c #F6B8A6",
"VX c #EFBCB2",
"CX c #D6C8B5",
"ZX c #FCC5AC",
"AX c #FFCAAE",
"SX c #ECCEB0",
"DX c #FCCAB3",
"FX c #F7DBBA",
"GX c #F9DAB9",
"HX c #C9AEC1",
"JX c #D3B7C9",
"KX c #D1B6CA",
"LX c #F5D9C1",
"PX c #FCE5CB",
/* pixels */
"s.k.qXHXKXKXKXKXKXKXKXKXKXKXKXKXJXHX9Xb 1 C l.nXKXKXKXKXKXKXnXqXs.s.l.uXHXKXKXKXKXKXKXKXKXKXKXKXKXJXnX8Xb b 0.qXnXKXKXKXKXKXHXuX",
"e.&XtXxXcXcXcXMXMXcXcXMXMXmXcXmXMXgXq.> & 8.:XgXmXmXmXmXMXMXyXf.e.C.-XtXmXMXcXcXmXmXmXmXvXvXmXmXMXMXiXB = f f.tXxXMXcXmXMXmXgX;X",
"8.>XaX:X-X-X-X=X-X=X-X-X-X=X-X-X-XA.c $ = h.aX,X-X-X-X-X-X:Xd.h h _.aXaX:X=X=X-X-X-XS.:X-X-X-X-X-X-XA.h = N >XkX:X-X-X=X-X-XA.$.",
"B iXaXZ.a.n.a.b.b.n.M.n.M.n.n.n.n.u.g # 1 0XlXS.i.n.n.M.N.N.&.6 < 0XmXtXC.n.n.n.n.M.d.x.M.n.n.n.N.N.r.e = C iXxX&Xn.n.n.n.n.:.g ",
"B iXlXZ.i.n.a.b.x.n.n.n.n.n.n.n.n.t.u # < 0XgX=Xx.a.n.n.n.n.%.2 1 0XmX,XV.x.n.n.x.n.n.d.n.n.M.x.n.N.:.9 = Z dXxXA.x.n.n.n.n.:.t ",
"V iXlXZ.n.n.b.x.n.n.n.n.n.n.n.b.n.t.g $ 1 0XzX-Xn.n.M.n.N.N.%.4 1 0XmX1XC.n.n.n.M.n.M.n.n.M.M.n.N.N.w.r = A dXxX&Xn.n.n.n.M.r.t ",
"V iXaXZ.y.n.n.n.n.n.b.n.M.M.n.n.M.t.g # < 0XzX=Xa.n.n.n.n.N.*.4 p qXmX,XC.n.n.n.n.n.n.n.n.n.n.M.n.N.r.q = S iXvX&Xn.n.n.M.M.r.t ",
"B uXlXZ.n.n.n.n.b.n.b.n.n.M.a.n.M.t.t # > 0XyXe.@.:.n.N.N.N.&.4 1 qXmXaXC.n.n.n.n.n.n.n.n.n.M.n.N.N.r.r = S uXyXe.*.y.M.N.m.r.t ",
"V iXlXZ.a.x.n.n.n.n.M.n.n.M.a.b.N.r.g # < l.).h 3 @.u.n.n.n.%.2 1 0XmXtXV.n.n.n.n.n.n.n.n.n.n.n.M.N.r.9 = q.rX).a t :.n.n.n.:.t ",
"q.hXkXZ.n.n.n.n.n.n.M.a.a.b.M.B.n.u.g O , j.g.> . e O.%.#.@.g 7 n rXMX,XC.n.n.n.n.n.n.n.n.n.n.N.M.N.w.8 * C l.g.& % g @.@.@.o.w ",
"_.vXpX].a.n.n.n.n.n.a.M.b.M.M.M.N.u.g @ - 9.$.#   . + % 2 + 3 t 9.gXNX,XV.n.M.n.n.N.n.n.n.n.n.n.n.N.:.e $ h s.c X . @ % % + 2 7 ",
"_.cXpXC.x.n.n.n.n.n.M.n.a.M.a.b.N.r.g O * $.9.d , , , , < p p h s.jXNX1XC.n.n.n.n.n.n.n.n.n.n.n.n.N.r.f $ f e.0.p , i < < , i a ",
"0.gXpXZ.n.n.n.n.n.n.n.n.M.n.n.n.N.t.u O = h.rXl.s.s.s.s.s.s.9.g #.S.aXS.5.u.n.n.n.N.M.n.n.N.n.N.n.N.r.e - N _.yX0Xl.l.j.l.0Xj.N ",
"V iXlXZ.a.b.n.b.n.n.M.n.M.n.n.n.n.t.u # , 0XNXrX/ T T K T T P P P T Q T P F n.n.n.n.n.N.n.n.n.n.N.N.r.e = C fXVXVXNXNXbXmXNXrXq.",
"V iXlXZ.b.a.M.M.M.n.N.n.n.N.n.n.N.u.g # 1 0XmXA.W U L L U U U U L Y U U P F x.M.n.n.n.N.n.N.N.n.n.N.w.9 = A hXMX,X-X:X:X-X,XA.c ",
"V fXlXZ.a.a.M.a.n.n.n.n.n.n.n.n.N.u.g # 1 0XzXn.Y U U L U U U U L L L L P F x.n.N.n.N.x.n.x.n.M.n.M.r.e = A iXxX-XC.V.C.C.C.u.g ",
"V iXaXZ.n.n.n.n.N.n.n.N.n.n.n.N.N.t.u # , 6.) / U U U U U U U U U L U U U I ! ! ! ! ! ! ! / c.n.N.N.t.e = S fXxX&Xn.a.a.n.n.:.t ",
"V fXkXZ.n.n.n.n.n.n.n.n.n.n.n.M.N.y.u # , ) L L K K L L K K K K L K L L K L L K Y Y Y U Y U 5.n.n.N.t.r = S uXvX[.n.n.n.n.n.w.y ",
"C hXxXZ.n.n.M.n.n.n.n.n.N.M.n.n.N.y.g # > 6.Y P P Y P I Y Y Y T T Y Y Y I Y T T W W W ! W ! c.n.n.N.t.9 - C iXxX[.n.n.n.n.N.r.t ",
"n j.l.w.:.i.n.M.V.n.n.n.n.n.n.n.y.&.g , l P.D.F.D.D.D.F.F.4X6X4X4X4X6XF.F.Q.6X7Xp.N.n.n.N.n.b.b.a.r.@.f p g.rXpXZ.n.n.n.n.n.r.t ",
"> d h r O.r.N.N.n.n.n.n.n.n.n.n.&.u v N h.I.L.G.G.H.H.{ J.OX#XOX#X#XOXJ. .W.2X6Xe.B.M.a.b.a.b.M.r.O.t v g.l.;X-XV.n.n.n.n.N.r.u ",
"o > , i f @.=.=.r.n.N.N.n.N.N.n.O.; 0 l l Y.R.T.} } K.Y.Y.^.OXoXoXoX^.J.X.W.#X4Xc k x c x z y.M.*.y - B rXtX&Xn.n.M.n.n.n.V.w.u ",
"1 A j.g.M 7 4 6 o.:.N.N.N.N.N.M.O.0 ] { ] .X2X.X{ { R.XX+XOX^.oXoXOXoX} { Q.%X#X.X|..X|.|.}.{.M.*.7 # V jXaX&Xn.n.n.M.b.n.M.r.u ",
"B uXVXsXq.s , , f O.*.&.&.&.*.&.x q [ K.] .X#X.X{ } R.XX+X^.oXoX^.oXoXJ.K.W.@XXXOXOXOXOXXX^.>.:.#.f p q.tX,XZ.n.b.M.n.n.M.M.w.u ",
"B nXBX,X(.j.j.g.M 7 4 2 2 2 2 7 h 8.] K.{ .X#XXX[ } K.L.L.^.OX^.oXoXoX~.~.W.L.H.^.OXOXoXoXoX X!.6 v g._.;X=XV.n.n.n.M.b.n.M.r.u ",
"B iXlX-X:XyXjXuXq.p = = = = # X s (.J.K.] .X#XXX[ } } }  .oXOX^.^.oXoXOX+XR.} ] XXOXOXoXOXoX2X|.6 M rXtXZ.N.N.n.n.n.b.M.n.N.r.y ",
"V uXpX&X=X,XpXtXl.g.g.A A B s o 1 (.G.K.{ .X@X.X| J. . .J.oXoXoXoX^.oX+X@XR.[ [ .X$X@X@X.X$X5X}.: C hXlXZ.n.n.n.n.M.b.n.n.N.r.u ",
"V uXlXZ.V.V.V.[.,XgXjXmXmXuXZ = s (. .K.H.J.| I.$X.XXXXX.XoXoXoXoXoXoXJ. .X.X.} J.J.J.J.I.| '.c , V iXaXZ.n.n.N.M.M.M.N.M.i.@.8 ",
"V fXlXZ.V.N.b.V.=X1XaXpX1X*X8.# s (.J.L.K.K.K.P.5XoXoXoXoX^.oX^.OX^.OX .{ H.H.H.H.H.} K.K.J.i.a > V fXlX&XN.N.N.V.V.V.V.b.@.7 $ ",
"C rX>Xu.=.*.*.=.:.w.w.w.t.9.f % n (.P.T.L.L.L.L.%XoX^.oXoXoXoX^.^.OX^.{ ] { { { ] ] { L.T.H.@.7 : q.hXtXu.*.=.=.=.=.=.=.&.y @   ",
"0.*Xs.f 8 e e r 8 9 8 9 e 8 8 8 8.dX'.+.k y y k 6XOXoX^.oXoXoXoXoXoX^.@X+X@X@X@X@X2X|.y r r e 7 x l.hX_.c e 9 9 r r 9 9 8 % . . ",
"n.a.c 6 = = * * * * = * * : 9 $.d.wXh.: . O $ : 3X#XoXoXoX^.oXoXOXoXOXOX#X#X@X@XXX5X}.* ; * : x f.tXmXg.* . O $ * - = = * & & 7 ",
"V.a.e.q.S S S g.g.S S g.g.g.l.c k k k 5 5 5 5 k Q.Q.E.4.4.4.4.4.W.W.W.W.W.I.p./.p././.S S g.j._.zXBXNXS o @ 7 c q.g.S S g.g.g.s.",
"u.].,XhXjXjXjXjXjXhXjXhXjXjXjXa J.T.L.K.L.L.L.K.} { ,.L L K K I ] { { } ] c yXsXjXjXjXjXjXjXcXMXNXVXjXC = 7 9.*XsXjXjXjXjXjXhX;X",
"9.;XpXkXlXlXkXlXzXlXlXlXzXlXtXi { L.X.K.X.X.X.X.} G.2.U L U U I D.G.D.H. .k ,XlXaXlXlXaXkXlXkXtXkXlX;Xv = v (.kXaXaXlXaXaXaX,Xf.",
"C rXlX=X[.[.[.[.Z.A.%X+X X X XW.K.} X.X.} K.K.} X.G.2.U U U U U I Y W } H.]  .J.| | I.%XXX X X X X X@Xc = N yXxX-XA.Z.&X&X=Xd.c ",
"B iXpXV.y.n.n.n.n.n.4X2X#X#X#X~.K.} L.K.L.X.X.X.X.G.2.U U L L K U K K { G.H.H.K.K.X.I.5X#X#X#X#X#XOX6Xx ; S hXxXZ.a.n.b.n.n.:.t ",
"B iXlXZ.n.a.x.n.V.N.4X#XoX#X#X~.I.I.[ } H.L.K.X.X.G.2.U L / / / U L U [ } ....} H.} I.@XXX.XOXoXoXoX6Xc = S fXxX[.n.n.n.n.n.:.t ",
"V iXlXZ.n.n.M.b.M.M.4X#XoXoXOXOX4X}.7 $ p I.L.K.X.G.2.U Y 2X4X#X/ L L K K K K K ..G.} | ] J..XoXoXoX5Xk = A dXxX&XN.n.n.n.M.r.u ",
"V hXlXZ.a.b.b.M.b.M.4X#XoXoXoX^.2X|.6 $ < I.K.} H.G.,.U U ^.#X X/ U U U L U L K } H.} H.H.L.+XoXOXoX5Xx = A dXsXB.a.b.N.n.M.r.u ",
"B iXlXZ.n.n.n.n.M.b.6XOX^.OX^.2X2X|.6 # < P.P.G.} G.2.U U oXOXoXW U U U U U L K X.L.L.L.L.L.@X@X.X2X5Xx = S uXrX9.%.t.N.N.V.t.u ",
"C iXlXZ.a.n.n.n.M.B.6X2XOX#X2X!.{.p.r # , ) Y E I I Y L L / / / L L L U U U U Y -.7.7.7.p.k I.J.k {.a.f = C wXl.6 e *.y.t.y.*.y ",
"k.jXtXC.n.n.n.n.M.b.$X.X.X^.|.U.b.r.t + - E U L L L L U L L L L U U U U L U U Y -.*.:.>.>.q } ] : M.u.e * c k.8.o $ 7 r 9 8 8 8 ",
";XmXlXZ.a.n.n.n.M.a.%.+.x +.;.c y.-.D D D P U U U U U U U U U L U L U U U U U U D D D k k k H.{ 0 n.r.9 $ f 9.$.: o & * * * - 7 ",
"l.mXpXZ.n.n.n.b.n.n.n.n.n.n.n.n.n.5.Y Y Y U L U U U U L U U U U U U U U U U U U L U E G.K.L.K.{ 0 b.w.9 $ h f.k.N n n n n n n h ",
"q.fXpXZ.a.b.n.n.n.N.n.N.n.n.n.i.n.5.Y U L L U U L U U U L U U U U L U U U L U U U K E D.H.H.K.[ 0 n.r.9 * B rXmXfXuXuXuXuXuXqXC ",
"m iXlXZ.a.n.n.n.n.n.n.n.n.N.n.t ) I U U L U U L U U U U U U U U U U U U U U U U U L E F.H.H.K.[ 0 n.r.e = S hXZXvXzXzXzXzXxXrX8.",
"B iXlXZ.a.a.n.n.n.n.N.n.n.n.a.3 P L U U U U U U U U U U U U U U U U U U U U U U U U I D.H.H.K.[ 0 M.r.r = S fXMX:X&X=X&X&X&Xd.g ",
"V hXpXZ.y.b.n.n.n.n.M.n.n.b.b.w J L L U U U U U L L Y Y Y W Y Y I W Q U U U U U U L I D.H.X.K.[ 0 n.w.9 = C iXxXA.n.a.n.n.n.:.t ",
"V hXlXA.n.a.n.n.M.n.n.n.7.R.L.L.D.G.W K U U U L U Y H >.b.b.&.4 p 0Xq.E U U U U U L I D.} X.K.[ 0 b.:.9 = A iXxXZ.n.x.n.b.n.w.t ",
"B hXxXZ.n.n.n.n.n.n.M.M.7.R.K.K.G...Y L L U U Y L Y J x.N.N.%.2 < qXq.Q U U U U U L E G.K.K.L.} 0 M.t.e = C fXxX&Xn.n.n.n.n.w.y ",
"m wX,XM.i.n.n.n.n.n.n.n.7.T.H.H.H.X.E E ~ Q / / Q T R u.N.V.&.4 < 0Xg.) Q Q T / Q Q ) P. . .J.| q a.:.r > g.yXlX&Xn.n.n.n.N.w.t ",
"1 B N x &.t.n.M.B.b.n.n.!.R.X.X.K.} } } T.].=Xm.x.x.x.M.M.N.&.4 & m C o.O.-.c.v.v.x.x.a.>.b.b.p.:.%.c h N k.rX,XC.n.n.x.n.n.:.u ",
"& , , 6 x =.i.i.a.d.b.p.p.T.K.} X.} } H.T.].V.V.M.C.M.V.M.n.&.4 X = : , 0 c u.y.i.M.N.B.M.M.B.B.w.x 6 N qXrX*XZ.a.u.u.7.n.n.u.g ",
").).).`.)._.`.`.'.'.`.'.(.; % j } X.} K.L.k k k qX`.`.'._.H G G G H H ).`.`.`.'.`.`.'.'.'.'.'.'.`.`.`.`.'.'.`.'.q.X . F G G '.rX",
"SXFXFXFXFXFXFXFXFXFXFXFXCXX   $ [ K.H.H.K.K. .I.PXLXGXLXDX~ ~ ~ ~ W ~ DXFXFXFXFXFXFXFXFXFXGXGXFXFXFXFXFXFXFXFXLX'.X . R _ 6.LXLX",
"BXZXDXAXAXAXAXAXAXAXAXAXdXX   # J.U.} ..} .... .DXDXDXAXBXR R R ' ' 6.BXDXAXAXAXAXAXAXAXZXAXDXAXAXAXAXAXAXAXAXDX'.X   R 6.z.DXDX",
"_ _ _ _ ` ` _ ( _ _ ` _ R     < CXAX1.~ ~ ~ ~ ~ ` _ _ _ ) O . : CXFXAX` / / ` ` ` ( ( ` ` ` ( ( ` ` _ _ _ ` ` _ H . X sXPXBX' 6.",
"^ ^ ^ ^ ^ ^ ^ ^ ^ ^ ^ ^ R .   < CXGX3.^ ~ ^ ^ ^ ^ ^ ^ ^ )     > CXPXGX_ ^ ^ ^ ^ ^ ^ ^ ^ ^ ^ ^ ^ ^ ^ ^ ^ ^ ^ ^ ^ H O   jXPXDX_ <.",
"<.<.<.<.<.<.<.<.<.<.<.<.R .   l LXGX3.^ ^ <.<.<.<.^ ^ <.,..   , CXPXPX3.^ <.<.^ <.<.<.^ ^ <.<.<.<.<.<.<.<.<.<.<.R . . NXPXDX3.<.",
"8.>X1Xm.5.v.v.v.<X1XaXaX,X).M > m uX1XS.c.c.v.c.v.c.c.7.>.#.e * n eXNX<Xm.c.c.v.m.<X1XaXaXaX-Xv 6 8.,X1Xm.c.c.v.x.w.w.].=XB.@.w ",
"V dXpXn.t.>.p.n.N.A.=X&X-X].c $ s rXzXA.y.y.p.a.a.a.x.y.@.8 % . 1 wXMX,XM.y.i.i.n.V.*X=X=X-Xf.7 , A iXtXM.y.y.i.i.i.i.x.p.O.2 . ",
"0.>Xd.$.o.o.o.z o.o.o.o.O.g t 7 N fXrXe.o.z z O.o.o.z z 8 . . $ v _.>Xf.#.o.o.o.o.g o.O.#.O.u 8 f h.hX>X$.O.o.z z z O.O.o.4 . . ",
"i.d.#.2 @ @ @ @ @ @ @ @ @ % 4 o.d.zX).d @ @ @ @ @ @ @ # .   . r =.Z.f.x % @ @ @ @ @ @ @ @ @ % w 9.rXjXh.i @ @ @ @ $ @ @ @ .   % "
};
