/* XPM */
static char *result[] = {
/* columns rows colors chars-per-pixel */
"64 64 252 2 ",
"   c #040104",
".  c #0B0002",
"X  c #0E0A06",
"o  c #03010B",
"O  c #0B020A",
"+  c #130101",
"@  c #1B0101",
"#  c #140906",
"$  c #13030A",
"%  c #180A09",
"&  c #1A100C",
"*  c #040311",
"=  c #1E1715",
"-  c #1F1919",
";  c #230100",
":  c #2B0200",
">  c #260B05",
",  c #340100",
"<  c #3A0000",
"1  c #370D07",
"2  c #26130C",
"3  c #2D130C",
"4  c #34130C",
"5  c #2B0E12",
"6  c #281615",
"7  c #231A15",
"8  c #2A1B16",
"9  c #231618",
"0  c #211919",
"q  c #371A17",
"w  c #2C221A",
"e  c #38241B",
"r  c #372724",
"t  c #3C2422",
"y  c #3E3626",
"u  c #460702",
"i  c #4D160B",
"p  c #481A15",
"a  c #6C0F01",
"s  c #730E00",
"d  c #790E00",
"f  c #6A1503",
"g  c #741400",
"h  c #781704",
"j  c #731A03",
"k  c #651D18",
"l  c #43241C",
"z  c #4B241A",
"x  c #56261A",
"c  c #69240B",
"v  c #75240A",
"b  c #672717",
"n  c #792A18",
"m  c #6A321A",
"M  c #78371B",
"N  c #4B1E22",
"B  c #432322",
"V  c #482A28",
"C  c #542B26",
"Z  c #473329",
"A  c #57342A",
"S  c #4C3133",
"D  c #573636",
"F  c #662B23",
"G  c #693428",
"H  c #773826",
"J  c #7C322B",
"K  c #683B36",
"L  c #55453A",
"P  c #62443D",
"I  c #74443A",
"U  c #654743",
"Y  c #774B47",
"T  c #6E524E",
"R  c #785248",
"E  c #7A5852",
"W  c #7F6156",
"Q  c #862B07",
"!  c #832C0C",
"~  c #822F10",
"^  c #823416",
"/  c #BB3505",
"(  c #B73808",
")  c #A93C14",
"_  c #B23B10",
"`  c #873726",
"'  c #FF1F00",
"]  c #D32C00",
"[  c #DC2C00",
"{  c #C73303",
"}  c #C83207",
"|  c #CB3C02",
" . c #D43400",
".. c #DC3400",
"X. c #D43B01",
"o. c #DB3A00",
"O. c #DF3B0A",
"+. c #EC2600",
"@. c #E42D00",
"#. c #EC2C00",
"$. c #F42600",
"%. c #FD2400",
"&. c #F32B00",
"*. c #FC2A00",
"=. c #E33300",
"-. c #EB3200",
";. c #E33B00",
":. c #E93A00",
">. c #E03A0D",
",. c #F23100",
"<. c #96471F",
"1. c #BE430B",
"2. c #A94216",
"3. c #BA4A16",
"4. c #BB511C",
"5. c #914830",
"6. c #875235",
"7. c #AE502A",
"8. c #B65527",
"9. c #C94307",
"0. c #C2430C",
"q. c #D84205",
"w. c #C64914",
"e. c #DB4619",
"r. c #E95010",
"t. c #F86A1C",
"y. c #F8731E",
"u. c #CB5935",
"i. c #CD643C",
"p. c #F86726",
"a. c #F46D2B",
"s. c #F4732A",
"d. c #EC6635",
"f. c #FB6332",
"g. c #F46A39",
"h. c #EB753C",
"j. c #F27237",
"k. c #8C514C",
"l. c #AC574A",
"z. c #936658",
"x. c #AD6453",
"c. c #A86455",
"v. c #8A6B64",
"b. c #996C67",
"n. c #9C6C65",
"m. c #977368",
"M. c #9A6E72",
"N. c #9B7673",
"B. c #A36D67",
"V. c #B46C62",
"C. c #A7756A",
"Z. c #B4746C",
"A. c #A87573",
"S. c #A47B74",
"D. c #AB7B74",
"F. c #A47B79",
"G. c #AA7C7D",
"H. c #B27573",
"J. c #D05D42",
"K. c #D3714A",
"L. c #D5774C",
"P. c #D87557",
"I. c #EA774A",
"U. c #F27348",
"Y. c #E97855",
"T. c #F17B57",
"R. c #D77C6C",
"E. c #ED7C60",
"W. c #BE825E",
"Q. c #A6877A",
"!. c #A5827D",
"~. c #AB827C",
"^. c #B58679",
"/. c #EB8259",
"(. c #F5835D",
"). c #FF985C",
"_. c #FFA05D",
"`. c #D28672",
"'. c #EB8467",
"]. c #F68766",
"[. c #F79467",
"{. c #FF9B63",
"}. c #FE946D",
"|. c #FF9C6B",
" X c #E98471",
".X c #F78D74",
"XX c #EA957A",
"oX c #FE9B72",
"OX c #FD9979",
"+X c #FFA464",
"@X c #FFA46B",
"#X c #FFAA6E",
"$X c #F3A377",
"%X c #FEA473",
"&X c #FFAB74",
"*X c #FFA57D",
"=X c #FFAB7B",
"-X c #FFB17C",
";X c #A87F82",
":X c #AC8282",
">X c #B58984",
",X c #BA9286",
"<X c #C4968F",
"1X c #FA9783",
"2X c #F59C8C",
"3X c #D3A496",
"4X c #D9A699",
"5X c #FFA482",
"6X c #FFAC84",
"7X c #F6A38E",
"8X c #FEA48B",
"9X c #FFAC8C",
"0X c #FFB285",
"qX c #FFB28C",
"wX c #FFB98E",
"eX c #E4AE9C",
"rX c #EDAC9D",
"tX c #FFAD94",
"yX c #F5A898",
"uX c #FFAD9B",
"iX c #E9B29C",
"pX c #FFB294",
"aX c #FFB29B",
"sX c #F8B598",
"dX c #FFBA9C",
"fX c #DAA9A6",
"gX c #D8B7A9",
"hX c #E4ACA4",
"jX c #EAADA3",
"kX c #E7ADAB",
"lX c #F4A9A3",
"zX c #F6A8A4",
"xX c #FFAEA2",
"cX c #E4B3AB",
"vX c #EBB5A8",
"bX c #FFB3A4",
"nX c #FFBAA4",
"mX c #F1B5A8",
"MX c #FEB4AB",
"NX c #F3BBAC",
"BX c #FDBAAB",
"VX c #F0B4B2",
"CX c #F5B4B3",
"ZX c #FCB5B2",
"AX c #F5BAB2",
"SX c #FDBAB3",
"DX c #FBB9BB",
"FX c #EBC6AD",
"GX c #FFC0A6",
"HX c #FFC0AC",
"JX c #FCC2B7",
"KX c #FAC4C4",
/* pixels */
"b H z.C.D.D.D.D.N.:X;X;X~.~.!.Q.~.:X:X:X:X;XG.M.G.:X!.Q.~.m.G F b J k.B.H.;XH.;XG.;XG.G.~.G.~.~.Q.Q.:X:X;X:X;XG.F.G.!.Q.^.m.I m ",
"c 5. X8XyXuXbXMXCXCXCXCXCXVXVXvXmXCXDXDXCXSXDXCXVXCXvXvXFXeXm u n l.R.zXxXxXMXZXCXCXCXNXvXNXvXNXNXNXCXmXCXMXMXCXAXNXvXvXFX4XR u ",
"6.R. X'.1XuXuXuXaXbXbXMXBXBXbXnXBXMXSXSXZXZXZXDXSXmXNXNX^.z.p u 5.R.R.E.1XpXuXbXxXMXnXMXMXMXBXnXBXMXMXZXMXSXMXMXMXmXmXiX^.v.Z 3 ",
"c.1XP.J.].8X8XtXuXtXtXtXtXdXpXpXbXbXbXxXxXZXZXZXZXJXJXvXU e @ i V.1XE.J.].8X9XtXtXuXuXbXbXaXbXxXbXxXxXMXxXxXnXbXbXNXJXfXW 3 # 8 ",
"c.2XOX'.Y.Y.}.5XtX8XdXaXpXpXdXdXdXaXbXbXbXbXMXMXZXCX^.W e + @ p Z.7X.X].T.T.}.8X9X8XtXpXpXdXdXaXuXxXxXxXuXxXaXBXHXiX^.E e $ # 8 ",
"z.rXsX*XI.u.(.OX6X9X9XqX9XqXqXqXpXqX9XpXuXbXbXZXSXhXE 3 @ + @ z Z.7XtX1XI.K.].8X8X9X9X6X0XwXqXwX9X9XtXtXpXtXpXGXJXgXE & & # % 8 ",
"z.iXwX0X[.Y./.I.}.6X0X=X-X=X-X-X=X=X=X6X9XtXaXyXZ.E e # + + . B H.tXtXtXoX]././..X8X6X6X0X0X-X0X6X6X=X=X6X9XpXyX^.R e   O O $ 8 ",
"m.iXdXdXwX*XK.u.Y.5X=X&X#X+X+X_._._.{.@X%X*X8XXX` ; . + @ .   e Z.yXnXsXqX=XL.u.T.OX5X*X-X#X#X#X#X|.{.@X@X&X0XXXG @ + .   X o 0 ",
"v.eXnXdXpX6X.XI.I.U.j.a.s.y.y.t.t.t.t.y.a.j.I.L.` < ; # +     w b.yXnXwX9X6X[./.I.I.g.j.s.s.y.y.y.t.t.t.y.j.T.K.n : @ + O o   = ",
"m.eXnXaX9XpXqXoXd.| { { ] [ [ @.@.[ [ [  .{ 0.2.h < @ +       w N.rXbXaXqXqX0XoXU.O.] ] }  . . .[ [ ] ] ] ] w.) f : @ +       - ",
"m.eXnXaXtXtX5XoXd.{ X.o.[ #.+.$.&.#.#.#.=...9.) g , ; . .     r S.lXMXaX9X6X6X}.U.>.o.:.=.=.-.-.#.&.#.-.[  .| _ a , @ .   o   - ",
"m.eXnXaXpX9X5X}.f. ...-.+.+.$.%.%.$.&.&.-.;.9._ g , @ +   o   r A.lXbXuX9X6X6X}.f.;.@.-.#.-.&.$.&.*.*.&.#....._ a < ; +       7 ",
"n.eXbXpXtXtX5XoXf...-.,.$.' %.%.%.*.%.&.,.=.| ( g , @ + O     t A.zXxXxXtX6X6X|.f.+.+.&.&.$.*.%.%.%.%.%.&.#...} d < : + . O   0 ",
"n.rXnXaXuX9X5X}.p...-.&.%.%.%.%.%.%.*.*.,.:.| ( g , @ . o o   t B.lXxXuXtXqX6X}.f.+.$.$.%.*.*.*.%.' ' %.$.#.=./ d < : + . O O 8 ",
"n.rXnXuXtXtX*X}.p.@.=.,.&.%.%.%.%.%.*.*.,.:.q.( g , @ . o o o p H.2XzXxXpX0X0X}.f.#.#.$.$.*.*.*.%.%.' %.$.@. ./ s , ; + .   . 9 ",
"B.rXbXaXaX9X5XoXp...=.,.&.%.%.%.%.*.*.&.,.-.q.( g , @ + o o   B H.zXMXxXpX9X0X|.f.-.#.&.,.&.*.*.%.%.%.%.#.@.../ s < ; + O   . 9 ",
"n.jXbXaXaX9X5XoXf. ...-.&.%.%.%.%.%.%.$.&.=.X./ g < @ . O o   t H.uXBXaXpXqX0X|.f.-.-.-.#.&.&.*.*.%.*.*.#.=.X.( s < ; . . o   0 ",
"n.rXnXaXaX9X5X|.p. ...#.$.%.' %.' ' %.%.*.-. ./ d < ; . o * o t A.lXMXaXpXqX0X|.a.:.,.,.#.&.&.$.%.*.%.*.&.=.../ s , ; .       0 ",
"n.hXSXnXaXqX=X|.t...@.&.*.%.%.%.' ' %.*.*.*.../ g < @ O * * o r A.VXSXbXpXqX6X).p.;.#.+.*.%.*.*.*.*.*.%.$.#.=./ s , ; .       7 ",
"M.cXSXBXaX9X=X@Xt.;.@.&.*.' ' %.%.' %.%.%.+.=./ g < ; # * * o r G.kXBXnXpXpX0X).t.q.#.&.*.%.%.%.*.%.%.%.%.#.o.( a < : .       0 ",
"M.cXSXMXuXqX%X|.t. .[ #.%.%.%.%.%.%.$.$.&.-.O.} g , ; . o o   r N.kXBXbXsXwX=X).t.q.,.#.$.%.&.*.*.%.%.%.#.#.O.( s < : +       0 ",
"M.cXSXbXpX6X=X%Xa.q.o.:.-.,.&.&.$.$.#.#.#...| 2.g < ; +       t S.jXHXdXqX0X=X{.f.q...#.#.&.#.&.&.*.&.&.@.] X._ a < ; + . # . 7 ",
"M.hXBXbXpXqX0X&Xs.9.9.q. .o.=...=.@.@.....| w.) g , : @ . $ . e D.iXGXnXsX0X-X+XI.w.| |  .........=..... .| 0.) a < : @ + + + - ",
"B.eXnXbXdXwXdX$XW.8.4.4.w.w.w.0.0.0.| w.w.w.u.<.c , @ + @ @ @ l C.mXnXnXGXdXwX$X/.8.4.w.0.w.0.w.0.0.0.0.w.4.8.` i , ; @ + @ + = ",
"B.jXMXnXnXrX`.6.M c c c j v j j h h h h v v c c F x 4 @ @ : ; p Z.iXGXBXJXsXW.5.M b c v f j j j j f v j v v c b b F 4 : @ ; @ 7 ",
"C.jXSXSXBXeXY > ; @ : > : : : , , : : , , : ; > D R e @ @ ; ; z Z.mXHXBXBX3XI > @ : @ : : : : : ; : : : : : : 1 K R C : ; ; @ 7 ",
"B.cXDXVX>XE B + . . . + . + + @ + + $ @ @ + # # w y Z z 4 # ; p C.iXJXhXD.R z % + . $ + $ + @ + + + + @ + + + > t V S N 4 ; + 7 ",
"b.fXKXfXY #   .             . .       . . . + .   X D R z > @ z C.vXJXfXP .   .     o o o O   o o o   O . O . . . > D T V : + 6 ",
"M.fX<Xv.S $ .                 .     O o O . . #   X r S N S > z H.VX,Xv.V + .       o o o o o o o o o o o     . . & r D S S 5 6 ",
"M.,XY + + $ . .           o   o O O O O .   . . . # . # D Y i z H.fXS + + $ O O O o o o o o o o o o o o O O   . $ # $ 5 U E Z e ",
"k.z.K > @ + . .   O   O   O O . o O O $ . . + . + # + . B A x A Y b.N : @ @ + O   o o o o o o o o o   o O . $ + @ @ + 5 C K A F ",
"x , 3 5 7 7 = 7 0 0 0 0 0 0 = = 0 0 0 0 0 9 9 - 0 6 0 - 9 8 P I 6 > 3 4 6 7 6 6 0 - 0 9 - - 0 - - - - 7 0 0 9 0 7 9 7 - 7 B K 6.",
"F ` k.V.V.Q.N.D.S.S.S.F.F.S.F.N.F.G.;XG.G.;X;XM.A.~.S.Q.^.m.H F k J k.V.H.H.D.A.F.N.G.F.F.S.!.N.!.N.~.F.G.G.A.A.N.S.!.Q.Q.b.I G ",
"~ l.R.yXuXbXaXnXZXMXZXMXBXSXAXAXAXNXSXDXCXDXZXCXAXHXvXFXvX3Xk u n l.R.2XxXxXMXMXBXZXMXSXBXBXBXNXNXBXZXDXZXZXDXCXBXNXvXvXNX3XP > ",
"5.R.R..X1XtXuXuXxXMXbXMXMXMXnXBXnXMXMXZXZXZXDXDXDXAXNXFX^.Q.p u k.E.R..X8XaXaXbXnXMXMXMXBXnXBXGXBXMXbXxXMXMXMXMXMXMXNXhX`.m.A 3 ",
"c.1XY.J.].OX2XtXuXtXaXaXbXbXbXbXxXnXMXZXxXMXMXDXDXSXFXgXP > @ i x.1XE.J.T.*X9XtXpXtXuXaXaXbXnXbXnXxXxXMXxXMXMXbXxXCXDX3XT & X w ",
"c.2X1XE.T.T.}.9X8X8XtXpXpXpXdXdXaXaXbXbXbXbXnXMXMXCX<Xm.B # + p V.2XOXE.T.(.oX9XtXtXtXtXpXpXpXdXaXuXuXaXbXbXaXnXHXNX<Xv.y X X w ",
"z.rXaXOXY.u.].1X9X8X6XqX-X0X0XwXqXqXqXtXpXtXaXbXMXhXR 8 # + + p Z.2XtXOXY.K.].8X9X8X9X9XqXpXqXpXqX9XqXqXpX9X9XaXHXhXE 2 X X & 8 ",
"m.mXnX9XOX(.T.E.}.6X6X=X-X-X&X-X&X-X6X0X9X9XpX7XR.B.x # + . . l Z.uXtX9X%X[./.(.OX5X6X6XwX0X-X-X=X=X-X0X0X6X9X8X`.m.Z . . . X 0 ",
"m.eXGXwXqXOXK.u.T.5X=X=X&X#X+X+X#X@X%X%X%X*X9X1Xk.i ; + # .   e C.yXnXpXwX$XL.i.(.*X5X&X-X&X#X#X#X@X#X@X&X6X6XXX6.8 # .   O O 0 ",
"m.eXnXpXqXwXoXT.U.U.U.j.j.a.p.t.t.t.p.a.a.g.Y.P.` , @ + .     e B.rXnXpXwXwX[./.U.U.g.g.j.s.a.y.t.t.p.a.d.U.Y.K.b + . + O   o 7 ",
"m.eXnXaX9XqX6X}.d.w.| q.X.;.:.=.:.:.=.=.q.q.w.7.f , ; +       e C.lXGXpX0XqX0X}.U.e.q.O.o.q.;.q.-.r.:.o.X.q.w.3.f : @ + . O   - ",
"m.hXBXaX9X6X6XOXf.| o.o.@.#.#.+.$.+.#.@.=.o.| ) f , ; + . o   r A.yXnXaXqX9X5X}.g.>.=.=.[ @.#.#.&.&.&.#.=.o.9.( f , ; .   o   - ",
"b.hXnXaXpX9X*XoXp.o.=.@.#.&.%.%.%.%.$.+.#.o.X.( g , @ .       r A.lXbXaXpX9X6X}.f.-.#.#.#.#.&.$.%.*.%.&.&.=.X.( a , ; +       - ",
"b.jXnXaXpX9X5X}.f...-.#.$.%.%.%.%.%.%.+.=...X.( g < @ .       t A.lXxXuXtXtX9X}.f.#.$.$.#.$.&.%.%.' %.%.&.#.o./ d , ; + .   O 7 ",
"n.rXbXtXtXtX5XOXf...#.&.%.' ' ' %.%.%.&.#.:.X.( g , @ .   o . t H.lXMXaXpX9X6X}.f.-.$.&.&.%.%.%.%.' ' %.$.#.=.{ s < ; + .   . 7 ",
"n.rXbXuXuX9X5XoXf...-.&.%.%.%.' %.%.%.$.-.:.o./ g < @ . o o . B H.lXxXuXtX9X9X|.f.-.&.$.$.*.%.%.' ' ' %.%.#...} s < ; + O   . 9 ",
"n.yXnXaXaXtX5XoXp...=.#.%.%.%.%.%.' %.*.&.:.X./ g , @ . o o . t H.yXbXuXtXqXqX|.f.-.&.&.&.&.*.*.%.%.%.%.&.#.../ d < ; +   o + 9 ",
"n.rXnXuXuX9X6X}.a. .=.-.*.*.%.%.%.%.%.%.#.#...( g , @ . o * X B D.lXMXaXpXqX0X{.a.:.,.&.&.,.*.*.%.*.%.*.&.=.o./ a , ; .     O 9 ",
"n.rXBXbXdX9X=X|.p.X...-.&.*.%.%.%.' ' ' &.#.../ g < ; .   *   t A.zXMXaXpXqX0X{.p.-.-.-.,.,.*.*.*.*.*.*.#.=.o./ g , @ .     . 9 ",
"m.jXBXbXdX9X=X{.t...[ &.*.%.%.%.%.%.' %.&.-...( d , @ . * * o r S.kXMXbXaX0X-X{.p.-.#.-.,.*.*.%.%.*.%.*.&.#.o.( s , ; .       0 ",
"m.cXBXbXaX9X&X{.t...@.&.*.%.' %.%.%.%.%.*.-.../ d < ; . * *   r F.kXZXnXpXqX-X).p.:.#.&.&.*.%.*.*.*.%.%.&.-...} s , @ .       0 ",
"M.gXSXbXuX9X=X@Xt.q...#.$.$.%.%.%.*.%.*.&.=.O._ d u : . O *   e S.cXBXMXsXwX&X).a.q...@.&.&.&.*.*.*.$.$.#.@.X.( s < ; .   . . 0 ",
"m.kXSXbXtX9X=X@Xa.X. .@.+.&.&.&.,.#.,.-.=.X.9._ g < : + .     e A.vXBXnXqX0X-X).a.q...@.#.,.&.,.,.&.#.#.@...| ) a < : + . $ . 0 ",
"n.hXSXnXpXpXwX&Xh.1.| X.X.......o... .o.X.9.1.2.g , : + . .   e A.mXBXdXpXqX0X#XI.w.9.9.X.o.o.X.o.....X.X.| 1.) f , : @ + @ + 7 ",
"B.jXBXBXbXdXdX$XW.7.7.4.3.3.w.0.0./ 0.0.1.4.7.<.c < @ @ + + # l Z.sXnXnXnXdXqX[.W.8.3.3.( 0.0.1.0.0.1.1.3.4.7.<.f < , @ @ ; @ 9 ",
"B.jXZXZXdXsX`.c.6.M M ^ ^ Q Q Q ! ! ! ~ ~ M M m m F 4 @ @ ; ; z C.rXnXnXGXtX`.z.6.M M ^ ^ ~ ! ~ ! ! ! ~ M ^ J m G G N : @ ; @ 9 ",
"C.jXSXSXFX4XW 3 > % % > > > 1 : , , < , , : > 4 K Y l + @ @ : z C.iXnXBXNX3XI 3 > > > > > 1 > ; > > , : , : : 4 K T N ; @ ; @ 8 ",
"B.hXKXVX<Xz.Z + . + . + . + + @ + + + + # @ # @ e A Z L q ; : z C.jXJXmX^.z.Z X   . . . + + + + + . + + + + + 2 V S D S q @ + 9 ",
"b.kXKXcXk.6 #             . . . . . . O . + + + . 2 L T B @ @ q B.mXJXcXR 3 #           . .           .     . . $ w U T r + . 7 ",
"n.fX,Xv.V +               o   O o o o O o   . +   # e S V A 1 z ;XcX>Xv.V + . .     o o o o o o * * o o       O . & t D D D 9 9 ",
"B.<Xz.p , + . . o   o   o o o o o o o * O O O . + # % & D Y u z G.kXY q > @ + . o   o o * * o o * o o o o O $ $ @ @ @ 8 T E t q ",
"Y k.k , : @ . .             o     + $ . . + + + # @ + + q x k K I k.p ; @ @ + + .       o           o O . + + + @ ; @ 2 N S K D ",
"F 1 ; $ + . . .                   .   . . O . . . + .   . ; K Y p : ; @ + . . .                         . . . . O $ $ @ $ 5 K k."
};
