/* XPM */
static char *result[] = {
/* columns rows colors chars-per-pixel */
"64 64 237 2 ",
"   c #000101",
".  c #070805",
"X  c #030A0C",
"o  c #0B0B0C",
"O  c #140E04",
"+  c #140B0D",
"@  c #091607",
"#  c #1D1305",
"$  c #040B16",
"%  c #0D0C14",
"&  c #160716",
"*  c #021314",
"=  c #021916",
"-  c #091518",
";  c #031B1A",
":  c #161719",
">  c #231706",
",  c #231C1C",
"<  c #132F0B",
"1  c #052218",
"2  c #372509",
"3  c #3B391A",
"4  c #071926",
"5  c #0D1429",
"6  c #151824",
"7  c #251522",
"8  c #032322",
"9  c #042928",
"0  c #142727",
"q  c #082A36",
"w  c #152934",
"e  c #083739",
"r  c #133931",
"t  c #2E2525",
"y  c #302726",
"u  c #322827",
"i  c #283836",
"p  c #4B330B",
"a  c #54390D",
"s  c #453311",
"d  c #4C3D3B",
"f  c #1C450F",
"g  c #1E4B11",
"h  c #204F11",
"j  c #215312",
"k  c #286415",
"l  c #2B6A17",
"z  c #2E7219",
"x  c #317A1A",
"c  c #07463A",
"v  c #15453D",
"b  c #264235",
"n  c #64440F",
"m  c #724D11",
"M  c #51423F",
"N  c #5E632F",
"B  c #093B48",
"V  c #143A46",
"C  c #1F3E56",
"Z  c #2B3A47",
"A  c #084547",
"S  c #144545",
"D  c #0D5247",
"F  c #165549",
"G  c #084954",
"H  c #184B56",
"J  c #085659",
"K  c #16575B",
"L  c #324F4E",
"P  c #285556",
"I  c #385656",
"U  c #15645B",
"Y  c #28655B",
"T  c #2A6C5D",
"R  c #0A5B64",
"E  c #185A64",
"W  c #2F5862",
"Q  c #086568",
"!  c #176969",
"~  c #077C68",
"^  c #157766",
"/  c #076B75",
"(  c #176B75",
")  c #087976",
"_  c #057C7B",
"`  c #16767A",
"'  c #276E70",
"]  c #237578",
"[  c #574745",
"{  c #465259",
"}  c #685451",
"|  c #56625E",
" . c #457B7A",
".. c #507170",
"X. c #855A13",
"o. c #8F6116",
"O. c #986716",
"+. c #A67018",
"@. c #B97D1B",
"#. c #8D726E",
"$. c #34821C",
"%. c #37891E",
"&. c #398D1E",
"*. c #3B911F",
"=. c #3F8C24",
"-. c #3C9520",
";. c #3E9A21",
":. c #43A624",
">. c #4BBB28",
",. c #4EC229",
"<. c #50C72A",
"1. c #52CB2B",
"2. c #56D62D",
"3. c #5BE12F",
"4. c #5CE430",
"5. c #04847C",
"6. c #08867B",
"7. c #138977",
"8. c #2D887A",
"9. c #4F8379",
"0. c #56857C",
"q. c #65817E",
"w. c #CA891D",
"e. c #D5901F",
"r. c #DF9720",
"t. c #E09720",
"y. c #E79C21",
"u. c #E9A131",
"i. c #EDAB57",
"p. c #F0B062",
"a. c #0A7586",
"s. c #057E84",
"d. c #0B7C84",
"f. c #057D8A",
"g. c #0B7D8A",
"h. c #137C84",
"j. c #197884",
"k. c #12758C",
"l. c #137B8A",
"z. c #077C93",
"x. c #0C7C92",
"c. c #127893",
"v. c #277D88",
"b. c #048385",
"n. c #0B8284",
"m. c #038B84",
"M. c #0B8A85",
"N. c #04838B",
"B. c #0A838B",
"V. c #028A8C",
"C. c #158586",
"Z. c #13828B",
"A. c #0F948D",
"S. c #19948A",
"D. c #048392",
"F. c #0B8292",
"G. c #058A92",
"H. c #148392",
"J. c #278786",
"K. c #2D8F8E",
"L. c #289A98",
"P. c #2B9C9D",
"I. c #33999B",
"U. c #18A093",
"Y. c #2AA39B",
"T. c #3AA696",
"R. c #2C9DA2",
"E. c #349BA2",
"W. c #25A3A3",
"Q. c #2BA4A4",
"!. c #38AFAD",
"~. c #578983",
"^. c #4E9392",
"/. c #6E9191",
"(. c #4DAA97",
"). c #6EA59A",
"_. c #4D99A4",
"`. c #6D9DA2",
"'. c #45A9A7",
"]. c #46BBA8",
"[. c #51B1AD",
"{. c #76A9A6",
"}. c #6FB1AE",
"|. c #6CB9B7",
" X c #51C5B5",
".X c #67C7B9",
"XX c #75C9B7",
"oX c #67B7C2",
"OX c #59C8C4",
"+X c #5CD6CB",
"@X c #64C5C5",
"#X c #69D7CA",
"$X c #77D6CB",
"%X c #74D3D2",
"&X c #71E4D5",
"*X c #7BE5DB",
"=X c #73DBE3",
"-X c #7DE6E5",
";X c #9F9698",
":X c #84B7B3",
">X c #C99E87",
",X c #C29D96",
"<X c #C8A29B",
"1X c #CEA7A1",
"2X c #D4ABA5",
"3X c #DBB1AB",
"4X c #E6B9B2",
"5X c #8BD2B9",
"6X c #F0C1B5",
"7X c #F5C6BD",
"8X c #8DCBCC",
"9X c #8BD7CB",
"0X c #93D4CB",
"qX c #98D8CB",
"wX c #88D9D7",
"eX c #98DAD4",
"rX c #A2D1D7",
"tX c #88EACF",
"yX c #89E5D6",
"uX c #84E3DB",
"iX c #8AE5DD",
"pX c #85EADE",
"aX c #96E6DA",
"sX c #95F7D8",
"dX c #90D6E2",
"fX c #8AE7E3",
"gX c #96E4E4",
"hX c #99F5E7",
"jX c #91F2EF",
"kX c #A7E0E2",
"lX c #A9EBE6",
"zX c #B1E9EB",
"xX c #A3F4E6",
"cX c #A7F5F5",
"vX c #F7C8C0",
"bX c #FFCEC6",
"nX c #C5E8F6",
/* pixels */
"! ' |.eX9X0X9X0X0X0X0X0XqXeX0X0XrX}.H 1 S T {.8XqXeX0X0XwXwX_.( ! ' _.$X9X9X9X0X0X0X0X0X0XqXqX0X0XrX`.r q Y  .:X0XeX0X0X9X9X|.` ",
"J.K.#X-X*XuXfXfXyXuXuXiXiXiXwXiXiX$XF 1 I v..XuXiXwXfXfX-XfX[.' ] J.].-XfXfXuXpXiXiXyXuXuXuXiXiXiXwX|.v V  .^.9XaXfXwXiXfXfX.X' ",
"XX#X!.W.R.P.I.I.R.R.Q.Y.P.P.P.R.R.K.9 % /.8X[.Y.R.R.E.Y.Q.Q.Y w 9.&X XW.W.R.I.I.P.R.R.Y.P.P.P.P.Q.W.] 0 { rXXX(.Y.R.R.Q.Y.Q.8.w ",
"0X*XW.V.N.b.d.d.a.N.f.b.N.f.b.N.V./ 4 + ;XzX_.5.f.a.f.b.V.n.V , q.hX XG.N.f.n.d.s.f.N.b.N.B.b.N.N.D.R - { nXdXS.b.a.a.b.m.b.K % ",
"0X*XW.N.N.N.s.d.g.f.N.N.b.b.N.N.V.) 9 $ :XgX!.A.N.z.D.B.B.h.e : ..hXOXG.N.b.b.d.d.N.N.N.b.N.d.m.V.V.Q ; I zX*XS.V.z.z.B.B.C.K % ",
"0XuXR.N.N.b.b.d.d.g.N.N.b.s.s.m.V._ 9 X {.fXE.5.f.z.F.N.C.` B : 0.hXOXF.N.N.b.d.a.g.f.N.b.b.b.b.V.V.Q 8 W cX=XC.s.z.D.F.B.C.E * ",
"0XiXE.g.N.V.b.d.g.N.N.b.s.a._ d.            K b.z.z.D.f.h.j.V ; ~.xX@Xl.N.b.b._ d.B.g.b.b.s.a.d.B.D.Q 8 T hX-XA.N.z.D.f.d.j.K = ",
"9XiXR.a.N.b.s.d.B.D.N.s.Q J J J M M M M M d P G R R z.d.j.] S 1 0.cXOXH.s.N.d.d.g.B.N.N.b.d.d.) g.B.! ; W cX*X8./ D.D.g.d.` K = ",
"9XuXR.f.N.d.h.n.V.V.N.g.e X X o vX7X6X6X6XvX[ X X $ j.j.j.j.S 1 0.hX+XH.s.f.d.h.b.V.G.g.b.N.b.d.d.k.E - { cX8XS B k.c.J.` j.K - ",
"0XfXR.f.g.d.d.g.V.G.N.d.B     o bXbXbXbXbXbX}     X ] ( ' ( S 1 0.hXOXH.f.d.d.h.N.V.V.l.g.V.b.s.h.k.P : [ kX5Xr q ( j.] ' ( E ; ",
"aXiXE.a.N.V.b.n.D.f.N.f.e     o bXbXbXbXbXbX}       q w B B A P ).xX@Xl.f.V.m.d.B.N.N.N.N.N.N.g.g.B.Q = r K.8.: 4 q q q q B B F ",
"aXaX_.k.V.m.b.B.N./ / / S t u u bXbXbXbXbXbX[       $ $ $ q S T }.cXoXK.a.m.N.B.d.g.f.b.N.D.f.f.F.N.Q 1 g 8.T < $ 5 5 6 6 5 e Y ",
"qXfXE.B.N.m.s.d.D.X * X #.3X3X4XbXbXbXbXbXbX[       % o o |. .v ).hX@XH.B.N.b.d.g.N.N.B.N.N.f.f.G.D.Q 1 L 5XXX:X}.|.}.}.{.|.^.r ",
"qXuXR.N.f.s.d.d.N.      #.vXvXvXbXbXbXbXbXbX[         .   gX .6 0.hXOXH.f.N.s.` g.V.N.g.N.N.N.f.B.N.R = { lXsXsXsXpXpXsXpXjX|.6 ",
"0X*XW.N.b.s.d.d.N.            % bXbXbXbXbXbX}     O y.y.y.      ..hX XG.b.s.d.a.B.D.N.B.f.g.d.d.g.B.K ; L lXtXT.L.L.W.U.Y.L.' 6 ",
"eX*XL.D.N.s.d.d.D.            o bXbXbXbXbXbX}     O y.y.y.. .   ..iX].F.N.s.d._ d.N.D.b.s.d.k.d.g.N.R ; I lXpXS.6.V.V.6.m.C.E % ",
"eXpXW.D.N.s.s.d.g.            . bXbXbXbXbXbX[     . y.y.y.e.e.w.s : - ; N.b.d.d.d.f.N.b.B._ _ d.B.N.Q 4 { cXgXS.f.z.z.f.N.n.K % ",
"0XpXW.N.N.f.g.d.d.              bXbXbXbXbXbX} . . O y.y.y.y.y.y.s       f.N.d.l.d.d.f.N.b.B.d.B.N.m.Q 8 { nXdXU.D.c.c.c.g.Z.K % ",
"5XyXI.k.z.z.x.g.a.            . bXbXbXbXbXbXi.w.e.w.y.y.y.y.y.y.s     X f.z.x.H.d.a.d.l.g.F.f.n.C._ ! 1 { nXgXS.b.F.c.k.d.C.J 1 ",
"qX9XI.j.c.z.H.Z.d.            o bXbXbXbXbXbXp.y.y.y.y.y.y.y.y.y.a     $ c.c.x.H.a.s.d.c.g.z.f.Z.` ] U 9 I zXwXU.m.s.d.a.B.6.Q 1 ",
"L L V B a.z.F.s.5.      | 6X6X6XbXbXbXbXbXbXp.y.y.y.y.y.y.y.y.y.p     X R k.D.m.5.6.d.a.a.B.g._ Q e H ^.).'.I.M.m.N.N.D.B.d.K ; ",
": : 5 e ! ` ) ) ) + . . #.6XvX6XbXbXbX7X7X7Xp.y.y.y.y.y.y.y.y.y.p       A ) _ ` 5.5.5.N.B.g.Z.n.J $ V $XOX` 6.m.V.D.N.N.B.l.E $ ",
"/.).{.`.e q ; 1 4 O.O.+.X.[ M [ bXbXbXi.i.i.u.y.y.y.y.y.y.y.y.y.p       9.q q 9 c 6.m.m.m.d.6.6.J $ V wX#X) _ B.N.f.z.x.x.c.E 5 ",
"9XsXsXXXi 6     X y.y.y.n $   o bXbX7Xy.y.y.y.y.y.y.y.y.y.y.y.y.p     % /.0 6 6 e ! ~ ) ) ~ 6.5.J 9 P %X@XZ.d.x.F.x.x.c.c.z./ 5 ",
"9XtX(.(.}.).@     y.y.y.y.t.y.t.y.y.y.y.y.y.y.y.y.y.y.y.y.  .   ..tXXX(.(.}.{..                   `.[.'.L.N.f.f.D.D.D.x.F.B.Q 4 ",
"qXaXT.8.&X*X      y.y.y.y.y.y.y.y.y.y.y.t.y.y.y.y.y.y.y.y.      ..xX.X7.T.tXsX.       . .         lX%XJ.s.N.D.z.D.D.D.N.V.m.R 4 ",
"rXsXT.7.!.].      y.y.y.y.y.y.y.m m m m m m @.y.y.y.y.y.y.      ..cXoX7.D Y P $.z z z x $.z z z z ....S / g.f.g.z.N.N.N.m.6.J ; ",
"rXpXY.6.6.m.      y.y.y.y.y.y.y.            O.y.y.y.y.y.y.      q.cX@Xn.      4.4.4.3.4.4.4.4.4.4.      Q d.f.B.z.N.s.b.6.~ D $ ",
"dXfXR.b.b.5.      y.y.y.m O # # /.0X8.      o.y.y.r.. . O 4X4X7X[ : ; < 2.3.1.@ @   :.3.4.1.  . @ 1.2.2.< = * 4 N.B.6.` ! r 1 & ",
"dX=XR.k.` `       y.y.y.n     . {.iXY.      o.y.y.e.      bXbXbX[     @ 4.4.4.      :.3.4.<.      4.4.4.f     ; m.b.7.( P : + & ",
"!.!.j.C B B       m m m 3 1 8 9 .XtX^       o.y.y.e.      bXbXbX[     @ 4.4.4.z z l z z z z k l z 4.4.4.<     X G J A B w - : Z ",
"F.H.B 5 5 4         .   - e U ^ XX9XS       O.y.y.t.      bXbXbXd     . 4.4.4.4.4.4.<     @ 4.4.4.4.4.4.<       5 4 0 4 - - 9 ! ",
"N.b.^.~.0.9.......| ....~.^.[.[.b i * O.O.+.e.y.y.t.      bXbXbXd     . 4.4.4.j g f $.*.*.&.f f g 4.4.4.:.*.*.%.% - - 0.~.~.^.h.",
"Z.K.$XhXsXtXsXxXzXzXxXhXcXxXxXiX      y.y.y.y.y.y.e.  .   bXbXbX[     @ 4.4.4.      :.3.4.1.      4.4.4.4.4.4.<.      xXxXcX%Xv.",
"'.[. X X X].[..X@XI I P P P P P X.X.X.y.y.y.O.n n m #.#.#.} } } N $.$.$.k k k $.$.$.1.4.4.2.$.$.$.k k k <.4.3.>.      .X@X@X_.P ",
"8X&XW.A.6.7.C.C.H.            O y.y.y.y.y.y.a     % bXbXbXX     ;.4.4.1.      4.4.4.4.4.4.4.3.4.3.      :.4.4.,.      M.M.S.E 6 ",
"0XfXW.N.b.s.s.d.a.      2 p a a y.y.y.y.y.y.a       bXbXbX      l *.*.*.g g j 4.4.4.4.4.4.4.4.4.4.j h g $.&.&.$.      s.b.n.K % ",
"0XuXW.N.N.b.s.d.g.      X.y.y.y.y.y.y.y.y.y.a     . bXbXbX              4.4.4.4.4.4.4.4.4.4.4.4.4.4.4.4.<             B.B.Z.K * ",
"0XuXR.f.N.V.b.d.a.J J J b p a a p s a y.y.y.a     + bXbXbX      k *.*.%.g g j 4.4.4.4.4.4.4.4.4.4.j h g $.*.*.x       N.d.j.K = ",
"0XuXE.g.N.b.s.g.f.N.N.N.e             y.y.y.a     : bXbXbX      *.4.4.1.      4.4.4.4.4.4.4.4.4.4.      :.4.4.>.      f.d.j.K ; ",
"9XiXR.f.N.b.d.d.D.G.B.B.A * * *       y.y.y.a .   + bXbXbX      ;.4.4.2.@ @ < >.,.1.4.4.4.4.1.1.,.< @ @ >.4.3.,.      l.h.j.P ; ",
"0XpXR.f.g.s.d.d.V.V.N.l.m.b.s.d.      y.y.y.a       bXbXbX      :.4.3.3.4.4.3.      :.4.4.2.      4.4.4.3.4.3.2.      ` ` ` K ; ",
"eXfXE.a.N.b.B.d.D.G.B.d.B.N.s.d.G A * n n a #     . bXbXbX      :.4.4.4.4.4.4.$.%.&.z k l l &.&.$.4.4.4.3.3.4.1.      H H K A e ",
"aXaX_.k.N.V.m.n.d.f.N.N.N.f.f.f.B._ 9             + bXbXbX      *.4.4.4.4.4.4.4.3.4.f     @ 4.3.3.4.4.4.4.4.4.,.      % $ 4 q Y ",
"eXiXE.g.N.V.b.d.B.g.N.N.D.N.f.g.V._ 9   o @       : bXbXbX: : : =.1.1.1.4.4.4.1.1.1.h @ @ < 1.1.1.4.4.4.2.1.1.:.  X   L Z H H P ",
"qXfXE.z.N.m.s.d.N.N.B.N.N.N.f.B.N.) 1 . ).qXI     + bXbXbXbXbXbXM     @ 4.4.4.      :.4.4.2.      4.4.4.<     , kXaXaXaXeXfX}.r ",
"qXpXR.N.N.d.d.d.D.G.N.B.N.f.f.g.B./ 1 X ).aXI       bXbXbXbXbXbXd       *.*.*.      z *.&.%.      *.*.-.@     - #X#X&X+X#X=X_.- ",
"0XpXY.N.N.s.d.d.N.F.N.N.a.d.d.l.H./ 1   ;XaXL     . bXbXbXbXbXbXd       .                 .       .           * 6.A.A.7.A.C.E % ",
"eXpXW.N.N.s.d.d.d.N.N.b.s.d.d.d.N./ 9 X `.lXL     % 1X1X1XbXbXbX} y t y y y y y y u y y y y u u t t u u y t y i Q / / s.b.C.! % ",
"qXuXW.N.N.b.s.d.d.g.N.N.b._ s.n.N.) 9 X /.kXL             bXbXbXbXbXbXbXbXbXbXbXbXbXbXbXbXbXbXbXbXbXbXbXbXbXbX1X      k.F.B.K % ",
"5XpXW.G.f.d.d.h.k.a.z.N.N.N.d.n.B.) 9 X /.dXL # > >       3X3X4X6X3X3X3XbXbXbXbXbXbXbXbXbXbXbXbXbXbXbXbXbXbX7X3X      x.H.Z.K $ ",
"5X&XP.l.h.h.l.k.k.c.z.D.G.D.d.j.6.! 8     . O.t.y.t.      . .   . X   % bXbXbXbXbXbXbXbXbXbXbXbXbXbXbXbXbXbXbX4X      D.D.c.R * ",
"~.~.W E k.a.M.B.k.k.N.b.N.D.f.h.D V v 2 2 2 +.y.y.t.2 2 2 2 2 2 +     o ,X,X,X,X,X,X,X,X,X,X,X,X<X<X,X,X,X<X<X;X8 8 4 f.g.H.E * ",
"o % 5 5 ( b.m.b.g.a.s.m.N.N.5._       t.t.y.y.y.y.y.y.y.t.y.y.y.p           o .       . . .     . . .     . . ; b.m.N.d.d.g.R = ",
"i i Z C E R / ) ` h.5.m.n.l.M.6.      y.y.y.y.y.y.y.y.y.y.y.y.y.a                                         .   = V.m.N.g.l.Z.! * ",
"5X5X9X|.B 4 4 q ! j.7.6.e     o bXbXbXy.y.y.y.y.y.y.y.y.y.y.y.y.p     o ^.w 4       +.y.y.y.y.y.y.t.y.y.6X7XbX3X      l.j.Z.! o ",
"5XsXuX|.' H P I P H H D 8       <X2X<X@.@.@.@.@.@.@.@.@.@.@.@.@.s r 0 r (.Y P 4 6 X o.@.@.@.@.@.@.@.@.@.>X<X<X,X      h.h.C.K X ",
"5X&XT.I.=X&XfX8XZ 5 5 % X       + : , > # O O # > > O O # > # O T 9X(.` '.=X&X8X`.w + > # # O O # # # + : , , :       n.d.l.K = ",
"tXtXI.C.OX+X$X|...Z Z Z : .                                     ..sX.X` P.+X#X$X).W -     .                           _ d.B.R = ",
"qXtXI.` v.C.] K.%XdXrXeXrX:Xi % `.-XI.j.N.D.F.c.a.N.b.m.V.N.B - 0.xX.XJ.` j.v.8._.9XeXaXqXqX/.7 P jX&XJ.d.D.D.x.x.f.N.n.m.N.Q = ",
"rXgXE.b.5.m.` K.wXhXjXsXxX5Xi & ;XiXK.` h.g.x.g.B.f.b.5.7.~ c 5 /.cX@Xn.6.6.6.] ^.gXcXjXhXhX{.7 { zXeXv.a.g.g.Z.g.B.B.b.5.7.D - ",
"eXjXY.b.6.n.7.C.'. X!. X X(.0 & /.eXK._ n.b.N.N.N.m.d.` D r : : /.cXOXB.m.5.C.j.C.].!.]. X(. .: { kXeXJ._ s.B.N.N.b._ _ ^ v 0 & ",
"=X=XL.` ( ` ` / s.5.~ ~ ^ U 9 - ).wXS.~ ) ) _ s.n._ ! K 6 + 7 5 ^.=XOXk.` ( ( / / _ ~ 6.~ ^ F 8 Y xXwX7.~ _ s._ _ 6.^ ( P : + & ",
"'.!.E B B B B B B A c c c A D D XXyX] A A A B A G A B r 5 & w E v.!.K.G B B B S A e c c c c A F 8.xXXXU A B G B A G B B 9 - 6 V "
};
