/* XPM */
static char *result[] = {
/* columns rows colors chars-per-pixel */
"64 64 245 2 ",
"   c #000101",
".  c #090906",
"X  c #020C0C",
"o  c #160C06",
"O  c #071507",
"+  c #1C1305",
"@  c #010D12",
"#  c #0D0D14",
"$  c #040A1B",
"%  c #160716",
"&  c #021414",
"*  c #0B1313",
"=  c #011A16",
"-  c #031B1B",
";  c #09181A",
":  c #161718",
">  c #231705",
",  c #221B1B",
"<  c #122B0A",
"1  c #04221A",
"2  c #362409",
"3  c #302810",
"4  c #081726",
"5  c #0C152B",
"6  c #151825",
"7  c #251522",
"8  c #022323",
"9  c #042929",
"0  c #152628",
"q  c #0A372A",
"w  c #072938",
"e  c #142A34",
"r  c #063739",
"t  c #163A36",
"y  c #2E2625",
"u  c #302726",
"i  c #342A28",
"p  c #2A3535",
"a  c #4A320B",
"s  c #54380D",
"d  c #423210",
"f  c #4B3D3B",
"g  c #1C440F",
"h  c #1E4B10",
"j  c #204F11",
"k  c #215312",
"l  c #265916",
"z  c #286415",
"x  c #2B6B17",
"c  c #2E7218",
"v  c #2F781C",
"b  c #317B1A",
"n  c #11442E",
"m  c #06463D",
"M  c #16443C",
"N  c #31493D",
"B  c #5D4616",
"V  c #64440F",
"C  c #724D11",
"Z  c #50413E",
"A  c #093B48",
"S  c #153B45",
"D  c #11354B",
"F  c #074547",
"G  c #164748",
"H  c #0C5248",
"J  c #155549",
"K  c #0A4654",
"L  c #174B57",
"P  c #08565A",
"I  c #16585C",
"U  c #28454A",
"Y  c #354D4E",
"T  c #255755",
"R  c #3A5859",
"E  c #156858",
"W  c #2A655A",
"Q  c #33665C",
"!  c #085B63",
"~  c #175B65",
"^  c #0D5F70",
"/  c #2F5A64",
"(  c #076367",
")  c #18696A",
"_  c #097B68",
"`  c #157866",
"'  c #0A6C76",
"]  c #196A75",
"[  c #077877",
"{  c #047B7B",
"}  c #177579",
"|  c #147B7D",
" . c #2C6D6C",
".. c #237578",
"X. c #495053",
"o. c #705A58",
"O. c #5A6742",
"+. c #447A77",
"@. c #517472",
"#. c #855A14",
"$. c #8E6118",
"%. c #986717",
"&. c #A26E18",
"*. c #AA7319",
"=. c #B17719",
"-. c #BA7D1B",
";. c #BA7F22",
":. c #907570",
">. c #35831C",
",. c #398D1E",
"<. c #3B911F",
"1. c #3D9620",
"2. c #409F22",
"3. c #46AE25",
"4. c #4EC329",
"5. c #52CB2B",
"6. c #57D82E",
"7. c #5BE12F",
"8. c #5CE430",
"9. c #07877A",
"0. c #05847C",
"q. c #138A76",
"w. c #2F877A",
"e. c #4F8379",
"r. c #56867B",
"t. c #65817E",
"y. c #C9871D",
"u. c #D6911F",
"i. c #DF9720",
"p. c #E79C21",
"a. c #EAA234",
"s. c #B0824D",
"d. c #EEAC54",
"f. c #156F81",
"g. c #0B7585",
"h. c #057D84",
"j. c #0B7C84",
"k. c #047D8A",
"l. c #0B7D8B",
"z. c #177886",
"x. c #137C84",
"c. c #127C8B",
"v. c #047D92",
"b. c #0D7D92",
"n. c #0A7996",
"m. c #127993",
"M. c #277D88",
"N. c #4C7E83",
"B. c #048385",
"V. c #0B8384",
"C. c #038B83",
"Z. c #0C8B87",
"A. c #04838B",
"S. c #0A838B",
"D. c #038B8C",
"F. c #168587",
"G. c #13828C",
"H. c #099285",
"J. c #15948F",
"K. c #048392",
"L. c #0B8392",
"P. c #068993",
"I. c #128392",
"U. c #268787",
"Y. c #318D8F",
"T. c #28978A",
"R. c #279B97",
"E. c #2B9B9D",
"W. c #339899",
"Q. c #22A499",
"!. c #2BA29D",
"~. c #38A495",
"^. c #2C9DA2",
"/. c #349BA2",
"(. c #28A3A4",
"). c #38A7A5",
"_. c #3AB2AE",
"`. c #588985",
"'. c #49938E",
"]. c #678F93",
"[. c #789999",
"{. c #5FA69A",
"}. c #69A59B",
"|. c #7BA497",
" X c #4D99A4",
".X c #45A9A6",
"XX c #46BAA8",
"oX c #50B3AE",
"OX c #78ABA8",
"+X c #6FB2AF",
"@X c #51C6B9",
"#X c #64C5BB",
"$X c #76C4B7",
"%X c #6CB8C1",
"&X c #59C8C5",
"*X c #5BD2C5",
"=X c #64C4C4",
"-X c #76D6C9",
";X c #72D4CE",
":X c #70E3D4",
">X c #7BE5DB",
",X c #73DBE3",
"<X c #7DE6E5",
"1X c #B08E89",
"2X c #B3918C",
"3X c #8899A3",
"4X c #83B2B0",
"5X c #C19C96",
"6X c #C49F98",
"7X c #C8A29C",
"8X c #F8BF95",
"9X c #CEA7A1",
"0X c #D9AFA9",
"qX c #E1B6AF",
"wX c #E8BBB4",
"eX c #8DCFB9",
"rX c #F8C098",
"tX c #EEC1B9",
"yX c #F7C7BD",
"uX c #8ECBCC",
"iX c #8BD6CA",
"pX c #93D4CB",
"aX c #98D8CB",
"sX c #88DAD7",
"dX c #98DAD4",
"fX c #A2D1D7",
"gX c #88E4D6",
"hX c #84E4DB",
"jX c #8AE5DD",
"kX c #85EBDD",
"lX c #97E5D8",
"zX c #8EF0D4",
"xX c #A4E8DA",
"cX c #8FD6E2",
"vX c #ADDEE8",
"bX c #89EAE4",
"nX c #96E6E4",
"mX c #8DF3EE",
"MX c #99F6E8",
"NX c #B0ECEB",
"BX c #A3F4E8",
"VX c #A5F6F5",
"CX c #F7C8C0",
"ZX c #FFCEC6",
"AX c #CBE9F7",
/* pixels */
") ..+XsXsXpXpXiXpXpXpXpXaXaXpXpXpX4XL 1 F Q OXuXaXpXpXpXsXsX.X..) ) '.sXsXiXiXiXpXpXpXpXaXdXpXuXaXdX[.t 9 W +.4XdXdXpXaXpXsX+X..",
"w.T.;XbX>XhXjXjXjXhXhXjXjXjXsXjXnX;XJ 8 Q ..$XgXbXsXbXbX<X<X X ...U.XX<XbXkXhXjXjXjXgXhXhXsXjXbXjXsX+XM F N.'.sXjXbXsXjXbX>X=X` ",
"$X*X_.(.E.E.W.E.E.^.(.!.E.E.^.^.^.U.9 # [.uX{.!.^./.^.^.(.)./ e e.:X@X(.(.^.W.W.E.^.(.!.!.E.E.E.(.^.M.9 X.fXuX~.W./.E.(.!.!...e ",
"pX>X(.P.A.S.j.j.l.k.B.A.B.A.h.S.K.[ 4 o 3XvX XC.h.k.h.B.D.| G : t.MX@XP.A.h.V.l.h.h.A.B.B.A.h.A.A.A.~ ; X.AXsXF.B.k.k.h.C.F.I : ",
"pX>X^.A.A.B.j.j.l.k.A.A.A.B.A.A.P.{ 9 X OXnX.XZ.k.v.v.S.Z.x.S : @.MX&XP.A.B.h.j.j.l.k.A.A.B.V.B.D.D.( - R NXsXR.P.v.v.S.V.F.I * ",
"pXhX^.k.A.A.B.j.j.l.A.A.B.h.B.B.D.{ 9 X OXbX).B.k.n.L.S.c.| F : r.MX&XL.A.A.B.j.l.l.k.h.h.B.B.j.A.P.( 8 Q VX:XF.h.v.P.L.S.G.~ & ",
"pXjX/.l.A.C.B.j.l.k.S.B.j.{ { j.S.{ 9 X }.mX).h.v.K.v.l.x.} S ; r.BX=Xc.A.A.B.j.j.l.8             P.( 8 Q VX<XJ.h.K.K.k.j.z.I & ",
"iXbX/.k.A.B.h.j.A.K.A.B.j.j.g.j.S.' 8 X }.bXW.( l.K.L.l.z...F 1 r.VX&XI.h.B.h.P P P Y Z Z Z Z X.Z P F = R mX:XF.' L.K.k.x.} I = ",
"pXjX^.k.A.j.x.j.D.P.S.l.V.B.h.j.x.] 4 . 3XlX .D ] m.z.| f...F : r.MX*XI.h.A.j.X X   2XtXtXtXCXtXwXX .   X.VXuXG A g.I.U.} f.T = ",
"iXbX(.v.l.j.j.V.D.D.A.l.S.D.{ j.x.] 5 o [.dXR 4 L ] ..] ] ..G 1 r.MX*XI.k.h.j.      1XZXZXZXZXZXZX      Y xXeXe w ] ] ] ..] I 4 ",
"lXjX/.g.A.D.B.l.P.A.A.A.A.A.h.k.S.' 1 . Q e.n & w D w e A A F J }.VX=XM.h.A.B.      2XZXZXZXZXZXZX      t e.w.: 4 A w e w A F J ",
"dXlX Xg.D.C.B.V.A.l.k.A.K.k.k.k.D.[ 9 O J q.n : 4 5 6 6 5 w G  .+XVX=XM.' [ '     . 2XZXZXZXZXZXZXi y : q E J = $ 5 5 6 5 5 r W ",
"dXjX/.l.A.B.B.j.A.A.k.A.A.K.k.A.P.[ 1 O r.$X$X4XOX+X+XOX+X%X+.t {.MX=XI.& @ &       7XZXZXZXZXZXZXqXqXqXu ; * : +X+X+XOXOX+X Xt ",
"aXkX(.A.A.j.j.j.A.P.S.A.A.A.k.A.S.' 8 . |.xXxXxXbX<XbXkXbXmXN.6 r.nXoX| . .         2XZXZXZXZXZXZXCXCXCXi     0 MXkXkXzXkXbX+X0 ",
"pX>X(.A.A.h.j.h.A.P.S.l.l.l.h.l.A.' 1 . |.zX@XT.Q.Q.Q.Q.!.W.U 6 *     + p.p.p.      1XZXZXZXZXZXZX            - R.Q.(.Q.Q.R. .6 ",
"dX>X^.A.k.h.j.j.A.K.A.B.j.g.g.c.A.' 9   |.xX_.9.C.P.H.9.H.x.S : : . o + p.p.p.      2XZXZXZXZXZXZX            = 9.C.D.9.C.F.~ # ",
"aXbX(.A.A.A.h.j.k.S.A.A.h.j.j.V.A.' 8 X [.nX).B.A.v.v.k.Z.@ X . $.y.u.u.p.p.p.      5XZXZXZXZXZXZX            X B.v.n.h.k.V.~ # ",
"pXkX(.K.k.k.l.j.g.g.k.A.B.h.h.V.B.[ 8 X 3XvX).B.n.m.m.b.G.      &.p.p.p.p.p.p.. . . 7XZXZXZXZXZXZX            X A.n.m.m.l.G.I # ",
"eXgXW.l.v.n.l.c.g.h.l.l.L.A.h.G.0.` 9 @ [.vX.XC.S.c.m.c.V.      &.p.p.p.p.p.p.u.u.u.rXZXZXZXZXZXZX            & C.l.m.g.c.0.P = ",
"aXiXW.z.m.n.b.G.{ h.c.c.b.k.l.G.| ) w - OXvXXXH.B.j.g.S.V.      %.p.p.p.p.p.p.p.p.p.8XZXZXZXZXZXZX            = C.h.c.l.V.V.E 1 ",
"Y Y A K g.b.L.B.V.0.j.l.l.S.V.{ K G '.{. X.XJ.9.A.S.A.A.S.      %.p.p.p.p.p.p.p.p.p.8XZXZXZXZXZXZXtXwXtXf     & C.A.S.A.L.j.I & ",
": : 5 t ) [ | 9.0.0.B.B.l.G.F.B.r e -XmX.XF.C.D.D.S.A.K.S.      &.p.p.p.p.p.p.p.p.p.8XyXZXZXZXZXZXtXtXyXi . . O B.k.h.K.A.G.~ $ ",
"].}.OX].F w 9 r _ 9.9.C.V.V.9.9.r e uXmX).| B.A.k.v.l.b.I.      &.p.p.p.p.p.p.p.p.p.d.d.d.d.ZXZXZXX.f f $.&.&.$.9 9 9 b.L.b.^ 5 ",
"aXzXzXeXt 6 : e E _ [ [ [ [ 9.[ F S %XmX).x.l.L.L.b.m.m.I.      &.p.p.p.p.p.p.p.p.p.p.p.p.a.ZXZXZX      =.p.p.y.      m.m.v.^ 5 ",
"iXgX{.~.+X+X4X|.J r w r w r r r     .             & A.L.P.V.F 4 *   . > p.p.p.p.p.p.p.p.p.p.p.p.p.i.p.p.p.p.p.-.      b.L.S.( 4 ",
"aXlX~.w.:X>XxXaXU ; $ $ $ # @ @               . . X A.A.9.9.F 5 *     o p.p.p.p.p.p.p.p.i.p.p.p.p.p.p.p.p.p.p.y.      A.D.C.( 4 ",
"fXzX~.q._.XXoX}.}.].].N.R e # . c c b b b c c c v v F F m 9.F 4 #     . p.p.p.p.p.p.#.C C C C C C p.p.p.p.p.p.y.      A.9.9.P - ",
"fXMXQ.9.9.C.| Y.,XcXhXbXQ       8.8.8.8.8.8.8.7.8.7.      ` t 6 #     . p.p.p.p.p.p.2             p.p.p.p.p.p.u.      h.9._ H $ ",
"cXbX(.A.B.V.x.x./.6 ; * b 6.5.4..   O 8.8.8.z O O < 6.6.6.X     :.wXqX9X. . + p.p.p.a     * Q ; U > o . =.p.p.y.      | ) q : % ",
"cX<X^.c.| | } | B.      b 8.8.6.      8.8.8.l     O 8.8.7.      1XZXZXqX      p.p.p.a     & J ; T       =.p.p.-.      } T : o % ",
"_.oX' A S S K K F       >.8.8.6.x x x c b b c x x b 8.8.8.      1XZXZXwX      p.p.p.d     X m H w.@.Q 0 B C C V       S e * : S ",
"P.b.D 5 5 4 4 5 5       >.8.8.8.8.8.8.      <.8.8.8.8.8.8.      2XZXZXyX      p.p.p.2       M ` ~.MX-Xt               4 ; * r ] ",
"A.l.'.r.e.e.* # * <.<.2.5.8.8.8.g g k <.<.2.x g k k 8.8.8.      2XZXZXyX      p.p.p.=.%.%.$.; 0 M BXeX0 - r M @.@.@.@.r.r.`.'.z.",
"G.U.;XBXzXzX      8.8.8.8.8.8.6.      8.8.8.l     . 8.7.8.      1XZXZXwX      p.p.p.p.p.p.y.      MX4X0 q q.~.gXBXBXBXBXBXBX;XM.",
".XoX@X@X@XXX      7.8.8.2.z z z >.>.>.8.8.8.3.b >.b z z z >.>.>.O.o.o.o.:.:.:.V V V -.p.p.u.#.#.#.T U . : Y U  .#X#X#X=X*X=X X/ ",
"uX,X(.H.9.q.      8.8.8.z       8.7.8.8.8.8.8.8.8.6.      7.8.8.g     : ZXZXZX      *.p.p.p.p.p.p.            = 9.G.S.Z.Z.F.~ 6 ",
"aXkX(.A.h.h.      ,.,.1.c j l l 8.8.8.8.8.8.8.8.8.7.h h k ,.<.<.<     . ZXZXZX      =.p.p.p.p.p.p.s s a .     X h.k.k.B.B.V.I # ",
"pXhX(.A.B.B.            >.8.8.8.8.8.8.8.8.8.8.8.8.8.8.8.7.            o ZXZXZX      =.p.p.p.p.p.p.p.p.p.>     X A.v.v.L.V.G.I # ",
"pXhXE.k.A.B.      <.<.1.c h k l 8.8.8.8.8.8.8.8.8.6.h g k <.<.2.<     : ZXZXZX      &.p.p.u.a a s s s a N }.'.( h.v.P.v.j.| I & ",
"pXhX/.l.A.B.      7.8.8.z     . 8.8.8.8.8.8.8.8.8.6.      8.7.8.k     : ZXZXZX      &.p.p.y.            T MX:XU.h.K.v.k.j.z.I - ",
"iXjX/.k.A.h.      7.8.8.c < < < 5.5.4.8.8.8.6.4.3.3.< O < 7.8.8.h     : ZXZXZX      *.p.p.y.      & @   R MXsX..' l.I.I.x.z.T - ",
"pXjX^.k.l.j.      8.8.8.8.6.8.7.      8.8.8.k       8.8.8.8.8.8.g     . ZXZXZX      =.p.p.u.      z.~ : X.BXuXM D f.z.z.} } I - ",
"dXjX/.k.A.A.      7.8.8.8.8.8.8.<.,.>.z z l c >.>.>.8.8.8.8.8.8.g     . ZXZXZX      a V V B P K K l.E = U $X}.0 4 K L L L P K q ",
"lXjX Xz.A.C.      8.8.8.8.8.8.8.8.8.8.      ,.8.7.8.8.8.8.8.8.8.j     : ZXZXZX            & k.l.S.K.( 1 < q.E 1 @ $ $ $ $ 4 w W ",
"dXsX Xl.A.C.@ X @ 5.5.5.6.8.8.8.5.5.5.O O O ,.5.5.5.8.8.8.5.5.5.l 7 : i ZXZXZX      X X @ 4 k.k.P.K.( 1 M '.w.N U G U U U L L T ",
"iXbX^.v.A.B.B.j.A.      >.8.8.6.      8.8.8.k     O 8.8.8.      1XZXZXZXZXZXZX      ( l.A.D.A.k.S.D.! = v xXaXxXdXjXlXlXdXcX+Xt ",
"dXkX(.A.A.j.j.j.D.      k <.<.<.      <.<.<.<       1.1.<.      2XZXZXZXZXZXZX      ( A.h.A.k.l.S.A.( ; R NXxXgX-X;X:X*X;X:X X: ",
"aXkXR.A.A.h.j.j.A.      .   .         .   .                     1XZXZXZXZXZXZX      ( A.k.l.j.x.S.B.( ; R NX>XT.H.D.J.H.H.F.~ # ",
"dXhX(.A.A.h.( ( ' y y u u u y u u u u u u u u u u u u u u u u u 2XZXZXCX7X9X9X      ! A.B.j.j.j.S.A.( - X.vXbXJ.K.K.v.h.B.Z.~ # ",
"aXkX(.A.A.{       CXZXZXZXZXZXZXZXZXZXZXZXZXZXZXZXZXZXZXZXZXZXZXZXZXZXqX            P A.B.{ j.h.A.D.( 4 X.NXcXJ.A.n.n.m.S.G.) % ",
"eXgX(.P.k.j.      ZXZXZXZXZXZXZXZXZXZXZXZXZXZXZXZXZXZXZXZX9X0XwXtX0X0X7X      > + o P ' ' [ j.V.B.C.( 1 R NXcXJ.A.b.m.m.L.G.P # ",
"eX:XE.S.x.j.      ZXZXZXZXZXZXZXZXZXZXZXZXZXZXZXZXZXZXZXZX. . . . . . .       i.i.p.3     X k.x.F.[ E 8 Q BX>XT.h.A.P.K.L.l.I $ ",
"`.`./ ^ f.m.- 8 4 6X6X6X5X6X6X6X5X5X6X6X6X5X5X6X7X6X6X5X6X      > 2 2 2 2 2 2 p.p.p.V 2 2 3 ! ( I I T Q '.=XoXU.0.B.A.k.l.I.~ & ",
". & $ 5 ] B.C.C.c.. X     . . .     . . .     X . .     .       %.i.i.i.p.p.p.p.p.p.p.i.u.y.      @ U pX-X..q.[ B.D.P.j.l.l.! & ",
"p p U L ~ ( ' [ }   X                                           %.p.p.p.p.p.p.p.p.p.p.p.p.y.      $ U sX-X| [ V.D.D.A.c.x.I.) & ",
"eXeXdX+XD 4       ZXZXZXd.p.p.p.p.p.p.p.p.p.s     X S.z.G.      %.p.p.p.p.p.p.p.p.p.p.p.p.a.ZXZXZX      '.[ { B.D.C.D.G.z.G.I * ",
"iXzXkX+X .T       9X9X9Xs.-.-.-.-.-.-.-.-.-.d 4 = 4 V.x.F.; O   #.-.-.-.-.-.-.-.-.-.-.-.-.;.9X9X9X      Y.j.h.S.A.D.A.x.x.G.I X ",
"eXzX!.R.:X:X      , , : > > + > o o + > + o K ' ' [ V.j.F.] r 1 , + > > o o + + + o o + + + o : ,       ( A.l.l.k.A.B.V.j.z.I = ",
"zXzXW.U.&X&X              .                 K m.k.A.h.h.l.x.F ; *                                       ( P.P.m.b.k.B.{ B.G.! = ",
"eXgXW.z.z.F...Y.;XdXdXdXfX4Xp # }.>XW.f.A.K.L.b.l.A.V.C.P.A.F ; r.MX#Xz.} M.U.w.'.sXdXlXdXaX[., T mX:XU.h.K.K.m.m.k.B.V.B.D.( & ",
"fXnX^.C.9.9.| Y.;XMXMXMXBXaXp > 3XdXY.} j.l.l.b.k.A.B.0.9.` m 5 ].VX&XZ.0.9.q.} '.nXVXMXMXlXOX7 X.NXdXM.j.j.l.l.l.S.h.B.9.9.J = ",
"dXnX(.B.V.0.9.U..X@XXXXX@X'.e % [.dXY.9.0.S.A.A.A.B.j.} J q : % ].VX&XS.C.B.x.} F._.XX_.@XXX+.: X.vXsXU.0.B.S.A.A.B.B.| ) M 0 # ",
";X,XW.' } } } ' { 9.9._ ` E 9 = }.sXT.9.[ [ { h.0.{ ) I 0 o % 5 N.cX&Xg.| } } ] _ [ 9.9._ E J 8 R NXsXq.[ [ B.{ { { [ ) T : o % ",
".X_.] A A A D A A F m m m m F F $XsX` F F F A F K F A t 5 % e L /._.Y.K A D A A A m n m m m F H w.BX-XE F A F A F K A A 0 * 4 U "
};
