/* XPM */
static char *result[] = {
/* columns rows colors chars-per-pixel */
"64 64 256 2 ",
"   c #050807",
".  c #16060A",
"X  c #021308",
"o  c #070B19",
"O  c #160816",
"+  c #031A16",
"@  c #081519",
"#  c #041B1B",
"$  c #15161A",
"%  c #261A17",
"&  c #042219",
"*  c #0F1226",
"=  c #071826",
"-  c #151826",
";  c #022423",
":  c #052828",
">  c #142728",
",  c #0B372A",
"<  c #062A38",
"1  c #162834",
"2  c #073639",
"3  c #163936",
"4  c #2C2D2C",
"5  c #6C130F",
"6  c #4B2111",
"7  c #0D432C",
"8  c #07463D",
"9  c #15463C",
"0  c #304A38",
"q  c #564F1A",
"w  c #775508",
"e  c #745214",
"r  c #73631D",
"t  c #53532C",
"y  c #615D20",
"u  c #736C2D",
"i  c #093B48",
"p  c #163A45",
"a  c #11354B",
"s  c #293B46",
"d  c #2A3C50",
"f  c #084646",
"g  c #194747",
"h  c #09534C",
"j  c #16554B",
"k  c #094654",
"l  c #194B57",
"z  c #0A5858",
"x  c #16575A",
"c  c #274548",
"v  c #285558",
"b  c #335050",
"n  c #395859",
"m  c #116257",
"M  c #16665A",
"N  c #2A655A",
"B  c #2F6C5D",
"V  c #0C5C63",
"C  c #175A65",
"Z  c #0D5F70",
"A  c #315962",
"S  c #086467",
"D  c #166769",
"F  c #097B69",
"G  c #167866",
"H  c #0B6D75",
"J  c #196A75",
"K  c #087676",
"L  c #057B7B",
"P  c #0C7B7B",
"I  c #137375",
"U  c #18767A",
"Y  c #147B7D",
"T  c #2C6F6D",
"R  c #376766",
"E  c #276D77",
"W  c #257577",
"Q  c #465359",
"!  c #4C704E",
"~  c #6D7450",
"^  c #495861",
"/  c #4B7571",
"(  c #991819",
")  c #D30909",
"_  c #CA1819",
"`  c #D51818",
"'  c #EB0505",
"]  c #F60701",
"[  c #FF0000",
"{  c #F71701",
"}  c #F41B00",
"|  c #EB1914",
" . c #D7241B",
".. c #FE2600",
"X. c #F52E06",
"o. c #FD2B01",
"O. c #EA2927",
"+. c #92710E",
"@. c #AA7705",
"#. c #B27903",
"$. c #B67D00",
"%. c #BA7E00",
"&. c #B1770A",
"*. c #916123",
"=. c #B27D2D",
"-. c #EA5801",
";. c #C56C00",
":. c #C47200",
">. c #C57900",
",. c #D57A04",
"<. c #68843D",
"1. c #09866E",
"2. c #04837C",
"3. c #0C827C",
"4. c #05897A",
"5. c #15847A",
"6. c #288578",
"7. c #348973",
"8. c #61945E",
"9. c #4D8A77",
"0. c #56867C",
"q. c #668678",
"w. c #BB8101",
"e. c #B88203",
"r. c #A3872F",
"t. c #C28402",
"y. c #CA8704",
"u. c #D68703",
"i. c #D39A17",
"p. c #EB9404",
"a. c #F89A01",
"s. c #F68F16",
"d. c #FAA405",
"f. c #EAA518",
"g. c #F7A817",
"h. c #FCAD1A",
"j. c #FFB217",
"k. c #F7B61A",
"l. c #FFB21B",
"z. c #C7832E",
"x. c #D5A527",
"c. c #EEB226",
"v. c #97B164",
"b. c #F3B44B",
"n. c #156F81",
"m. c #0B7586",
"M. c #057D84",
"N. c #0B7C84",
"B. c #047D8A",
"V. c #0B7D8B",
"C. c #157687",
"Z. c #137C84",
"A. c #1C7B83",
"S. c #137B8A",
"D. c #047D91",
"F. c #0D7D92",
"G. c #0B7895",
"H. c #117993",
"J. c #277D88",
"K. c #5E7D87",
"L. c #048385",
"P. c #0B8284",
"I. c #048B84",
"U. c #0C8A87",
"Y. c #04838B",
"T. c #0A838B",
"R. c #028A8C",
"E. c #158786",
"W. c #12838B",
"Q. c #11948E",
"!. c #199489",
"~. c #048392",
"^. c #0B8392",
"/. c #058993",
"(. c #148491",
"). c #258888",
"_. c #318D8F",
"`. c #27978A",
"'. c #289996",
"]. c #2B9C9D",
"[. c #34999A",
"{. c #18A093",
"}. c #28A39B",
"|. c #38A896",
" X c #2C9DA2",
".X c #349BA2",
"XX c #28A3A4",
"oX c #38A7A3",
"OX c #3AB2AE",
"+X c #588887",
"@X c #4D9490",
"#X c #679091",
"$X c #799899",
"%X c #4AA799",
"&X c #69A59B",
"*X c #7BA297",
"=X c #4D99A4",
"-X c #769CA2",
";X c #44A9A8",
":X c #57A7A5",
">X c #46BBA8",
",X c #51B8B1",
"<X c #68A8A6",
"1X c #78ABA8",
"2X c #6ABAB8",
"3X c #73B2B0",
"4X c #4DC4B2",
"5X c #5AC5B8",
"6X c #64C5BB",
"7X c #76C5B5",
"8X c #75D2BD",
"9X c #5ABEC3",
"0X c #6BBCC3",
"qX c #5CC4C2",
"wX c #57C9C4",
"eX c #5DD4CA",
"rX c #64C5C4",
"tX c #6AD6CA",
"yX c #77D6CA",
"uX c #75D0CC",
"iX c #79D8D7",
"pX c #71E4D5",
"aX c #7AE5DB",
"sX c #73DBE3",
"dX c #7DE6E5",
"fX c #929DA0",
"gX c #84B4B0",
"hX c #8DCFB9",
"jX c #B8BEC5",
"kX c #8FCBCB",
"lX c #8BD6CA",
"zX c #93D4CB",
"xX c #98D8CB",
"cX c #88D9D7",
"vX c #98D9D4",
"bX c #A7CECF",
"nX c #87E4D6",
"mX c #8AEBD0",
"MX c #84E4DB",
"NX c #8AE5DD",
"BX c #85EBDD",
"VX c #98E6D8",
"CX c #95F7D9",
"ZX c #A3E9DA",
"AX c #8FD7E2",
"SX c #ADDEEA",
"DX c #89E9E4",
"FX c #97E7E3",
"GX c #9AF5E8",
"HX c #90F4F0",
"JX c #A9E9E6",
"KX c #B4E7E9",
"LX c #A3F4E7",
"PX c #AFF0EF",
"IX c #A6F5F4",
"UX c #C5E8F5",
/* pixels */
"D T 2XvXlXzXlXzXzXzXzXzXxXvXzXkXvXgXl & f R <XzXvXzXvXkXcXcX:XJ D D %XlXcXlXzXlXzXzXzXzXzXxXzXkXxXxX<X3 : N T hXkXvXzXzXlXlX2XW ",
").`.tXDXaXMXDXDXMXcXMXNXNXNXMXNXDXuXg & v 7.7XMXcXMXDXDXdXdX;XE W ).OXdXDXaXDXMXNXNXNXnXMXMXNXNXDXcX2X3 8 K.@XcXVXDXcXNXDXDXrXD ",
"2XtXOXXX X].[.[.XX XXX}.].].].[. X).: @ $XkX:X}. X.X[.XXXXoXN 1 0.yX4XXXXX X[.[.]. X X}.].].]..XXX XW > Q bXkXoX]..X]. X}.}.6.1 ",
"zXaXXX~.Y.Y.N.N.N.B.T.L.Y.B.L.T.~.K = . fXSX=X2.B.V.M.L.U.W.i % q.GXwX/.Y.Y.N.N.M.B.Y.L.Y.L.M.Y.Y.~.V $ Q UXcXE.L.B.B.M.I.U.x O ",
"zXaXXXY.Y.L.M.N.V.B.Y.Y.Y.L.L.Y./.K ;   fXFXOXU.Y.D.D.T.T.E.2 $ / GXwX^.Y.L.L.N.N.V.Y.Y.Y.L.Y.L.R./.S # n KXiX'.R.D.D.T.U.E.C @ ",
"zXMX XY.Y.L.L.N.N.V.Y.Y.L.M.M.I.R.L : + 3XDXoXL.B.D.^.T.W.U g # q.GXwXT.B.Y.P.M.V.V.Y.L.L.L.L.L.R.R.S ; R IXiXQ.B.D.^.^.T.Z.x @ ",
"lXNX.XT.Y.L.L.N.V.B.Y.L.M.P M.N.Y.L ; + <XDXoXP D.D.D.V.Z.U i $ +XGXqX(.B.Y.L.N.N.V.B.Y.L.M.P N.Y.~.S ; R HXaX!.B.~.~.B.N.C.x + ",
"zXNX.XB.Y.L.L.N.Y.~.Y.B.N.N.P N.V.H ; X &XDX[.H V.^.~.V.A.E f # +XLXqXW.B.Y.M.P V.Y.T.L.P.N.N.m.W.T.S # n HXaX6.H F.~.Y.Z.n.x + ",
"zXNX XB.V.M.N.P.R./.T.V.T.L.M.N.Z.J =   fXVXT < J H.S.A.W A.g & 0.GXwX(.B.M.N.Z.Y./.R.V.N.Y.L.L m.S.C @ Q PXkXg i m.(.E.A.U x + ",
"lXDX XD.Y.N.Z.V.R./.Y.V.U.R.L m.C.J - . $XvXn = l J E D J J p & 0.GXeX(.B.N.N.Z.Y.R./.Z.B.R.L.M.S.C.v $ b SXhX3 < J n.W E E C # ",
"VXNX.Xm.Y.R.L.P.R.~.Y.M.Y.Y.M.B.T.H & X N 7.9 o < i < 1 i i f j &XIXrXS.M.Y.L.P.V.Y.Y.Y.Y.R.B.B.V.T.z + 7 9.7.& = < < 1 < i i g ",
"vXVX=Xm.R.I.L.T.B.V.Y.Y.Y.Y.B.B.R.K ; X j 6.7 $ * * * * 1 < f B 2XJXuXJ.N.R.R.N.N.V.B.L.Y.^.B.B.T.~.F & 7 6.B & o * = - * : 2 N ",
"vXDX.XV.Y.I.M.N.Y.Y.T.Y.~.Y.B.Y.~.K & X q.7X1XgX3X3X3X1X3X2X/ g @XLXrX(.T.Y.L.N.T.Y.Y.T.Y.Y.Y.B./.~.S & 0 8X7XgX3X3X3X1X1X2X@Xp ",
"xXBX XY.Y.N.N.N.~./.T.B.Y.Y.B.B.T.H ;   *XZXCXCXDXdXBXBXDXHXK.= 0.LXwX(.Y.Y.N.P V.R.Y.T.B.Y.B.B.T.Y.V + ! PXLXZXCXaXHXBXNXDX3X- ",
"zXaXXXY.L.M.M.N.Y.~.Y.T.V.N.B.V.Y.H ;   *XmX5X|.{.XX{.}.}.[.v - q.FXwX/.B.M.N.m.M.~.Y.T.B.V.N.V.V.Y.z @ b ZXmX|.}.'.}.{.}.'.E $ ",
"xXaXXXY.B.M.N.N.Y.~.Y.L.N.m.m.S.^.H ;   *XZX|.4.L.U.I.I.E.W p $ q.GX,XT.L.M.P N.V.Y.Y.Y.M.S.N.Z.V.T.V # n JXMX!.4.I.R.4.I.U.C $ ",
"vXBXXX~.Y.B.M.N.B.Y.Y.Y.M.N.N.N.Y.K ;   $XSXoXL % _ ` _ ` ` ) )  .O.O.` ` ( f Y N.V.Y.L.L.N.N.N.T.Y.S # Q PXAX!.Y.D.G.B.B.T.x O ",
"zXBXXXB.Y.B.V.N.m.m.B.Y.P.M.M.P.Y.K ; o $XSXOXL 6 ] [ [ [ [ [ [ [ [ [ [ [ ) i m.N.V.M.Y.Y.L.N.M.T.R.H ; ^ KXAX{.Y.G.H.H.V.P.x @ ",
"hXnX[.S.D.G.F.V.m.M.V.V.^.~.M.W.T N % O fXjX@XR 5 ' [ [ [ [ [ [ [ [ [ [ [ ) 4 J.E H m.V.V.^.Y.P.5.3.M = ^ UXNX!.L.F.H.C.N.P.z + ",
"xXlX[.C.G.G.(.W.L M.S.S.B.B.V.A._ [ [ [ [ [ [ [ [ [ [ [ [ [ [ [ [ [ [ [ [ [ [ [ ' R Z.H.V.~.B.S.Y U M : ^ KXcX{.I.L.N.V.T.P.M & ",
"b b a k m.F.T.L.3.3.M.V.F.V.P.I _ [ [ [ [ [ [ [ [ [ [ [ [ [ [ [ [ [ [ [ [ [ [ [ ' R Y.V.B.V.V.P S 2 x @X<X%X[.U.I.Y.^.Y.T.N.x @ ",
"$ $ - 2 D I 3.3.2.2.L.Y.T.W.U.3.( ' O.O.` | o.o.o.{ } o.X.X.X.X.o.} ..} } { } ..X.R 2.Y.T.S.W.P.z o p uXwXY P.I.R.~.Y.R.Y.W.C o ",
"#X&X1X#Xp < : 2 F 4.4.I.P.P.I.4.: % fXbX+X/ x.g.a.;.;.s.h.h.h.g.s.#.#.;.%.;.:.;.:.7.U.L.I.P.I.4.z o p cXtXL P Y.B.B.V.F.^.G.Z = ",
"lXCXmXhX3 - - , M K F K K P 4.F 3 b gXvX%X9.x.h.a.t.%.g.l.l.c.l.g.t.t.%.w.w.w.t.t.B G G K F L F z = v uXrXS.N.F.^.F.G.H.H.G.Z = ",
"hXmX:X%X7X&XgX*Xc 2 2 < < 2 2 8 *.s.s.s.s.s.h.h.a.t.t.d.l.l.l.c.h.d.d.a.t.t.d.d.d.@.+.w < < < 8 C <X<X;X'.B.B.B.~.~.~.F.T.T.S = ",
"xXVX|.7.pXaXCXxXc = o o o @ o o =.h.h.h.h.l.l.h.d.>.e.a.l.l.l.l.j.j.l.a.t.t.d.j.l.e.#.+.o o o = A FXiX).M.Y.~.D.~.~.~.Y.R.I.V = ",
"bXCX|.1.OX>X:X<X<X#X#X@XK.^ q % =.h.h.h.l.l.g.g.a.t.t.d.l.l.l.l.l.k.g.a.t.t.j.j.l.y.w.+.+X+X^ O Q KXcX_.N.N.B.V.D.Y.Y.Y.I.1.S o ",
"vXHX}.4.I.I.Y _.uXFXAXsXuXt x.i.h.h.l.h.l.k.y.t.p.g.g.h.l.l.l.l.g.w.e.t.%.y.d.l.k.y.$.r.nXMX&X$ Q KXvX).Y V.V.T.D.Y.B.M.4.F h o ",
"AXAXXXL.L.P.Y Z..XOX|.|.7.t j.j.l.l.j.l.l.g.t.w.u.j.j.j.l.h.l.l.g.%.$.e.%.t.d.l.l.y.e.e.|.%XT $ Q SXlXE.L L.L.Y.I.L.P.Y D 7 $ O ",
"AXdX XF.Y Y A.P L.2.1.1.m 0 j.j.h.l.j.j.j.g.t.%.u.h.h.g.h.l.h.l.f.t.%.w.%.y.d.l.h.t.#.+.1.G j & v JXaX5.2.L.I.I.I.U.P J v $ . . ",
"OX9XZ i i p k k f k f f 8 8 0 9 *.w.t.w.w.w.w.%.w.t.y.d.l.l.h.l.j.h.h.g.h.f.y.t.w.%.%.@.9 h 8 f 7.LXyXM k f k k k z f p 1 @ $ p ",
"/.G.i * * = * * * * = : , , m 1.u @.#.w.w.w.w.w.%.%.t.d.l.l.l.h.h.j.l.l.l.g.>.#.#.#.$.+.& : 8 G |.GXhX3 o = * * = = ; - @ @ , J ",
"Y.N._.+Xq.9.0.+XK.K.+X+X+X@X:X,X~ u w p.p.p.p.d.p.p.p.h.l.l.l.h.j.h.h.l.l.f.w r r r r u / @X=X6X8XGXhX> = f g / #X+X0.0.0.+X@XZ.",
"W.!.lXGXmXmXCXLXKXKXJXGXIXIXLXHXCXlXt j.k.l.l.k.l.l.l.l.l.l.l.l.l.l.l.h.l.x.! VXZXPXKXZXJXIXIXGXDXLXgX> , 5.|.cXLXLXLXLXLXIXiXJ.",
"=X,X5X5X4X4X,X6X6X0XrX5XqX0X5XqXwX:X0 j.j.j.k.k.l.j.l.l.l.l.l.l.l.l.h.l.l.i.n 5X2XrXrXwXqX9XrX9XqXrX+X> 4 3X,X,X6XrX6X6XrXrX=Xv ",
"kXpXXXQ.4.5.E.W.(.W.^.Q.W.T.T.W.(.Y 4 k.j.c.y 0 q t.p.X.{ { ,.u.u.y.u.y.u.y.+.+.+.6.U.U.T.T.W.W.U.(.C - Q UXvX`.E.W.W.T.U.!.C * ",
"zXdXXXY.L.B.L N.N.B.Y.L.L.B.M.Y.R.K > j.l.c.9.4.% #.>.{ [ [ ;.%.%.%.%.%.e.w.%.%.w.T I.L.L.L.L.Y.R.R.S = ^ UXcX`.B.B.B.M.L.P.x o ",
"zXBXXXY.R.L.M.N.V.V.Y.Y.L.L.L.L.6.T q k.l.c.8.7.6 #.%.X.} } %.%.$.%.$.w.e.e.%.%.>.9.7.7.Y.L.L.L.R.~.S ; / PXsX!.L.D.D.^.U.W.x o ",
"zXBX].B.Y.L.L.N.V.V.Y.L.M.M.M.N.z.l.k.j.j.l.k.k.a.t.#.e.w.%.%.%.%.w.%.$.%.$.%.%.t.k.c.f.P.M.P N.T./.S ; N IXpX!.M.D.~.~.N.Z.x + ",
"lXcX.XV.Y.Y.L.N.V.Y.L.B.N.P m.U r.j.k.j.j.j.j.j.d.%.%.%.%.%.%.%.%.$.$.$.w.%.$.%.>.c.l.f.P N.m.Y T.Y.S & v HXpX!.M.~.D.B.N.A.x + ",
"zXMX XB.B.Y.M.N.R./.Y.P.N.M.P Z.=.f.s.j.j.l.j.j.d.t.%.%.%.%.%.%.%.$.%.$.%.%.;.:.:.g.l.f.j z S m.Z.V.C # n GXnXD H G.(.V.C.A.x @ ",
"zXDX XB.V.N.N.P./.R.T.V.T.I.M.N.W ! q h.j.j.j.j.d.t.%.%.e.w.w.%.w.e.e.e.%.;.] { { s.l.l.x.x.u Y S.C.C $ Q PXkX9 i J C.n.U U x + ",
"vXNX.XV.Y.I.N.T.Y./.T.N.Y.Y.B.N.V.J 4 f.f.f.g.d.a.,.:.;.;.:.:.:.:.;.:.:.:.;.[ [ [ s.l.h.j.k.*.I V.V.m + c 7X&X: = i l l l l k , ",
"VXNX=XC.R.R.P.N.V.B.Y.Y.T.Y.M.B./.K , w e *.-.X.X.o...o.o.o.o.....o.o.o.o...[ [ ] ,.p.p.a.p.r I T.R.m & , 1.B & o = = o o = 2 N ",
"vXcX.XV.R.R.L.N.V.T.Y.Y.~.B.B.T.R.K & X B 8.` [ [ [ [ [ [ [ [ [ [ [ [ [ [ [ [ [ ] ;.w.w.%.$.q I /.R.S & 7 %X7.0 p g c c d l k v ",
"vXDX.XY.Y.M.L.N.Y.~.Y.V.R.Y.B.T.~.K ; X *XfXO.[ [ [ [ [ [ [ [ [ [ [ [ [ [ [ [ [ ] ;.e.$.%.$.y I T.~.V + 0 CXxXZXZXFXVXmXcXFX3X3 ",
"xXBX XY.Y.M.N.N.R./.T.B.B.B.B.V.T.H #   *XbXO.[ [ [ [ [ [ [ [ [ [ [ [ [ [ [ [ [ [ { } } %.%.q U T.Y.S + Q PXCXmXyXtXpXtXtXiX=X@ ",
"xXBX XY.Y.M.N.N.T.~.Y.V.N.V.N.S.V.H +   *XjXO.[ [ [ [ [ [ [ [ [ [ [ [ [ [ [ [ [ [ [ [ ] %.%.q J V.Y.C + n PXcX`.4./.Q.I.Q.E.x $ ",
"vXBX XY.Y.M.N.N.N.Y.Y.L.M.N.N.V.B.H :   $XbXO.' ' [ [ [ [ [ [ [ [ | ' ] [ [ [ [ [ [ [ ] %.$.y G W.Y.S + Q KXNX!.L.~.D.B.L.W.D O ",
"xXBXXXR.Y.Y.M.Z.V.V.Y.Y.M.P M.P.R.L <   $XSX;XI 6 ] [ [ [ [ [ [ O.ZXqX5 ' [ [ [ [ [ [ { %.%.%.#.@.z S = Q KXAXQ.Y.G.G.H.T.E.x o ",
"hXaXXXR.Y.N.N.Z.C.G.B.Y.Y.T.M.P.L.K :   -XFX;XK 6 ' [ [ [ [ [ [  .vX>X5 ' [ [ [ [ [ ] ] %.%.e.w.#.h z ; n PXcX`.B.F.H.H.^.W.z @ ",
"hXaX].V.N.Z.C.C.m.H.D.~./.D.M.A.P G ; @ -XFX;XH % _ _ } } } } { _ ~ ! 5 _ _ ` ` ` `  ._ *.+.@.w.@.h z ; R IXiX`.M.Y./.~.^.F.x o ",
"+X+XA C n.m.U.T.C.C.R.L.R.B.L.Z.D j n B &X6X'.P H E T +.&.;.:.%.$.@.@.w b E T T E J.E E 5.Y q e.@.3 v R +X8X,X).L.L.Y.B.V.W.C + ",
"$ $ * 1 J W.U.3.C.A.N.3.N.C.P I 1 1 3XPX%X5.K L P.P.I +.%.%.%.%.e.%.%.w c C.U.U.Z.A.Z.P.U.P y w.#.@ c kX8XU 5.L L.R.R.V.V.V.S o ",
"4 0 3 d C V H K Z.C.4.I.P.W.Q.3.< 1 7XHX|.Y 3.R.I.e w @.%.%.%.%.w.$.%.e.~ Z S K P C.N.4.I.E.q.b.b.o s cXuXI P P.R.I.Y.V.C.(.D X ",
"hXhXvX0Xa = = < D A.5.3.Y Y 5.5.< - uXHXoXP L.Y.b.e.#.$.%.%.%.%.%.$.#.i.#X: = = i J 5.4.5.U 5.3.x o p cXeXK K L.R.R.R.S.A.W.M o ",
"hXCXBX2XE x v b v l l j x m V m l A 2XtX XV.V.T.v.<.<.u <.u r w r.v.v.v.:Xv v v A l l l j z x m v d R rX,XP M.T.Y.R.Y.Z.Z.W.x X ",
"mXaX[.[.tXpXDXkXd * * o = ; X + -XcX[.E.T.Y.V.V.~.R.R.Z.(.A.f & 9.CX5X).oXpXaXNX1X1 * * = ; & & A vXiX_.B.Y.V.V.B.L.Y.P.N.A.C + ",
"hXmX[.E.wXeXyX2X/ d d 0 c c     <XMX[.Y B./.F.H.D.Y.M.M.W.C.f # 9.CX6XE.].eXtXyX<Xn d 3 3 c 3 @ v IXiX(.M.~./.H.G.Y.L.L M.P.V + ",
"xXmX[.A.A.).W _.0XAXbXvXxXgX    <XaX'.C.B.~.F.G.V.~.L.I.R.Y.f @ 0.GX6X).A.).W ).=XkXZXVXvXbX$X$ v HXpX).M.~.~.H.S.B.L.P.L.R.S o ",
"bXFX XL.4.L.Y _.cXIXGXCXLXxX4 . fXcX_.U N.V.F.V.B.Y.L.2.1.G 8 * K.IXqXU.2.4.Y U @XFXIXHXGXGX-X% Q KXvXJ.Z.V.V.F.V.Y.L.L.2.1.j + ",
"vXHX}.L.I.L.Y E.OX4X>XOX4X@X3   $XvX_.P P.P.Y.Y.Y.L.N.I j , $ $ K.IXeXU.2.L.E.U E.;XOX>X>X>X/ $ b SXvX).L L.Y.Y.Y.L.3.Y I 9 > O ",
"uXsX'.I I U J K K L 1.F G M : # &XcX!.F K L L L 3.L I v > . O - K.HX9XS.I I I I K L F F 1.G j ; N JXnX5.F L L.L L P K J v $ . O ",
"OXOXJ a i a i i i f 8 8 8 8 h f 7XmXW f f f i k k f f < * O 1 C H.OX_.k i a i a f i 8 8 8 8 8 h 7.LXyXm f i k i f k f 2 > @ - p "
};
