/* XPM */
static char *result[] = {
/* columns rows colors chars-per-pixel */
"64 64 255 2 ",
"   c #030101",
".  c #0C0200",
"X  c #180903",
"o  c #1F100D",
"O  c #1B1514",
"+  c #250B04",
"@  c #240E05",
"#  c #390801",
"$  c #2B1206",
"%  c #281209",
"&  c #381607",
"*  c #281613",
"=  c #2C1B15",
"-  c #2D1C19",
";  c #331D17",
":  c #382315",
">  c #291F21",
",  c #362625",
"<  c #352B2B",
"1  c #34292C",
"2  c #3C2D2C",
"3  c #570B08",
"4  c #461D0B",
"5  c #70160C",
"6  c #49210E",
"7  c #56250D",
"8  c #56340D",
"9  c #48261A",
"0  c #552A16",
"q  c #5E2B14",
"w  c #6A2D0F",
"e  c #622C14",
"r  c #652F17",
"t  c #693319",
"y  c #743314",
"u  c #73361A",
"i  c #743A1D",
"p  c #7C3A1A",
"a  c #482C27",
"s  c #5A3629",
"d  c #4E3633",
"f  c #693A26",
"g  c #763D26",
"h  c #673D34",
"j  c #7C5409",
"k  c #784A13",
"l  c #5F472F",
"z  c #7E4225",
"x  c #79442A",
"c  c #684538",
"v  c #774936",
"b  c #705332",
"n  c #453B50",
"m  c #5B4848",
"M  c #6B4F48",
"N  c #77534A",
"B  c #6A5655",
"V  c #6B5655",
"C  c #755A58",
"Z  c #7A5E5D",
"A  c #7D605E",
"S  c #7A5F60",
"D  c #7D6362",
"F  c #B91304",
"G  c #9B2615",
"H  c #DB0807",
"J  c #C71602",
"K  c #D81605",
"L  c #E80403",
"P  c #F50404",
"I  c #FF0000",
"U  c #FA0A02",
"Y  c #EB1407",
"T  c #FE1600",
"R  c #F41B00",
"E  c #FE1A01",
"W  c #F81806",
"Q  c #F4160E",
"!  c #F81B16",
"~  c #FE2300",
"^  c #FD2B01",
"/  c #FC230B",
"(  c #F42C0E",
")  c #FE3603",
"_  c #E42313",
"`  c #FF2413",
"'  c #FF2A15",
"]  c #FC281A",
"[  c #81550A",
"{  c #8F5017",
"}  c #835C17",
"|  c #976903",
" . c #8C6214",
".. c #A56D06",
"X. c #AB7507",
"o. c #B57C01",
"O. c #B37904",
"+. c #BA7E00",
"@. c #B96F16",
"#. c #824526",
"$. c #874829",
"%. c #994C27",
"&. c #88522E",
"*. c #9B512C",
"=. c #8B5137",
"-. c #995536",
";. c #A2542E",
":. c #A95234",
">. c #A85A36",
",. c #B75E34",
"<. c #906027",
"1. c #AA613C",
"2. c #B4633C",
"3. c #B96439",
"4. c #BA643A",
"5. c #AE7036",
"6. c #F84608",
"7. c #C56D00",
"8. c #C37200",
"9. c #C67801",
"0. c #D57B12",
"q. c #F0601E",
"w. c #CB5936",
"e. c #C5693D",
"r. c #CC6D3E",
"t. c #CA7038",
"y. c #865849",
"u. c #925B4A",
"i. c #88635B",
"p. c #986752",
"a. c #AA6546",
"s. c #B66742",
"d. c #B76944",
"f. c #BB6B44",
"g. c #BC6E4A",
"h. c #BD704B",
"j. c #AA6954",
"k. c #B97556",
"l. c #B07058",
"z. c #866966",
"x. c #97726A",
"c. c #A87568",
"v. c #B67A68",
"b. c #A47E78",
"n. c #B67D76",
"m. c #CE6642",
"M. c #C66E45",
"N. c #CC6E43",
"B. c #C76D49",
"V. c #D26945",
"C. c #C57146",
"Z. c #CC7145",
"A. c #C5734B",
"S. c #CA744A",
"D. c #C97C4C",
"F. c #D17244",
"G. c #D37C41",
"H. c #D1754C",
"J. c #C67754",
"K. c #CC7A55",
"L. c #CC7D5A",
"P. c #D67A52",
"I. c #D47B54",
"U. c #D27E5A",
"Y. c #E27F5D",
"T. c #CD7E6B",
"R. c #B68102",
"E. c #BB8101",
"W. c #C28402",
"Q. c #CA8704",
"!. c #D68703",
"~. c #D79319",
"^. c #EB9404",
"/. c #F89A01",
"(. c #F59014",
"). c #FEA201",
"_. c #F7A508",
"`. c #EBA518",
"'. c #F7A817",
"]. c #FCAD1A",
"[. c #FFB217",
"{. c #FFB21B",
"}. c #FBB51A",
"|. c #CE9221",
" X c #F3AF25",
".X c #B08258",
"XX c #AE836C",
"oX c #B3846B",
"OX c #B5866C",
"+X c #AB837C",
"@X c #BA8577",
"#X c #CE815D",
"$X c #D3815C",
"%X c #DD865D",
"&X c #D19054",
"*X c #F88646",
"=X c #F7B04B",
"-X c #CB8569",
";X c #DC8662",
":X c #DA8965",
">X c #D78968",
",X c #D5896A",
"<X c #C78B76",
"1X c #D48C77",
"2X c #CD937B",
"3X c #D8957A",
"4X c #E28967",
"5X c #E39375",
"6X c #EC9076",
"7X c #E5987B",
"8X c #FAA96C",
"9X c #736F8A",
"0X c #897C97",
"qX c #AD8783",
"wX c #B48A86",
"eX c #BC928C",
"rX c #C18881",
"tX c #C99688",
"yX c #D89A86",
"uX c #C99B97",
"iX c #CC9D95",
"pX c #D29E94",
"aX c #E49E84",
"sX c #E89B86",
"dX c #F49687",
"fX c #DEA18D",
"gX c #CEA098",
"hX c #DBA495",
"jX c #D7A599",
"kX c #DBA69A",
"lX c #E4A28B",
"zX c #E8A288",
"xX c #F3A68A",
"cX c #FCB789",
"vX c #FFB98E",
"bX c #EAA793",
"nX c #E3AB9D",
"mX c #EBAC9C",
"MX c #F1AC99",
"NX c #EDB49C",
"BX c #FFBB91",
"VX c #F4B09E",
"CX c #CFA6B5",
"ZX c #ECB5A6",
"AX c #EDB4A7",
"SX c #F3B5A4",
"DX c #F6CC97",
"FX c #FBC798",
"GX c #E6CBA3",
"HX c #F7CDA2",
"JX c #F9CEA3",
"KX c #FDD7AA",
"LX c #CCACC1",
"PX c #D3B6C7",
"IX c #D3B4CB",
/* pixels */
"j.c.eXCXPXPXIXPXPXPXPXIXIXIXIXIXIXLX0Xn 1 C n.CXIXIXIXIXIXIXCXrXl.j.v.uXLXIXIXIXPXPXIXIXIXIXIXIXPXIXCX9Xn m u.rXCXIXIXIXIXIXLXuX",
"a.L.yXnXmXnXnXZXmXnXmXmXmXnXmXmXZXhXi.- = y.1XbXMXmXmXmXmXmXyXl.1.B.>XsXbXmXbXmXmXMXMXmXMXMXmXMXMXMXyXC ; f j.6XbXMXMXMXMXMXsXT.",
"y.2XsX>X,X,X>X>X>X>X>X:X>X:X>X>X>XL.x * - c.sX>X:X;X;X:X:X4Xg.g h n.sX7X:X;X;X:X;X;X;X;X%X4X%X4X4X4XJ.f = v <XdX4X%X%X%X%X4XI.-.",
"B iXsXL.C.C.S.C.C.A.A.M.C.B.A.S.S.4.p @ 1 qXaX>XM.C.Z.M.S.S.;.6 a wXmX5XH.m.N.B.N.M.Z.Z.N.N.N.r.V.H.,.e = Z pXxXP.V.r.V.r.V.,.y ",
"V pXzXK.f.C.C.C.C.C.C.C.C.C.C.Z.S.3.i @ < wXlX:Xe.C.M.N.Z.S.*.4 2 qXmX5XH.e.N.r.N.m.N.r.r.r.m.N.r.r.,.e = Z pXxXP.r.r.r.r.r.w.y ",
"V iXsXL.C.C.C.A.S.A.S.C.S.C.S.S.S.4.i @ 2 qXlX:XZ.Z.S.Z.Z.H.;.4 2 wXmX7XI.M.Z.N.Z.Z.Z.N.Z.Z.Z.F.F.F.,.w - Z pXxXY.r.r.V.V.r.,.y ",
"V uXsXL.C.C.S.C.C.S.S.A.C.S.S.S.S.d.i @ < qXbX$Xe.C.C.Z.S.H.;.6 2 eXmX7XH.N.N.N.N.N.N.N.N.Z.N.N.F.F.3.e - S pXxXP.t.r.r.r.r.,.y ",
"V uXzXK.f.C.S.A.B.S.S.C.S.A.C.S.S.s.u @ 1 qXtXa.*.2.Z.S.H.F.;.4 2 eXmX7XH.N.N.S.N.F.N.N.F.N.N.N.Z.G.3.w - D pXyX>.,.r.F.G.t.w.y ",
"B iXzXL.M.A.S.A.S.C.C.S.A.C.S.A.S.d.u @ 2 +X@Xh 6 %.4.S.B.N.*.6 2 wXmX7XI.M.N.N.N.N.N.S.N.N.F.F.F.F.,.e ; A tXn.r y ,.r.r.t.,.y ",
"i.hXaXL.M.M.A.A.A.S.A.S.A.A.A.S.H.4.i @ , x.i.: X q %.%.%.*.p 7 c eXmX3XH.Z.N.S.N.F.F.N.F.N.N.N.N.F.,.e = N n.i.* 4 y %.%.%.{ 5 ",
"OXnXaXL.C.C.A.A.C.A.A.S.A.A.C.S.S.f.p + ; -.=.=   + & & & & 4 y 1.pXVX3XH.C.Z.Z.N.N.N.N.N.Z.N.N.V.F.3.e $ g a.v X X $ 4 4 4 4 7 ",
"<XnXyXL.C.C.C.S.A.A.A.C.S.C.S.S.S.s.u @ $ =.u.d < , , , 2 a a g j.nXVX5XH.N.C.Z.Z.N.H.N.N.N.F.F.Z.F.4.e $ f a.a.a , 2 2 , , 9 e ",
"i.hXaXK.A.h.S.A.A.A.S.A.A.S.A.C.S.s.u @ - x.tX@Xb.b.b.+Xb.b.z.c v uXmXsXJ.m.Z.Z.Z.Z.Z.N.Z.Z.Z.N.r.F.4.w * N T.yX@Xb.b.b.c.b.x.N ",
"V pXsXL.C.C.C.A.A.A.C.A.S.C.A.A.S.s.u @ < wXAXAXmXmXNXmXVXVX@Xd 2 wXmX5XH.M.Z.Z.N.S.Z.Z.Z.Z.Z.Z.F.F.3.e = Z pXSXVXMXmXMXmXVXpXu.",
"B iXlXL.C.C.A.A.A.A.S.S.B.A.S.A.S.f.g @ 2 wXmXsX:X:X>X:X>X5Xj.9 2 qXnX7XH.C.Z.Z.Z.Z.Z.Z.N.N.F.Z.Z.F.3.e - Z pXVX6X4X4X4X4X4XI.x ",
"V gXzXK.h.C.A.A.A.S.A.A.S.S.C.S.S.s.i % < qXbX>XJ.S.K.I.H.H.;.6 a qXmX5XH.B.M.S.Z.Z.S.N.S.N.N.Z.Z.Z.,.e - S pXxX%XS.H.H.H.P.s.u ",
"V gXzXL.C.h.A.A.A.S.A.A.A.S.S.S.A.s.u @ < qXlXJ.5 Y Q Q Q Q Y H H ! ] ! ! K g Z.Z.N.Z.Z.Z.Z.N.H.F.F.3.e - S pXbXP.V.r.r.r.Z.,.y ",
"V gXzXK.A.C.A.A.A.A.A.S.A.A.A.A.S.f.u @ 1 qXbXk.3 P I I I I I I P I I I I H f Z.Z.S.Z.N.Z.Z.N.Z.Z.F.e.e = S pXbXP.N.r.N.N.Z.,.y ",
"V gXzXL.A.A.A.A.A.S.A.S.S.A.A.A.m.w.#.# a n.sXm.5 P I I I I I I I I I I I L y m.m.V.B.S.C.F.Z.N.F.F.3.e = Z pXxXP.Z.N.Z.Z.Z.,.y ",
"m b.v.a.2.g.S.J.S.A.A.A.A.S.S.B.Y I I I I I I I I I I I I I I I I I I I I I I I U w.Z.Z.S.N.Z.Z.M.3.*.r s z.tX7XI.Z.N.Z.Z.Z.,.y ",
"> d l r #.2.J.D.A.A.A.A.A.S.S.M.Y I I I I I I I I I I I I I I I I P I I I I I I U w.V.S.Z.Z.Z.S.3.{ t c i.v.,X;XF.Z.r.Z.F.F.4.y ",
"O > < 9 f %.>.>.s.C.S.A.S.A.S.C.F H L ! ! ! ^ ^ ^ E R ^ ) ) ) ` / ~ ~ R R R R R / w.S.Z.Z.S.S.F.:.r & B pX7XU.H.Z.Z.Z.F.r.F.3.y ",
"2 D b.z.M 9 : 7 #.2.S.S.A.D.&XC.g 3 h 1XdX%X X(./.7.7.(.'.'.].'.(.O.O.7.+.7.8.8.9.%.M.F.S.Z.Z.G.:.q * V nX7XI.N.Z.Z.Z.Z.N.F.3.y ",
"B gXAXgXi.d , , f &.;.-.*.-.>.;.x h y.2XxX%X X{.).E.9._.]. X{. X'.E.W.+.E.E.E.E.W.{ %.;.;.;.*.;.%.t a i.yX5XH.M.r.Z.Z.Z.Z.Z.3.y ",
"B gXAXyXoXx.x.z.M 9 4 6 6 6 6 6 { (.(.(.(.(.].]./.E.W._.{.{.{.{.].).)./.E.W./.)._.X.| j 6 6 6 6 0 c p.@X>X$XH.M.Z.F.Z.Z.Z.F.2.y ",
"B gXbX,X,XyXkXuXi.d - = - = o o 0. X X'.].].{.].).9.+._.{.{. X{.{.{.{._.W.W._.}.}.Q.o.| ; = * o ; V tX3XU.H.Z.Z.Z.Z.Z.Z.Z.F.4.y ",
"B uXaX#X-X3XzXyXn.z.z.Z Z m l : t.].].].{.{.}.'./.W.W._.{.{.{.{.{.'.}./.W.Q.[.{. XQ.R.X.A A M > > C pXzXI.e.N.Z.Z.Z.Z.Z.Z.Z.3.y ",
"B gXaX#XD.K.J.#X1XhXnXnXeXb  X~.`.].].].}.].W.W.^.'.'.].{.{.{.{.'.E.R.W.+.Q._.{. XQ.R.X.nXnXtXd 1 V pXzXI.Z.Z.Z.Z.Z.Z.F.Z.e.*.e ",
"B gXzX$XS.A.h.D.$X3XaX7X-Xl [.}.[.[.].{.{.'.W.E.!.[.].[.].{.{.{.'.+.R.o.+.W._.{.}.Q.o.X.7X7XJ.s > B iXsXP.Z.Z.S.H.Z.H.F.Z.%.7 $ ",
"C tX2Xa.>.>.1.1.1.d.a.a.-.t ].[.].[.[.[.[.'.W.+.!.].[.].{.].{.{.`.E.9.E.+.W._.{.].W.R.X.2.a.-.7 9 i.pXyXf.>.>.,.>.,.>.>.;.y + . ",
"p.OXj.g q q r q q q q q 8 q w t | E.W.E.E.E.E.+.+.E.Q._.{.].{.].[.'.].'.].`.!.W.E.E.+...e e e 7 g c.hX@Xx e q e w w q e q & . + ",
"h.h.#.: - - = = = - = = = : s -.} X.O.+.E.E.+.E.9.E.W._.{.{.].{.{.}.{.{.{.'.+.O.O.O.o.| = * 9 g k.3XnXx.= X @ % = = = = = * * 0 ",
"A.h.p.i.D D z.D D D D z.D x.c.2X<.<. .^.^.^.^.^.^.^.^.'.{.{.{.{.{.[.{.{.{.`.} } } } j b i.z.x.@XlXHXAXD o @ 0 v i.D z.D z.z.i.j.",
"d.#X3XhXkXjXkXkXkXkXkXkXnXkXnXZXGXnXp.[.}.[.}.}.{.[.}.{.{.}.{.{.{.{.].{.{.~.b hXhXkXnXjXkXkXnXNXSXSXpXC * 0 >.-XyXkXkXlXkXnXhX-X",
"u.<XaXaXlXlXzXzXbXfXaXaXfXlXlXyXfX2Xu.[.}.[.}.{.{.[.{.{.{.{.[.[.{.{.].].}.~.c lXsXzXsXzXzX7XzX7XaXsX1Xc = c -XzXzXsXsXsXsXsX3Xl.",
"N yXzX-X#X#X#X#XL.-X#X$XL.-XL.L.>Xk.<.}.}.`.} b 8 W.!.) E E 0.Q.!.Q.!.Q.!.Q.| X.X.D.$XP.#X#X$X#XU.U.B.t - N tXzX:XU.P.$XI.$XB.#.",
"B gXfXJ.h.C.C.h.C.A.C.A.h.A.C.C.C.2.k }.}.}.3Xj.& O.9.R I I 7.R.+.+.+.E.R.R.E.+.W.5.S.F.C.M.M.M.M.S.4.e - S pXMXI.Z.M.M.Z.Z.3.t ",
"B gXlXK.C.A.A.J.A.A.A.J.A.A.A.A.C.t.<.}.}. X8X&X8 R.E.R R R 8.R.+.+.o.o.R.R.E.9.Q.t.&Xt.S.B.A.S.S.S.2.e - D pXMX$XZ.Z.N.Z.S.2.y ",
"B gXlX#Xh.A.A.J.A.A.A.A.D.A.A.A.~.[.[.[.[.}.}.}./.W.R.R.E.+.+.+.+.o.o.E.o.E.R.+.9.].{.'.Z.S.S.B.B.S.4.e - S iXbX$XC.C.S.S.S.3.y ",
"B gXfXK.A.h.A.A.J.A.A.A.A.A.A.A.0.].[.[.[.}.[.[.).E.o.E.+.+.+.+.+.+.E.o.+.o.R.E.+. X{.'.C.S.A.B.S.S.2.e - C iXlXA.M.S.Z.Z.Z.2.t ",
"B gXaXL.h.A.A.J.A.A.A.A.A.A.A.C.t.'.].].{.}.}.[.).W.+.+.+.+.+.+.+.+.o.E.+.+.7.7.8.'.{.'.=.=.1.A.S.S.2.q ; A uXtX-.-.f.F.H.H.3.u ",
"V gXfX#Xh.A.A.A.J.A.h.D.J.A.A.A.C.e.{ ].[.[.[.[./.Q.+.+.R.E.E.+.E.R.R.R.+.7.U R W (.{.].~.`.@.g.S.S.s.r = C eX+X9 t ;.s.4.f.>.t ",
"c.kXlXJ.C.A.A.A.J.A.J.A.A.A.J.J.D.d.k `.`.`.'././.7.8.7.8.8.8.8.7.8.8.8.9.7.I I I (.].].].{.@.f.S.S.2.q * v j.y.o @ 7 r e q e q ",
"OXNXaX#Xh.h.J.A.A.A.A.A.A.A.C.A.S.d.g [ [ { 6.6.6.^ ~ ^ ^ ^ ^ ~ ~ ^ ^ ^ ^ ~ I I U 0./.^.^.^. .d.S.S.2.r $ f a.=.; * * = = = ; 0 ",
"oXnXfXJ.h.h.D.J.A.A.J.A.A.A.A.A.J.s.g @ ; :.Q P I I I I I I I I I I I I I I I I U 7.E.o.+.o.[ s.S.H.2.r % h l.l.N m m m m m m h ",
"i.gXfX#XC.A.A.A.A.A.A.A.J.A.A.S.A.s.f @ , j.! I I I I I I I I I I I I I I I I I I 7.o.o.+.o.[ s.S.S.2.q = N tXnXiXuXuXuXtXuX@XC ",
"M uXzXJ.A.h.A.A.A.J.J.J.A.A.A.A.J.s.u + 1 c.! I I I I I I I I I I I I I I I I I I R R R +.9.j d.S.D.d.q - D jXSXmXzXlXbXlXbX2Xy.",
"B gXlX#Xh.h.A.J.A.A.A.A.A.A.A.J.S.s.f + 1 n.! I I I I I I I I I I I I I I I I I I I I U +.+.[ d.S.A.d.r > D gXSX>X$X$X$X$X>Xg.x ",
"B gXlX#Xh.h.J.A.A.A.J.h.D.A.A.A.S.d.g @ < v.] P P I I I I I I I I U P L I I I I I I I U +.o.[ 2.C.C.a.e - Z gXbX#XC.C.B.C.S.2.y ",
"V gXlX-XA.A.A.J.h.A.A.A.A.A.A.A.J.d.i @ 2 qXpXL.3 P I I I I I I H wXnXG L I I I I I I U o.E.E.E.O.&.1.q = Z gXlXU.C.C.C.A.C.2.u ",
"V jXlXL.A.h.J.A.J.A.A.A.A.A.J.A.A.g.g @ 1 qXkXk.3 L I I I I I I H wXnXG L I I I I I U U +.+.E.E.o.v 1.r = C gXbX#XC.C.C.S.S.2.t ",
"B eX3Xk.g.A.A.A.J.A.J.A.A.A.J.A.C.1.f * 2 qXhXJ.5 Q Q Y Y R R R K c b 5 H Q Q Q Q Q Q Q @.X.X.E.o.x >.r , A pXxX#XC.A.A.A.S.>.u ",
"< V N z *.d.J.A.A.J.S.D.h.A.A.J.1.z l c i.@X1XL.s.m.4.X.+.9.9.+.o.O.X.j i :.r.r.m.N.m.m.5.4.} E.O.f x l N c.2X3XK.M.A.S.S.S.2.u ",
"O , , 9 x >.g.d.h.A.J.H.B.A.B.M.$.0 c b.tX-X#XA.h.h.d...R.+.+.+.R.R.E.j 8 #.s.h.g.h.A.A.D.h.} E.O.0 9 N +X2X#X#XM.M.M.A.A.J.s.i ",
"OXXXXXXXXXXXoXoXoXOXXXG J F F J ,.v.oXOXOXOXOXoX5.j j ..+.+.+.+.+.o.o.R.k.XXoXoXoXXXOXOXOXOX&X=X=XOXXXXXOXOX.XF F F F F k.+XXXXX",
"HXHXHXHXHXHXHXHXHXHXKX] U U T W *XDXHXHXJXHXHXFX=XR.X.R.+.+.+.+.E.E.R.~.DXHXHXHXHXHXHXHXJXJXJXJXDXJXHXHXJXJXFX( R ~ R R cXKXHXHX",
"vXvXvXvXvXvXvXvXvXvXBXq.] ! J J G.cXvXvXvXvXvXcX=X9.7.Q.|.E...| ..7.O.0.8XvXvXvXvXBXvXvXvXBXBXBXvXBXvXBXBXBXcX6.] _ J J 8XBXBXBX",
"' / ! ` ' ' ` ` ' ' ! cXKX1X+ + F W ! ' ` ! ! ` ! W ( 8XKXDX= X # R ~ ~ / / ' ' ' / ! ' ' ` / ` ' ' ' ` ' ] ) cXGXc + + _ ` ' ] ",
"E E T T T T T T T T T vXKX2X  . F I T T T T T T T T ' 8XKXKXO   # Y T T E T T T T E E T E E E E E E E E E E ) FXGXl     K ~ ~ ~ ",
"E T E T T E T E T T W BXKX2X  . F T T U T T T T T T ( 8XKXKXO   + R E E T T E E E E T T E E E E E E E E E ~ ) FXGXl     K ~ ~ ~ ",
"y.1X6XV.m.V.m.V.Y.5XsXmXSXyXN * d T.sXP.r.r.m.m.m.m.m.I.k.a.t $ a n.sX4XV.V.V.V.H.Y.dXdXdXdXT.h 9 y.1X6XH.r.V.$X#Xg.1.1.r.w.%.w ",
"B iXyXJ.g.d.d.g.J.L.,X,X,X.Xv = d tXfXT.f.g.g.h.g.g.h.s.*.0 = X a wXnX3XA.g.f.d.g.J.T.-X-X,Xk.0 , C uXsXJ.4.f.f.f.g.h.M.4.$.4 X ",
"i.<Xv.=.#.#.#.#.x $.#.x z x t 6 N tXtXp.#.g z #.#.#.#.z q @ . $ h @XyXl.$.#.#.$.#.#.#.$.$.#.g 7 f x.pXrX=.#.#.z z #.$.$.g 4 . X ",
"g.k.$.4 $ % $ % $ % $ $ $ & 7 x v.bXwXs & $ $ $ $ $ $ @ X . X r u.L.l.g & $ $ $ $ $ @ @ $ $ & w u.2XnXx.9 $ $ $ $ $ $ $ $ X . & "
};
