/* XPM */
static char *result[] = {
/* columns rows colors chars-per-pixel */
"64 64 253 2 ",
"   c #060808",
".  c #170809",
"X  c #03140A",
"o  c #070A17",
"O  c #160615",
"+  c #031A16",
"@  c #081519",
"#  c #041B1B",
"$  c #15161B",
"%  c #042219",
"&  c #13231B",
"*  c #272218",
"=  c #071825",
"-  c #0D1228",
";  c #151926",
":  c #032423",
">  c #052828",
",  c #142728",
"<  c #0A382B",
"1  c #072A38",
"2  c #162935",
"3  c #063639",
"4  c #173937",
"5  c #2D3335",
"6  c #4A0E0F",
"7  c #6C120F",
"8  c #563B07",
"9  c #06463D",
"0  c #124438",
"q  c #2C4334",
"w  c #5B5317",
"e  c #785709",
"r  c #6D5716",
"t  c #726418",
"y  c #4F522E",
"u  c #75692B",
"i  c #093A48",
"p  c #163A45",
"a  c #11354B",
"s  c #283B45",
"d  c #333C48",
"f  c #074647",
"g  c #174747",
"h  c #095148",
"j  c #16564A",
"k  c #094653",
"l  c #194B57",
"z  c #0A5657",
"x  c #15575A",
"c  c #274548",
"v  c #255658",
"b  c #325051",
"n  c #395958",
"m  c #116257",
"M  c #17665C",
"N  c #29645B",
"B  c #2F685A",
"V  c #0C5C64",
"C  c #175A64",
"Z  c #0D5F70",
"A  c #345964",
"S  c #086467",
"D  c #186769",
"F  c #097B68",
"G  c #157968",
"H  c #0B6D75",
"J  c #176A76",
"K  c #087776",
"L  c #057B7B",
"P  c #0C7C7B",
"I  c #13747B",
"U  c #197679",
"Y  c #147B7C",
"T  c #276A6A",
"R  c #366867",
"E  c #27786B",
"W  c #39756B",
"Q  c #286C75",
"!  c #257577",
"~  c #495656",
"^  c #556A53",
"/  c #61665C",
"(  c #4F7675",
")  c #447976",
"_  c #9A2121",
"`  c #D10806",
"'  c #CA1819",
"]  c #D51717",
"[  c #EC0606",
"{  c #F70700",
"}  c #FF0000",
"|  c #E6190F",
" . c #F71701",
".. c #F41B00",
"X. c #FE2600",
"o. c #F42F06",
"O. c #FD2B01",
"+. c #E72A28",
"@. c #926F0C",
"#. c #A97704",
"$. c #B17700",
"%. c #B67D00",
"&. c #BA7E00",
"*. c #B66C12",
"=. c #9B6A25",
"-. c #C56C00",
";. c #C47200",
":. c #C57900",
">. c #D57A04",
",. c #3C805E",
"<. c #088870",
"1. c #05837C",
"2. c #08867B",
"3. c #15847B",
"4. c #258679",
"5. c #318A76",
"6. c #4E8B6F",
"7. c #57877C",
"8. c #6E8E6C",
"9. c #BB8101",
"0. c #B88204",
"q. c #A5872E",
"w. c #C28402",
"e. c #CA8704",
"r. c #D68703",
"t. c #CC9416",
"y. c #EB9404",
"u. c #F89A01",
"i. c #F69016",
"p. c #FAA405",
"a. c #E9A418",
"s. c #F7A818",
"d. c #FCAD1A",
"f. c #FFB217",
"g. c #F7B71B",
"h. c #FFB21B",
"j. c #D89F21",
"k. c #DCAA28",
"l. c #F1B024",
"z. c #85904A",
"x. c #A7B169",
"c. c #F3B44B",
"v. c #156F81",
"b. c #0B7586",
"n. c #057D84",
"m. c #0B7C84",
"M. c #047D8A",
"N. c #0B7D8A",
"B. c #137C84",
"V. c #197984",
"C. c #12758B",
"Z. c #127B8A",
"A. c #077B93",
"S. c #0D7C92",
"D. c #117993",
"F. c #277D88",
"G. c #5E7D87",
"H. c #048385",
"J. c #0A8284",
"K. c #038B84",
"L. c #0C8A87",
"P. c #04838B",
"I. c #0A838B",
"U. c #028A8C",
"Y. c #158686",
"T. c #12838B",
"R. c #11948E",
"E. c #19948A",
"W. c #048492",
"Q. c #0B8392",
"!. c #058A93",
"~. c #148491",
"^. c #258887",
"/. c #328E8F",
"(. c #27978A",
"). c #289996",
"_. c #2B9C9D",
"`. c #34999A",
"'. c #18A093",
"]. c #28A39B",
"[. c #34AA94",
"{. c #39A69A",
"}. c #2C9DA2",
"|. c #349BA2",
" X c #28A3A4",
".X c #38A8A4",
"XX c #3AB2AE",
"oX c #458987",
"OX c #588886",
"+X c #4D978F",
"@X c #688E91",
"#X c #78989A",
"$X c #4CA795",
"%X c #6BA59B",
"&X c #4D99A4",
"*X c #739AA1",
"=X c #46A8A6",
"-X c #46BBA8",
";X c #53B3AD",
":X c #66A8A7",
">X c #76AAA7",
",X c #6BB9B8",
"<X c #73B4B0",
"1X c #4DC4B2",
"2X c #5AC6B9",
"3X c #64C6BC",
"4X c #77C4B6",
"5X c #72D2BC",
"6X c #58BDC3",
"7X c #6EBBC2",
"8X c #5AC6C3",
"9X c #5DD4CA",
"0X c #64C5C4",
"qX c #6AD6CA",
"wX c #76D5CA",
"eX c #74D0CD",
"rX c #79D8D7",
"tX c #71E4D5",
"yX c #7AE5DB",
"uX c #73DBE3",
"iX c #7DE6E5",
"pX c #879797",
"aX c #8D9BA5",
"sX c #83B3B0",
"dX c #8BCEB9",
"fX c #86C9C8",
"gX c #96C9CB",
"hX c #8BD6CA",
"jX c #93D4CB",
"kX c #97D8CB",
"lX c #88D9D7",
"zX c #98DAD4",
"xX c #A3D2D8",
"cX c #88E5D6",
"vX c #87EBD0",
"bX c #84E4DB",
"nX c #8AE5DD",
"mX c #85EBDD",
"MX c #98E6D9",
"NX c #95F7D9",
"BX c #ACECD7",
"VX c #A6E7D8",
"CX c #8FD7E2",
"ZX c #ADDEE8",
"AX c #89E9E4",
"SX c #97E6E4",
"DX c #8FF4EF",
"FX c #9AF5E7",
"GX c #AAE9E7",
"HX c #B2EDED",
"JX c #A3F4E7",
"KX c #A6F5F4",
"LX c #C5E8F5",
/* pixels */
"D Q <XzXhXhXjXjXjXjXjXjXkXzXjXgXxXsXj % f R :XjXzXjXjXzXlXlX&XU D D +XrXlXhXjXhXjXjXjXjXjXzXkXgXjXkX:X4 > N W dXgXjXjXjXjXlX,XE ",
"^.(.qXiXyXbXAXAXcXbXbXcXnXnXbXnXnXeXg : v 5.4XlXlXbXAXAXiXiX;XT E ^.-XiXAXmXbXbXbXAXcXbXbXbXnXAXAXlX,X4 i G.+XlXAXAXlXAXAXyX0XT ",
"4XqXXX X}._.|.`.}.}._. X_._._.}. X^.> o #XgX&X[.}.|.`. X X.XT 2 7.rX1X X X_.|.`.`.}.}.]._._._._.}. X! , ~ xX7X{.`.}._.]. X].4.2 ",
"hXyX X!.P.n.m.m.N.M.P.H.P.n.H.I.W.H : O aXZX=X2.n.M.n.n.P.3.p $ 7.FX8X!.P.M.m.B.n.M.P.H.H.J.n.P.Q.P.V @ ~ LXzXE.H.M.b.M.K.L.x O ",
"jXyX XP.P.H.m.m.N.M.P.H.P.H.H.P.W.L >   aXSX=XK.M.A.A.I.L.B.4 $ 7.FX8XQ.P.H.H.m.m.M.P.P.P.H.H.H.U.U.S # n HXrX).U.W.A.I.L.Y.x @ ",
"jXbX}.M.P.P.H.m.N.N.P.P.H.n.H.H.U.L > X <XAX.XH.M.A.Q.I.T.Y f $ ( FX8XT.P.P.J.m.m.N.M.P.H.H.H.M.U.!.S : A KXrXE.M.A.W.Q.I.B.x + ",
"hXnX|.N.P.K.H.n.N.M.P.H.n.m.L N.P.P > X :XAX.Xn.A.W.A.N.B.v.p @ OXJX6X~.P.H.H.n.m.N.P.P.H.n.m.m.I.P.S : B KXyXE.n.A.A.P.N.V.x + ",
"jXnX}.N.P.H.n.m.I.W.P.n.m.m.P m.J.H : X :XAX`.H N.W.W.N.V.! f % OXFX8XT.M.H.n.m.N.I.P.H.J.m.P b.I.I.D # B DXyXV.H W.W.N.m.v.x + ",
"hXAX}.M.P.m.B.m.U.!.I.N.L.H.L m.B.J =   pXSXR 1 Z D.T.V.V.U f % 7.FX9X~.M.n.m.B.n.U.!.J.m.U.J.L B.Z.C X ~ HXfXg i b.~.Y.U V.x @ ",
"jXAX}.M.I.m.m.N.U.!.P.N.I.U.n.m.Z.J ; . #XzXA = l J ! D Q Q g & 7.FX8XQ.M.n.m.B.P.!.U.Z.P.U.H.n.m.Z.v $ ~ VXfX, 1 J v.Q Q J x # ",
"MXlX|.b.P.K.H.J.U.P.P.M.P.P.n.M.I.H % X B 5.0 + 1 a 1 2 i i f j %XKX0X^.n.P.H.m.N.P.P.P.P.W.M.m.N.Q.m + < oX6.% = i 1 , 1 i f j ",
"MXMX&Xb.U.U.P.J.M.N.P.P.P.M.M.M.P.L % X j ,.0 $ ; - - - - 1 g T ,XKX7XF.N.U.K.J.m.N.M.P.P.W.M.M.Q.P.S % 9 5.E & o - - ; - - 3 N ",
"kXnX|.I.P.H.H.m.P.P.P.P.W.P.M.P.Q.K % X 6.5X4XaX<X<X<X>X<X,X) 4 +XJX6X~.S.I.J.m.I.P.P.P.P.W.P.M.I.P.S % q 5X5XsX<X<X<X<X>X<X+Xp ",
"zXbX XP.P.m.m.m.W.W.I.N.P.P.M.M.I.H :   %XBXBXNXbXiXAXmXAXDXG.= 7.FX8XR.P.P.m.m.I.P.P.I.P.P.M.M.I.W.S + ~ HXJXNXNXmXmXmXAXDX<X; ",
"jXyX}.P.H.n.n.m.P.!.I.P.N.N.N.N.P.H %   pXMX1X[.'.].].'.].`.v $ 7.FX8X!.M.n.m.m.H.W.P.J.n.N.m.N.N.P.x # b BXvX[.].).].'.].).Q $ ",
"kXyX XW.M.n.m.m.P.W.P.H.m.b.m.b.I.K >   #XMXXX2.K.!.K.K.Y.! p $ 8.SX;X~.P.n.I I b.I.W.P.n.Z.b.B.N.M.V # n GXcXE.2.U.U.2.K.Y.C @ ",
"zXmX XP.P.P.n.m.N.M.P.P.n.m.m.J.P.H :   #XZXXXH.P.k _ ] ] ] ] ` ] +.+.] ' ' ' 6 I M.P.H.J.m.m.n.I.P.S = A HXSXE.M.A.A.n.M.I.x O ",
"jXnX XP.P.M.N.m.N.b.M.P.H.m.H.J.H.L >   #XZX.XH.S.a ` } } } } } } } } } } } [ 6 H b.N.I.H.n.n.n.J.U.S : ~ LXCX'.P.S.D.D.N.T.z @ ",
"dXvX`.C.A.A.S.N.b.L N.b.Q.W.n.T.P J > o aXZX=X! ! 5 ` } } } } } } } } } } } [ 7 A Q Q Q Q F.Q Q 3.P D % ~ LXlXE.H.S.D.C.Z.2.z + ",
"kXhX`.C.D.A.~.Z.n.n.T.N.M.M.N.B.Y G > # >XVX@X| } } } } } } } } } } } } } } } } } } } } } } { ' U U M > A LXlX'.K.n.m.N.I.2.D % ",
"b b a k b.Q.I.H.1.J.n.N.N.I.J.L k f +X:X:X=X( [ } } } } } { } } } } } } } } } } } } } } } } } ' C 3 x +X:X&X`.L.K.P.I.P.I.m.x # ",
"* $ = 3 D v.P 2.2.1.H.H.N.T.Y.H.3 2 5XDX{.J.E ..............X.O.O.o.o.o.X. ...O.O.O.] ] ] ] ] _ z @ p eX3X3.2.K.U.P.W.P.I.Z.C o ",
"@X%X>X@X9 1 > 3 F 2.1.K.J.J.K.2.3 2 fXDX.X2.E :.;.;.-.$.$.-.;.i.s.d.d.d.u.;.-.u.p.k.( E T W W J z o p lX9XP L P.P.M.A.D.Q.S.Z - ",
"dXNXNXdX4 $ ; 2 M F K K K P <.K f p 7XAX$X! W e.w.w.&.&.w.w.0.s.l.h.h.h.p.:.w.p.f.k.W E E E E ! z = v eX0XT.m.S.Q.A.S.D.S.A.Z - ",
"hXvX$X$X<X<X>X#Xv < 3 1 i 3 3 9 7.:X=X|.@.@.@.p.p.p.w.9.u.p.p.f.l.h.h.h.s.9.w.u.f.d.i.i.i.i.>.=.N :X:X=X).P.M.M.W.W.W.S.Q.U.S = ",
"kXMX[.5.tXyXNXkXc @ o o o o o o :XlX`.P @.0.:.d.f.p.w.w.u.h.f.h.h.h.h.l.u.&.:.p.d.h.d.h.d.d.l.*.A SXrX^.n.P.W.A.W.W.W.P.P.K.V = ",
"xXSX[.2.XX-X;X:X&X*X&XG.OX( ; O *XMX/.Y #.0.e.l.f.f.w.w.u.g.s.f.l.h.h.h.p.w.e.u.s.g.h.h.d.h.d.*./ BXdX! P N.M.N.A.W.P.H.K.2.z # ",
"xXFX].2.K.2.I /.fXCXnXbXcXfX5 . pXxX/.U @.0.e.h.h.p.e.&.w.w.0.a.h.h.h.h.d.s.s.y.0.e.d.f.d.h.d.l.l.l.^ Q B.m.N.I.Q.M.M.H.1.F h o ",
"CXCX}.P.H.J.Y V..XXX[.[.[.+X> o #XzX/.<.#.0.e.g.h.p.w.&.%.%.%.s.h.h.h.d.f.f.d.r.9.w.d.f.h.h.h.h.h.h.y J 1.H.H.P.U.H.2.I D 0 & . ",
"CXuX}.Z.Y Y V.P 1.1.<.<.<.M > + >XlX).<.@.0.w.d.h.p.w.0.9.&.9.s.h.f.d.h.d.f.f.r.&.w.a.f.f.f.f.f.d.d.y G 1.L K.H.K.K.I U v $ . O ",
"XX=Xv.k i p k k k f f h 9 h 9 9 ,XcXG h @.9.9.9.w.e.s.d.d.d.d.d.d.h.d.h.p.e.w.&.&.&.w.9.9.w.9.e 6.BX4XM f k k k k z f p 2 o $ p ",
"!.Q.i - ; = - - - - > = , < M G 5XhXf # @.&.%.$.$.:.s.h.h.h.f.h.h.d.h.d.p.w.&.&.9.9.&.9.9.%.#.r [.FXwX4 @ = - - - = : ; @ @ < D ",
"P.b.oXOX7.6.7.OXG.G.G.OXOX+X:X;XcXjX4 o w r t u u t a.h.h.h.h.d.h.h.h.h.d.y.y.y.u.y.y.y.y.@.t ^ 3XJXdX, : f g ( @XOX7.( OXOXoXY.",
"T.).eXNXNXvXNXJXHXZXJXFXKXKXDXDXFXjX4   j 5.5XNXVX^ k.h.d.d.h.h.h.h.h.h.h.h.h.h.g.f.f.f.g.JXKXFXSXFXsX, > 4.[.hXJXJXJXJXJXKXlXF.",
"&X-X1X8X1X1X;X3X4X7X0X2X0X6X8X2X0X;X4 O ) $X1X2X,Xn j.h.h.d.h.h.h.h.h.h.f.f.h.h.f.f.f.f.f.4X8X8X8X0XOX, s :X;X2X0X0X3X0X0X0X&Xv ",
"fXyX XR.2.3.Y.Y.T.~.R.T.~.T.I.T.~.J ; . aXVX6.q.@.@.w.e.e.r.e.r.e.>. . .o.r.:.w q y k.f.f.5.T.I.I.T.D ; ~ LXjX(.Y.T.T.L.R.Y.D - ",
"kXAX XP.H.n.n.m.M.M.P.H.H.M.M.H.U.H =   aXBX@Xe.&.&.&.9.9.&.&.&.&.-.} } ..;.$.* S 5.k.f.f.4.H.m.P.P.S = ~ LXlXE.M.M.M.n.H.J.x o ",
"jXAX}.P.P.H.n.m.N.N.P.P.H.H.H.H.U.L : X pXxX8.e.&.&.%.&.%.&.%.&.&.$.....o.&.#.8 ,.6.l.g.f.6.5.5.U.!.S : ( KXrX).H.A.W.W.J.Y.x @ ",
"jXbX}.M.P.U.M.m.N.N.P.H.n.L n.J.!.L > + l.g.g.:.&.9.9.%.9.%.&.&.&.&.&.&.9.%.&.u.g.g.f.f.f.g.h.q.Y.U.S : n DXtXY.n.A.W.M.m.V.x + ",
"hXlX}.N.P.H.J.m.I.M.P.H.n.m.v.m.J.L > X l.h.s.&.%.%.0.&.%.&.%.%.&.&.&.&.&.&.w.u.f.h.f.f.f.f.f.q.T.P.S % N DXyXE.n.W.A.M.m.V.x + ",
"jXbX|.M.P.H.n.m.U.!.P.J.m.n.L b.B.C , . a.h.l.;.-.-.&.&.%.&.&.&.&.&.&.&.&.&.9.u.f.f.f.h.f.s.s.=.B.Z.C # n FXyXT H S.S.Z.B.V.x @ ",
"jXAX}.M.N.N.m.m.U.!.I.N.L.P.n.m.V.u t.t.h.h.i. ... .-.0.%.0.9.&.9.9.9.9.9.9.w.p.f.f.f.f.f.6.5.E B.Z.C $ ~ HXfX4 i v.V.V.U U x # ",
"zXMX|.M.H.H.J.I.P.!.I.N.P.P.M.m.U =.h.f.d.f.i.{ } } -.;.;.;.;.;.;.;.;.;.-.-.>.u.u.a.a.a.s.^.P.N.N.N.m + c 4X%X> = k k l l l k < ",
"MXnX&Xb.U.U.P.m.m.N.P.P.P.P.n.N.Y t y.y.u.u.>.{ } }  .O.O.O.O.X.X.X.O.O.O.O.O.o.o.o.=.t r Y M.M.Q.P.m % < <.G % o o - o o = 3 N ",
"lXlX&XN.U.U.H.m.N.I.P.P.W.P.M.N.Y w %.&.&.&.-.{ } } } } } } } } } } } } } } } } { ] Q m.I.P.M.N.U.U.S % 0 6.5.q g g c c s l l v ",
"kXAX}.M.P.H.H.m.P.U.I.M.P.P.M.I.Y w &.&.&.&.-.} } } } } } } } } } } } } } } } } { ] ! I.P.W.P.P.Q.P.S + b BXNXVXVXSXMXMXlXSX<X< ",
"kXAX XP.P.n.m.m.W.!.I.n.P.M.N.N.I w &.&..... .} } } } } } } } } } } } } } } } } } ] ! I.M.P.P.b.I.I.S @ ~ JXNXvXwXqX9XqXqXrX&X; ",
"kXmX_.P.P.m.m.m.I.W.P.P.N.b.m.N.B.w 9.%.{ } } } } } } } } } } } } } } } } } } } } ] ! I.n.b.Z.m.N.H.S @ n HXlX(.2.!.'.2.R.Y.C o ",
"zXyX].U.P.n.m.m.m.P.P.H.n.b.P Y U w 9.&.{ } } } } } } } { [ [ } } } } } } } } } [ ' ! H.n.n.m.m.P.P.S # b ZXAXE.P.W.A.H.P.L.D O ",
"zXbX XP.P.H.m.m.N.N.P.P.J.L z #.%.%.9.&.{ } } } } } } [ 7 3.s ` } } } } } } [ 6 J b.M.U.P.P n.J.P.U.S = ~ HXCXE.M.A.D.D.N.I.x o ",
"dXbX X!.M.m.m.Z.b.D.M.P.H.n.k #.9.9.%.$.{ } } } } } } [ 7 2.4 ` } } } } } } { 6 I C.M.P.P.P.J.m.K.H.S % ~ HXnXE.M.S.D.D.S.T.x @ ",
"dXtX_.Z.B.B.Z.V.C.C.A.W.!.M.k 0.&.@.@.@.+.+.] ] ' ' ' ' 7 q * ` ..........] ] * v.C.A.!.W.!.M.B.Y.K M : R KXrX^.n.P.!.Q.Q.D.z @ ",
"OX+XC Z v.D.K.I.C.C.P.H.!.M.z #.%.w n ^ @X%XoXT T ! ! T e #.#.&.$.$.-.;.@.T Q U b.D.N.P.P.W.P.m.J x j R oX5X2X^.J.P.P.M.I.~.C + ",
"X . o 1 J J.K.H.Z.V.J.L.I.m.x #.&.r sXGX$X4.Y m.L.L.~.E e 9.&.&.&.&.&.9.@.D 2.L.n.Z.n.H.K.P.P.L j o d gXdXE U Y J.L.L.B.Z.Z.D @ ",
"5 5 s s C V H K I B.2.H.J.B.R.c.c.u dXDX$XU 2.L.U.U.H./ 0.0.%.&.&.&.&.&.#.e e L I V.2.K.K.N.L.L.x o s lXeXI K J.U.U.P.B.Z.~.D X ",
"dXdXMX<Xa = = 1 D V.3.2.3.Y 2.3.1 2 7XDX{.P n.P.U.U.I.V.t.0.0.%.9.&.&.&.%.#.%.c.i J 3.<.3.U 3.J.x o p lX9XK L H.U.K.!.~.V.Y.x o ",
"dXNXbX,XT x v v v l l j x m m m l A ,XqX}.P.N.W.U.U.I.B.8.u t e q.x.x.8.z.z.z.x.v l l l j x x m x d R 8X-Xm.n.I.P.U.P.B.B.B.x X ",
"vXyX{.).qXrXAXgXd - - o = : = : *XlX`.Y.m.P.N.N.M.P.J.J.3.B.f % 6.NX3X(.[.tXbXzXaXa - - # : % : @ ; lX/.N.P.N.N.N.H.H.H.B.T.x + ",
"kXvX`.^.8X9XwX,X( d d s c s # o :XbX`.B.P.!.S.D.M.P.n.L 2.Y.i % 7.FX3X3.).9XqXwX:XA d s s c 4 o     rX~.n.W.!.D.S.N.H.L n.I.V # ",
"dXvX`.V.T.^.! /.7XCXzXzXzXdX5   :XyX`.v.M.W.A.D.b.P.J.K.U.P.f $ 7.FX3XY.Y F.F.4.+XhXzXMXkXkX@X*     tX^.N.W.W.D.S.M.H.J.K.W.V + ",
"xXSX}.H.2.K.I /.lXKXFXNXJXkX5 O #XzX`.U B.N.S.N.N.P.H.1.<.F 0 $ G.KX8XL.2.2.2.! +XSXKXDXFXFX*X* d gXzXF.P N.N.N.N.I.n.H.1.<.j @ ",
"zXSX XK.1.1.3.Y..X1XXX1X1X+X2   #XzX/.P J.J.P.P.U.H.P U j < $ - @XKX8XL.1.K.B.U Y.XX-XXX-X;X) $ b ZXzX^.1.H.I.P.P.P.J.3.G 0 , O ",
"fXuX`.I U U J H L 2.F F G M > + %XlXE.F K L L L 2.P H v , . O - G.DX6Xm.I J I J H F F <.F G j : N HXhX3.K K J.L L L H D j $ O O ",
"XXXXZ i i i i k i i 9 9 9 9 h h 4XcXE f f f i k k f i 3 - O 2 k |.XX/.k i i a k f i 9 9 9 9 9 h 5.JX5XM f i k i f k f i , @ ; p "
};
