/* XPM */
static char *result[] = {
/* columns rows colors chars-per-pixel */
"64 64 253 2 ",
"   c #030101",
".  c #0D0301",
"X  c #180803",
"o  c #19110F",
"O  c #240E05",
"+  c #270E05",
"@  c #3E0700",
"#  c #251206",
"$  c #2B1206",
"%  c #2B140B",
"&  c #371708",
"*  c #281613",
"=  c #2C1A15",
"-  c #2D1C19",
";  c #331D17",
":  c #392314",
">  c #2B1E20",
",  c #2C2223",
"<  c #372625",
"1  c #342A2B",
"2  c #3C2D2C",
"3  c #3A2F35",
"4  c #570B07",
"5  c #451D0B",
"6  c #7E0901",
"7  c #49220D",
"8  c #55240D",
"9  c #563D01",
"0  c #482617",
"q  c #562A16",
"w  c #5D2B14",
"e  c #5A3017",
"r  c #6C310B",
"t  c #622D14",
"y  c #642B19",
"u  c #6B331A",
"i  c #743314",
"p  c #73361A",
"a  c #75391D",
"s  c #7C3A1A",
"d  c #452D27",
"f  c #5A382A",
"g  c #473737",
"h  c #4F3732",
"j  c #693A26",
"k  c #753D24",
"l  c #643E31",
"z  c #6F4D06",
"x  c #5E453B",
"c  c #7E4225",
"v  c #78432A",
"b  c #714D2D",
"n  c #6A4436",
"m  c #794934",
"M  c #383853",
"N  c #5C3940",
"B  c #3C405C",
"V  c #5B4746",
"C  c #6D4F49",
"Z  c #78534A",
"A  c #6A5655",
"S  c #6B5655",
"D  c #745A57",
"F  c #7A5E5D",
"G  c #7D605E",
"H  c #7A5F60",
"J  c #7D6262",
"K  c #8A0402",
"L  c #BC1700",
"P  c #BB1E12",
"I  c #C11301",
"U  c #E70700",
"Y  c #FF0000",
"T  c #FD0A01",
"R  c #ED180A",
"E  c #FF1600",
"W  c #F81106",
"Q  c #FF1A01",
"!  c #EA280C",
"~  c #FF2101",
"^  c #FB2C02",
"/  c #EB3401",
"(  c #FB3300",
")  c #FA3802",
"_  c #FF381A",
"`  c #FF3B1C",
"'  c #FF3E22",
"]  c #845A00",
"[  c #905216",
"{  c #A95107",
"}  c #8B6100",
"|  c #986901",
" . c #A77204",
".. c #AB7500",
"X. c #B67B01",
"o. c #B97E00",
"O. c #BA6618",
"+. c #824426",
"@. c #834529",
"#. c #8B4A29",
"$. c #994C28",
"%. c #9A522B",
"&. c #824C33",
"*. c #8A5138",
"=. c #995536",
"-. c #A2542E",
";. c #B0522B",
":. c #A75A36",
">. c #B75E34",
",. c #AB653B",
"<. c #B4633C",
"1. c #B86338",
"2. c #BA633A",
"3. c #B07534",
"4. c #CB5E00",
"5. c #FF4A03",
"6. c #FF5306",
"7. c #FA4A1D",
"8. c #C96600",
"9. c #CA7205",
"0. c #D94F33",
"q. c #D45839",
"w. c #FF4424",
"e. c #FF4828",
"r. c #FF5C20",
"t. c #C5693D",
"y. c #CC6D3E",
"u. c #D16E3F",
"i. c #885A49",
"p. c #9B5C43",
"a. c #895E54",
"s. c #AB4E49",
"d. c #88645A",
"f. c #996653",
"g. c #AA6547",
"h. c #B76742",
"j. c #BB6B43",
"k. c #BC6E4A",
"l. c #BC704A",
"z. c #A96A54",
"x. c #AE7155",
"c. c #BA7455",
"v. c #866966",
"b. c #97736B",
"n. c #A77668",
"m. c #B77B68",
"M. c #A57D76",
"N. c #A37E79",
"B. c #B37E76",
"V. c #D75F44",
"C. c #C56E44",
"Z. c #CC6F43",
"A. c #C46F48",
"S. c #C57146",
"D. c #CC7145",
"F. c #C5734B",
"G. c #CA744A",
"H. c #C7784F",
"J. c #D17244",
"K. c #D1754B",
"L. c #CE6F50",
"P. c #C47753",
"I. c #CB7750",
"U. c #CB7A55",
"Y. c #CC7D5A",
"T. c #D67953",
"R. c #D47B54",
"E. c #D27E5A",
"W. c #C57E63",
"Q. c #BA8204",
"!. c #C78501",
"~. c #CB8300",
"^. c #D58903",
"/. c #DC8B00",
"(. c #DA8B15",
"). c #F79A01",
"_. c #F09112",
"`. c #E4A109",
"'. c #FEA302",
"]. c #FCA709",
"[. c #EAA213",
"{. c #FCAD19",
"}. c #FFB117",
"|. c #FFB11B",
" X c #F5A723",
".X c #B6866E",
"XX c #BA866D",
"oX c #B5896E",
"OX c #AD837A",
"+X c #B78675",
"@X c #CE805E",
"#X c #D3815D",
"$X c #DD845E",
"%X c #D79F5E",
"&X c #F9B554",
"*X c #CB8568",
"=X c #D48563",
"-X c #DC8662",
";X c #DA8965",
":X c #D28769",
">X c #D5896A",
",X c #DB8C6B",
"<X c #C88B76",
"1X c #D08E77",
"2X c #D9947B",
"3X c #E28A67",
"4X c #F1916C",
"5X c #E39375",
"6X c #E5997B",
"7X c #FAB36E",
"8X c #736F8A",
"9X c #897C97",
"0X c #AC8782",
"qX c #B48B87",
"wX c #B6908C",
"eX c #BD928A",
"rX c #C18881",
"tX c #CA9689",
"yX c #DB9A84",
"uX c #D69A88",
"iX c #C89B97",
"pX c #CC9D95",
"aX c #D29D94",
"sX c #E49E84",
"dX c #E69E86",
"fX c #DAA18E",
"gX c #CEA098",
"hX c #DBA394",
"jX c #D7A59B",
"kX c #DBA69A",
"lX c #E4A28B",
"zX c #E8A289",
"xX c #F3A68B",
"cX c #FFB788",
"vX c #E4A693",
"bX c #EAA592",
"nX c #EDAA95",
"mX c #E3AB9D",
"MX c #EBAC9C",
"NX c #F1AC99",
"BX c #EFB19E",
"VX c #F1B196",
"CX c #CFA6B5",
"ZX c #E6AEA1",
"AX c #EAB3A7",
"SX c #F3B6A4",
"DX c #F6BEB1",
"FX c #FFCFA2",
"GX c #FFD4A7",
"HX c #FFD4A9",
"JX c #CCACC1",
"KX c #D3B6C7",
"LX c #D3B4CB",
/* pixels */
"z.n.rXJXKXKXKXKXKXKXLXKXLXLXLXLXLXJX9XB 3 Z B.CXLXLXLXLXLXLXCXqXx.z.m.iXJXLXLXLXLXLXLXLXLXLXLXLXLXLXCX8XM N f.rXCXLXLXLXLXLXJXiX",
"g.W.yXnXMXMXmXZXMXmXMXMXZXMXMXmXBXaXd., % i.1XbXnXMXMXMXMXMXyXc.:.L.;XdXbXZXbXNXMXNXMXnXnXnXMXNXnXNXuXD = j k.5XbXNXnXnXNXNXbXW.",
"i.1XsX,X>X>X;X>X>X>X>X;X>X;X=X;X=XY.v * ; n.sX5X=X;XE.3X;X3Xc.k l B.dX6X-X-XE.3X-X-X-X-X3X3X$X-X;X3XU.k = Z *XdX3X-X-X$XE.3XL.=.",
"A pXdXU.S.S.F.S.S.F.G.G.S.A.G.G.G.j.p + 2 0XdXE.Z.C.A.L.D.L.%.7 d qXNX5XL.y.L.L.Z.Z.Z.Z.Z.Z.u.D.J.J.>.y - a.aXxXT.V.y.Z.J.Z.q.i ",
"A iXdXU.C.C.S.S.S.S.S.S.G.C.D.G.G.2.p # 2 0XlX-XZ.C.C.Z.L.D.$.5 2 qXBX5XK.t.y.Z.Z.y.y.Z.Z.y.y.Z.Z.Z.>.t = F aXxXT.y.y.u.u.u.>.i ",
"D iXdXY.S.S.G.F.G.D.G.G.S.G.G.S.C.j.s + 2 0XvX=XD.Z.S.D.D.K.-.5 2 qXMX5XR.Z.C.Z.Z.L.Z.Z.Z.Z.J.Z.u.J.>.t = F aXxXT.u.y.y.J.u.q.i ",
"S iXdXY.S.S.F.S.S.G.G.S.G.S.F.F.G.j.p # 1 0XvX=XC.A.D.G.G.K.-.7 2 wXZX6XK.Z.D.Z.Z.Z.Z.J.Z.Z.Z.J.J.J.1.r ; F pXxXT.u.y.J.u.u.;.i ",
"A iXdXU.j.F.S.G.F.S.G.G.S.F.S.G.S.j.p O 1 0XuXg.%.1.A.D.K.J.-.7 2 wXZX6XK.Z.Z.D.J.Z.Z.Z.Z.Z.Z.J.J.J.2.t - v.pXyX,.>.y.u.J.u.>.i ",
"A pXzXU.S.S.S.G.G.S.F.G.F.S.F.G.G.h.p # 1 OXOXl 8 $.t.C.C.L.-.5 d wXZX5XK.S.J.Z.D.D.Z.D.J.Z.Z.Z.J.J.>.t - d.tXB.e i ;.u.y.u.;.i ",
"d.jXsXY.A.S.G.F.S.G.F.F.S.F.G.F.K.h.a # < n.f., X t #.$.$.$.s 8 l tXMX2XK.C.L.Z.Z.D.Z.D.Z.J.Z.Z.J.J.>.t = Z B.a.* & +.$.$.$.[ r ",
"XXmXsXY.A.S.G.F.G.F.F.F.S.F.G.S.G.h.a O = =.*.*   O & & & & 8 u g.aXBX5XK.G.D.D.D.D.Z.J.Z.G.Z.Z.Z.J.>.y $ k g.&.X X & & @ 5 4 8 ",
"<XmXyXY.S.F.S.F.F.F.S.F.F.G.F.G.G.2.p + % *.p.h < < < < 2 d d k g.vXAX5XK.C.D.D.D.L.D.Z.Z.Z.J.Z.J.J.>.y $ j g.p.d < < d < < d w ",
"f.hXsXY.l.S.F.F.F.F.F.F.G.S.G.F.G.h.p + = b.tX+XN.N.N.N.N.N.v.l C uXMXsXL.Z.Z.D.D.D.D.D.D.C.D.J.Z.J.2.y * Z W.uX+XM.N.N.OXM.b.Z ",
"A iXdXU.S.F.F.F.F.F.S.G.F.G.D.G.G.h.a + < 0XDXSXMXMXBXMXBXMX+Xf 3 qXZX5XL.Z.G.Z.D.D.D.D.D.D.Z.D.J.J.>.t = F aXDXSXNXMXNXnXSXyXa.",
"A gXlXY.S.S.F.F.F.F.F.F.G.S.F.S.G.2.k # 2 qXMXdX,X,X,X,X5X5Xg.d 2 0XZX5XK.C.G.Z.D.D.D.D.D.Z.D.D.Z.K.>.t - H kXNX5X3X;X3X3X3XY.v ",
"S pXsXY.S.S.F.F.F.F.G.F.F.G.F.G.L.h.k + 1 0XvX>XI.G.I.I.K.K.-.7 d 0XbX5XL.D.Z.Z.D.D.D.D.D.D.D.D.J.J.>.t - d.aXxXE.K.K.K.T.K.2.s ",
"A pXdXY.A.F.F.F.F.F.F.F.G.F.G.F.G.h.p + 1 0XyX=XC.y Y Y Y Y Y Y Y Y Y Y Y Y Y 4 G.D.C.G.D.D.L.Z.Z.J.2.t - H aXxXT.Z.y.Z.y.Z.>.i ",
"S gXzXU.S.F.F.F.G.F.F.G.G.F.F.F.G.j.p O 1 0XvX=XC.y Y Y Y Y Y Y Y Y Y Y Y Y Y 4 C.D.D.D.D.D.D.G.J.J.t.t = F aXnXT.Z.Z.Z.Z.J.>.i ",
"S jXlXY.F.F.F.F.G.F.F.F.F.F.G.G.G.j.p X 1 0XvX=XA.y Y Y Y Y Y Y Y Y Y Y Y Y Y 4 L.D.D.D.D.C.L.L.J.J.1.t * F aXxXT.C.Z.Z.D.D.>.i ",
"V N.m.g.<.k.F.F.F.G.F.F.F.G.F.S.j.:.k d V +XdXW Y Y Y Y Y Y Y Y Y Y Y Y Y Y Y Y Y Y Y Y Y Y Y U y.1.%.y h v.uX6XT.D.Z.D.D.D.>.i ",
", h x e +.h.G.I.H.F.F.F.F.F.G.S.=.k l a.b.<X=XW T Y Y Y Y Y Y Y Y Y Y Y Y Y Y Y Y Y Y Y Y Y Y U >.#.u l d.W.>X-XK.Z.u.D.u.J.1.i ",
"o , < d j #.:.,.h.j.G.F.G.G.I.F.#.& V qXmX>XY./ / / / / / / / 6.6.6.6.6.5./ / 5.6.5.! ! ! R R P ;.r & S tXsXE.G.D.D.D.D.D.J.2.i ",
"3 G b.v.n f & q +.<.G.G.G.I.I.G.+.& V iXSX,XS.X.X.Q.Q.X.Q.Q.Q.|.|.|.|.|.'.~.o.'.}.}.T.J.J.J.J.J.:.w * S kXdXT.Z.u.D.D.J.D.J.1.i ",
"A gXDXgXd.h , < j #.:.=.%.=.:.-.k h S tXbX:XI.o.X.Q.X.X.Q.X.Q.|. X|.|.|.'.~.o.'.|.}.t.:.-.%.%.-.$.y d d.uX5XT.Z.D.D.D.D.D.D.1.i ",
"A jXAXyX.Xb.b.v.C q 7 5 5 5 7 7 l a.m.<X] } } ).'.'.Q.X.).'.'.|.|.|.|.|.|.^.Q.).|.|._._._._._.t.e n d.XX:X$XK.C.y.D.J.D.D.D.1.i ",
"A pXlX>X1XuXjXiXd.d > - = = o o h OXuX=X .Q.Q.|.|.].X.Q.).|.|.|.|.|.|.|.].^.o.'.|.|.|.|.|. X X(.< D tX2XE.G.J.Z.D.D.D.D.D.J.2.i ",
"A iXlX@X=X2XlX2XB.v.v.F F A g o g eXbX=X .Q.Q.{.|.].Q.X./.[.[.|.|.|.|.|.]./.^.).[.[.{.}.|.|.|._.v 3.OXxXK.A.Z.D.D.D.D.D.D.D.1.i ",
"A gXlXU.H.H.U.@X2XhXmXmXZXpXG * g eXbX=X .X.Q.{.|.].Q.X.X.Q.Q.|.|.|.|.|.|.|.|./.X.Q.[.}.|.|. X|.|.{.f dXR.Z.Z.G.G.D.D.J.D.t.%.w ",
"A gXzX@XF.G.H.H.#X2XsX6X6X:Xi.* g wXnX;X..Q.Q.{.|.].o.o.o.o.!.}.|.|.|.|.|.|.|./.Q.X.[.}.|.|.|.|.{.|.x zXT.D.G.D.J.D.G.D.D.%.8 $ ",
"D tX2Xg.:.:.:.,.,.h.g.g.g.:.u & x eXfXc...Q.Q.[.}.`.o.Q.Q.9.Q.}.|.|.}.|.|.}.}./.Q.X.[.}.{.}.}.}.|.{.n 2Xj.:.:.>.:.:.>.>.-.u $ . ",
"p.XXz.j e e t t w w w w y e w w i.pX<Xm ..X.Q.Q.o.^.|.|.|.|.|.|.|.|.}.}.'.^.o.o.X.Q.o.X.o.o.o.} v n.jXXXc t y t u t t t 8 & . O ",
"F.c.v 0 = = = = = = = = = ; f =.*XkXM.2 ..Q.Q.X.o.~.|.|.|.|.|.|.|.|.|.|.'.!.o.X.o.o.X.o.o.o.o.] c.sXkXb.= X O $ % = = = = * * q ",
"H.l.z.d.v.J v.v.v.J J v.v.v.n.2XBXAXb., z } } z ] | |.|.|.|.|.|.|.|.|.|.]./././././././.^.] ] 9 zXSXAXJ o $ 8 m d.v.v.J v.v.v.z.",
"h.@X1XhXjXjXjXkXjXjXjXjXZXjXmXAXAXZXv.> & b *XuXfXb |.|.|.|.|.|.|.|.|.|.|.}.}.}.}.}.}.}.}.hXmXvXSXDXhXD = q =.>XyXjXhXvXhXmXfX*X",
"p.<XlXyXlXyXlXlXlXlXsXlXfXlXsXyXlX1Xi.* : f.6XlXlXb |.|.|.|.|.|.|.|.|.}.|.}.}.}.|.|.}.}.}.zX6XsXzX6X:Xn = n *XzXdXdXdXdXdXdX5Xx.",
"D tXlX=X@X@X@X@X@X@X@X@X=X@XE.W.@Xc.v # < OXfXO.|  .!.!.!.9.!.~.9.!.T T ~ 8.!.8 j f (.}.}.@X#XE.#XE.k.j = C tXxX;XE.T.E.E.E.A.@.",
"A pXlXH.j.F.F.l.F.F.S.l.l.F.F.S.H.h.p # 1 0XvXo.o.9.Q.Q.o.o.X.X.o.o.Y Y T 4.o.& A.A. X|.}.S.L.A.D.D.2.t - J gXnXE.C.C.Z.Z.D.>.u ",
"A pXlXU.F.F.F.F.F.F.F.P.F.F.F.F.H.<.u # 1 0XvXo.o.o.Q.Q.o.o.o.o.o.o.Y Y T 8.Q.: F.F. X{.}.S.A.I.G.G.<.y - J gXnXE.D.D.Z.L.D.>.i ",
"A gXlX@XS.l.F.H.F.F.F.F.F.F.F.P.P.h.k # [. X|.!.X.X.Q.X.o.o.o.o.o.o.9.X.o.o.Q.).|.|.|.}.}.|.|.(.D.G.<.w = H pXbX#XD.G.G.G.G.<.p ",
"A gXlXU.F.l.H.F.P.H.F.F.F.F.F.F.F.h.a # {.|.|.Q.Q.Q.Q.X.o.o.o.o.o.o.o.o.o.o.o.'.}.}.}.}.|.}.|.(.D.G.<.t = F pXlXP.C.C.G.D.G.1.u ",
"A gXyX@Xl.l.H.H.F.F.F.F.F.F.F.F.l.*.e & {.|.|.9.8.8.o.o.o.o.o.o.o.o.o.o.o.o.9.'.}.}.}.}.}. X_.9.S.K.h.t - G iX1X=.%.C.D.K.K.2.p ",
"D iXlX@XS.F.F.H.H.H.P.F.F.F.F.F.j.[  X|.|.|.|.T Y Y o.o.o.o.o.o.o.o.Q.9.o.o.Q.'.}.}.}.}.}.G.J.G.G.G.h.t - G eXB.0 u -.2.2.j.:.u ",
"n.kXlXP.l.F.F.F.H.l.P.F.H.F.P.F.j.[ {.|.|.|.|.T Y T o.o.o.X.o.o.Q.X.Q.Q.o.o.o.'.}.}.|.|.}.S.S.L.G.G.<.y % n n.i.o + 8 t t w w w ",
"XXZXlXY.F.l.H.F.F.F.F.F.F.F.F.F.3.z /.)._.).).E Y Y ( ( ( ( ( ( ( ( ( ( ( ( ( 5.6.6.{ [ [ G.G.S.G.I.<.t % j p.*., * * = = = & q ",
".XmXfXP.l.F.F.H.F.F.F.F.F.H.F.F.,.9 ..X.o.9.Q.W Y Y Y Y Y Y Y Y Y Y Y Y Y Y Y Y T Y 0.S.F.F.G.F.G.G.<.e % j x.x.Z V V V V V V n ",
"d.gXlXY.l.F.F.F.H.F.P.F.F.F.F.F.,.9 ..o.8.X.X.W Y Y Y Y Y Y Y Y Y Y Y Y Y Y Y Y Y Y 0.G.G.S.F.G.G.G.<.t * Z tXZXgXiXiXpXiXiXqXZ ",
"A iXlXY.l.H.F.F.P.F.F.P.P.F.F.P.<.9 X.X.Y Y Y Y Y Y Y Y Y Y Y Y Y Y Y Y Y Y Y Y Y Y q.G.F.G.F.S.G.G.2.t - J gXDXMXbXlXbXbXnX2XZ ",
"A iXlXY.F.l.l.H.F.F.F.F.F.F.F.F.,.9 X.o.Y Y Y Y Y Y Y Y Y Y Y Y Y Y Y Y Y Y Y Y Y Y q.F.G.F.F.G.H.U.h.t - J gXBX,X@X#X#X#X#Xl.v ",
"A gXlXY.F.l.P.F.F.F.H.F.F.c.F.F.,.9  .Q.Y Y Y Y Y Y Y Y Y Y Y Y Y Y Y Y Y Y Y Y Y Y q.G.G.F.F.F.G.G.,.t - H gXbX@XS.S.S.S.G.<.p ",
"A gXlXY.F.l.F.P.P.F.F.P.F.F.m Q.X.Q.X.X.Y Y Y Y Y Y Y Y K F.-.Y Y Y Y Y Y Y Y 4 S.G.F.F.F.F.G.G.G.G.<.e * F gXlXY.S.S.S.S.G.<.u ",
"S gXbXY.F.l.l.H.F.H.F.F.F.F.m Q.X.Q.Q.Q.Y Y Y Y Y Y Y Y K k.$.Y Y Y Y Y Y Y Y 4 F.G.F.F.F.G.F.F.G.H.2.t * F pXbX#XS.S.F.D.G.<.u ",
"A eXyXc.k.F.H.F.l.P.F.F.F.F.m o.Q...| | Y Y Y Y Y Y Y Y 6 0 & Y Y Y Y Y Y Y T 4 P.F.G.F.F.F.G.F.F.j.g.u < d.pXbX@XS.S.F.S.G.<.u ",
"2 S Z c =.h.U.H.H.P.F.H.F.P.m Q. .z b b s.W.T.V.q.q.t.V.r | | 8.8.8.4.4.{ ;.q.,.H.G.F.F.F.G.F.F.j.=.k l Z n.1X2XY.S.F.S.S.I.<.u ",
"o > > : u :.h.l.l.l.F.H.F.F.&.o.| 9 x b.tX:XY.H.F.S.F.F.z Q.X.o.o.o.o.X.} %.1.j.j.S.F.F.F.G.G.G.,.i 0 C qX1X=XI.F.S.F.S.G.G.h.a ",
"OXoXoXoXL L L L L c.oXoXoXoXXX&X&X%X.X+X+X.XoXoXoXoXoX.X!.Q.X.Q.o.o.o.o...] z .XoXoXoXoXoXoX.X2.I I I I I XX.X.XoXoXoX.XoX.X.X.X",
"HXHXHXHX~ ~ ~ Q ~ cXGXGXGXGXGXGXGXGXGXGXGXGXHXGXHXGXGXGX[.X.Q.X.o.o.o.o.o.o.o.&XGXGXHXHXGXGXGX7XQ E E E E GXGXGXHXHXGXGXGXGXGXGX",
"HXGXHXGX~ Q ~ ^ ~ cXGXGXGXGXHXGXGXHXGXGXGXGXGXGXGXGXGXGX`...Q.Q.o.o.Q.Q.Q.Q.X.&XHXHXGXHXHXHXHX7XE E E E E HXGXHXGXGXGXGXGXGXGXGX",
"e.w.7.w.@ @ p.cXcXr.e.w._ w.e.e.` ` w.e.w.` _ w.e.w._ _ ( / / # # $ cX7X%Xr./ 7.' _ _ ' w.' ` ! @ @ 4XcXcXe.e.w._ ` e.e.w._ ` w.",
"~ ~ ~ ~     d.GXGX) ~ E Q Q E E E E Q Q E E E E Q E E E Q Q R       GXFX7Xw.E E E E E E E E E U .   VXGXGXQ E E E E E E E E E E ",
"~ ~ ~ ~ .   d.GXGX) ~ ~ Q Q Q E E E Q Q Q E Q Q Q E E E E Q U       GXFX7Xw.E E E E E E E E E U .   VXHXHXQ Q E E E E Q E E E Q ",
"A gXlXY.H.H.H.@X1XvXMXZXAXaXd.- g eXvX>XP.F.F.F.l.P.F.F.h.=.k % 2 wXZXsXR.P.I.P.Y.2XMXMXMXMXtXx , D pXzXY.F.G.G.G.H.G.G.F.<.#.8 ",
"S gXyXF.j.j.j.l.H.*X*X:X:Xc.m % g tXvX@Xl.j.l.l.l.l.l.h.=.q & X 2 wXmX2XF.j.j.j.k.P.:X*X*X:Xx.0 , F pXsXP.j.j.j.S.l.j.j.j.+.7 X ",
"a.1Xm.*.+.+.+.c +.@.@.c c c u 0 Z tXuXf.@.c c @.+.+.+.v e O . % n +X1Xx.#.+.+.@.+.c c @.#.@.a q f b.gX<X*.+.c +.c +.+.#.c 7 X X ",
"l.c.m 7 $ $ % $ $ % $ $ $ & 7 +.XXhXOXf $ $ $ $ $ $ $ # X . X e :.Y.x.v & $ $ $ $ $ $ $ $ $ & t g.1XmXb.0 $ $ $ # $ $ $ $ X . % "
};
